M48
;DRILL file {KiCad 4.0.2-stable} date Friday, May 27, 2016 'pmt' 03:11:11 pm
;FORMAT={-:-/ absolute / inch / decimal}
FMAT,2
INCH,TZ
T1C0.016
T2C0.031
T3C0.038
T4C0.040
T5C0.120
%
G90
G05
M72
T1
X0.5945Y-1.2795
X0.6102Y-1.4449
X0.6693Y-1.4449
X0.689Y-1.8937
X0.7835Y-1.2677
X0.7992Y-1.8898
X0.9016Y-0.9055
X0.9291Y-2.5433
X1.0236Y-2.5433
X1.0256Y-0.9035
X1.1457Y-0.937
X1.2421Y-0.9035
X1.2598Y-2.1142
X1.2657Y-1.3268
X1.2677Y-0.7087
X1.2717Y-2.6102
X1.3209Y-2.1772
X1.3602Y-1.3346
X1.4272Y-1.7028
X1.4291Y-1.9567
X1.5079Y-1.8504
X1.5236Y-1.9567
X1.5276Y-1.8228
X1.5669Y-1.9409
X1.5709Y-2.626
X1.5945Y-1.8858
X1.6142Y-2.5433
X1.626Y-2.3898
X1.6299Y-0.7087
X1.6339Y-1.626
X1.6358Y-1.3071
X1.6358Y-2.1181
X1.6929Y-1.7008
X1.7126Y-1.8858
X1.7146Y-0.9035
X1.752Y-0.9409
X1.752Y-1.9488
X1.8543Y-1.7047
X1.8543Y-1.8386
X1.8622Y-0.9035
X1.8622Y-2.5787
X1.878Y-0.7047
X2.0591Y-2.0157
X2.1575Y-2.0157
X2.1575Y-2.2323
X2.1575Y-2.3898
X2.1575Y-2.5394
X2.1831Y-1.3071
X2.185Y-2.1772
X2.185Y-2.6024
X2.1969Y-1.8386
X2.2283Y-0.7047
X2.2638Y-1.6496
X2.3051Y-1.2874
X2.3051Y-1.3563
X2.4409Y-1.7638
X2.4409Y-1.811
X2.4724Y-0.9035
X2.4724Y-2.252
X2.4823Y-1.2579
X2.4823Y-1.3563
X2.4843Y-1.563
X2.5217Y-0.9823
X2.5315Y-1.4055
X2.5354Y-1.5295
X2.5394Y-1.6949
X2.5472Y-2.0472
X2.5472Y-2.1732
X2.5512Y-2.4409
X2.5709Y-0.9094
X2.5709Y-1.9961
X2.6024Y-1.878
X2.6378Y-1.2953
X2.6417Y-2.0472
X2.6457Y-1.878
X2.685Y-2.1732
X2.7677Y-1.4055
X2.811Y-1.2835
X2.811Y-1.874
T2
X1.3189Y-2.2402
X1.3209Y-1.2402
X1.3976Y-2.2402
X1.3996Y-1.2402
X1.4764Y-2.2402
X1.4783Y-1.2402
X1.5551Y-2.2402
X1.5571Y-1.2402
X1.6339Y-2.2402
X1.6358Y-1.2402
X1.7126Y-2.2402
X1.7146Y-1.2402
X1.7913Y-2.2402
X1.7933Y-1.2402
X1.8701Y-2.2402
X1.872Y-1.2402
X2.0591Y-1.5236
X2.0591Y-1.6024
X2.0591Y-1.6811
X2.0591Y-1.7598
X2.0591Y-1.8386
X2.0591Y-1.9173
T3
X2.6024Y-2.1063
X2.6811Y-2.1063
X2.7598Y-2.1063
T4
X0.678Y-1.3661
X0.778Y-1.3661
X0.878Y-1.3661
X2.7126Y-1.9567
X2.8126Y-1.9567
T5
X0.7598Y-0.7362
X0.7598Y-2.7047
X2.7283Y-0.7362
X2.7283Y-2.7047
T0
M30
