G04 #@! TF.FileFunction,Copper,L2,Bot,Mixed*
%FSLAX46Y46*%
G04 Gerber Fmt 4.6, Leading zero omitted, Abs format (unit mm)*
G04 Created by KiCad (PCBNEW 4.0.2-stable) date Friday, May 27, 2016 'pmt' 03:10:38 pm*
%MOMM*%
G01*
G04 APERTURE LIST*
%ADD10C,0.100000*%
%ADD11R,0.800100X0.800100*%
%ADD12R,0.848360X0.294640*%
%ADD13R,0.279400X0.698500*%
%ADD14R,1.648460X2.397760*%
%ADD15R,1.800000X1.600000*%
%ADD16R,2.032000X2.032000*%
%ADD17O,2.032000X2.032000*%
%ADD18R,1.727200X2.032000*%
%ADD19O,1.727200X2.032000*%
%ADD20R,0.500380X0.800100*%
%ADD21R,1.897380X1.897380*%
%ADD22R,1.897380X1.899920*%
%ADD23R,1.897380X1.795780*%
%ADD24R,1.597660X2.095500*%
%ADD25R,1.346200X0.398780*%
%ADD26C,1.500000*%
%ADD27R,1.500000X1.500000*%
%ADD28R,1.800000X3.000000*%
%ADD29C,4.064000*%
%ADD30C,1.524000*%
%ADD31R,0.698500X0.248920*%
%ADD32R,0.248920X0.698500*%
%ADD33R,2.499360X2.499360*%
%ADD34C,0.600000*%
%ADD35C,0.300000*%
%ADD36C,0.160000*%
%ADD37C,0.152400*%
G04 APERTURE END LIST*
D10*
X14300000Y-13700000D02*
X74300000Y-13700000D01*
X74300000Y-73700000D02*
X74300000Y-13700000D01*
X14300000Y-73700000D02*
X74300000Y-73700000D01*
X14300000Y-13700000D02*
X14300000Y-73700000D01*
D11*
X62000000Y-31849900D03*
X62000000Y-33450100D03*
X62400100Y-24500000D03*
X60799900Y-24500000D03*
X57499900Y-43000000D03*
X59100100Y-43000000D03*
X57449900Y-50900000D03*
X59050100Y-50900000D03*
X57449900Y-49150000D03*
X59050100Y-49150000D03*
X44600100Y-42000000D03*
X42999900Y-42000000D03*
X44600100Y-40300000D03*
X42999900Y-40300000D03*
X39800000Y-39500100D03*
X39800000Y-37899900D03*
X40599900Y-46600000D03*
X42200100Y-46600000D03*
D12*
X57526800Y-46898220D03*
X57526800Y-46397840D03*
X57526800Y-45900000D03*
X57526800Y-45402160D03*
X57526800Y-44901780D03*
X60473200Y-44901780D03*
X60473200Y-45402160D03*
X60473200Y-45900000D03*
X60473200Y-46397840D03*
X60473200Y-46898220D03*
D13*
X59248920Y-47398600D03*
X58751080Y-47398600D03*
X59248920Y-44401400D03*
X58751080Y-44401400D03*
D14*
X59000000Y-45900000D03*
D15*
X55300000Y-45100000D03*
X55300000Y-42300000D03*
D16*
X68900000Y-49700000D03*
D17*
X71440000Y-49700000D03*
D18*
X22300000Y-34700000D03*
D19*
X19760000Y-34700000D03*
X17220000Y-34700000D03*
D11*
X57550000Y-32000100D03*
X57550000Y-30399900D03*
X59900000Y-31849900D03*
X59900000Y-33450100D03*
X63250000Y-46200100D03*
X63250000Y-44599900D03*
X63050100Y-50900000D03*
X61449900Y-50900000D03*
X63250000Y-43200100D03*
X63250000Y-41599900D03*
X61449900Y-49150000D03*
X63050100Y-49150000D03*
X47100100Y-47900000D03*
X45499900Y-47900000D03*
X47100100Y-49500000D03*
X45499900Y-49500000D03*
X38200000Y-39500100D03*
X38200000Y-37899900D03*
D20*
X59950040Y-27051120D03*
X60900000Y-27051120D03*
X61849960Y-27051120D03*
X59950040Y-29448880D03*
X61849960Y-29448880D03*
D21*
X71652200Y-39901120D03*
D22*
X71652200Y-42298880D03*
D23*
X71652200Y-44899840D03*
D24*
X69102040Y-38001200D03*
D25*
X68975040Y-39802060D03*
X68975040Y-40452300D03*
X68975040Y-41100000D03*
X68975040Y-41747700D03*
X68975040Y-42397940D03*
D24*
X69102040Y-44198800D03*
D23*
X71652200Y-37300160D03*
D11*
X57550000Y-26999900D03*
X57550000Y-28600100D03*
D26*
X47500000Y-56900000D03*
X45500000Y-56900000D03*
X43500000Y-56900000D03*
X41500000Y-56900000D03*
X39500000Y-56900000D03*
X37500000Y-56900000D03*
D27*
X33500000Y-56900000D03*
D26*
X35500000Y-56900000D03*
X47550000Y-31500000D03*
X45550000Y-31500000D03*
X43550000Y-31500000D03*
X41550000Y-31500000D03*
X39550000Y-31500000D03*
X37550000Y-31500000D03*
D27*
X33550000Y-31500000D03*
D26*
X35550000Y-31500000D03*
X52300000Y-38700000D03*
X52300000Y-40700000D03*
X52300000Y-42700000D03*
X52300000Y-44700000D03*
D27*
X52300000Y-48700000D03*
D26*
X52300000Y-46700000D03*
D28*
X60770000Y-38700000D03*
X58230000Y-38700000D03*
D29*
X69300000Y-68700000D03*
X19300000Y-68700000D03*
X69300000Y-18700000D03*
X19300000Y-18700000D03*
D30*
X66101020Y-53500000D03*
X68100000Y-53500000D03*
X70098980Y-53500000D03*
D31*
X37600080Y-44549680D03*
X37600080Y-44049300D03*
X37600080Y-43548920D03*
X37600080Y-43051080D03*
X37600080Y-42550700D03*
X37600080Y-42050320D03*
D32*
X38250320Y-41400080D03*
X38750700Y-41400080D03*
X39251080Y-41400080D03*
X39748920Y-41400080D03*
X40249300Y-41400080D03*
X40749680Y-41400080D03*
D31*
X41399920Y-42050320D03*
X41399920Y-42550700D03*
X41399920Y-43051080D03*
X41399920Y-43548920D03*
X41399920Y-44049300D03*
X41399920Y-44549680D03*
D32*
X40749680Y-45199920D03*
X40249300Y-45199920D03*
X39748920Y-45199920D03*
X39251080Y-45199920D03*
X38750700Y-45199920D03*
X38250320Y-45199920D03*
D33*
X39500000Y-43300000D03*
D34*
X63100000Y-39700000D03*
X58550000Y-32700000D03*
X58550000Y-34450000D03*
X63050000Y-34450000D03*
X63050000Y-31950000D03*
X64050000Y-24950000D03*
X64300000Y-35700000D03*
X70300000Y-35700000D03*
X66100000Y-47700000D03*
X62000000Y-46000000D03*
X62000000Y-44800000D03*
X57500000Y-41900000D03*
X42999900Y-43199900D03*
X36250000Y-43250000D03*
X22900000Y-23000000D03*
X26000000Y-64600000D03*
X41000000Y-64600000D03*
X23600000Y-64600000D03*
X54800000Y-64500000D03*
X43550000Y-22950000D03*
X62800000Y-22950000D03*
X47300000Y-22950000D03*
X31550000Y-22950000D03*
X65300000Y-23100000D03*
X26050000Y-22950000D03*
X64800000Y-62000000D03*
X47100000Y-46700000D03*
X65300000Y-50700000D03*
X52300000Y-51200000D03*
X54800000Y-51200000D03*
X54800000Y-60700000D03*
X41300000Y-60700000D03*
X54800000Y-56700000D03*
X55800000Y-46700000D03*
X47100000Y-43300000D03*
X41400000Y-18000000D03*
X32200000Y-18000000D03*
X56600000Y-17900000D03*
X47700000Y-17900000D03*
X67000000Y-32900000D03*
X71400000Y-32600000D03*
X68200000Y-55200000D03*
X64700000Y-55200000D03*
X64700000Y-52000000D03*
X67100000Y-52000000D03*
X67200000Y-47700000D03*
X71400000Y-47600000D03*
X47300000Y-65500000D03*
X55500000Y-66100000D03*
X32300000Y-66300000D03*
X39900000Y-66700000D03*
X20300000Y-48000000D03*
X17500000Y-48100000D03*
X19900000Y-32200000D03*
X15100000Y-32500000D03*
X15500000Y-36700000D03*
X17000000Y-36700000D03*
X62800000Y-57200000D03*
X41550000Y-33200000D03*
X55450000Y-33200000D03*
X41500000Y-41300000D03*
X32150000Y-33700000D03*
X34550000Y-33900000D03*
X36300000Y-49700000D03*
X38700000Y-49700000D03*
X44500000Y-23900000D03*
X29100000Y-23800000D03*
X41550000Y-53800000D03*
X32000000Y-53700000D03*
X44500000Y-49500000D03*
X38300000Y-47000000D03*
X39800000Y-49300000D03*
X43500000Y-47900000D03*
X38800000Y-46300000D03*
X40500000Y-47900000D03*
X55500000Y-55300000D03*
X33550000Y-55300000D03*
X64500000Y-43050000D03*
X64400000Y-38850000D03*
D35*
X68975040Y-39802060D02*
X63202060Y-39802060D01*
X63202060Y-39802060D02*
X63100000Y-39700000D01*
X57550000Y-32000100D02*
X57850100Y-32000100D01*
X57850100Y-32000100D02*
X58550000Y-32700000D01*
X58550000Y-34450000D02*
X63050000Y-34450000D01*
X62000000Y-29598920D02*
X61849960Y-29448880D01*
X62000000Y-31849900D02*
X62000000Y-29598920D01*
X63050000Y-31950000D02*
X62999900Y-31899900D01*
X62000000Y-31849900D02*
X62999900Y-31899900D01*
D36*
X60473200Y-46397840D02*
X59497840Y-46397840D01*
X59497840Y-46397840D02*
X59000000Y-45900000D01*
X57526800Y-45402160D02*
X58502160Y-45402160D01*
X58502160Y-45402160D02*
X59000000Y-45900000D01*
X42200100Y-46600000D02*
X42200100Y-45349860D01*
X42200100Y-45349860D02*
X41399920Y-44549680D01*
X40249300Y-41400080D02*
X40249300Y-42550700D01*
X40249300Y-42550700D02*
X39500000Y-43300000D01*
X41399920Y-44549680D02*
X40749680Y-44549680D01*
X40749680Y-44549680D02*
X39500000Y-43300000D01*
X37600080Y-44549680D02*
X38250320Y-44549680D01*
X38250320Y-44549680D02*
X39500000Y-43300000D01*
D35*
X61849960Y-27051120D02*
X61849960Y-25050140D01*
X61849960Y-25050140D02*
X62400100Y-24500000D01*
X63600000Y-24500000D02*
X62400100Y-24500000D01*
X64050000Y-24950000D02*
X63600000Y-24500000D01*
X70300000Y-35700000D02*
X64300000Y-35700000D01*
X62000000Y-46000000D02*
X63049900Y-46000000D01*
X63049900Y-46000000D02*
X63250000Y-46200100D01*
X60473200Y-45900000D02*
X61900000Y-45900000D01*
X61900000Y-45900000D02*
X62000000Y-46000000D01*
X64500000Y-47700000D02*
X63250000Y-46450000D01*
X66100000Y-47700000D02*
X64500000Y-47700000D01*
X63250000Y-46450000D02*
X63250000Y-46200100D01*
D36*
X62000000Y-46000000D02*
X61900000Y-45900000D01*
D35*
X60473200Y-44901780D02*
X61898220Y-44901780D01*
X61898220Y-44901780D02*
X62000000Y-44800000D01*
D36*
X57500000Y-41900000D02*
X57499900Y-41900000D01*
X57499900Y-41900000D02*
X57500000Y-41900000D01*
X57500000Y-41900000D02*
X57499900Y-41900000D01*
D35*
X57499900Y-43000000D02*
X57499900Y-41900000D01*
X57499900Y-41900000D02*
X57499900Y-39430100D01*
D36*
X57499900Y-39430100D02*
X58230000Y-38700000D01*
D35*
X57526800Y-44901780D02*
X57526800Y-43026900D01*
D36*
X57526800Y-43026900D02*
X57499900Y-43000000D01*
X62949900Y-45900000D02*
X63250000Y-46200100D01*
X57449900Y-39480100D02*
X58230000Y-38700000D01*
X55300000Y-42300000D02*
X55300000Y-42574980D01*
D35*
X55300000Y-42574980D02*
X57526800Y-44901780D01*
D37*
X57526800Y-46898220D02*
X57526800Y-49073100D01*
X57526800Y-49073100D02*
X57449900Y-49150000D01*
D35*
X38750700Y-40950700D02*
X38400000Y-40600000D01*
X38750700Y-41400080D02*
X38750700Y-40950700D01*
X36850000Y-40600000D02*
X38400000Y-40600000D01*
X36250000Y-41200000D02*
X36850000Y-40600000D01*
X36250000Y-43250000D02*
X36250000Y-41200000D01*
X26050000Y-22950000D02*
X22950000Y-22950000D01*
X22950000Y-22950000D02*
X22900000Y-23000000D01*
X25700000Y-64600000D02*
X25650440Y-64600000D01*
X25650440Y-64600000D02*
X23600000Y-64600000D01*
X54800000Y-64500000D02*
X54700100Y-64599900D01*
X54700100Y-64599900D02*
X41000000Y-64600000D01*
X41000000Y-64600000D02*
X26000000Y-64600000D01*
X26000000Y-64600000D02*
X25650440Y-64600000D01*
X65150000Y-22950000D02*
X65300000Y-23100000D01*
X65150000Y-22950000D02*
X62800000Y-22950000D01*
X62800000Y-22950000D02*
X47300000Y-22950000D01*
X47300000Y-22950000D02*
X43550000Y-22950000D01*
X43550000Y-22950000D02*
X31550000Y-22950000D01*
X31550000Y-22950000D02*
X26050000Y-22950000D01*
X54800000Y-60700000D02*
X63500000Y-60700000D01*
X63500000Y-60700000D02*
X64800000Y-62000000D01*
X47100100Y-47900000D02*
X47100100Y-46700100D01*
X47100100Y-46700100D02*
X47100000Y-46700000D01*
X47100100Y-47900000D02*
X47100100Y-49500000D01*
X63050100Y-50900000D02*
X65100000Y-50900000D01*
X65100000Y-50900000D02*
X65300000Y-50700000D01*
X54800000Y-51200000D02*
X55800000Y-52200000D01*
X63050100Y-51949900D02*
X63050100Y-50900000D01*
X62800000Y-52200000D02*
X63050100Y-51949900D01*
X55800000Y-52200000D02*
X62800000Y-52200000D01*
X54800000Y-51200000D02*
X52300000Y-51200000D01*
X57449900Y-50900000D02*
X55100000Y-50900000D01*
X55100000Y-50900000D02*
X54800000Y-51200000D01*
X41300000Y-60700000D02*
X54800000Y-60700000D01*
X47500000Y-56900000D02*
X54600000Y-56900000D01*
X54600000Y-56900000D02*
X54800000Y-56700000D01*
X57526800Y-46397840D02*
X56102160Y-46397840D01*
X56102160Y-46397840D02*
X55800000Y-46700000D01*
X41399920Y-42050320D02*
X42949580Y-42050320D01*
X42949580Y-42050320D02*
X42999900Y-42000000D01*
X42999900Y-42000000D02*
X42999900Y-40300000D01*
X42999900Y-43199900D02*
X42999900Y-42000000D01*
X47100000Y-43300000D02*
X43100000Y-43300000D01*
X43100000Y-43300000D02*
X42999900Y-43199900D01*
D37*
X39748920Y-41400080D02*
X39748920Y-39551180D01*
X39748920Y-39551180D02*
X39800000Y-39500100D01*
X40249300Y-45199920D02*
X40249300Y-46249400D01*
X40249300Y-46249400D02*
X40599900Y-46600000D01*
D35*
X57550000Y-28600100D02*
X57550000Y-30399900D01*
X57550000Y-26999900D02*
X59898820Y-26999900D01*
X59898820Y-26999900D02*
X59950040Y-27051120D01*
D36*
X57526800Y-45900000D02*
X55800000Y-45600000D01*
X55800000Y-45600000D02*
X55300000Y-45100000D01*
X61449900Y-50900000D02*
X61449900Y-49150000D01*
X61449900Y-49150000D02*
X61449900Y-47874920D01*
X61449900Y-47874920D02*
X60473200Y-46898220D01*
D37*
X32200000Y-18000000D02*
X41400000Y-18000000D01*
X47700000Y-17900000D02*
X56600000Y-17900000D01*
X71100000Y-32900000D02*
X67000000Y-32900000D01*
X71400000Y-32600000D02*
X71100000Y-32900000D01*
X64700000Y-55200000D02*
X68200000Y-55200000D01*
X67100000Y-52000000D02*
X64700000Y-52000000D01*
X71300000Y-47700000D02*
X67200000Y-47700000D01*
X71400000Y-47600000D02*
X71300000Y-47700000D01*
X54900000Y-65500000D02*
X47300000Y-65500000D01*
X55500000Y-66100000D02*
X54900000Y-65500000D01*
X39500000Y-66300000D02*
X32300000Y-66300000D01*
X39900000Y-66700000D02*
X39500000Y-66300000D01*
X17600000Y-48000000D02*
X20300000Y-48000000D01*
X17500000Y-48100000D02*
X17600000Y-48000000D01*
X15400000Y-32200000D02*
X19900000Y-32200000D01*
X15100000Y-32500000D02*
X15400000Y-32200000D01*
X17000000Y-36700000D02*
X15500000Y-36700000D01*
X35500000Y-56900000D02*
X35500000Y-56500000D01*
X35500000Y-56500000D02*
X36300000Y-55700000D01*
X56300000Y-57200000D02*
X62800000Y-57200000D01*
X54800000Y-55700000D02*
X56300000Y-57200000D01*
X36300000Y-55700000D02*
X54800000Y-55700000D01*
X55450000Y-33200000D02*
X41550000Y-33200000D01*
X40999920Y-41400080D02*
X40749680Y-41400080D01*
X41500000Y-41300000D02*
X40999920Y-41400080D01*
X34350000Y-33700000D02*
X32150000Y-33700000D01*
X34550000Y-33900000D02*
X34350000Y-33700000D01*
X38700000Y-49700000D02*
X36300000Y-49700000D01*
X29200000Y-23900000D02*
X44500000Y-23900000D01*
X29100000Y-23800000D02*
X29200000Y-23900000D01*
X41450000Y-53700000D02*
X32000000Y-53700000D01*
X41450000Y-53700000D02*
X41550000Y-53800000D01*
X45499900Y-49500000D02*
X44799900Y-49500000D01*
X44799900Y-49500000D02*
X44500000Y-49500000D01*
X40000000Y-49500000D02*
X44500000Y-49500000D01*
X38250320Y-45199920D02*
X38250320Y-46950320D01*
X38250320Y-46950320D02*
X38300000Y-47000000D01*
X39800000Y-49300000D02*
X40000000Y-49500000D01*
X43500000Y-47900000D02*
X45499900Y-47900000D01*
X38750700Y-46250700D02*
X38750700Y-45199920D01*
X38800000Y-46300000D02*
X38750700Y-46250700D01*
X43500000Y-47900000D02*
X40500000Y-47900000D01*
D35*
X59950040Y-29448880D02*
X59950040Y-31799860D01*
X59950040Y-31799860D02*
X59900000Y-31849900D01*
D37*
X39251080Y-41400080D02*
X39251080Y-40851180D01*
X39251080Y-40851180D02*
X38200000Y-39500100D01*
X33550000Y-55300000D02*
X55500000Y-55300000D01*
X60770000Y-38700000D02*
X64250000Y-38700000D01*
X64349900Y-43200100D02*
X63250000Y-43200100D01*
X64500000Y-43050000D02*
X64349900Y-43200100D01*
X64250000Y-38700000D02*
X64400000Y-38850000D01*
D36*
X63250000Y-44599900D02*
X63250000Y-43200100D01*
X60473200Y-45402160D02*
X62447740Y-45402160D01*
X62447740Y-45402160D02*
X63250000Y-44599900D01*
D37*
G36*
X72223800Y-36169192D02*
X70703510Y-36169192D01*
X70618796Y-36185132D01*
X70540992Y-36235198D01*
X70488795Y-36311590D01*
X70470432Y-36402270D01*
X70470432Y-38198050D01*
X70486372Y-38282764D01*
X70536438Y-38360568D01*
X70612830Y-38412765D01*
X70703510Y-38431128D01*
X72223800Y-38431128D01*
X72223800Y-38719352D01*
X70703510Y-38719352D01*
X70618796Y-38735292D01*
X70540992Y-38785358D01*
X70488795Y-38861750D01*
X70470432Y-38952430D01*
X70470432Y-40849810D01*
X70486372Y-40934524D01*
X70536438Y-41012328D01*
X70612830Y-41064525D01*
X70703510Y-41082888D01*
X72223800Y-41082888D01*
X72223800Y-41115842D01*
X70703510Y-41115842D01*
X70618796Y-41131782D01*
X70540992Y-41181848D01*
X70488795Y-41258240D01*
X70470432Y-41348920D01*
X70470432Y-43248840D01*
X70486372Y-43333554D01*
X70536438Y-43411358D01*
X70612830Y-43463555D01*
X70703510Y-43481918D01*
X72223800Y-43481918D01*
X72223800Y-43768872D01*
X70703510Y-43768872D01*
X70618796Y-43784812D01*
X70540992Y-43834878D01*
X70488795Y-43911270D01*
X70470432Y-44001950D01*
X70470432Y-45797730D01*
X70486372Y-45882444D01*
X70536438Y-45960248D01*
X70612830Y-46012445D01*
X70703510Y-46030808D01*
X72223800Y-46030808D01*
X72223800Y-71623800D01*
X16376200Y-71623800D01*
X16376200Y-69147688D01*
X17039008Y-69147688D01*
X17382439Y-69978854D01*
X18017801Y-70615326D01*
X18848366Y-70960207D01*
X19747688Y-70960992D01*
X20578854Y-70617561D01*
X21215326Y-69982199D01*
X21560207Y-69151634D01*
X21560210Y-69147688D01*
X67039008Y-69147688D01*
X67382439Y-69978854D01*
X68017801Y-70615326D01*
X68848366Y-70960207D01*
X69747688Y-70960992D01*
X70578854Y-70617561D01*
X71215326Y-69982199D01*
X71560207Y-69151634D01*
X71560992Y-68252312D01*
X71217561Y-67421146D01*
X70582199Y-66784674D01*
X69751634Y-66439793D01*
X68852312Y-66439008D01*
X68021146Y-66782439D01*
X67384674Y-67417801D01*
X67039793Y-68248366D01*
X67039008Y-69147688D01*
X21560210Y-69147688D01*
X21560992Y-68252312D01*
X21217561Y-67421146D01*
X20582199Y-66784674D01*
X19751634Y-66439793D01*
X18852312Y-66439008D01*
X18021146Y-66782439D01*
X17384674Y-67417801D01*
X17039793Y-68248366D01*
X17039008Y-69147688D01*
X16376200Y-69147688D01*
X16376200Y-66404684D01*
X31771308Y-66404684D01*
X31851613Y-66599037D01*
X32000181Y-66747864D01*
X32194394Y-66828508D01*
X32404684Y-66828692D01*
X32599037Y-66748387D01*
X32742874Y-66604800D01*
X39371483Y-66604800D01*
X39371308Y-66804684D01*
X39451613Y-66999037D01*
X39600181Y-67147864D01*
X39794394Y-67228508D01*
X40004684Y-67228692D01*
X40199037Y-67148387D01*
X40347864Y-66999819D01*
X40428508Y-66805606D01*
X40428692Y-66595316D01*
X40348387Y-66400963D01*
X40199819Y-66252136D01*
X40005606Y-66171492D01*
X39802366Y-66171314D01*
X39715526Y-66084474D01*
X39616642Y-66018402D01*
X39500000Y-65995200D01*
X32742634Y-65995200D01*
X32599819Y-65852136D01*
X32405606Y-65771492D01*
X32195316Y-65771308D01*
X32000963Y-65851613D01*
X31852136Y-66000181D01*
X31771492Y-66194394D01*
X31771308Y-66404684D01*
X16376200Y-66404684D01*
X16376200Y-64704684D01*
X23071308Y-64704684D01*
X23151613Y-64899037D01*
X23300181Y-65047864D01*
X23494394Y-65128508D01*
X23704684Y-65128692D01*
X23899037Y-65048387D01*
X23968946Y-64978600D01*
X25631038Y-64978600D01*
X25700181Y-65047864D01*
X25894394Y-65128508D01*
X26104684Y-65128692D01*
X26299037Y-65048387D01*
X26368946Y-64978600D01*
X40631038Y-64978600D01*
X40700181Y-65047864D01*
X40894394Y-65128508D01*
X41104684Y-65128692D01*
X41299037Y-65048387D01*
X41368948Y-64978597D01*
X47177777Y-64978555D01*
X47000963Y-65051613D01*
X46852136Y-65200181D01*
X46771492Y-65394394D01*
X46771308Y-65604684D01*
X46851613Y-65799037D01*
X47000181Y-65947864D01*
X47194394Y-66028508D01*
X47404684Y-66028692D01*
X47599037Y-65948387D01*
X47742874Y-65804800D01*
X54773748Y-65804800D01*
X54971485Y-66002537D01*
X54971308Y-66204684D01*
X55051613Y-66399037D01*
X55200181Y-66547864D01*
X55394394Y-66628508D01*
X55604684Y-66628692D01*
X55799037Y-66548387D01*
X55947864Y-66399819D01*
X56028508Y-66205606D01*
X56028692Y-65995316D01*
X55948387Y-65800963D01*
X55799819Y-65652136D01*
X55605606Y-65571492D01*
X55402366Y-65571314D01*
X55115526Y-65284474D01*
X55016642Y-65218402D01*
X54900000Y-65195200D01*
X47742634Y-65195200D01*
X47599819Y-65052136D01*
X47422611Y-64978553D01*
X54573963Y-64978501D01*
X54694394Y-65028508D01*
X54904684Y-65028692D01*
X55099037Y-64948387D01*
X55247864Y-64799819D01*
X55328508Y-64605606D01*
X55328692Y-64395316D01*
X55248387Y-64200963D01*
X55099819Y-64052136D01*
X54905606Y-63971492D01*
X54695316Y-63971308D01*
X54500963Y-64051613D01*
X54352136Y-64200181D01*
X54343366Y-64221303D01*
X41368960Y-64221397D01*
X41299819Y-64152136D01*
X41105606Y-64071492D01*
X40895316Y-64071308D01*
X40700963Y-64151613D01*
X40631054Y-64221400D01*
X26368962Y-64221400D01*
X26299819Y-64152136D01*
X26105606Y-64071492D01*
X25895316Y-64071308D01*
X25700963Y-64151613D01*
X25631054Y-64221400D01*
X23968962Y-64221400D01*
X23899819Y-64152136D01*
X23705606Y-64071492D01*
X23495316Y-64071308D01*
X23300963Y-64151613D01*
X23152136Y-64300181D01*
X23071492Y-64494394D01*
X23071308Y-64704684D01*
X16376200Y-64704684D01*
X16376200Y-60804684D01*
X40771308Y-60804684D01*
X40851613Y-60999037D01*
X41000181Y-61147864D01*
X41194394Y-61228508D01*
X41404684Y-61228692D01*
X41599037Y-61148387D01*
X41668946Y-61078600D01*
X54431038Y-61078600D01*
X54500181Y-61147864D01*
X54694394Y-61228508D01*
X54904684Y-61228692D01*
X55099037Y-61148387D01*
X55168946Y-61078600D01*
X63343178Y-61078600D01*
X64271394Y-62006815D01*
X64271308Y-62104684D01*
X64351613Y-62299037D01*
X64500181Y-62447864D01*
X64694394Y-62528508D01*
X64904684Y-62528692D01*
X65099037Y-62448387D01*
X65247864Y-62299819D01*
X65328508Y-62105606D01*
X65328692Y-61895316D01*
X65248387Y-61700963D01*
X65099819Y-61552136D01*
X64905606Y-61471492D01*
X64806827Y-61471406D01*
X63767711Y-60432289D01*
X63644884Y-60350219D01*
X63500000Y-60321399D01*
X63499995Y-60321400D01*
X55168962Y-60321400D01*
X55099819Y-60252136D01*
X54905606Y-60171492D01*
X54695316Y-60171308D01*
X54500963Y-60251613D01*
X54431054Y-60321400D01*
X41668962Y-60321400D01*
X41599819Y-60252136D01*
X41405606Y-60171492D01*
X41195316Y-60171308D01*
X41000963Y-60251613D01*
X40852136Y-60400181D01*
X40771492Y-60594394D01*
X40771308Y-60804684D01*
X16376200Y-60804684D01*
X16376200Y-56150000D01*
X32516922Y-56150000D01*
X32516922Y-57650000D01*
X32532862Y-57734714D01*
X32582928Y-57812518D01*
X32659320Y-57864715D01*
X32750000Y-57883078D01*
X34250000Y-57883078D01*
X34334714Y-57867138D01*
X34412518Y-57817072D01*
X34464715Y-57740680D01*
X34483078Y-57650000D01*
X34483078Y-56150000D01*
X34467138Y-56065286D01*
X34417072Y-55987482D01*
X34340680Y-55935285D01*
X34250000Y-55916922D01*
X32750000Y-55916922D01*
X32665286Y-55932862D01*
X32587482Y-55982928D01*
X32535285Y-56059320D01*
X32516922Y-56150000D01*
X16376200Y-56150000D01*
X16376200Y-55404684D01*
X33021308Y-55404684D01*
X33101613Y-55599037D01*
X33250181Y-55747864D01*
X33444394Y-55828508D01*
X33654684Y-55828692D01*
X33849037Y-55748387D01*
X33992874Y-55604800D01*
X35964148Y-55604800D01*
X35647420Y-55921528D01*
X35306198Y-55921230D01*
X34946392Y-56069899D01*
X34670867Y-56344944D01*
X34521570Y-56704490D01*
X34521230Y-57093802D01*
X34669899Y-57453608D01*
X34944944Y-57729133D01*
X35304490Y-57878430D01*
X35693802Y-57878770D01*
X36053608Y-57730101D01*
X36329133Y-57455056D01*
X36478430Y-57095510D01*
X36478770Y-56706198D01*
X36330101Y-56346392D01*
X36207487Y-56223565D01*
X36426252Y-56004800D01*
X37103943Y-56004800D01*
X36946392Y-56069899D01*
X36670867Y-56344944D01*
X36521570Y-56704490D01*
X36521230Y-57093802D01*
X36669899Y-57453608D01*
X36944944Y-57729133D01*
X37304490Y-57878430D01*
X37693802Y-57878770D01*
X38053608Y-57730101D01*
X38329133Y-57455056D01*
X38478430Y-57095510D01*
X38478770Y-56706198D01*
X38330101Y-56346392D01*
X38055056Y-56070867D01*
X37895949Y-56004800D01*
X39103943Y-56004800D01*
X38946392Y-56069899D01*
X38670867Y-56344944D01*
X38521570Y-56704490D01*
X38521230Y-57093802D01*
X38669899Y-57453608D01*
X38944944Y-57729133D01*
X39304490Y-57878430D01*
X39693802Y-57878770D01*
X40053608Y-57730101D01*
X40329133Y-57455056D01*
X40478430Y-57095510D01*
X40478770Y-56706198D01*
X40330101Y-56346392D01*
X40055056Y-56070867D01*
X39895949Y-56004800D01*
X41103943Y-56004800D01*
X40946392Y-56069899D01*
X40670867Y-56344944D01*
X40521570Y-56704490D01*
X40521230Y-57093802D01*
X40669899Y-57453608D01*
X40944944Y-57729133D01*
X41304490Y-57878430D01*
X41693802Y-57878770D01*
X42053608Y-57730101D01*
X42329133Y-57455056D01*
X42478430Y-57095510D01*
X42478770Y-56706198D01*
X42330101Y-56346392D01*
X42055056Y-56070867D01*
X41895949Y-56004800D01*
X43103943Y-56004800D01*
X42946392Y-56069899D01*
X42670867Y-56344944D01*
X42521570Y-56704490D01*
X42521230Y-57093802D01*
X42669899Y-57453608D01*
X42944944Y-57729133D01*
X43304490Y-57878430D01*
X43693802Y-57878770D01*
X44053608Y-57730101D01*
X44329133Y-57455056D01*
X44478430Y-57095510D01*
X44478770Y-56706198D01*
X44330101Y-56346392D01*
X44055056Y-56070867D01*
X43895949Y-56004800D01*
X45103943Y-56004800D01*
X44946392Y-56069899D01*
X44670867Y-56344944D01*
X44521570Y-56704490D01*
X44521230Y-57093802D01*
X44669899Y-57453608D01*
X44944944Y-57729133D01*
X45304490Y-57878430D01*
X45693802Y-57878770D01*
X46053608Y-57730101D01*
X46329133Y-57455056D01*
X46478430Y-57095510D01*
X46478770Y-56706198D01*
X46330101Y-56346392D01*
X46055056Y-56070867D01*
X45895949Y-56004800D01*
X47103943Y-56004800D01*
X46946392Y-56069899D01*
X46670867Y-56344944D01*
X46521570Y-56704490D01*
X46521230Y-57093802D01*
X46669899Y-57453608D01*
X46944944Y-57729133D01*
X47304490Y-57878430D01*
X47693802Y-57878770D01*
X48053608Y-57730101D01*
X48329133Y-57455056D01*
X48402404Y-57278600D01*
X54599995Y-57278600D01*
X54600000Y-57278601D01*
X54744884Y-57249781D01*
X54776614Y-57228580D01*
X54904684Y-57228692D01*
X55099037Y-57148387D01*
X55247864Y-56999819D01*
X55328508Y-56805606D01*
X55328636Y-56659688D01*
X56084474Y-57415526D01*
X56183358Y-57481598D01*
X56300000Y-57504800D01*
X62357366Y-57504800D01*
X62500181Y-57647864D01*
X62694394Y-57728508D01*
X62904684Y-57728692D01*
X63099037Y-57648387D01*
X63247864Y-57499819D01*
X63328508Y-57305606D01*
X63328692Y-57095316D01*
X63248387Y-56900963D01*
X63099819Y-56752136D01*
X62905606Y-56671492D01*
X62695316Y-56671308D01*
X62500963Y-56751613D01*
X62357126Y-56895200D01*
X56426252Y-56895200D01*
X55334825Y-55803773D01*
X55394394Y-55828508D01*
X55604684Y-55828692D01*
X55799037Y-55748387D01*
X55947864Y-55599819D01*
X56028508Y-55405606D01*
X56028596Y-55304684D01*
X64171308Y-55304684D01*
X64251613Y-55499037D01*
X64400181Y-55647864D01*
X64594394Y-55728508D01*
X64804684Y-55728692D01*
X64999037Y-55648387D01*
X65142874Y-55504800D01*
X67757366Y-55504800D01*
X67900181Y-55647864D01*
X68094394Y-55728508D01*
X68304684Y-55728692D01*
X68499037Y-55648387D01*
X68647864Y-55499819D01*
X68728508Y-55305606D01*
X68728692Y-55095316D01*
X68648387Y-54900963D01*
X68499819Y-54752136D01*
X68305606Y-54671492D01*
X68095316Y-54671308D01*
X67900963Y-54751613D01*
X67757126Y-54895200D01*
X65142634Y-54895200D01*
X64999819Y-54752136D01*
X64805606Y-54671492D01*
X64595316Y-54671308D01*
X64400963Y-54751613D01*
X64252136Y-54900181D01*
X64171492Y-55094394D01*
X64171308Y-55304684D01*
X56028596Y-55304684D01*
X56028692Y-55195316D01*
X55948387Y-55000963D01*
X55799819Y-54852136D01*
X55605606Y-54771492D01*
X55395316Y-54771308D01*
X55200963Y-54851613D01*
X55057126Y-54995200D01*
X33992634Y-54995200D01*
X33849819Y-54852136D01*
X33655606Y-54771492D01*
X33445316Y-54771308D01*
X33250963Y-54851613D01*
X33102136Y-55000181D01*
X33021492Y-55194394D01*
X33021308Y-55404684D01*
X16376200Y-55404684D01*
X16376200Y-53804684D01*
X31471308Y-53804684D01*
X31551613Y-53999037D01*
X31700181Y-54147864D01*
X31894394Y-54228508D01*
X32104684Y-54228692D01*
X32299037Y-54148387D01*
X32442874Y-54004800D01*
X41062675Y-54004800D01*
X41101613Y-54099037D01*
X41250181Y-54247864D01*
X41444394Y-54328508D01*
X41654684Y-54328692D01*
X41849037Y-54248387D01*
X41997864Y-54099819D01*
X42078508Y-53905606D01*
X42078691Y-53696178D01*
X65110248Y-53696178D01*
X65260741Y-54060397D01*
X65539158Y-54339300D01*
X65903113Y-54490428D01*
X66297198Y-54490772D01*
X66661417Y-54340279D01*
X66940320Y-54061862D01*
X67091448Y-53697907D01*
X67091449Y-53696178D01*
X67109228Y-53696178D01*
X67259721Y-54060397D01*
X67538138Y-54339300D01*
X67902093Y-54490428D01*
X68296178Y-54490772D01*
X68660397Y-54340279D01*
X68939300Y-54061862D01*
X69090428Y-53697907D01*
X69090429Y-53696178D01*
X69108208Y-53696178D01*
X69258701Y-54060397D01*
X69537118Y-54339300D01*
X69901073Y-54490428D01*
X70295158Y-54490772D01*
X70659377Y-54340279D01*
X70938280Y-54061862D01*
X71089408Y-53697907D01*
X71089752Y-53303822D01*
X70939259Y-52939603D01*
X70660842Y-52660700D01*
X70296887Y-52509572D01*
X69902802Y-52509228D01*
X69538583Y-52659721D01*
X69259680Y-52938138D01*
X69108552Y-53302093D01*
X69108208Y-53696178D01*
X69090429Y-53696178D01*
X69090772Y-53303822D01*
X68940279Y-52939603D01*
X68661862Y-52660700D01*
X68297907Y-52509572D01*
X67903822Y-52509228D01*
X67539603Y-52659721D01*
X67260700Y-52938138D01*
X67109572Y-53302093D01*
X67109228Y-53696178D01*
X67091449Y-53696178D01*
X67091792Y-53303822D01*
X66941299Y-52939603D01*
X66662882Y-52660700D01*
X66298927Y-52509572D01*
X65904842Y-52509228D01*
X65540623Y-52659721D01*
X65261720Y-52938138D01*
X65110592Y-53302093D01*
X65110248Y-53696178D01*
X42078691Y-53696178D01*
X42078692Y-53695316D01*
X41998387Y-53500963D01*
X41849819Y-53352136D01*
X41655606Y-53271492D01*
X41445316Y-53271308D01*
X41250963Y-53351613D01*
X41207300Y-53395200D01*
X32442634Y-53395200D01*
X32299819Y-53252136D01*
X32105606Y-53171492D01*
X31895316Y-53171308D01*
X31700963Y-53251613D01*
X31552136Y-53400181D01*
X31471492Y-53594394D01*
X31471308Y-53804684D01*
X16376200Y-53804684D01*
X16376200Y-48204684D01*
X16971308Y-48204684D01*
X17051613Y-48399037D01*
X17200181Y-48547864D01*
X17394394Y-48628508D01*
X17604684Y-48628692D01*
X17799037Y-48548387D01*
X17947864Y-48399819D01*
X17987319Y-48304800D01*
X19857366Y-48304800D01*
X20000181Y-48447864D01*
X20194394Y-48528508D01*
X20404684Y-48528692D01*
X20599037Y-48448387D01*
X20747864Y-48299819D01*
X20828508Y-48105606D01*
X20828692Y-47895316D01*
X20748387Y-47700963D01*
X20599819Y-47552136D01*
X20405606Y-47471492D01*
X20195316Y-47471308D01*
X20000963Y-47551613D01*
X19857126Y-47695200D01*
X17842808Y-47695200D01*
X17799819Y-47652136D01*
X17605606Y-47571492D01*
X17395316Y-47571308D01*
X17200963Y-47651613D01*
X17052136Y-47800181D01*
X16971492Y-47994394D01*
X16971308Y-48204684D01*
X16376200Y-48204684D01*
X16376200Y-37004800D01*
X16557366Y-37004800D01*
X16700181Y-37147864D01*
X16894394Y-37228508D01*
X17104684Y-37228692D01*
X17299037Y-37148387D01*
X17447864Y-36999819D01*
X17528508Y-36805606D01*
X17528692Y-36595316D01*
X17448387Y-36400963D01*
X17299819Y-36252136D01*
X17105606Y-36171492D01*
X16895316Y-36171308D01*
X16700963Y-36251613D01*
X16557126Y-36395200D01*
X16376200Y-36395200D01*
X16376200Y-34523217D01*
X18667800Y-34523217D01*
X18667800Y-34876783D01*
X18750939Y-35294750D01*
X18987698Y-35649085D01*
X19342033Y-35885844D01*
X19760000Y-35968983D01*
X20177967Y-35885844D01*
X20532302Y-35649085D01*
X20769061Y-35294750D01*
X20852200Y-34876783D01*
X20852200Y-34523217D01*
X20769061Y-34105250D01*
X20532302Y-33750915D01*
X20432157Y-33684000D01*
X21203322Y-33684000D01*
X21203322Y-35716000D01*
X21219262Y-35800714D01*
X21269328Y-35878518D01*
X21345720Y-35930715D01*
X21436400Y-35949078D01*
X23163600Y-35949078D01*
X23248314Y-35933138D01*
X23326118Y-35883072D01*
X23378315Y-35806680D01*
X23396678Y-35716000D01*
X23396678Y-35300000D01*
X24123800Y-35300000D01*
X24123800Y-52200000D01*
X24129011Y-52227695D01*
X24145379Y-52253132D01*
X24170354Y-52270197D01*
X24200000Y-52276200D01*
X32300000Y-52276200D01*
X32327695Y-52270989D01*
X32353132Y-52254621D01*
X32370197Y-52229646D01*
X32376200Y-52200000D01*
X32376200Y-51304684D01*
X51771308Y-51304684D01*
X51851613Y-51499037D01*
X52000181Y-51647864D01*
X52194394Y-51728508D01*
X52404684Y-51728692D01*
X52599037Y-51648387D01*
X52668946Y-51578600D01*
X54431038Y-51578600D01*
X54500181Y-51647864D01*
X54694394Y-51728508D01*
X54793173Y-51728594D01*
X55532287Y-52467708D01*
X55532289Y-52467711D01*
X55594424Y-52509228D01*
X55655116Y-52549781D01*
X55800000Y-52578601D01*
X55800005Y-52578600D01*
X62799995Y-52578600D01*
X62800000Y-52578601D01*
X62944884Y-52549781D01*
X63067711Y-52467711D01*
X63317808Y-52217613D01*
X63317811Y-52217611D01*
X63393266Y-52104684D01*
X64171308Y-52104684D01*
X64251613Y-52299037D01*
X64400181Y-52447864D01*
X64594394Y-52528508D01*
X64804684Y-52528692D01*
X64999037Y-52448387D01*
X65142874Y-52304800D01*
X66657366Y-52304800D01*
X66800181Y-52447864D01*
X66994394Y-52528508D01*
X67204684Y-52528692D01*
X67399037Y-52448387D01*
X67547864Y-52299819D01*
X67628508Y-52105606D01*
X67628692Y-51895316D01*
X67548387Y-51700963D01*
X67399819Y-51552136D01*
X67205606Y-51471492D01*
X66995316Y-51471308D01*
X66800963Y-51551613D01*
X66657126Y-51695200D01*
X65142634Y-51695200D01*
X64999819Y-51552136D01*
X64805606Y-51471492D01*
X64595316Y-51471308D01*
X64400963Y-51551613D01*
X64252136Y-51700181D01*
X64171492Y-51894394D01*
X64171308Y-52104684D01*
X63393266Y-52104684D01*
X63399881Y-52094784D01*
X63428701Y-51949900D01*
X63428700Y-51949895D01*
X63428700Y-51533128D01*
X63450150Y-51533128D01*
X63534864Y-51517188D01*
X63612668Y-51467122D01*
X63664865Y-51390730D01*
X63683228Y-51300050D01*
X63683228Y-51278600D01*
X65099995Y-51278600D01*
X65100000Y-51278601D01*
X65244884Y-51249781D01*
X65276614Y-51228580D01*
X65404684Y-51228692D01*
X65599037Y-51148387D01*
X65747864Y-50999819D01*
X65828508Y-50805606D01*
X65828692Y-50595316D01*
X65748387Y-50400963D01*
X65599819Y-50252136D01*
X65405606Y-50171492D01*
X65195316Y-50171308D01*
X65000963Y-50251613D01*
X64852136Y-50400181D01*
X64801802Y-50521400D01*
X63683228Y-50521400D01*
X63683228Y-50499950D01*
X63667288Y-50415236D01*
X63617222Y-50337432D01*
X63540830Y-50285235D01*
X63450150Y-50266872D01*
X62650050Y-50266872D01*
X62565336Y-50282812D01*
X62487532Y-50332878D01*
X62435335Y-50409270D01*
X62416972Y-50499950D01*
X62416972Y-51300050D01*
X62432912Y-51384764D01*
X62482978Y-51462568D01*
X62559370Y-51514765D01*
X62650050Y-51533128D01*
X62671500Y-51533128D01*
X62671500Y-51793079D01*
X62643178Y-51821400D01*
X55956821Y-51821400D01*
X55414022Y-51278600D01*
X56816772Y-51278600D01*
X56816772Y-51300050D01*
X56832712Y-51384764D01*
X56882778Y-51462568D01*
X56959170Y-51514765D01*
X57049850Y-51533128D01*
X57849950Y-51533128D01*
X57934664Y-51517188D01*
X58012468Y-51467122D01*
X58064665Y-51390730D01*
X58083028Y-51300050D01*
X58083028Y-50499950D01*
X58067088Y-50415236D01*
X58017022Y-50337432D01*
X57940630Y-50285235D01*
X57849950Y-50266872D01*
X57049850Y-50266872D01*
X56965136Y-50282812D01*
X56887332Y-50332878D01*
X56835135Y-50409270D01*
X56816772Y-50499950D01*
X56816772Y-50521400D01*
X55100000Y-50521400D01*
X54955116Y-50550219D01*
X54832289Y-50632289D01*
X54793184Y-50671394D01*
X54695316Y-50671308D01*
X54500963Y-50751613D01*
X54431054Y-50821400D01*
X52668962Y-50821400D01*
X52599819Y-50752136D01*
X52405606Y-50671492D01*
X52195316Y-50671308D01*
X52000963Y-50751613D01*
X51852136Y-50900181D01*
X51771492Y-51094394D01*
X51771308Y-51304684D01*
X32376200Y-51304684D01*
X32376200Y-49804684D01*
X35771308Y-49804684D01*
X35851613Y-49999037D01*
X36000181Y-50147864D01*
X36194394Y-50228508D01*
X36404684Y-50228692D01*
X36599037Y-50148387D01*
X36742874Y-50004800D01*
X38257366Y-50004800D01*
X38400181Y-50147864D01*
X38594394Y-50228508D01*
X38804684Y-50228692D01*
X38999037Y-50148387D01*
X39147864Y-49999819D01*
X39228508Y-49805606D01*
X39228692Y-49595316D01*
X39149925Y-49404684D01*
X39271308Y-49404684D01*
X39351613Y-49599037D01*
X39500181Y-49747864D01*
X39694394Y-49828508D01*
X39904684Y-49828692D01*
X39974691Y-49799766D01*
X40000000Y-49804800D01*
X44057366Y-49804800D01*
X44200181Y-49947864D01*
X44394394Y-50028508D01*
X44604684Y-50028692D01*
X44799037Y-49948387D01*
X44866772Y-49880770D01*
X44866772Y-49900050D01*
X44882712Y-49984764D01*
X44932778Y-50062568D01*
X45009170Y-50114765D01*
X45099850Y-50133128D01*
X45899950Y-50133128D01*
X45984664Y-50117188D01*
X46062468Y-50067122D01*
X46114665Y-49990730D01*
X46133028Y-49900050D01*
X46133028Y-49099950D01*
X46117088Y-49015236D01*
X46067022Y-48937432D01*
X45990630Y-48885235D01*
X45899950Y-48866872D01*
X45099850Y-48866872D01*
X45015136Y-48882812D01*
X44937332Y-48932878D01*
X44885135Y-49009270D01*
X44866772Y-49099950D01*
X44866772Y-49119206D01*
X44799819Y-49052136D01*
X44605606Y-48971492D01*
X44395316Y-48971308D01*
X44200963Y-49051613D01*
X44057126Y-49195200D01*
X40328644Y-49195200D01*
X40248387Y-49000963D01*
X40099819Y-48852136D01*
X39905606Y-48771492D01*
X39695316Y-48771308D01*
X39500963Y-48851613D01*
X39352136Y-49000181D01*
X39271492Y-49194394D01*
X39271308Y-49404684D01*
X39149925Y-49404684D01*
X39148387Y-49400963D01*
X38999819Y-49252136D01*
X38805606Y-49171492D01*
X38595316Y-49171308D01*
X38400963Y-49251613D01*
X38257126Y-49395200D01*
X36742634Y-49395200D01*
X36599819Y-49252136D01*
X36405606Y-49171492D01*
X36195316Y-49171308D01*
X36000963Y-49251613D01*
X35852136Y-49400181D01*
X35771492Y-49594394D01*
X35771308Y-49804684D01*
X32376200Y-49804684D01*
X32376200Y-48004684D01*
X39971308Y-48004684D01*
X40051613Y-48199037D01*
X40200181Y-48347864D01*
X40394394Y-48428508D01*
X40604684Y-48428692D01*
X40799037Y-48348387D01*
X40942874Y-48204800D01*
X43057366Y-48204800D01*
X43200181Y-48347864D01*
X43394394Y-48428508D01*
X43604684Y-48428692D01*
X43799037Y-48348387D01*
X43942874Y-48204800D01*
X44866772Y-48204800D01*
X44866772Y-48300050D01*
X44882712Y-48384764D01*
X44932778Y-48462568D01*
X45009170Y-48514765D01*
X45099850Y-48533128D01*
X45899950Y-48533128D01*
X45984664Y-48517188D01*
X46062468Y-48467122D01*
X46114665Y-48390730D01*
X46133028Y-48300050D01*
X46133028Y-47499950D01*
X46466972Y-47499950D01*
X46466972Y-48300050D01*
X46482912Y-48384764D01*
X46532978Y-48462568D01*
X46609370Y-48514765D01*
X46700050Y-48533128D01*
X46721500Y-48533128D01*
X46721500Y-48866872D01*
X46700050Y-48866872D01*
X46615336Y-48882812D01*
X46537532Y-48932878D01*
X46485335Y-49009270D01*
X46466972Y-49099950D01*
X46466972Y-49900050D01*
X46482912Y-49984764D01*
X46532978Y-50062568D01*
X46609370Y-50114765D01*
X46700050Y-50133128D01*
X47500150Y-50133128D01*
X47584864Y-50117188D01*
X47662668Y-50067122D01*
X47714865Y-49990730D01*
X47733228Y-49900050D01*
X47733228Y-49099950D01*
X47717288Y-49015236D01*
X47667222Y-48937432D01*
X47590830Y-48885235D01*
X47500150Y-48866872D01*
X47478700Y-48866872D01*
X47478700Y-48533128D01*
X47500150Y-48533128D01*
X47584864Y-48517188D01*
X47662668Y-48467122D01*
X47714865Y-48390730D01*
X47733228Y-48300050D01*
X47733228Y-47950000D01*
X51316922Y-47950000D01*
X51316922Y-49450000D01*
X51332862Y-49534714D01*
X51382928Y-49612518D01*
X51459320Y-49664715D01*
X51550000Y-49683078D01*
X53050000Y-49683078D01*
X53134714Y-49667138D01*
X53212518Y-49617072D01*
X53264715Y-49540680D01*
X53283078Y-49450000D01*
X53283078Y-47950000D01*
X53267138Y-47865286D01*
X53217072Y-47787482D01*
X53140680Y-47735285D01*
X53050000Y-47716922D01*
X51550000Y-47716922D01*
X51465286Y-47732862D01*
X51387482Y-47782928D01*
X51335285Y-47859320D01*
X51316922Y-47950000D01*
X47733228Y-47950000D01*
X47733228Y-47499950D01*
X47717288Y-47415236D01*
X47667222Y-47337432D01*
X47590830Y-47285235D01*
X47500150Y-47266872D01*
X47478700Y-47266872D01*
X47478700Y-47068863D01*
X47547864Y-46999819D01*
X47591885Y-46893802D01*
X51321230Y-46893802D01*
X51469899Y-47253608D01*
X51744944Y-47529133D01*
X52104490Y-47678430D01*
X52493802Y-47678770D01*
X52853608Y-47530101D01*
X53129133Y-47255056D01*
X53278430Y-46895510D01*
X53278770Y-46506198D01*
X53130101Y-46146392D01*
X52855056Y-45870867D01*
X52495510Y-45721570D01*
X52106198Y-45721230D01*
X51746392Y-45869899D01*
X51470867Y-46144944D01*
X51321570Y-46504490D01*
X51321230Y-46893802D01*
X47591885Y-46893802D01*
X47628508Y-46805606D01*
X47628692Y-46595316D01*
X47548387Y-46400963D01*
X47399819Y-46252136D01*
X47205606Y-46171492D01*
X46995316Y-46171308D01*
X46800963Y-46251613D01*
X46652136Y-46400181D01*
X46571492Y-46594394D01*
X46571308Y-46804684D01*
X46651613Y-46999037D01*
X46721500Y-47069046D01*
X46721500Y-47266872D01*
X46700050Y-47266872D01*
X46615336Y-47282812D01*
X46537532Y-47332878D01*
X46485335Y-47409270D01*
X46466972Y-47499950D01*
X46133028Y-47499950D01*
X46117088Y-47415236D01*
X46067022Y-47337432D01*
X45990630Y-47285235D01*
X45899950Y-47266872D01*
X45099850Y-47266872D01*
X45015136Y-47282812D01*
X44937332Y-47332878D01*
X44885135Y-47409270D01*
X44866772Y-47499950D01*
X44866772Y-47595200D01*
X43942634Y-47595200D01*
X43799819Y-47452136D01*
X43605606Y-47371492D01*
X43395316Y-47371308D01*
X43200963Y-47451613D01*
X43057126Y-47595200D01*
X40942634Y-47595200D01*
X40799819Y-47452136D01*
X40605606Y-47371492D01*
X40395316Y-47371308D01*
X40200963Y-47451613D01*
X40052136Y-47600181D01*
X39971492Y-47794394D01*
X39971308Y-48004684D01*
X32376200Y-48004684D01*
X32376200Y-47104684D01*
X37771308Y-47104684D01*
X37851613Y-47299037D01*
X38000181Y-47447864D01*
X38194394Y-47528508D01*
X38404684Y-47528692D01*
X38599037Y-47448387D01*
X38747864Y-47299819D01*
X38828508Y-47105606D01*
X38828692Y-46895316D01*
X38801126Y-46828601D01*
X38904684Y-46828692D01*
X39099037Y-46748387D01*
X39247864Y-46599819D01*
X39328508Y-46405606D01*
X39328692Y-46195316D01*
X39248387Y-46000963D01*
X39099819Y-45852136D01*
X39055500Y-45833733D01*
X39055500Y-45767846D01*
X39126620Y-45782248D01*
X39375540Y-45782248D01*
X39460254Y-45766308D01*
X39499946Y-45740767D01*
X39533780Y-45763885D01*
X39624460Y-45782248D01*
X39873380Y-45782248D01*
X39944500Y-45768866D01*
X39944500Y-46249400D01*
X39966772Y-46361367D01*
X39966772Y-47000050D01*
X39982712Y-47084764D01*
X40032778Y-47162568D01*
X40109170Y-47214765D01*
X40199850Y-47233128D01*
X40999950Y-47233128D01*
X41084664Y-47217188D01*
X41162468Y-47167122D01*
X41214665Y-47090730D01*
X41233028Y-47000050D01*
X41233028Y-46199950D01*
X41217088Y-46115236D01*
X41167022Y-46037432D01*
X41090630Y-45985235D01*
X40999950Y-45966872D01*
X40554100Y-45966872D01*
X40554100Y-45767846D01*
X40625220Y-45782248D01*
X40874140Y-45782248D01*
X40958854Y-45766308D01*
X41036658Y-45716242D01*
X41088855Y-45639850D01*
X41107218Y-45549170D01*
X41107218Y-44893802D01*
X51321230Y-44893802D01*
X51469899Y-45253608D01*
X51744944Y-45529133D01*
X52104490Y-45678430D01*
X52493802Y-45678770D01*
X52853608Y-45530101D01*
X53129133Y-45255056D01*
X53278430Y-44895510D01*
X53278770Y-44506198D01*
X53130101Y-44146392D01*
X52855056Y-43870867D01*
X52495510Y-43721570D01*
X52106198Y-43721230D01*
X51746392Y-43869899D01*
X51470867Y-44144944D01*
X51321570Y-44504490D01*
X51321230Y-44893802D01*
X41107218Y-44893802D01*
X41107218Y-44850670D01*
X41091278Y-44765956D01*
X41041212Y-44688152D01*
X40964820Y-44635955D01*
X40874140Y-44617592D01*
X40625220Y-44617592D01*
X40540506Y-44633532D01*
X40499506Y-44659915D01*
X40464440Y-44635955D01*
X40373760Y-44617592D01*
X40124840Y-44617592D01*
X40040126Y-44633532D01*
X39999126Y-44659915D01*
X39964060Y-44635955D01*
X39873380Y-44617592D01*
X39624460Y-44617592D01*
X39539746Y-44633532D01*
X39500054Y-44659073D01*
X39466220Y-44635955D01*
X39375540Y-44617592D01*
X39126620Y-44617592D01*
X39041906Y-44633532D01*
X39000906Y-44659915D01*
X38965840Y-44635955D01*
X38875160Y-44617592D01*
X38626240Y-44617592D01*
X38541526Y-44633532D01*
X38500526Y-44659915D01*
X38465460Y-44635955D01*
X38374780Y-44617592D01*
X38125860Y-44617592D01*
X38041146Y-44633532D01*
X37963342Y-44683598D01*
X37911145Y-44759990D01*
X37892782Y-44850670D01*
X37892782Y-45549170D01*
X37908722Y-45633884D01*
X37945520Y-45691069D01*
X37945520Y-46606960D01*
X37852136Y-46700181D01*
X37771492Y-46894394D01*
X37771308Y-47104684D01*
X32376200Y-47104684D01*
X32376200Y-43354684D01*
X35721308Y-43354684D01*
X35801613Y-43549037D01*
X35950181Y-43697864D01*
X36144394Y-43778508D01*
X36354684Y-43778692D01*
X36549037Y-43698387D01*
X36697864Y-43549819D01*
X36778508Y-43355606D01*
X36778692Y-43145316D01*
X36698387Y-42950963D01*
X36628600Y-42881054D01*
X36628600Y-41356822D01*
X37006822Y-40978600D01*
X37907409Y-40978600D01*
X37892782Y-41050830D01*
X37892782Y-41692782D01*
X37250830Y-41692782D01*
X37166116Y-41708722D01*
X37088312Y-41758788D01*
X37036115Y-41835180D01*
X37017752Y-41925860D01*
X37017752Y-42174780D01*
X37033692Y-42259494D01*
X37060075Y-42300494D01*
X37036115Y-42335560D01*
X37017752Y-42426240D01*
X37017752Y-42675160D01*
X37033692Y-42759874D01*
X37060075Y-42800874D01*
X37036115Y-42835940D01*
X37017752Y-42926620D01*
X37017752Y-43175540D01*
X37033692Y-43260254D01*
X37059233Y-43299946D01*
X37036115Y-43333780D01*
X37017752Y-43424460D01*
X37017752Y-43673380D01*
X37033692Y-43758094D01*
X37060075Y-43799094D01*
X37036115Y-43834160D01*
X37017752Y-43924840D01*
X37017752Y-44173760D01*
X37033692Y-44258474D01*
X37083758Y-44336278D01*
X37160150Y-44388475D01*
X37250830Y-44406838D01*
X37949330Y-44406838D01*
X38034044Y-44390898D01*
X38111848Y-44340832D01*
X38164045Y-44264440D01*
X38182408Y-44173760D01*
X38182408Y-43924840D01*
X38166468Y-43840126D01*
X38140085Y-43799126D01*
X38164045Y-43764060D01*
X38182408Y-43673380D01*
X38182408Y-43424460D01*
X38166468Y-43339746D01*
X38140927Y-43300054D01*
X38164045Y-43266220D01*
X38182408Y-43175540D01*
X38182408Y-42926620D01*
X38166468Y-42841906D01*
X38140085Y-42800906D01*
X38164045Y-42765840D01*
X38182408Y-42675160D01*
X38182408Y-42426240D01*
X38166468Y-42341526D01*
X38140085Y-42300526D01*
X38164045Y-42265460D01*
X38182408Y-42174780D01*
X38182408Y-41982408D01*
X38374780Y-41982408D01*
X38459494Y-41966468D01*
X38500494Y-41940085D01*
X38535560Y-41964045D01*
X38626240Y-41982408D01*
X38875160Y-41982408D01*
X38959874Y-41966468D01*
X39000874Y-41940085D01*
X39035940Y-41964045D01*
X39126620Y-41982408D01*
X39375540Y-41982408D01*
X39460254Y-41966468D01*
X39499946Y-41940927D01*
X39533780Y-41964045D01*
X39624460Y-41982408D01*
X39873380Y-41982408D01*
X39958094Y-41966468D01*
X40035898Y-41916402D01*
X40088095Y-41840010D01*
X40106458Y-41749330D01*
X40106458Y-41050830D01*
X40392142Y-41050830D01*
X40392142Y-41749330D01*
X40408082Y-41834044D01*
X40458148Y-41911848D01*
X40534540Y-41964045D01*
X40625220Y-41982408D01*
X40817592Y-41982408D01*
X40817592Y-42174780D01*
X40833532Y-42259494D01*
X40859915Y-42300494D01*
X40835955Y-42335560D01*
X40817592Y-42426240D01*
X40817592Y-42675160D01*
X40833532Y-42759874D01*
X40859915Y-42800874D01*
X40835955Y-42835940D01*
X40817592Y-42926620D01*
X40817592Y-43175540D01*
X40833532Y-43260254D01*
X40859073Y-43299946D01*
X40835955Y-43333780D01*
X40817592Y-43424460D01*
X40817592Y-43673380D01*
X40833532Y-43758094D01*
X40859915Y-43799094D01*
X40835955Y-43834160D01*
X40817592Y-43924840D01*
X40817592Y-44173760D01*
X40833532Y-44258474D01*
X40883598Y-44336278D01*
X40959990Y-44388475D01*
X41050670Y-44406838D01*
X41749170Y-44406838D01*
X41833884Y-44390898D01*
X41911688Y-44340832D01*
X41963885Y-44264440D01*
X41982248Y-44173760D01*
X41982248Y-43924840D01*
X41966308Y-43840126D01*
X41939925Y-43799126D01*
X41963885Y-43764060D01*
X41982248Y-43673380D01*
X41982248Y-43424460D01*
X41966308Y-43339746D01*
X41940767Y-43300054D01*
X41963885Y-43266220D01*
X41982248Y-43175540D01*
X41982248Y-42926620D01*
X41966308Y-42841906D01*
X41939925Y-42800906D01*
X41963885Y-42765840D01*
X41982248Y-42675160D01*
X41982248Y-42428920D01*
X42372204Y-42428920D01*
X42382712Y-42484764D01*
X42432778Y-42562568D01*
X42509170Y-42614765D01*
X42599850Y-42633128D01*
X42621300Y-42633128D01*
X42621300Y-42830938D01*
X42552036Y-42900081D01*
X42471392Y-43094294D01*
X42471208Y-43304584D01*
X42551513Y-43498937D01*
X42700081Y-43647764D01*
X42894294Y-43728408D01*
X43104584Y-43728592D01*
X43225574Y-43678600D01*
X46731038Y-43678600D01*
X46800181Y-43747864D01*
X46994394Y-43828508D01*
X47204684Y-43828692D01*
X47399037Y-43748387D01*
X47547864Y-43599819D01*
X47628508Y-43405606D01*
X47628692Y-43195316D01*
X47548387Y-43000963D01*
X47441413Y-42893802D01*
X51321230Y-42893802D01*
X51469899Y-43253608D01*
X51744944Y-43529133D01*
X52104490Y-43678430D01*
X52493802Y-43678770D01*
X52853608Y-43530101D01*
X53129133Y-43255056D01*
X53278430Y-42895510D01*
X53278770Y-42506198D01*
X53130101Y-42146392D01*
X52855056Y-41870867D01*
X52495510Y-41721570D01*
X52106198Y-41721230D01*
X51746392Y-41869899D01*
X51470867Y-42144944D01*
X51321570Y-42504490D01*
X51321230Y-42893802D01*
X47441413Y-42893802D01*
X47399819Y-42852136D01*
X47205606Y-42771492D01*
X46995316Y-42771308D01*
X46800963Y-42851613D01*
X46731054Y-42921400D01*
X43456773Y-42921400D01*
X43448287Y-42900863D01*
X43378500Y-42830954D01*
X43378500Y-42633128D01*
X43399950Y-42633128D01*
X43484664Y-42617188D01*
X43562468Y-42567122D01*
X43614665Y-42490730D01*
X43633028Y-42400050D01*
X43633028Y-41599950D01*
X43617088Y-41515236D01*
X43567022Y-41437432D01*
X43490630Y-41385235D01*
X43399950Y-41366872D01*
X43378500Y-41366872D01*
X43378500Y-40933128D01*
X43399950Y-40933128D01*
X43484664Y-40917188D01*
X43521006Y-40893802D01*
X51321230Y-40893802D01*
X51469899Y-41253608D01*
X51744944Y-41529133D01*
X52104490Y-41678430D01*
X52493802Y-41678770D01*
X52853608Y-41530101D01*
X52883761Y-41500000D01*
X54166922Y-41500000D01*
X54166922Y-43100000D01*
X54182862Y-43184714D01*
X54232928Y-43262518D01*
X54309320Y-43314715D01*
X54400000Y-43333078D01*
X55501475Y-43333078D01*
X56204688Y-44067871D01*
X56200000Y-44066922D01*
X54400000Y-44066922D01*
X54315286Y-44082862D01*
X54237482Y-44132928D01*
X54185285Y-44209320D01*
X54166922Y-44300000D01*
X54166922Y-45900000D01*
X54182862Y-45984714D01*
X54232928Y-46062518D01*
X54309320Y-46114715D01*
X54400000Y-46133078D01*
X55831501Y-46133078D01*
X55793185Y-46171394D01*
X55695316Y-46171308D01*
X55500963Y-46251613D01*
X55352136Y-46400181D01*
X55271492Y-46594394D01*
X55271308Y-46804684D01*
X55351613Y-46999037D01*
X55500181Y-47147864D01*
X55694394Y-47228508D01*
X55904684Y-47228692D01*
X56099037Y-47148387D01*
X56247864Y-46999819D01*
X56328508Y-46805606D01*
X56328534Y-46776440D01*
X56869542Y-46776440D01*
X56869542Y-47045540D01*
X56885482Y-47130254D01*
X56935548Y-47208058D01*
X57011940Y-47260255D01*
X57102620Y-47278618D01*
X57222000Y-47278618D01*
X57222000Y-48516872D01*
X57049850Y-48516872D01*
X56965136Y-48532812D01*
X56887332Y-48582878D01*
X56835135Y-48659270D01*
X56816772Y-48749950D01*
X56816772Y-49550050D01*
X56832712Y-49634764D01*
X56882778Y-49712568D01*
X56959170Y-49764765D01*
X57049850Y-49783128D01*
X57849950Y-49783128D01*
X57934664Y-49767188D01*
X58012468Y-49717122D01*
X58064665Y-49640730D01*
X58083028Y-49550050D01*
X58083028Y-48749950D01*
X58067088Y-48665236D01*
X58017022Y-48587432D01*
X57940630Y-48535235D01*
X57849950Y-48516872D01*
X57831600Y-48516872D01*
X57831600Y-47278618D01*
X57950980Y-47278618D01*
X58035694Y-47262678D01*
X58113498Y-47212612D01*
X58165695Y-47136220D01*
X58184058Y-47045540D01*
X58184058Y-46750900D01*
X59815942Y-46750900D01*
X59815942Y-47045540D01*
X59831882Y-47130254D01*
X59881948Y-47208058D01*
X59958340Y-47260255D01*
X60049020Y-47278618D01*
X60417172Y-47278618D01*
X61141300Y-48002746D01*
X61141300Y-48516872D01*
X61049850Y-48516872D01*
X60965136Y-48532812D01*
X60887332Y-48582878D01*
X60835135Y-48659270D01*
X60816772Y-48749950D01*
X60816772Y-49550050D01*
X60832712Y-49634764D01*
X60882778Y-49712568D01*
X60959170Y-49764765D01*
X61049850Y-49783128D01*
X61141300Y-49783128D01*
X61141300Y-50266872D01*
X61049850Y-50266872D01*
X60965136Y-50282812D01*
X60887332Y-50332878D01*
X60835135Y-50409270D01*
X60816772Y-50499950D01*
X60816772Y-51300050D01*
X60832712Y-51384764D01*
X60882778Y-51462568D01*
X60959170Y-51514765D01*
X61049850Y-51533128D01*
X61849950Y-51533128D01*
X61934664Y-51517188D01*
X62012468Y-51467122D01*
X62064665Y-51390730D01*
X62083028Y-51300050D01*
X62083028Y-50499950D01*
X62067088Y-50415236D01*
X62017022Y-50337432D01*
X61940630Y-50285235D01*
X61849950Y-50266872D01*
X61758500Y-50266872D01*
X61758500Y-49783128D01*
X61849950Y-49783128D01*
X61934664Y-49767188D01*
X62012468Y-49717122D01*
X62064665Y-49640730D01*
X62083028Y-49550050D01*
X62083028Y-48749950D01*
X62070619Y-48684000D01*
X67650922Y-48684000D01*
X67650922Y-50716000D01*
X67666862Y-50800714D01*
X67716928Y-50878518D01*
X67793320Y-50930715D01*
X67884000Y-50949078D01*
X69916000Y-50949078D01*
X70000714Y-50933138D01*
X70078518Y-50883072D01*
X70130715Y-50806680D01*
X70149078Y-50716000D01*
X70149078Y-48684000D01*
X70133138Y-48599286D01*
X70083072Y-48521482D01*
X70006680Y-48469285D01*
X69916000Y-48450922D01*
X67884000Y-48450922D01*
X67799286Y-48466862D01*
X67721482Y-48516928D01*
X67669285Y-48593320D01*
X67650922Y-48684000D01*
X62070619Y-48684000D01*
X62067088Y-48665236D01*
X62017022Y-48587432D01*
X61940630Y-48535235D01*
X61849950Y-48516872D01*
X61758500Y-48516872D01*
X61758500Y-47874920D01*
X61735009Y-47756824D01*
X61668113Y-47656707D01*
X61118078Y-47106672D01*
X61130458Y-47045540D01*
X61130458Y-46750900D01*
X61114518Y-46666186D01*
X61064452Y-46588382D01*
X60988060Y-46536185D01*
X60897380Y-46517822D01*
X60049020Y-46517822D01*
X59964306Y-46533762D01*
X59886502Y-46583828D01*
X59834305Y-46660220D01*
X59815942Y-46750900D01*
X58184058Y-46750900D01*
X58168118Y-46666186D01*
X58156886Y-46648732D01*
X58165695Y-46635840D01*
X58184058Y-46545160D01*
X58184058Y-46250520D01*
X58168118Y-46165806D01*
X58157728Y-46149660D01*
X58165695Y-46138000D01*
X58184058Y-46047320D01*
X58184058Y-45752680D01*
X58168118Y-45667966D01*
X58118052Y-45590162D01*
X58041660Y-45537965D01*
X57950980Y-45519602D01*
X57140140Y-45519602D01*
X56433078Y-45396763D01*
X56433078Y-44306518D01*
X56869542Y-44762582D01*
X56869542Y-45049100D01*
X56885482Y-45133814D01*
X56935548Y-45211618D01*
X57011940Y-45263815D01*
X57102620Y-45282178D01*
X57950980Y-45282178D01*
X58035694Y-45266238D01*
X58113498Y-45216172D01*
X58165695Y-45139780D01*
X58184058Y-45049100D01*
X58184058Y-44754460D01*
X59815942Y-44754460D01*
X59815942Y-45049100D01*
X59831882Y-45133814D01*
X59843114Y-45151268D01*
X59834305Y-45164160D01*
X59815942Y-45254840D01*
X59815942Y-45549480D01*
X59831882Y-45634194D01*
X59842272Y-45650340D01*
X59834305Y-45662000D01*
X59815942Y-45752680D01*
X59815942Y-46047320D01*
X59831882Y-46132034D01*
X59881948Y-46209838D01*
X59958340Y-46262035D01*
X60049020Y-46280398D01*
X60897380Y-46280398D01*
X60906936Y-46278600D01*
X61543169Y-46278600D01*
X61551613Y-46299037D01*
X61700181Y-46447864D01*
X61894394Y-46528508D01*
X62104684Y-46528692D01*
X62299037Y-46448387D01*
X62368946Y-46378600D01*
X62616872Y-46378600D01*
X62616872Y-46600150D01*
X62632812Y-46684864D01*
X62682878Y-46762668D01*
X62759270Y-46814865D01*
X62849950Y-46833228D01*
X63097806Y-46833228D01*
X64232289Y-47967711D01*
X64355116Y-48049781D01*
X64500000Y-48078601D01*
X64500005Y-48078600D01*
X65731038Y-48078600D01*
X65800181Y-48147864D01*
X65994394Y-48228508D01*
X66204684Y-48228692D01*
X66399037Y-48148387D01*
X66547864Y-47999819D01*
X66628508Y-47805606D01*
X66628508Y-47804684D01*
X66671308Y-47804684D01*
X66751613Y-47999037D01*
X66900181Y-48147864D01*
X67094394Y-48228508D01*
X67304684Y-48228692D01*
X67499037Y-48148387D01*
X67642874Y-48004800D01*
X71057192Y-48004800D01*
X71100181Y-48047864D01*
X71294394Y-48128508D01*
X71504684Y-48128692D01*
X71699037Y-48048387D01*
X71847864Y-47899819D01*
X71928508Y-47705606D01*
X71928692Y-47495316D01*
X71848387Y-47300963D01*
X71699819Y-47152136D01*
X71505606Y-47071492D01*
X71295316Y-47071308D01*
X71100963Y-47151613D01*
X70952136Y-47300181D01*
X70912681Y-47395200D01*
X67642634Y-47395200D01*
X67499819Y-47252136D01*
X67305606Y-47171492D01*
X67095316Y-47171308D01*
X66900963Y-47251613D01*
X66752136Y-47400181D01*
X66671492Y-47594394D01*
X66671308Y-47804684D01*
X66628508Y-47804684D01*
X66628692Y-47595316D01*
X66548387Y-47400963D01*
X66399819Y-47252136D01*
X66205606Y-47171492D01*
X65995316Y-47171308D01*
X65800963Y-47251613D01*
X65731054Y-47321400D01*
X64656822Y-47321400D01*
X63883128Y-46547706D01*
X63883128Y-45800050D01*
X63867188Y-45715336D01*
X63817122Y-45637532D01*
X63740730Y-45585335D01*
X63650050Y-45566972D01*
X62849950Y-45566972D01*
X62765236Y-45582912D01*
X62705425Y-45621400D01*
X62664416Y-45621400D01*
X62665953Y-45620373D01*
X63053298Y-45233028D01*
X63650050Y-45233028D01*
X63734764Y-45217088D01*
X63812568Y-45167022D01*
X63864765Y-45090630D01*
X63883128Y-44999950D01*
X63883128Y-44199850D01*
X63867188Y-44115136D01*
X63817122Y-44037332D01*
X63740730Y-43985135D01*
X63650050Y-43966772D01*
X63558600Y-43966772D01*
X63558600Y-43833228D01*
X63650050Y-43833228D01*
X63734764Y-43817288D01*
X63812568Y-43767222D01*
X63864765Y-43690830D01*
X63883128Y-43600150D01*
X63883128Y-43504900D01*
X64217126Y-43504900D01*
X64394394Y-43578508D01*
X64604684Y-43578692D01*
X64799037Y-43498387D01*
X64947864Y-43349819D01*
X65028508Y-43155606D01*
X65028511Y-43151050D01*
X68070132Y-43151050D01*
X68070132Y-45246550D01*
X68086072Y-45331264D01*
X68136138Y-45409068D01*
X68212530Y-45461265D01*
X68303210Y-45479628D01*
X69900870Y-45479628D01*
X69985584Y-45463688D01*
X70063388Y-45413622D01*
X70115585Y-45337230D01*
X70133948Y-45246550D01*
X70133948Y-43151050D01*
X70118008Y-43066336D01*
X70067942Y-42988532D01*
X69991550Y-42936335D01*
X69900870Y-42917972D01*
X68303210Y-42917972D01*
X68218496Y-42933912D01*
X68140692Y-42983978D01*
X68088495Y-43060370D01*
X68070132Y-43151050D01*
X65028511Y-43151050D01*
X65028692Y-42945316D01*
X64948387Y-42750963D01*
X64799819Y-42602136D01*
X64605606Y-42521492D01*
X64395316Y-42521308D01*
X64200963Y-42601613D01*
X64052136Y-42750181D01*
X63991878Y-42895300D01*
X63883128Y-42895300D01*
X63883128Y-42800050D01*
X63867188Y-42715336D01*
X63817122Y-42637532D01*
X63740730Y-42585335D01*
X63650050Y-42566972D01*
X62849950Y-42566972D01*
X62765236Y-42582912D01*
X62687432Y-42632978D01*
X62635235Y-42709370D01*
X62616872Y-42800050D01*
X62616872Y-43600150D01*
X62632812Y-43684864D01*
X62682878Y-43762668D01*
X62759270Y-43814865D01*
X62849950Y-43833228D01*
X62941400Y-43833228D01*
X62941400Y-43966772D01*
X62849950Y-43966772D01*
X62765236Y-43982712D01*
X62687432Y-44032778D01*
X62635235Y-44109170D01*
X62616872Y-44199850D01*
X62616872Y-44796602D01*
X62528526Y-44884948D01*
X62528692Y-44695316D01*
X62448387Y-44500963D01*
X62299819Y-44352136D01*
X62105606Y-44271492D01*
X61895316Y-44271308D01*
X61700963Y-44351613D01*
X61552136Y-44500181D01*
X61542586Y-44523180D01*
X60906259Y-44523180D01*
X60897380Y-44521382D01*
X60049020Y-44521382D01*
X59964306Y-44537322D01*
X59886502Y-44587388D01*
X59834305Y-44663780D01*
X59815942Y-44754460D01*
X58184058Y-44754460D01*
X58168118Y-44669746D01*
X58118052Y-44591942D01*
X58041660Y-44539745D01*
X57950980Y-44521382D01*
X57905400Y-44521382D01*
X57905400Y-43632103D01*
X57984664Y-43617188D01*
X58062468Y-43567122D01*
X58114665Y-43490730D01*
X58133028Y-43400050D01*
X58133028Y-42599950D01*
X58117088Y-42515236D01*
X58067022Y-42437432D01*
X57990630Y-42385235D01*
X57899950Y-42366872D01*
X57878500Y-42366872D01*
X57878500Y-42269062D01*
X57947864Y-42199819D01*
X58028508Y-42005606D01*
X58028692Y-41795316D01*
X57948387Y-41600963D01*
X57878500Y-41530954D01*
X57878500Y-40795645D01*
X59130000Y-40795645D01*
X59346492Y-40754909D01*
X59501419Y-40655217D01*
X59638261Y-40748717D01*
X59870000Y-40795645D01*
X61670000Y-40795645D01*
X61886492Y-40754909D01*
X62085326Y-40626963D01*
X62218717Y-40431739D01*
X62265645Y-40200000D01*
X62265645Y-39804684D01*
X62571308Y-39804684D01*
X62651613Y-39999037D01*
X62800181Y-40147864D01*
X62994394Y-40228508D01*
X63204684Y-40228692D01*
X63320930Y-40180660D01*
X68031698Y-40180660D01*
X68017067Y-40252910D01*
X68017067Y-40651690D01*
X68036549Y-40755229D01*
X68049435Y-40775254D01*
X68039511Y-40789778D01*
X68017067Y-40900610D01*
X68017067Y-41299390D01*
X68036549Y-41402929D01*
X68049435Y-41422954D01*
X68039511Y-41437478D01*
X68017067Y-41548310D01*
X68017067Y-41947090D01*
X68036549Y-42050629D01*
X68097741Y-42145724D01*
X68191108Y-42209519D01*
X68301940Y-42231963D01*
X69648140Y-42231963D01*
X69751679Y-42212481D01*
X69846774Y-42151289D01*
X69910569Y-42057922D01*
X69933013Y-41947090D01*
X69933013Y-41548310D01*
X69913531Y-41444771D01*
X69900645Y-41424746D01*
X69910569Y-41410222D01*
X69933013Y-41299390D01*
X69933013Y-40900610D01*
X69913531Y-40797071D01*
X69900645Y-40777046D01*
X69910569Y-40762522D01*
X69933013Y-40651690D01*
X69933013Y-40252910D01*
X69913531Y-40149371D01*
X69899803Y-40128038D01*
X69910569Y-40112282D01*
X69933013Y-40001450D01*
X69933013Y-39602670D01*
X69913531Y-39499131D01*
X69852339Y-39404036D01*
X69758972Y-39340241D01*
X69648140Y-39317797D01*
X68301940Y-39317797D01*
X68198401Y-39337279D01*
X68103306Y-39398471D01*
X68086232Y-39423460D01*
X63557683Y-39423460D01*
X63548387Y-39400963D01*
X63399819Y-39252136D01*
X63205606Y-39171492D01*
X62995316Y-39171308D01*
X62800963Y-39251613D01*
X62652136Y-39400181D01*
X62571492Y-39594394D01*
X62571308Y-39804684D01*
X62265645Y-39804684D01*
X62265645Y-39004800D01*
X63892016Y-39004800D01*
X63951613Y-39149037D01*
X64100181Y-39297864D01*
X64294394Y-39378508D01*
X64504684Y-39378692D01*
X64699037Y-39298387D01*
X64847864Y-39149819D01*
X64928508Y-38955606D01*
X64928692Y-38745316D01*
X64848387Y-38550963D01*
X64699819Y-38402136D01*
X64505606Y-38321492D01*
X64295316Y-38321308D01*
X64116484Y-38395200D01*
X62265645Y-38395200D01*
X62265645Y-37200000D01*
X62224909Y-36983508D01*
X62205568Y-36953450D01*
X68070132Y-36953450D01*
X68070132Y-39048950D01*
X68086072Y-39133664D01*
X68136138Y-39211468D01*
X68212530Y-39263665D01*
X68303210Y-39282028D01*
X69900870Y-39282028D01*
X69985584Y-39266088D01*
X70063388Y-39216022D01*
X70115585Y-39139630D01*
X70133948Y-39048950D01*
X70133948Y-36953450D01*
X70118008Y-36868736D01*
X70067942Y-36790932D01*
X69991550Y-36738735D01*
X69900870Y-36720372D01*
X68303210Y-36720372D01*
X68218496Y-36736312D01*
X68140692Y-36786378D01*
X68088495Y-36862770D01*
X68070132Y-36953450D01*
X62205568Y-36953450D01*
X62096963Y-36784674D01*
X61901739Y-36651283D01*
X61670000Y-36604355D01*
X59870000Y-36604355D01*
X59653508Y-36645091D01*
X59498581Y-36744783D01*
X59361739Y-36651283D01*
X59130000Y-36604355D01*
X57330000Y-36604355D01*
X57113508Y-36645091D01*
X56914674Y-36773037D01*
X56781283Y-36968261D01*
X56734355Y-37200000D01*
X56734355Y-40200000D01*
X56775091Y-40416492D01*
X56903037Y-40615326D01*
X57098261Y-40748717D01*
X57121300Y-40753382D01*
X57121300Y-41531137D01*
X57052136Y-41600181D01*
X56971492Y-41794394D01*
X56971308Y-42004684D01*
X57051613Y-42199037D01*
X57121300Y-42268845D01*
X57121300Y-42366872D01*
X57099850Y-42366872D01*
X57015136Y-42382812D01*
X56937332Y-42432878D01*
X56885135Y-42509270D01*
X56866772Y-42599950D01*
X56866772Y-43400050D01*
X56882712Y-43484764D01*
X56932778Y-43562568D01*
X57009170Y-43614765D01*
X57099850Y-43633128D01*
X57148200Y-43633128D01*
X57148200Y-43958603D01*
X56414118Y-43191554D01*
X56414715Y-43190680D01*
X56433078Y-43100000D01*
X56433078Y-41500000D01*
X56417138Y-41415286D01*
X56367072Y-41337482D01*
X56290680Y-41285285D01*
X56200000Y-41266922D01*
X54400000Y-41266922D01*
X54315286Y-41282862D01*
X54237482Y-41332928D01*
X54185285Y-41409320D01*
X54166922Y-41500000D01*
X52883761Y-41500000D01*
X53129133Y-41255056D01*
X53278430Y-40895510D01*
X53278770Y-40506198D01*
X53130101Y-40146392D01*
X52855056Y-39870867D01*
X52495510Y-39721570D01*
X52106198Y-39721230D01*
X51746392Y-39869899D01*
X51470867Y-40144944D01*
X51321570Y-40504490D01*
X51321230Y-40893802D01*
X43521006Y-40893802D01*
X43562468Y-40867122D01*
X43614665Y-40790730D01*
X43633028Y-40700050D01*
X43633028Y-39899950D01*
X43617088Y-39815236D01*
X43567022Y-39737432D01*
X43490630Y-39685235D01*
X43399950Y-39666872D01*
X42599850Y-39666872D01*
X42515136Y-39682812D01*
X42437332Y-39732878D01*
X42385135Y-39809270D01*
X42366772Y-39899950D01*
X42366772Y-40700050D01*
X42382712Y-40784764D01*
X42432778Y-40862568D01*
X42509170Y-40914765D01*
X42599850Y-40933128D01*
X42621300Y-40933128D01*
X42621300Y-41366872D01*
X42599850Y-41366872D01*
X42515136Y-41382812D01*
X42437332Y-41432878D01*
X42385135Y-41509270D01*
X42366772Y-41599950D01*
X42366772Y-41671720D01*
X41875838Y-41671720D01*
X41947864Y-41599819D01*
X42028508Y-41405606D01*
X42028692Y-41195316D01*
X41948387Y-41000963D01*
X41799819Y-40852136D01*
X41605606Y-40771492D01*
X41395316Y-40771308D01*
X41200963Y-40851613D01*
X41089315Y-40963066D01*
X41041212Y-40888312D01*
X40964820Y-40836115D01*
X40874140Y-40817752D01*
X40625220Y-40817752D01*
X40540506Y-40833692D01*
X40462702Y-40883758D01*
X40410505Y-40960150D01*
X40392142Y-41050830D01*
X40106458Y-41050830D01*
X40090518Y-40966116D01*
X40053720Y-40908931D01*
X40053720Y-40133228D01*
X40200050Y-40133228D01*
X40284764Y-40117288D01*
X40362568Y-40067222D01*
X40414765Y-39990830D01*
X40433128Y-39900150D01*
X40433128Y-39100050D01*
X40417188Y-39015336D01*
X40367122Y-38937532D01*
X40303122Y-38893802D01*
X51321230Y-38893802D01*
X51469899Y-39253608D01*
X51744944Y-39529133D01*
X52104490Y-39678430D01*
X52493802Y-39678770D01*
X52853608Y-39530101D01*
X53129133Y-39255056D01*
X53278430Y-38895510D01*
X53278770Y-38506198D01*
X53130101Y-38146392D01*
X52855056Y-37870867D01*
X52495510Y-37721570D01*
X52106198Y-37721230D01*
X51746392Y-37869899D01*
X51470867Y-38144944D01*
X51321570Y-38504490D01*
X51321230Y-38893802D01*
X40303122Y-38893802D01*
X40290730Y-38885335D01*
X40200050Y-38866972D01*
X39399950Y-38866972D01*
X39315236Y-38882912D01*
X39237432Y-38932978D01*
X39185235Y-39009370D01*
X39166872Y-39100050D01*
X39166872Y-39900150D01*
X39182812Y-39984864D01*
X39232878Y-40062668D01*
X39309270Y-40114865D01*
X39399950Y-40133228D01*
X39444120Y-40133228D01*
X39444120Y-40602924D01*
X38833128Y-39817541D01*
X38833128Y-39100050D01*
X38817188Y-39015336D01*
X38767122Y-38937532D01*
X38690730Y-38885335D01*
X38600050Y-38866972D01*
X37799950Y-38866972D01*
X37715236Y-38882912D01*
X37637432Y-38932978D01*
X37585235Y-39009370D01*
X37566872Y-39100050D01*
X37566872Y-39900150D01*
X37582812Y-39984864D01*
X37632878Y-40062668D01*
X37709270Y-40114865D01*
X37799950Y-40133228D01*
X38306372Y-40133228D01*
X38374966Y-40221400D01*
X36850000Y-40221400D01*
X36705116Y-40250219D01*
X36582289Y-40332289D01*
X35982289Y-40932289D01*
X35900219Y-41055116D01*
X35871399Y-41200000D01*
X35871400Y-41200005D01*
X35871400Y-42881038D01*
X35802136Y-42950181D01*
X35721492Y-43144394D01*
X35721308Y-43354684D01*
X32376200Y-43354684D01*
X32376200Y-35804684D01*
X63771308Y-35804684D01*
X63851613Y-35999037D01*
X64000181Y-36147864D01*
X64194394Y-36228508D01*
X64404684Y-36228692D01*
X64599037Y-36148387D01*
X64668946Y-36078600D01*
X69931038Y-36078600D01*
X70000181Y-36147864D01*
X70194394Y-36228508D01*
X70404684Y-36228692D01*
X70599037Y-36148387D01*
X70747864Y-35999819D01*
X70828508Y-35805606D01*
X70828692Y-35595316D01*
X70748387Y-35400963D01*
X70599819Y-35252136D01*
X70405606Y-35171492D01*
X70195316Y-35171308D01*
X70000963Y-35251613D01*
X69931054Y-35321400D01*
X64668962Y-35321400D01*
X64599819Y-35252136D01*
X64405606Y-35171492D01*
X64195316Y-35171308D01*
X64000963Y-35251613D01*
X63852136Y-35400181D01*
X63771492Y-35594394D01*
X63771308Y-35804684D01*
X32376200Y-35804684D01*
X32376200Y-35300000D01*
X32370989Y-35272305D01*
X32354621Y-35246868D01*
X32329646Y-35229803D01*
X32300000Y-35223800D01*
X24200000Y-35223800D01*
X24172305Y-35229011D01*
X24146868Y-35245379D01*
X24129803Y-35270354D01*
X24123800Y-35300000D01*
X23396678Y-35300000D01*
X23396678Y-34554684D01*
X58021308Y-34554684D01*
X58101613Y-34749037D01*
X58250181Y-34897864D01*
X58444394Y-34978508D01*
X58654684Y-34978692D01*
X58849037Y-34898387D01*
X58918946Y-34828600D01*
X62681038Y-34828600D01*
X62750181Y-34897864D01*
X62944394Y-34978508D01*
X63154684Y-34978692D01*
X63349037Y-34898387D01*
X63497864Y-34749819D01*
X63578508Y-34555606D01*
X63578692Y-34345316D01*
X63498387Y-34150963D01*
X63349819Y-34002136D01*
X63155606Y-33921492D01*
X62945316Y-33921308D01*
X62750963Y-34001613D01*
X62681054Y-34071400D01*
X58918962Y-34071400D01*
X58849819Y-34002136D01*
X58655606Y-33921492D01*
X58445316Y-33921308D01*
X58250963Y-34001613D01*
X58102136Y-34150181D01*
X58021492Y-34344394D01*
X58021308Y-34554684D01*
X23396678Y-34554684D01*
X23396678Y-33804684D01*
X31621308Y-33804684D01*
X31701613Y-33999037D01*
X31850181Y-34147864D01*
X32044394Y-34228508D01*
X32254684Y-34228692D01*
X32449037Y-34148387D01*
X32592874Y-34004800D01*
X34021356Y-34004800D01*
X34101613Y-34199037D01*
X34250181Y-34347864D01*
X34444394Y-34428508D01*
X34654684Y-34428692D01*
X34849037Y-34348387D01*
X34997864Y-34199819D01*
X35078508Y-34005606D01*
X35078692Y-33795316D01*
X34998387Y-33600963D01*
X34849819Y-33452136D01*
X34655606Y-33371492D01*
X34445316Y-33371308D01*
X34375309Y-33400234D01*
X34350000Y-33395200D01*
X32592634Y-33395200D01*
X32502276Y-33304684D01*
X41021308Y-33304684D01*
X41101613Y-33499037D01*
X41250181Y-33647864D01*
X41444394Y-33728508D01*
X41654684Y-33728692D01*
X41849037Y-33648387D01*
X41992874Y-33504800D01*
X55007366Y-33504800D01*
X55150181Y-33647864D01*
X55344394Y-33728508D01*
X55554684Y-33728692D01*
X55749037Y-33648387D01*
X55897864Y-33499819D01*
X55978508Y-33305606D01*
X55978692Y-33095316D01*
X55898387Y-32900963D01*
X55749819Y-32752136D01*
X55555606Y-32671492D01*
X55345316Y-32671308D01*
X55150963Y-32751613D01*
X55007126Y-32895200D01*
X41992634Y-32895200D01*
X41849819Y-32752136D01*
X41655606Y-32671492D01*
X41445316Y-32671308D01*
X41250963Y-32751613D01*
X41102136Y-32900181D01*
X41021492Y-33094394D01*
X41021308Y-33304684D01*
X32502276Y-33304684D01*
X32449819Y-33252136D01*
X32255606Y-33171492D01*
X32045316Y-33171308D01*
X31850963Y-33251613D01*
X31702136Y-33400181D01*
X31621492Y-33594394D01*
X31621308Y-33804684D01*
X23396678Y-33804684D01*
X23396678Y-33684000D01*
X23380738Y-33599286D01*
X23330672Y-33521482D01*
X23254280Y-33469285D01*
X23163600Y-33450922D01*
X21436400Y-33450922D01*
X21351686Y-33466862D01*
X21273882Y-33516928D01*
X21221685Y-33593320D01*
X21203322Y-33684000D01*
X20432157Y-33684000D01*
X20177967Y-33514156D01*
X19760000Y-33431017D01*
X19342033Y-33514156D01*
X18987698Y-33750915D01*
X18750939Y-34105250D01*
X18667800Y-34523217D01*
X16376200Y-34523217D01*
X16376200Y-32504800D01*
X19457366Y-32504800D01*
X19600181Y-32647864D01*
X19794394Y-32728508D01*
X20004684Y-32728692D01*
X20199037Y-32648387D01*
X20347864Y-32499819D01*
X20428508Y-32305606D01*
X20428692Y-32095316D01*
X20348387Y-31900963D01*
X20199819Y-31752136D01*
X20005606Y-31671492D01*
X19795316Y-31671308D01*
X19600963Y-31751613D01*
X19457126Y-31895200D01*
X16376200Y-31895200D01*
X16376200Y-30750000D01*
X32566922Y-30750000D01*
X32566922Y-32250000D01*
X32582862Y-32334714D01*
X32632928Y-32412518D01*
X32709320Y-32464715D01*
X32800000Y-32483078D01*
X34300000Y-32483078D01*
X34384714Y-32467138D01*
X34462518Y-32417072D01*
X34514715Y-32340680D01*
X34533078Y-32250000D01*
X34533078Y-31693802D01*
X34571230Y-31693802D01*
X34719899Y-32053608D01*
X34994944Y-32329133D01*
X35354490Y-32478430D01*
X35743802Y-32478770D01*
X36103608Y-32330101D01*
X36379133Y-32055056D01*
X36528430Y-31695510D01*
X36528431Y-31693802D01*
X36571230Y-31693802D01*
X36719899Y-32053608D01*
X36994944Y-32329133D01*
X37354490Y-32478430D01*
X37743802Y-32478770D01*
X38103608Y-32330101D01*
X38379133Y-32055056D01*
X38528430Y-31695510D01*
X38528431Y-31693802D01*
X38571230Y-31693802D01*
X38719899Y-32053608D01*
X38994944Y-32329133D01*
X39354490Y-32478430D01*
X39743802Y-32478770D01*
X40103608Y-32330101D01*
X40379133Y-32055056D01*
X40528430Y-31695510D01*
X40528431Y-31693802D01*
X40571230Y-31693802D01*
X40719899Y-32053608D01*
X40994944Y-32329133D01*
X41354490Y-32478430D01*
X41743802Y-32478770D01*
X42103608Y-32330101D01*
X42379133Y-32055056D01*
X42528430Y-31695510D01*
X42528431Y-31693802D01*
X42571230Y-31693802D01*
X42719899Y-32053608D01*
X42994944Y-32329133D01*
X43354490Y-32478430D01*
X43743802Y-32478770D01*
X44103608Y-32330101D01*
X44379133Y-32055056D01*
X44528430Y-31695510D01*
X44528431Y-31693802D01*
X44571230Y-31693802D01*
X44719899Y-32053608D01*
X44994944Y-32329133D01*
X45354490Y-32478430D01*
X45743802Y-32478770D01*
X46103608Y-32330101D01*
X46379133Y-32055056D01*
X46528430Y-31695510D01*
X46528513Y-31600050D01*
X56916872Y-31600050D01*
X56916872Y-32400150D01*
X56932812Y-32484864D01*
X56982878Y-32562668D01*
X57059270Y-32614865D01*
X57149950Y-32633228D01*
X57947806Y-32633228D01*
X58021394Y-32706816D01*
X58021308Y-32804684D01*
X58101613Y-32999037D01*
X58250181Y-33147864D01*
X58444394Y-33228508D01*
X58654684Y-33228692D01*
X58849037Y-33148387D01*
X58992990Y-33004684D01*
X66471308Y-33004684D01*
X66551613Y-33199037D01*
X66700181Y-33347864D01*
X66894394Y-33428508D01*
X67104684Y-33428692D01*
X67299037Y-33348387D01*
X67442874Y-33204800D01*
X71100000Y-33204800D01*
X71216642Y-33181598D01*
X71296095Y-33128509D01*
X71504684Y-33128692D01*
X71699037Y-33048387D01*
X71847864Y-32899819D01*
X71928508Y-32705606D01*
X71928692Y-32495316D01*
X71848387Y-32300963D01*
X71699819Y-32152136D01*
X71505606Y-32071492D01*
X71295316Y-32071308D01*
X71100963Y-32151613D01*
X70952136Y-32300181D01*
X70871492Y-32494394D01*
X70871404Y-32595200D01*
X67442634Y-32595200D01*
X67299819Y-32452136D01*
X67105606Y-32371492D01*
X66895316Y-32371308D01*
X66700963Y-32451613D01*
X66552136Y-32600181D01*
X66471492Y-32794394D01*
X66471308Y-33004684D01*
X58992990Y-33004684D01*
X58997864Y-32999819D01*
X59078508Y-32805606D01*
X59078692Y-32595316D01*
X58998387Y-32400963D01*
X58849819Y-32252136D01*
X58655606Y-32171492D01*
X58556828Y-32171406D01*
X58183128Y-31797706D01*
X58183128Y-31600050D01*
X58167188Y-31515336D01*
X58125049Y-31449850D01*
X59266872Y-31449850D01*
X59266872Y-32249950D01*
X59282812Y-32334664D01*
X59332878Y-32412468D01*
X59409270Y-32464665D01*
X59499950Y-32483028D01*
X60300050Y-32483028D01*
X60384764Y-32467088D01*
X60462568Y-32417022D01*
X60514765Y-32340630D01*
X60533128Y-32249950D01*
X60533128Y-31449850D01*
X60517188Y-31365136D01*
X60467122Y-31287332D01*
X60390730Y-31235135D01*
X60328640Y-31222562D01*
X60328640Y-30037950D01*
X60362748Y-30016002D01*
X60414945Y-29939610D01*
X60433308Y-29848930D01*
X60433308Y-29048830D01*
X61366692Y-29048830D01*
X61366692Y-29848930D01*
X61382632Y-29933644D01*
X61432698Y-30011448D01*
X61509090Y-30063645D01*
X61599770Y-30082008D01*
X61621400Y-30082008D01*
X61621400Y-31216772D01*
X61599950Y-31216772D01*
X61515236Y-31232712D01*
X61437432Y-31282778D01*
X61385235Y-31359170D01*
X61366872Y-31449850D01*
X61366872Y-32249950D01*
X61382812Y-32334664D01*
X61432878Y-32412468D01*
X61509270Y-32464665D01*
X61599950Y-32483028D01*
X62400050Y-32483028D01*
X62484764Y-32467088D01*
X62562568Y-32417022D01*
X62614765Y-32340630D01*
X62627967Y-32275437D01*
X62750181Y-32397864D01*
X62944394Y-32478508D01*
X63154684Y-32478692D01*
X63349037Y-32398387D01*
X63497864Y-32249819D01*
X63578508Y-32055606D01*
X63578692Y-31845316D01*
X63498387Y-31650963D01*
X63349819Y-31502136D01*
X63155606Y-31421492D01*
X62945316Y-31421308D01*
X62750963Y-31501613D01*
X62744509Y-31508056D01*
X62633128Y-31502486D01*
X62633128Y-31449850D01*
X62617188Y-31365136D01*
X62567122Y-31287332D01*
X62490730Y-31235135D01*
X62400050Y-31216772D01*
X62378600Y-31216772D01*
X62378600Y-29598925D01*
X62378601Y-29598920D01*
X62349781Y-29454036D01*
X62346336Y-29448880D01*
X62333228Y-29429263D01*
X62333228Y-29048830D01*
X62317288Y-28964116D01*
X62267222Y-28886312D01*
X62190830Y-28834115D01*
X62100150Y-28815752D01*
X61599770Y-28815752D01*
X61515056Y-28831692D01*
X61437252Y-28881758D01*
X61385055Y-28958150D01*
X61366692Y-29048830D01*
X60433308Y-29048830D01*
X60417368Y-28964116D01*
X60367302Y-28886312D01*
X60290910Y-28834115D01*
X60200230Y-28815752D01*
X59699850Y-28815752D01*
X59615136Y-28831692D01*
X59537332Y-28881758D01*
X59485135Y-28958150D01*
X59466772Y-29048830D01*
X59466772Y-29848930D01*
X59482712Y-29933644D01*
X59532778Y-30011448D01*
X59571440Y-30037865D01*
X59571440Y-31216772D01*
X59499950Y-31216772D01*
X59415236Y-31232712D01*
X59337432Y-31282778D01*
X59285235Y-31359170D01*
X59266872Y-31449850D01*
X58125049Y-31449850D01*
X58117122Y-31437532D01*
X58040730Y-31385335D01*
X57950050Y-31366972D01*
X57149950Y-31366972D01*
X57065236Y-31382912D01*
X56987432Y-31432978D01*
X56935235Y-31509370D01*
X56916872Y-31600050D01*
X46528513Y-31600050D01*
X46528770Y-31306198D01*
X46380101Y-30946392D01*
X46105056Y-30670867D01*
X45745510Y-30521570D01*
X45356198Y-30521230D01*
X44996392Y-30669899D01*
X44720867Y-30944944D01*
X44571570Y-31304490D01*
X44571230Y-31693802D01*
X44528431Y-31693802D01*
X44528770Y-31306198D01*
X44380101Y-30946392D01*
X44105056Y-30670867D01*
X43745510Y-30521570D01*
X43356198Y-30521230D01*
X42996392Y-30669899D01*
X42720867Y-30944944D01*
X42571570Y-31304490D01*
X42571230Y-31693802D01*
X42528431Y-31693802D01*
X42528770Y-31306198D01*
X42380101Y-30946392D01*
X42105056Y-30670867D01*
X41745510Y-30521570D01*
X41356198Y-30521230D01*
X40996392Y-30669899D01*
X40720867Y-30944944D01*
X40571570Y-31304490D01*
X40571230Y-31693802D01*
X40528431Y-31693802D01*
X40528770Y-31306198D01*
X40380101Y-30946392D01*
X40105056Y-30670867D01*
X39745510Y-30521570D01*
X39356198Y-30521230D01*
X38996392Y-30669899D01*
X38720867Y-30944944D01*
X38571570Y-31304490D01*
X38571230Y-31693802D01*
X38528431Y-31693802D01*
X38528770Y-31306198D01*
X38380101Y-30946392D01*
X38105056Y-30670867D01*
X37745510Y-30521570D01*
X37356198Y-30521230D01*
X36996392Y-30669899D01*
X36720867Y-30944944D01*
X36571570Y-31304490D01*
X36571230Y-31693802D01*
X36528431Y-31693802D01*
X36528770Y-31306198D01*
X36380101Y-30946392D01*
X36105056Y-30670867D01*
X35745510Y-30521570D01*
X35356198Y-30521230D01*
X34996392Y-30669899D01*
X34720867Y-30944944D01*
X34571570Y-31304490D01*
X34571230Y-31693802D01*
X34533078Y-31693802D01*
X34533078Y-30750000D01*
X34517138Y-30665286D01*
X34467072Y-30587482D01*
X34390680Y-30535285D01*
X34300000Y-30516922D01*
X32800000Y-30516922D01*
X32715286Y-30532862D01*
X32637482Y-30582928D01*
X32585285Y-30659320D01*
X32566922Y-30750000D01*
X16376200Y-30750000D01*
X16376200Y-28200050D01*
X56916872Y-28200050D01*
X56916872Y-29000150D01*
X56932812Y-29084864D01*
X56982878Y-29162668D01*
X57059270Y-29214865D01*
X57149950Y-29233228D01*
X57171400Y-29233228D01*
X57171400Y-29766772D01*
X57149950Y-29766772D01*
X57065236Y-29782712D01*
X56987432Y-29832778D01*
X56935235Y-29909170D01*
X56916872Y-29999850D01*
X56916872Y-30799950D01*
X56932812Y-30884664D01*
X56982878Y-30962468D01*
X57059270Y-31014665D01*
X57149950Y-31033028D01*
X57950050Y-31033028D01*
X58034764Y-31017088D01*
X58112568Y-30967022D01*
X58164765Y-30890630D01*
X58183128Y-30799950D01*
X58183128Y-29999850D01*
X58167188Y-29915136D01*
X58117122Y-29837332D01*
X58040730Y-29785135D01*
X57950050Y-29766772D01*
X57928600Y-29766772D01*
X57928600Y-29233228D01*
X57950050Y-29233228D01*
X58034764Y-29217288D01*
X58112568Y-29167222D01*
X58164765Y-29090830D01*
X58183128Y-29000150D01*
X58183128Y-28200050D01*
X58167188Y-28115336D01*
X58117122Y-28037532D01*
X58040730Y-27985335D01*
X57950050Y-27966972D01*
X57149950Y-27966972D01*
X57065236Y-27982912D01*
X56987432Y-28032978D01*
X56935235Y-28109370D01*
X56916872Y-28200050D01*
X16376200Y-28200050D01*
X16376200Y-26599850D01*
X56916872Y-26599850D01*
X56916872Y-27399950D01*
X56932812Y-27484664D01*
X56982878Y-27562468D01*
X57059270Y-27614665D01*
X57149950Y-27633028D01*
X57950050Y-27633028D01*
X58034764Y-27617088D01*
X58112568Y-27567022D01*
X58164765Y-27490630D01*
X58183128Y-27399950D01*
X58183128Y-27378500D01*
X59466772Y-27378500D01*
X59466772Y-27451170D01*
X59482712Y-27535884D01*
X59532778Y-27613688D01*
X59609170Y-27665885D01*
X59699850Y-27684248D01*
X60200230Y-27684248D01*
X60284944Y-27668308D01*
X60362748Y-27618242D01*
X60414945Y-27541850D01*
X60433308Y-27451170D01*
X60433308Y-26651070D01*
X61366692Y-26651070D01*
X61366692Y-27451170D01*
X61382632Y-27535884D01*
X61432698Y-27613688D01*
X61509090Y-27665885D01*
X61599770Y-27684248D01*
X62100150Y-27684248D01*
X62184864Y-27668308D01*
X62262668Y-27618242D01*
X62314865Y-27541850D01*
X62333228Y-27451170D01*
X62333228Y-26651070D01*
X62317288Y-26566356D01*
X62267222Y-26488552D01*
X62228560Y-26462135D01*
X62228560Y-25206962D01*
X62302394Y-25133128D01*
X62800150Y-25133128D01*
X62884864Y-25117188D01*
X62962668Y-25067122D01*
X63014865Y-24990730D01*
X63033228Y-24900050D01*
X63033228Y-24878600D01*
X63443178Y-24878600D01*
X63521394Y-24956816D01*
X63521308Y-25054684D01*
X63601613Y-25249037D01*
X63750181Y-25397864D01*
X63944394Y-25478508D01*
X64154684Y-25478692D01*
X64349037Y-25398387D01*
X64497864Y-25249819D01*
X64578508Y-25055606D01*
X64578692Y-24845316D01*
X64498387Y-24650963D01*
X64349819Y-24502136D01*
X64155606Y-24421492D01*
X64056828Y-24421406D01*
X63867711Y-24232289D01*
X63744884Y-24150219D01*
X63600000Y-24121399D01*
X63599995Y-24121400D01*
X63033228Y-24121400D01*
X63033228Y-24099950D01*
X63017288Y-24015236D01*
X62967222Y-23937432D01*
X62890830Y-23885235D01*
X62800150Y-23866872D01*
X62000050Y-23866872D01*
X61915336Y-23882812D01*
X61837532Y-23932878D01*
X61785335Y-24009270D01*
X61766972Y-24099950D01*
X61766972Y-24597706D01*
X61582249Y-24782429D01*
X61500179Y-24905256D01*
X61471359Y-25050140D01*
X61471360Y-25050145D01*
X61471360Y-26462050D01*
X61437252Y-26483998D01*
X61385055Y-26560390D01*
X61366692Y-26651070D01*
X60433308Y-26651070D01*
X60417368Y-26566356D01*
X60367302Y-26488552D01*
X60290910Y-26436355D01*
X60200230Y-26417992D01*
X59699850Y-26417992D01*
X59615136Y-26433932D01*
X59537332Y-26483998D01*
X59485135Y-26560390D01*
X59472801Y-26621300D01*
X58183128Y-26621300D01*
X58183128Y-26599850D01*
X58167188Y-26515136D01*
X58117122Y-26437332D01*
X58040730Y-26385135D01*
X57950050Y-26366772D01*
X57149950Y-26366772D01*
X57065236Y-26382712D01*
X56987432Y-26432778D01*
X56935235Y-26509170D01*
X56916872Y-26599850D01*
X16376200Y-26599850D01*
X16376200Y-23104684D01*
X22371308Y-23104684D01*
X22451613Y-23299037D01*
X22600181Y-23447864D01*
X22794394Y-23528508D01*
X23004684Y-23528692D01*
X23199037Y-23448387D01*
X23319033Y-23328600D01*
X25681038Y-23328600D01*
X25750181Y-23397864D01*
X25944394Y-23478508D01*
X26154684Y-23478692D01*
X26349037Y-23398387D01*
X26418946Y-23328600D01*
X28856659Y-23328600D01*
X28800963Y-23351613D01*
X28652136Y-23500181D01*
X28571492Y-23694394D01*
X28571308Y-23904684D01*
X28651613Y-24099037D01*
X28800181Y-24247864D01*
X28994394Y-24328508D01*
X29204684Y-24328692D01*
X29399037Y-24248387D01*
X29442700Y-24204800D01*
X44057366Y-24204800D01*
X44200181Y-24347864D01*
X44394394Y-24428508D01*
X44604684Y-24428692D01*
X44799037Y-24348387D01*
X44947864Y-24199819D01*
X45028508Y-24005606D01*
X45028692Y-23795316D01*
X44948387Y-23600963D01*
X44799819Y-23452136D01*
X44605606Y-23371492D01*
X44395316Y-23371308D01*
X44200963Y-23451613D01*
X44057126Y-23595200D01*
X29587325Y-23595200D01*
X29548387Y-23500963D01*
X29399819Y-23352136D01*
X29343138Y-23328600D01*
X31181038Y-23328600D01*
X31250181Y-23397864D01*
X31444394Y-23478508D01*
X31654684Y-23478692D01*
X31849037Y-23398387D01*
X31918946Y-23328600D01*
X43181038Y-23328600D01*
X43250181Y-23397864D01*
X43444394Y-23478508D01*
X43654684Y-23478692D01*
X43849037Y-23398387D01*
X43918946Y-23328600D01*
X46931038Y-23328600D01*
X47000181Y-23397864D01*
X47194394Y-23478508D01*
X47404684Y-23478692D01*
X47599037Y-23398387D01*
X47668946Y-23328600D01*
X62431038Y-23328600D01*
X62500181Y-23397864D01*
X62694394Y-23478508D01*
X62904684Y-23478692D01*
X63099037Y-23398387D01*
X63168946Y-23328600D01*
X64822509Y-23328600D01*
X64851613Y-23399037D01*
X65000181Y-23547864D01*
X65194394Y-23628508D01*
X65404684Y-23628692D01*
X65599037Y-23548387D01*
X65747864Y-23399819D01*
X65828508Y-23205606D01*
X65828692Y-22995316D01*
X65748387Y-22800963D01*
X65599819Y-22652136D01*
X65405606Y-22571492D01*
X65195316Y-22571308D01*
X65180441Y-22577454D01*
X65150000Y-22571399D01*
X65149995Y-22571400D01*
X63168962Y-22571400D01*
X63099819Y-22502136D01*
X62905606Y-22421492D01*
X62695316Y-22421308D01*
X62500963Y-22501613D01*
X62431054Y-22571400D01*
X47668962Y-22571400D01*
X47599819Y-22502136D01*
X47405606Y-22421492D01*
X47195316Y-22421308D01*
X47000963Y-22501613D01*
X46931054Y-22571400D01*
X43918962Y-22571400D01*
X43849819Y-22502136D01*
X43655606Y-22421492D01*
X43445316Y-22421308D01*
X43250963Y-22501613D01*
X43181054Y-22571400D01*
X31918962Y-22571400D01*
X31849819Y-22502136D01*
X31655606Y-22421492D01*
X31445316Y-22421308D01*
X31250963Y-22501613D01*
X31181054Y-22571400D01*
X26418962Y-22571400D01*
X26349819Y-22502136D01*
X26155606Y-22421492D01*
X25945316Y-22421308D01*
X25750963Y-22501613D01*
X25681054Y-22571400D01*
X23219049Y-22571400D01*
X23199819Y-22552136D01*
X23005606Y-22471492D01*
X22795316Y-22471308D01*
X22600963Y-22551613D01*
X22452136Y-22700181D01*
X22371492Y-22894394D01*
X22371308Y-23104684D01*
X16376200Y-23104684D01*
X16376200Y-19147688D01*
X17039008Y-19147688D01*
X17382439Y-19978854D01*
X18017801Y-20615326D01*
X18848366Y-20960207D01*
X19747688Y-20960992D01*
X20578854Y-20617561D01*
X21215326Y-19982199D01*
X21560207Y-19151634D01*
X21560210Y-19147688D01*
X67039008Y-19147688D01*
X67382439Y-19978854D01*
X68017801Y-20615326D01*
X68848366Y-20960207D01*
X69747688Y-20960992D01*
X70578854Y-20617561D01*
X71215326Y-19982199D01*
X71560207Y-19151634D01*
X71560992Y-18252312D01*
X71217561Y-17421146D01*
X70582199Y-16784674D01*
X69751634Y-16439793D01*
X68852312Y-16439008D01*
X68021146Y-16782439D01*
X67384674Y-17417801D01*
X67039793Y-18248366D01*
X67039008Y-19147688D01*
X21560210Y-19147688D01*
X21560992Y-18252312D01*
X21499994Y-18104684D01*
X31671308Y-18104684D01*
X31751613Y-18299037D01*
X31900181Y-18447864D01*
X32094394Y-18528508D01*
X32304684Y-18528692D01*
X32499037Y-18448387D01*
X32642874Y-18304800D01*
X40957366Y-18304800D01*
X41100181Y-18447864D01*
X41294394Y-18528508D01*
X41504684Y-18528692D01*
X41699037Y-18448387D01*
X41847864Y-18299819D01*
X41928508Y-18105606D01*
X41928596Y-18004684D01*
X47171308Y-18004684D01*
X47251613Y-18199037D01*
X47400181Y-18347864D01*
X47594394Y-18428508D01*
X47804684Y-18428692D01*
X47999037Y-18348387D01*
X48142874Y-18204800D01*
X56157366Y-18204800D01*
X56300181Y-18347864D01*
X56494394Y-18428508D01*
X56704684Y-18428692D01*
X56899037Y-18348387D01*
X57047864Y-18199819D01*
X57128508Y-18005606D01*
X57128692Y-17795316D01*
X57048387Y-17600963D01*
X56899819Y-17452136D01*
X56705606Y-17371492D01*
X56495316Y-17371308D01*
X56300963Y-17451613D01*
X56157126Y-17595200D01*
X48142634Y-17595200D01*
X47999819Y-17452136D01*
X47805606Y-17371492D01*
X47595316Y-17371308D01*
X47400963Y-17451613D01*
X47252136Y-17600181D01*
X47171492Y-17794394D01*
X47171308Y-18004684D01*
X41928596Y-18004684D01*
X41928692Y-17895316D01*
X41848387Y-17700963D01*
X41699819Y-17552136D01*
X41505606Y-17471492D01*
X41295316Y-17471308D01*
X41100963Y-17551613D01*
X40957126Y-17695200D01*
X32642634Y-17695200D01*
X32499819Y-17552136D01*
X32305606Y-17471492D01*
X32095316Y-17471308D01*
X31900963Y-17551613D01*
X31752136Y-17700181D01*
X31671492Y-17894394D01*
X31671308Y-18104684D01*
X21499994Y-18104684D01*
X21217561Y-17421146D01*
X20582199Y-16784674D01*
X19751634Y-16439793D01*
X18852312Y-16439008D01*
X18021146Y-16782439D01*
X17384674Y-17417801D01*
X17039793Y-18248366D01*
X17039008Y-19147688D01*
X16376200Y-19147688D01*
X16376200Y-15776200D01*
X72223800Y-15776200D01*
X72223800Y-36169192D01*
X72223800Y-36169192D01*
G37*
X72223800Y-36169192D02*
X70703510Y-36169192D01*
X70618796Y-36185132D01*
X70540992Y-36235198D01*
X70488795Y-36311590D01*
X70470432Y-36402270D01*
X70470432Y-38198050D01*
X70486372Y-38282764D01*
X70536438Y-38360568D01*
X70612830Y-38412765D01*
X70703510Y-38431128D01*
X72223800Y-38431128D01*
X72223800Y-38719352D01*
X70703510Y-38719352D01*
X70618796Y-38735292D01*
X70540992Y-38785358D01*
X70488795Y-38861750D01*
X70470432Y-38952430D01*
X70470432Y-40849810D01*
X70486372Y-40934524D01*
X70536438Y-41012328D01*
X70612830Y-41064525D01*
X70703510Y-41082888D01*
X72223800Y-41082888D01*
X72223800Y-41115842D01*
X70703510Y-41115842D01*
X70618796Y-41131782D01*
X70540992Y-41181848D01*
X70488795Y-41258240D01*
X70470432Y-41348920D01*
X70470432Y-43248840D01*
X70486372Y-43333554D01*
X70536438Y-43411358D01*
X70612830Y-43463555D01*
X70703510Y-43481918D01*
X72223800Y-43481918D01*
X72223800Y-43768872D01*
X70703510Y-43768872D01*
X70618796Y-43784812D01*
X70540992Y-43834878D01*
X70488795Y-43911270D01*
X70470432Y-44001950D01*
X70470432Y-45797730D01*
X70486372Y-45882444D01*
X70536438Y-45960248D01*
X70612830Y-46012445D01*
X70703510Y-46030808D01*
X72223800Y-46030808D01*
X72223800Y-71623800D01*
X16376200Y-71623800D01*
X16376200Y-69147688D01*
X17039008Y-69147688D01*
X17382439Y-69978854D01*
X18017801Y-70615326D01*
X18848366Y-70960207D01*
X19747688Y-70960992D01*
X20578854Y-70617561D01*
X21215326Y-69982199D01*
X21560207Y-69151634D01*
X21560210Y-69147688D01*
X67039008Y-69147688D01*
X67382439Y-69978854D01*
X68017801Y-70615326D01*
X68848366Y-70960207D01*
X69747688Y-70960992D01*
X70578854Y-70617561D01*
X71215326Y-69982199D01*
X71560207Y-69151634D01*
X71560992Y-68252312D01*
X71217561Y-67421146D01*
X70582199Y-66784674D01*
X69751634Y-66439793D01*
X68852312Y-66439008D01*
X68021146Y-66782439D01*
X67384674Y-67417801D01*
X67039793Y-68248366D01*
X67039008Y-69147688D01*
X21560210Y-69147688D01*
X21560992Y-68252312D01*
X21217561Y-67421146D01*
X20582199Y-66784674D01*
X19751634Y-66439793D01*
X18852312Y-66439008D01*
X18021146Y-66782439D01*
X17384674Y-67417801D01*
X17039793Y-68248366D01*
X17039008Y-69147688D01*
X16376200Y-69147688D01*
X16376200Y-66404684D01*
X31771308Y-66404684D01*
X31851613Y-66599037D01*
X32000181Y-66747864D01*
X32194394Y-66828508D01*
X32404684Y-66828692D01*
X32599037Y-66748387D01*
X32742874Y-66604800D01*
X39371483Y-66604800D01*
X39371308Y-66804684D01*
X39451613Y-66999037D01*
X39600181Y-67147864D01*
X39794394Y-67228508D01*
X40004684Y-67228692D01*
X40199037Y-67148387D01*
X40347864Y-66999819D01*
X40428508Y-66805606D01*
X40428692Y-66595316D01*
X40348387Y-66400963D01*
X40199819Y-66252136D01*
X40005606Y-66171492D01*
X39802366Y-66171314D01*
X39715526Y-66084474D01*
X39616642Y-66018402D01*
X39500000Y-65995200D01*
X32742634Y-65995200D01*
X32599819Y-65852136D01*
X32405606Y-65771492D01*
X32195316Y-65771308D01*
X32000963Y-65851613D01*
X31852136Y-66000181D01*
X31771492Y-66194394D01*
X31771308Y-66404684D01*
X16376200Y-66404684D01*
X16376200Y-64704684D01*
X23071308Y-64704684D01*
X23151613Y-64899037D01*
X23300181Y-65047864D01*
X23494394Y-65128508D01*
X23704684Y-65128692D01*
X23899037Y-65048387D01*
X23968946Y-64978600D01*
X25631038Y-64978600D01*
X25700181Y-65047864D01*
X25894394Y-65128508D01*
X26104684Y-65128692D01*
X26299037Y-65048387D01*
X26368946Y-64978600D01*
X40631038Y-64978600D01*
X40700181Y-65047864D01*
X40894394Y-65128508D01*
X41104684Y-65128692D01*
X41299037Y-65048387D01*
X41368948Y-64978597D01*
X47177777Y-64978555D01*
X47000963Y-65051613D01*
X46852136Y-65200181D01*
X46771492Y-65394394D01*
X46771308Y-65604684D01*
X46851613Y-65799037D01*
X47000181Y-65947864D01*
X47194394Y-66028508D01*
X47404684Y-66028692D01*
X47599037Y-65948387D01*
X47742874Y-65804800D01*
X54773748Y-65804800D01*
X54971485Y-66002537D01*
X54971308Y-66204684D01*
X55051613Y-66399037D01*
X55200181Y-66547864D01*
X55394394Y-66628508D01*
X55604684Y-66628692D01*
X55799037Y-66548387D01*
X55947864Y-66399819D01*
X56028508Y-66205606D01*
X56028692Y-65995316D01*
X55948387Y-65800963D01*
X55799819Y-65652136D01*
X55605606Y-65571492D01*
X55402366Y-65571314D01*
X55115526Y-65284474D01*
X55016642Y-65218402D01*
X54900000Y-65195200D01*
X47742634Y-65195200D01*
X47599819Y-65052136D01*
X47422611Y-64978553D01*
X54573963Y-64978501D01*
X54694394Y-65028508D01*
X54904684Y-65028692D01*
X55099037Y-64948387D01*
X55247864Y-64799819D01*
X55328508Y-64605606D01*
X55328692Y-64395316D01*
X55248387Y-64200963D01*
X55099819Y-64052136D01*
X54905606Y-63971492D01*
X54695316Y-63971308D01*
X54500963Y-64051613D01*
X54352136Y-64200181D01*
X54343366Y-64221303D01*
X41368960Y-64221397D01*
X41299819Y-64152136D01*
X41105606Y-64071492D01*
X40895316Y-64071308D01*
X40700963Y-64151613D01*
X40631054Y-64221400D01*
X26368962Y-64221400D01*
X26299819Y-64152136D01*
X26105606Y-64071492D01*
X25895316Y-64071308D01*
X25700963Y-64151613D01*
X25631054Y-64221400D01*
X23968962Y-64221400D01*
X23899819Y-64152136D01*
X23705606Y-64071492D01*
X23495316Y-64071308D01*
X23300963Y-64151613D01*
X23152136Y-64300181D01*
X23071492Y-64494394D01*
X23071308Y-64704684D01*
X16376200Y-64704684D01*
X16376200Y-60804684D01*
X40771308Y-60804684D01*
X40851613Y-60999037D01*
X41000181Y-61147864D01*
X41194394Y-61228508D01*
X41404684Y-61228692D01*
X41599037Y-61148387D01*
X41668946Y-61078600D01*
X54431038Y-61078600D01*
X54500181Y-61147864D01*
X54694394Y-61228508D01*
X54904684Y-61228692D01*
X55099037Y-61148387D01*
X55168946Y-61078600D01*
X63343178Y-61078600D01*
X64271394Y-62006815D01*
X64271308Y-62104684D01*
X64351613Y-62299037D01*
X64500181Y-62447864D01*
X64694394Y-62528508D01*
X64904684Y-62528692D01*
X65099037Y-62448387D01*
X65247864Y-62299819D01*
X65328508Y-62105606D01*
X65328692Y-61895316D01*
X65248387Y-61700963D01*
X65099819Y-61552136D01*
X64905606Y-61471492D01*
X64806827Y-61471406D01*
X63767711Y-60432289D01*
X63644884Y-60350219D01*
X63500000Y-60321399D01*
X63499995Y-60321400D01*
X55168962Y-60321400D01*
X55099819Y-60252136D01*
X54905606Y-60171492D01*
X54695316Y-60171308D01*
X54500963Y-60251613D01*
X54431054Y-60321400D01*
X41668962Y-60321400D01*
X41599819Y-60252136D01*
X41405606Y-60171492D01*
X41195316Y-60171308D01*
X41000963Y-60251613D01*
X40852136Y-60400181D01*
X40771492Y-60594394D01*
X40771308Y-60804684D01*
X16376200Y-60804684D01*
X16376200Y-56150000D01*
X32516922Y-56150000D01*
X32516922Y-57650000D01*
X32532862Y-57734714D01*
X32582928Y-57812518D01*
X32659320Y-57864715D01*
X32750000Y-57883078D01*
X34250000Y-57883078D01*
X34334714Y-57867138D01*
X34412518Y-57817072D01*
X34464715Y-57740680D01*
X34483078Y-57650000D01*
X34483078Y-56150000D01*
X34467138Y-56065286D01*
X34417072Y-55987482D01*
X34340680Y-55935285D01*
X34250000Y-55916922D01*
X32750000Y-55916922D01*
X32665286Y-55932862D01*
X32587482Y-55982928D01*
X32535285Y-56059320D01*
X32516922Y-56150000D01*
X16376200Y-56150000D01*
X16376200Y-55404684D01*
X33021308Y-55404684D01*
X33101613Y-55599037D01*
X33250181Y-55747864D01*
X33444394Y-55828508D01*
X33654684Y-55828692D01*
X33849037Y-55748387D01*
X33992874Y-55604800D01*
X35964148Y-55604800D01*
X35647420Y-55921528D01*
X35306198Y-55921230D01*
X34946392Y-56069899D01*
X34670867Y-56344944D01*
X34521570Y-56704490D01*
X34521230Y-57093802D01*
X34669899Y-57453608D01*
X34944944Y-57729133D01*
X35304490Y-57878430D01*
X35693802Y-57878770D01*
X36053608Y-57730101D01*
X36329133Y-57455056D01*
X36478430Y-57095510D01*
X36478770Y-56706198D01*
X36330101Y-56346392D01*
X36207487Y-56223565D01*
X36426252Y-56004800D01*
X37103943Y-56004800D01*
X36946392Y-56069899D01*
X36670867Y-56344944D01*
X36521570Y-56704490D01*
X36521230Y-57093802D01*
X36669899Y-57453608D01*
X36944944Y-57729133D01*
X37304490Y-57878430D01*
X37693802Y-57878770D01*
X38053608Y-57730101D01*
X38329133Y-57455056D01*
X38478430Y-57095510D01*
X38478770Y-56706198D01*
X38330101Y-56346392D01*
X38055056Y-56070867D01*
X37895949Y-56004800D01*
X39103943Y-56004800D01*
X38946392Y-56069899D01*
X38670867Y-56344944D01*
X38521570Y-56704490D01*
X38521230Y-57093802D01*
X38669899Y-57453608D01*
X38944944Y-57729133D01*
X39304490Y-57878430D01*
X39693802Y-57878770D01*
X40053608Y-57730101D01*
X40329133Y-57455056D01*
X40478430Y-57095510D01*
X40478770Y-56706198D01*
X40330101Y-56346392D01*
X40055056Y-56070867D01*
X39895949Y-56004800D01*
X41103943Y-56004800D01*
X40946392Y-56069899D01*
X40670867Y-56344944D01*
X40521570Y-56704490D01*
X40521230Y-57093802D01*
X40669899Y-57453608D01*
X40944944Y-57729133D01*
X41304490Y-57878430D01*
X41693802Y-57878770D01*
X42053608Y-57730101D01*
X42329133Y-57455056D01*
X42478430Y-57095510D01*
X42478770Y-56706198D01*
X42330101Y-56346392D01*
X42055056Y-56070867D01*
X41895949Y-56004800D01*
X43103943Y-56004800D01*
X42946392Y-56069899D01*
X42670867Y-56344944D01*
X42521570Y-56704490D01*
X42521230Y-57093802D01*
X42669899Y-57453608D01*
X42944944Y-57729133D01*
X43304490Y-57878430D01*
X43693802Y-57878770D01*
X44053608Y-57730101D01*
X44329133Y-57455056D01*
X44478430Y-57095510D01*
X44478770Y-56706198D01*
X44330101Y-56346392D01*
X44055056Y-56070867D01*
X43895949Y-56004800D01*
X45103943Y-56004800D01*
X44946392Y-56069899D01*
X44670867Y-56344944D01*
X44521570Y-56704490D01*
X44521230Y-57093802D01*
X44669899Y-57453608D01*
X44944944Y-57729133D01*
X45304490Y-57878430D01*
X45693802Y-57878770D01*
X46053608Y-57730101D01*
X46329133Y-57455056D01*
X46478430Y-57095510D01*
X46478770Y-56706198D01*
X46330101Y-56346392D01*
X46055056Y-56070867D01*
X45895949Y-56004800D01*
X47103943Y-56004800D01*
X46946392Y-56069899D01*
X46670867Y-56344944D01*
X46521570Y-56704490D01*
X46521230Y-57093802D01*
X46669899Y-57453608D01*
X46944944Y-57729133D01*
X47304490Y-57878430D01*
X47693802Y-57878770D01*
X48053608Y-57730101D01*
X48329133Y-57455056D01*
X48402404Y-57278600D01*
X54599995Y-57278600D01*
X54600000Y-57278601D01*
X54744884Y-57249781D01*
X54776614Y-57228580D01*
X54904684Y-57228692D01*
X55099037Y-57148387D01*
X55247864Y-56999819D01*
X55328508Y-56805606D01*
X55328636Y-56659688D01*
X56084474Y-57415526D01*
X56183358Y-57481598D01*
X56300000Y-57504800D01*
X62357366Y-57504800D01*
X62500181Y-57647864D01*
X62694394Y-57728508D01*
X62904684Y-57728692D01*
X63099037Y-57648387D01*
X63247864Y-57499819D01*
X63328508Y-57305606D01*
X63328692Y-57095316D01*
X63248387Y-56900963D01*
X63099819Y-56752136D01*
X62905606Y-56671492D01*
X62695316Y-56671308D01*
X62500963Y-56751613D01*
X62357126Y-56895200D01*
X56426252Y-56895200D01*
X55334825Y-55803773D01*
X55394394Y-55828508D01*
X55604684Y-55828692D01*
X55799037Y-55748387D01*
X55947864Y-55599819D01*
X56028508Y-55405606D01*
X56028596Y-55304684D01*
X64171308Y-55304684D01*
X64251613Y-55499037D01*
X64400181Y-55647864D01*
X64594394Y-55728508D01*
X64804684Y-55728692D01*
X64999037Y-55648387D01*
X65142874Y-55504800D01*
X67757366Y-55504800D01*
X67900181Y-55647864D01*
X68094394Y-55728508D01*
X68304684Y-55728692D01*
X68499037Y-55648387D01*
X68647864Y-55499819D01*
X68728508Y-55305606D01*
X68728692Y-55095316D01*
X68648387Y-54900963D01*
X68499819Y-54752136D01*
X68305606Y-54671492D01*
X68095316Y-54671308D01*
X67900963Y-54751613D01*
X67757126Y-54895200D01*
X65142634Y-54895200D01*
X64999819Y-54752136D01*
X64805606Y-54671492D01*
X64595316Y-54671308D01*
X64400963Y-54751613D01*
X64252136Y-54900181D01*
X64171492Y-55094394D01*
X64171308Y-55304684D01*
X56028596Y-55304684D01*
X56028692Y-55195316D01*
X55948387Y-55000963D01*
X55799819Y-54852136D01*
X55605606Y-54771492D01*
X55395316Y-54771308D01*
X55200963Y-54851613D01*
X55057126Y-54995200D01*
X33992634Y-54995200D01*
X33849819Y-54852136D01*
X33655606Y-54771492D01*
X33445316Y-54771308D01*
X33250963Y-54851613D01*
X33102136Y-55000181D01*
X33021492Y-55194394D01*
X33021308Y-55404684D01*
X16376200Y-55404684D01*
X16376200Y-53804684D01*
X31471308Y-53804684D01*
X31551613Y-53999037D01*
X31700181Y-54147864D01*
X31894394Y-54228508D01*
X32104684Y-54228692D01*
X32299037Y-54148387D01*
X32442874Y-54004800D01*
X41062675Y-54004800D01*
X41101613Y-54099037D01*
X41250181Y-54247864D01*
X41444394Y-54328508D01*
X41654684Y-54328692D01*
X41849037Y-54248387D01*
X41997864Y-54099819D01*
X42078508Y-53905606D01*
X42078691Y-53696178D01*
X65110248Y-53696178D01*
X65260741Y-54060397D01*
X65539158Y-54339300D01*
X65903113Y-54490428D01*
X66297198Y-54490772D01*
X66661417Y-54340279D01*
X66940320Y-54061862D01*
X67091448Y-53697907D01*
X67091449Y-53696178D01*
X67109228Y-53696178D01*
X67259721Y-54060397D01*
X67538138Y-54339300D01*
X67902093Y-54490428D01*
X68296178Y-54490772D01*
X68660397Y-54340279D01*
X68939300Y-54061862D01*
X69090428Y-53697907D01*
X69090429Y-53696178D01*
X69108208Y-53696178D01*
X69258701Y-54060397D01*
X69537118Y-54339300D01*
X69901073Y-54490428D01*
X70295158Y-54490772D01*
X70659377Y-54340279D01*
X70938280Y-54061862D01*
X71089408Y-53697907D01*
X71089752Y-53303822D01*
X70939259Y-52939603D01*
X70660842Y-52660700D01*
X70296887Y-52509572D01*
X69902802Y-52509228D01*
X69538583Y-52659721D01*
X69259680Y-52938138D01*
X69108552Y-53302093D01*
X69108208Y-53696178D01*
X69090429Y-53696178D01*
X69090772Y-53303822D01*
X68940279Y-52939603D01*
X68661862Y-52660700D01*
X68297907Y-52509572D01*
X67903822Y-52509228D01*
X67539603Y-52659721D01*
X67260700Y-52938138D01*
X67109572Y-53302093D01*
X67109228Y-53696178D01*
X67091449Y-53696178D01*
X67091792Y-53303822D01*
X66941299Y-52939603D01*
X66662882Y-52660700D01*
X66298927Y-52509572D01*
X65904842Y-52509228D01*
X65540623Y-52659721D01*
X65261720Y-52938138D01*
X65110592Y-53302093D01*
X65110248Y-53696178D01*
X42078691Y-53696178D01*
X42078692Y-53695316D01*
X41998387Y-53500963D01*
X41849819Y-53352136D01*
X41655606Y-53271492D01*
X41445316Y-53271308D01*
X41250963Y-53351613D01*
X41207300Y-53395200D01*
X32442634Y-53395200D01*
X32299819Y-53252136D01*
X32105606Y-53171492D01*
X31895316Y-53171308D01*
X31700963Y-53251613D01*
X31552136Y-53400181D01*
X31471492Y-53594394D01*
X31471308Y-53804684D01*
X16376200Y-53804684D01*
X16376200Y-48204684D01*
X16971308Y-48204684D01*
X17051613Y-48399037D01*
X17200181Y-48547864D01*
X17394394Y-48628508D01*
X17604684Y-48628692D01*
X17799037Y-48548387D01*
X17947864Y-48399819D01*
X17987319Y-48304800D01*
X19857366Y-48304800D01*
X20000181Y-48447864D01*
X20194394Y-48528508D01*
X20404684Y-48528692D01*
X20599037Y-48448387D01*
X20747864Y-48299819D01*
X20828508Y-48105606D01*
X20828692Y-47895316D01*
X20748387Y-47700963D01*
X20599819Y-47552136D01*
X20405606Y-47471492D01*
X20195316Y-47471308D01*
X20000963Y-47551613D01*
X19857126Y-47695200D01*
X17842808Y-47695200D01*
X17799819Y-47652136D01*
X17605606Y-47571492D01*
X17395316Y-47571308D01*
X17200963Y-47651613D01*
X17052136Y-47800181D01*
X16971492Y-47994394D01*
X16971308Y-48204684D01*
X16376200Y-48204684D01*
X16376200Y-37004800D01*
X16557366Y-37004800D01*
X16700181Y-37147864D01*
X16894394Y-37228508D01*
X17104684Y-37228692D01*
X17299037Y-37148387D01*
X17447864Y-36999819D01*
X17528508Y-36805606D01*
X17528692Y-36595316D01*
X17448387Y-36400963D01*
X17299819Y-36252136D01*
X17105606Y-36171492D01*
X16895316Y-36171308D01*
X16700963Y-36251613D01*
X16557126Y-36395200D01*
X16376200Y-36395200D01*
X16376200Y-34523217D01*
X18667800Y-34523217D01*
X18667800Y-34876783D01*
X18750939Y-35294750D01*
X18987698Y-35649085D01*
X19342033Y-35885844D01*
X19760000Y-35968983D01*
X20177967Y-35885844D01*
X20532302Y-35649085D01*
X20769061Y-35294750D01*
X20852200Y-34876783D01*
X20852200Y-34523217D01*
X20769061Y-34105250D01*
X20532302Y-33750915D01*
X20432157Y-33684000D01*
X21203322Y-33684000D01*
X21203322Y-35716000D01*
X21219262Y-35800714D01*
X21269328Y-35878518D01*
X21345720Y-35930715D01*
X21436400Y-35949078D01*
X23163600Y-35949078D01*
X23248314Y-35933138D01*
X23326118Y-35883072D01*
X23378315Y-35806680D01*
X23396678Y-35716000D01*
X23396678Y-35300000D01*
X24123800Y-35300000D01*
X24123800Y-52200000D01*
X24129011Y-52227695D01*
X24145379Y-52253132D01*
X24170354Y-52270197D01*
X24200000Y-52276200D01*
X32300000Y-52276200D01*
X32327695Y-52270989D01*
X32353132Y-52254621D01*
X32370197Y-52229646D01*
X32376200Y-52200000D01*
X32376200Y-51304684D01*
X51771308Y-51304684D01*
X51851613Y-51499037D01*
X52000181Y-51647864D01*
X52194394Y-51728508D01*
X52404684Y-51728692D01*
X52599037Y-51648387D01*
X52668946Y-51578600D01*
X54431038Y-51578600D01*
X54500181Y-51647864D01*
X54694394Y-51728508D01*
X54793173Y-51728594D01*
X55532287Y-52467708D01*
X55532289Y-52467711D01*
X55594424Y-52509228D01*
X55655116Y-52549781D01*
X55800000Y-52578601D01*
X55800005Y-52578600D01*
X62799995Y-52578600D01*
X62800000Y-52578601D01*
X62944884Y-52549781D01*
X63067711Y-52467711D01*
X63317808Y-52217613D01*
X63317811Y-52217611D01*
X63393266Y-52104684D01*
X64171308Y-52104684D01*
X64251613Y-52299037D01*
X64400181Y-52447864D01*
X64594394Y-52528508D01*
X64804684Y-52528692D01*
X64999037Y-52448387D01*
X65142874Y-52304800D01*
X66657366Y-52304800D01*
X66800181Y-52447864D01*
X66994394Y-52528508D01*
X67204684Y-52528692D01*
X67399037Y-52448387D01*
X67547864Y-52299819D01*
X67628508Y-52105606D01*
X67628692Y-51895316D01*
X67548387Y-51700963D01*
X67399819Y-51552136D01*
X67205606Y-51471492D01*
X66995316Y-51471308D01*
X66800963Y-51551613D01*
X66657126Y-51695200D01*
X65142634Y-51695200D01*
X64999819Y-51552136D01*
X64805606Y-51471492D01*
X64595316Y-51471308D01*
X64400963Y-51551613D01*
X64252136Y-51700181D01*
X64171492Y-51894394D01*
X64171308Y-52104684D01*
X63393266Y-52104684D01*
X63399881Y-52094784D01*
X63428701Y-51949900D01*
X63428700Y-51949895D01*
X63428700Y-51533128D01*
X63450150Y-51533128D01*
X63534864Y-51517188D01*
X63612668Y-51467122D01*
X63664865Y-51390730D01*
X63683228Y-51300050D01*
X63683228Y-51278600D01*
X65099995Y-51278600D01*
X65100000Y-51278601D01*
X65244884Y-51249781D01*
X65276614Y-51228580D01*
X65404684Y-51228692D01*
X65599037Y-51148387D01*
X65747864Y-50999819D01*
X65828508Y-50805606D01*
X65828692Y-50595316D01*
X65748387Y-50400963D01*
X65599819Y-50252136D01*
X65405606Y-50171492D01*
X65195316Y-50171308D01*
X65000963Y-50251613D01*
X64852136Y-50400181D01*
X64801802Y-50521400D01*
X63683228Y-50521400D01*
X63683228Y-50499950D01*
X63667288Y-50415236D01*
X63617222Y-50337432D01*
X63540830Y-50285235D01*
X63450150Y-50266872D01*
X62650050Y-50266872D01*
X62565336Y-50282812D01*
X62487532Y-50332878D01*
X62435335Y-50409270D01*
X62416972Y-50499950D01*
X62416972Y-51300050D01*
X62432912Y-51384764D01*
X62482978Y-51462568D01*
X62559370Y-51514765D01*
X62650050Y-51533128D01*
X62671500Y-51533128D01*
X62671500Y-51793079D01*
X62643178Y-51821400D01*
X55956821Y-51821400D01*
X55414022Y-51278600D01*
X56816772Y-51278600D01*
X56816772Y-51300050D01*
X56832712Y-51384764D01*
X56882778Y-51462568D01*
X56959170Y-51514765D01*
X57049850Y-51533128D01*
X57849950Y-51533128D01*
X57934664Y-51517188D01*
X58012468Y-51467122D01*
X58064665Y-51390730D01*
X58083028Y-51300050D01*
X58083028Y-50499950D01*
X58067088Y-50415236D01*
X58017022Y-50337432D01*
X57940630Y-50285235D01*
X57849950Y-50266872D01*
X57049850Y-50266872D01*
X56965136Y-50282812D01*
X56887332Y-50332878D01*
X56835135Y-50409270D01*
X56816772Y-50499950D01*
X56816772Y-50521400D01*
X55100000Y-50521400D01*
X54955116Y-50550219D01*
X54832289Y-50632289D01*
X54793184Y-50671394D01*
X54695316Y-50671308D01*
X54500963Y-50751613D01*
X54431054Y-50821400D01*
X52668962Y-50821400D01*
X52599819Y-50752136D01*
X52405606Y-50671492D01*
X52195316Y-50671308D01*
X52000963Y-50751613D01*
X51852136Y-50900181D01*
X51771492Y-51094394D01*
X51771308Y-51304684D01*
X32376200Y-51304684D01*
X32376200Y-49804684D01*
X35771308Y-49804684D01*
X35851613Y-49999037D01*
X36000181Y-50147864D01*
X36194394Y-50228508D01*
X36404684Y-50228692D01*
X36599037Y-50148387D01*
X36742874Y-50004800D01*
X38257366Y-50004800D01*
X38400181Y-50147864D01*
X38594394Y-50228508D01*
X38804684Y-50228692D01*
X38999037Y-50148387D01*
X39147864Y-49999819D01*
X39228508Y-49805606D01*
X39228692Y-49595316D01*
X39149925Y-49404684D01*
X39271308Y-49404684D01*
X39351613Y-49599037D01*
X39500181Y-49747864D01*
X39694394Y-49828508D01*
X39904684Y-49828692D01*
X39974691Y-49799766D01*
X40000000Y-49804800D01*
X44057366Y-49804800D01*
X44200181Y-49947864D01*
X44394394Y-50028508D01*
X44604684Y-50028692D01*
X44799037Y-49948387D01*
X44866772Y-49880770D01*
X44866772Y-49900050D01*
X44882712Y-49984764D01*
X44932778Y-50062568D01*
X45009170Y-50114765D01*
X45099850Y-50133128D01*
X45899950Y-50133128D01*
X45984664Y-50117188D01*
X46062468Y-50067122D01*
X46114665Y-49990730D01*
X46133028Y-49900050D01*
X46133028Y-49099950D01*
X46117088Y-49015236D01*
X46067022Y-48937432D01*
X45990630Y-48885235D01*
X45899950Y-48866872D01*
X45099850Y-48866872D01*
X45015136Y-48882812D01*
X44937332Y-48932878D01*
X44885135Y-49009270D01*
X44866772Y-49099950D01*
X44866772Y-49119206D01*
X44799819Y-49052136D01*
X44605606Y-48971492D01*
X44395316Y-48971308D01*
X44200963Y-49051613D01*
X44057126Y-49195200D01*
X40328644Y-49195200D01*
X40248387Y-49000963D01*
X40099819Y-48852136D01*
X39905606Y-48771492D01*
X39695316Y-48771308D01*
X39500963Y-48851613D01*
X39352136Y-49000181D01*
X39271492Y-49194394D01*
X39271308Y-49404684D01*
X39149925Y-49404684D01*
X39148387Y-49400963D01*
X38999819Y-49252136D01*
X38805606Y-49171492D01*
X38595316Y-49171308D01*
X38400963Y-49251613D01*
X38257126Y-49395200D01*
X36742634Y-49395200D01*
X36599819Y-49252136D01*
X36405606Y-49171492D01*
X36195316Y-49171308D01*
X36000963Y-49251613D01*
X35852136Y-49400181D01*
X35771492Y-49594394D01*
X35771308Y-49804684D01*
X32376200Y-49804684D01*
X32376200Y-48004684D01*
X39971308Y-48004684D01*
X40051613Y-48199037D01*
X40200181Y-48347864D01*
X40394394Y-48428508D01*
X40604684Y-48428692D01*
X40799037Y-48348387D01*
X40942874Y-48204800D01*
X43057366Y-48204800D01*
X43200181Y-48347864D01*
X43394394Y-48428508D01*
X43604684Y-48428692D01*
X43799037Y-48348387D01*
X43942874Y-48204800D01*
X44866772Y-48204800D01*
X44866772Y-48300050D01*
X44882712Y-48384764D01*
X44932778Y-48462568D01*
X45009170Y-48514765D01*
X45099850Y-48533128D01*
X45899950Y-48533128D01*
X45984664Y-48517188D01*
X46062468Y-48467122D01*
X46114665Y-48390730D01*
X46133028Y-48300050D01*
X46133028Y-47499950D01*
X46466972Y-47499950D01*
X46466972Y-48300050D01*
X46482912Y-48384764D01*
X46532978Y-48462568D01*
X46609370Y-48514765D01*
X46700050Y-48533128D01*
X46721500Y-48533128D01*
X46721500Y-48866872D01*
X46700050Y-48866872D01*
X46615336Y-48882812D01*
X46537532Y-48932878D01*
X46485335Y-49009270D01*
X46466972Y-49099950D01*
X46466972Y-49900050D01*
X46482912Y-49984764D01*
X46532978Y-50062568D01*
X46609370Y-50114765D01*
X46700050Y-50133128D01*
X47500150Y-50133128D01*
X47584864Y-50117188D01*
X47662668Y-50067122D01*
X47714865Y-49990730D01*
X47733228Y-49900050D01*
X47733228Y-49099950D01*
X47717288Y-49015236D01*
X47667222Y-48937432D01*
X47590830Y-48885235D01*
X47500150Y-48866872D01*
X47478700Y-48866872D01*
X47478700Y-48533128D01*
X47500150Y-48533128D01*
X47584864Y-48517188D01*
X47662668Y-48467122D01*
X47714865Y-48390730D01*
X47733228Y-48300050D01*
X47733228Y-47950000D01*
X51316922Y-47950000D01*
X51316922Y-49450000D01*
X51332862Y-49534714D01*
X51382928Y-49612518D01*
X51459320Y-49664715D01*
X51550000Y-49683078D01*
X53050000Y-49683078D01*
X53134714Y-49667138D01*
X53212518Y-49617072D01*
X53264715Y-49540680D01*
X53283078Y-49450000D01*
X53283078Y-47950000D01*
X53267138Y-47865286D01*
X53217072Y-47787482D01*
X53140680Y-47735285D01*
X53050000Y-47716922D01*
X51550000Y-47716922D01*
X51465286Y-47732862D01*
X51387482Y-47782928D01*
X51335285Y-47859320D01*
X51316922Y-47950000D01*
X47733228Y-47950000D01*
X47733228Y-47499950D01*
X47717288Y-47415236D01*
X47667222Y-47337432D01*
X47590830Y-47285235D01*
X47500150Y-47266872D01*
X47478700Y-47266872D01*
X47478700Y-47068863D01*
X47547864Y-46999819D01*
X47591885Y-46893802D01*
X51321230Y-46893802D01*
X51469899Y-47253608D01*
X51744944Y-47529133D01*
X52104490Y-47678430D01*
X52493802Y-47678770D01*
X52853608Y-47530101D01*
X53129133Y-47255056D01*
X53278430Y-46895510D01*
X53278770Y-46506198D01*
X53130101Y-46146392D01*
X52855056Y-45870867D01*
X52495510Y-45721570D01*
X52106198Y-45721230D01*
X51746392Y-45869899D01*
X51470867Y-46144944D01*
X51321570Y-46504490D01*
X51321230Y-46893802D01*
X47591885Y-46893802D01*
X47628508Y-46805606D01*
X47628692Y-46595316D01*
X47548387Y-46400963D01*
X47399819Y-46252136D01*
X47205606Y-46171492D01*
X46995316Y-46171308D01*
X46800963Y-46251613D01*
X46652136Y-46400181D01*
X46571492Y-46594394D01*
X46571308Y-46804684D01*
X46651613Y-46999037D01*
X46721500Y-47069046D01*
X46721500Y-47266872D01*
X46700050Y-47266872D01*
X46615336Y-47282812D01*
X46537532Y-47332878D01*
X46485335Y-47409270D01*
X46466972Y-47499950D01*
X46133028Y-47499950D01*
X46117088Y-47415236D01*
X46067022Y-47337432D01*
X45990630Y-47285235D01*
X45899950Y-47266872D01*
X45099850Y-47266872D01*
X45015136Y-47282812D01*
X44937332Y-47332878D01*
X44885135Y-47409270D01*
X44866772Y-47499950D01*
X44866772Y-47595200D01*
X43942634Y-47595200D01*
X43799819Y-47452136D01*
X43605606Y-47371492D01*
X43395316Y-47371308D01*
X43200963Y-47451613D01*
X43057126Y-47595200D01*
X40942634Y-47595200D01*
X40799819Y-47452136D01*
X40605606Y-47371492D01*
X40395316Y-47371308D01*
X40200963Y-47451613D01*
X40052136Y-47600181D01*
X39971492Y-47794394D01*
X39971308Y-48004684D01*
X32376200Y-48004684D01*
X32376200Y-47104684D01*
X37771308Y-47104684D01*
X37851613Y-47299037D01*
X38000181Y-47447864D01*
X38194394Y-47528508D01*
X38404684Y-47528692D01*
X38599037Y-47448387D01*
X38747864Y-47299819D01*
X38828508Y-47105606D01*
X38828692Y-46895316D01*
X38801126Y-46828601D01*
X38904684Y-46828692D01*
X39099037Y-46748387D01*
X39247864Y-46599819D01*
X39328508Y-46405606D01*
X39328692Y-46195316D01*
X39248387Y-46000963D01*
X39099819Y-45852136D01*
X39055500Y-45833733D01*
X39055500Y-45767846D01*
X39126620Y-45782248D01*
X39375540Y-45782248D01*
X39460254Y-45766308D01*
X39499946Y-45740767D01*
X39533780Y-45763885D01*
X39624460Y-45782248D01*
X39873380Y-45782248D01*
X39944500Y-45768866D01*
X39944500Y-46249400D01*
X39966772Y-46361367D01*
X39966772Y-47000050D01*
X39982712Y-47084764D01*
X40032778Y-47162568D01*
X40109170Y-47214765D01*
X40199850Y-47233128D01*
X40999950Y-47233128D01*
X41084664Y-47217188D01*
X41162468Y-47167122D01*
X41214665Y-47090730D01*
X41233028Y-47000050D01*
X41233028Y-46199950D01*
X41217088Y-46115236D01*
X41167022Y-46037432D01*
X41090630Y-45985235D01*
X40999950Y-45966872D01*
X40554100Y-45966872D01*
X40554100Y-45767846D01*
X40625220Y-45782248D01*
X40874140Y-45782248D01*
X40958854Y-45766308D01*
X41036658Y-45716242D01*
X41088855Y-45639850D01*
X41107218Y-45549170D01*
X41107218Y-44893802D01*
X51321230Y-44893802D01*
X51469899Y-45253608D01*
X51744944Y-45529133D01*
X52104490Y-45678430D01*
X52493802Y-45678770D01*
X52853608Y-45530101D01*
X53129133Y-45255056D01*
X53278430Y-44895510D01*
X53278770Y-44506198D01*
X53130101Y-44146392D01*
X52855056Y-43870867D01*
X52495510Y-43721570D01*
X52106198Y-43721230D01*
X51746392Y-43869899D01*
X51470867Y-44144944D01*
X51321570Y-44504490D01*
X51321230Y-44893802D01*
X41107218Y-44893802D01*
X41107218Y-44850670D01*
X41091278Y-44765956D01*
X41041212Y-44688152D01*
X40964820Y-44635955D01*
X40874140Y-44617592D01*
X40625220Y-44617592D01*
X40540506Y-44633532D01*
X40499506Y-44659915D01*
X40464440Y-44635955D01*
X40373760Y-44617592D01*
X40124840Y-44617592D01*
X40040126Y-44633532D01*
X39999126Y-44659915D01*
X39964060Y-44635955D01*
X39873380Y-44617592D01*
X39624460Y-44617592D01*
X39539746Y-44633532D01*
X39500054Y-44659073D01*
X39466220Y-44635955D01*
X39375540Y-44617592D01*
X39126620Y-44617592D01*
X39041906Y-44633532D01*
X39000906Y-44659915D01*
X38965840Y-44635955D01*
X38875160Y-44617592D01*
X38626240Y-44617592D01*
X38541526Y-44633532D01*
X38500526Y-44659915D01*
X38465460Y-44635955D01*
X38374780Y-44617592D01*
X38125860Y-44617592D01*
X38041146Y-44633532D01*
X37963342Y-44683598D01*
X37911145Y-44759990D01*
X37892782Y-44850670D01*
X37892782Y-45549170D01*
X37908722Y-45633884D01*
X37945520Y-45691069D01*
X37945520Y-46606960D01*
X37852136Y-46700181D01*
X37771492Y-46894394D01*
X37771308Y-47104684D01*
X32376200Y-47104684D01*
X32376200Y-43354684D01*
X35721308Y-43354684D01*
X35801613Y-43549037D01*
X35950181Y-43697864D01*
X36144394Y-43778508D01*
X36354684Y-43778692D01*
X36549037Y-43698387D01*
X36697864Y-43549819D01*
X36778508Y-43355606D01*
X36778692Y-43145316D01*
X36698387Y-42950963D01*
X36628600Y-42881054D01*
X36628600Y-41356822D01*
X37006822Y-40978600D01*
X37907409Y-40978600D01*
X37892782Y-41050830D01*
X37892782Y-41692782D01*
X37250830Y-41692782D01*
X37166116Y-41708722D01*
X37088312Y-41758788D01*
X37036115Y-41835180D01*
X37017752Y-41925860D01*
X37017752Y-42174780D01*
X37033692Y-42259494D01*
X37060075Y-42300494D01*
X37036115Y-42335560D01*
X37017752Y-42426240D01*
X37017752Y-42675160D01*
X37033692Y-42759874D01*
X37060075Y-42800874D01*
X37036115Y-42835940D01*
X37017752Y-42926620D01*
X37017752Y-43175540D01*
X37033692Y-43260254D01*
X37059233Y-43299946D01*
X37036115Y-43333780D01*
X37017752Y-43424460D01*
X37017752Y-43673380D01*
X37033692Y-43758094D01*
X37060075Y-43799094D01*
X37036115Y-43834160D01*
X37017752Y-43924840D01*
X37017752Y-44173760D01*
X37033692Y-44258474D01*
X37083758Y-44336278D01*
X37160150Y-44388475D01*
X37250830Y-44406838D01*
X37949330Y-44406838D01*
X38034044Y-44390898D01*
X38111848Y-44340832D01*
X38164045Y-44264440D01*
X38182408Y-44173760D01*
X38182408Y-43924840D01*
X38166468Y-43840126D01*
X38140085Y-43799126D01*
X38164045Y-43764060D01*
X38182408Y-43673380D01*
X38182408Y-43424460D01*
X38166468Y-43339746D01*
X38140927Y-43300054D01*
X38164045Y-43266220D01*
X38182408Y-43175540D01*
X38182408Y-42926620D01*
X38166468Y-42841906D01*
X38140085Y-42800906D01*
X38164045Y-42765840D01*
X38182408Y-42675160D01*
X38182408Y-42426240D01*
X38166468Y-42341526D01*
X38140085Y-42300526D01*
X38164045Y-42265460D01*
X38182408Y-42174780D01*
X38182408Y-41982408D01*
X38374780Y-41982408D01*
X38459494Y-41966468D01*
X38500494Y-41940085D01*
X38535560Y-41964045D01*
X38626240Y-41982408D01*
X38875160Y-41982408D01*
X38959874Y-41966468D01*
X39000874Y-41940085D01*
X39035940Y-41964045D01*
X39126620Y-41982408D01*
X39375540Y-41982408D01*
X39460254Y-41966468D01*
X39499946Y-41940927D01*
X39533780Y-41964045D01*
X39624460Y-41982408D01*
X39873380Y-41982408D01*
X39958094Y-41966468D01*
X40035898Y-41916402D01*
X40088095Y-41840010D01*
X40106458Y-41749330D01*
X40106458Y-41050830D01*
X40392142Y-41050830D01*
X40392142Y-41749330D01*
X40408082Y-41834044D01*
X40458148Y-41911848D01*
X40534540Y-41964045D01*
X40625220Y-41982408D01*
X40817592Y-41982408D01*
X40817592Y-42174780D01*
X40833532Y-42259494D01*
X40859915Y-42300494D01*
X40835955Y-42335560D01*
X40817592Y-42426240D01*
X40817592Y-42675160D01*
X40833532Y-42759874D01*
X40859915Y-42800874D01*
X40835955Y-42835940D01*
X40817592Y-42926620D01*
X40817592Y-43175540D01*
X40833532Y-43260254D01*
X40859073Y-43299946D01*
X40835955Y-43333780D01*
X40817592Y-43424460D01*
X40817592Y-43673380D01*
X40833532Y-43758094D01*
X40859915Y-43799094D01*
X40835955Y-43834160D01*
X40817592Y-43924840D01*
X40817592Y-44173760D01*
X40833532Y-44258474D01*
X40883598Y-44336278D01*
X40959990Y-44388475D01*
X41050670Y-44406838D01*
X41749170Y-44406838D01*
X41833884Y-44390898D01*
X41911688Y-44340832D01*
X41963885Y-44264440D01*
X41982248Y-44173760D01*
X41982248Y-43924840D01*
X41966308Y-43840126D01*
X41939925Y-43799126D01*
X41963885Y-43764060D01*
X41982248Y-43673380D01*
X41982248Y-43424460D01*
X41966308Y-43339746D01*
X41940767Y-43300054D01*
X41963885Y-43266220D01*
X41982248Y-43175540D01*
X41982248Y-42926620D01*
X41966308Y-42841906D01*
X41939925Y-42800906D01*
X41963885Y-42765840D01*
X41982248Y-42675160D01*
X41982248Y-42428920D01*
X42372204Y-42428920D01*
X42382712Y-42484764D01*
X42432778Y-42562568D01*
X42509170Y-42614765D01*
X42599850Y-42633128D01*
X42621300Y-42633128D01*
X42621300Y-42830938D01*
X42552036Y-42900081D01*
X42471392Y-43094294D01*
X42471208Y-43304584D01*
X42551513Y-43498937D01*
X42700081Y-43647764D01*
X42894294Y-43728408D01*
X43104584Y-43728592D01*
X43225574Y-43678600D01*
X46731038Y-43678600D01*
X46800181Y-43747864D01*
X46994394Y-43828508D01*
X47204684Y-43828692D01*
X47399037Y-43748387D01*
X47547864Y-43599819D01*
X47628508Y-43405606D01*
X47628692Y-43195316D01*
X47548387Y-43000963D01*
X47441413Y-42893802D01*
X51321230Y-42893802D01*
X51469899Y-43253608D01*
X51744944Y-43529133D01*
X52104490Y-43678430D01*
X52493802Y-43678770D01*
X52853608Y-43530101D01*
X53129133Y-43255056D01*
X53278430Y-42895510D01*
X53278770Y-42506198D01*
X53130101Y-42146392D01*
X52855056Y-41870867D01*
X52495510Y-41721570D01*
X52106198Y-41721230D01*
X51746392Y-41869899D01*
X51470867Y-42144944D01*
X51321570Y-42504490D01*
X51321230Y-42893802D01*
X47441413Y-42893802D01*
X47399819Y-42852136D01*
X47205606Y-42771492D01*
X46995316Y-42771308D01*
X46800963Y-42851613D01*
X46731054Y-42921400D01*
X43456773Y-42921400D01*
X43448287Y-42900863D01*
X43378500Y-42830954D01*
X43378500Y-42633128D01*
X43399950Y-42633128D01*
X43484664Y-42617188D01*
X43562468Y-42567122D01*
X43614665Y-42490730D01*
X43633028Y-42400050D01*
X43633028Y-41599950D01*
X43617088Y-41515236D01*
X43567022Y-41437432D01*
X43490630Y-41385235D01*
X43399950Y-41366872D01*
X43378500Y-41366872D01*
X43378500Y-40933128D01*
X43399950Y-40933128D01*
X43484664Y-40917188D01*
X43521006Y-40893802D01*
X51321230Y-40893802D01*
X51469899Y-41253608D01*
X51744944Y-41529133D01*
X52104490Y-41678430D01*
X52493802Y-41678770D01*
X52853608Y-41530101D01*
X52883761Y-41500000D01*
X54166922Y-41500000D01*
X54166922Y-43100000D01*
X54182862Y-43184714D01*
X54232928Y-43262518D01*
X54309320Y-43314715D01*
X54400000Y-43333078D01*
X55501475Y-43333078D01*
X56204688Y-44067871D01*
X56200000Y-44066922D01*
X54400000Y-44066922D01*
X54315286Y-44082862D01*
X54237482Y-44132928D01*
X54185285Y-44209320D01*
X54166922Y-44300000D01*
X54166922Y-45900000D01*
X54182862Y-45984714D01*
X54232928Y-46062518D01*
X54309320Y-46114715D01*
X54400000Y-46133078D01*
X55831501Y-46133078D01*
X55793185Y-46171394D01*
X55695316Y-46171308D01*
X55500963Y-46251613D01*
X55352136Y-46400181D01*
X55271492Y-46594394D01*
X55271308Y-46804684D01*
X55351613Y-46999037D01*
X55500181Y-47147864D01*
X55694394Y-47228508D01*
X55904684Y-47228692D01*
X56099037Y-47148387D01*
X56247864Y-46999819D01*
X56328508Y-46805606D01*
X56328534Y-46776440D01*
X56869542Y-46776440D01*
X56869542Y-47045540D01*
X56885482Y-47130254D01*
X56935548Y-47208058D01*
X57011940Y-47260255D01*
X57102620Y-47278618D01*
X57222000Y-47278618D01*
X57222000Y-48516872D01*
X57049850Y-48516872D01*
X56965136Y-48532812D01*
X56887332Y-48582878D01*
X56835135Y-48659270D01*
X56816772Y-48749950D01*
X56816772Y-49550050D01*
X56832712Y-49634764D01*
X56882778Y-49712568D01*
X56959170Y-49764765D01*
X57049850Y-49783128D01*
X57849950Y-49783128D01*
X57934664Y-49767188D01*
X58012468Y-49717122D01*
X58064665Y-49640730D01*
X58083028Y-49550050D01*
X58083028Y-48749950D01*
X58067088Y-48665236D01*
X58017022Y-48587432D01*
X57940630Y-48535235D01*
X57849950Y-48516872D01*
X57831600Y-48516872D01*
X57831600Y-47278618D01*
X57950980Y-47278618D01*
X58035694Y-47262678D01*
X58113498Y-47212612D01*
X58165695Y-47136220D01*
X58184058Y-47045540D01*
X58184058Y-46750900D01*
X59815942Y-46750900D01*
X59815942Y-47045540D01*
X59831882Y-47130254D01*
X59881948Y-47208058D01*
X59958340Y-47260255D01*
X60049020Y-47278618D01*
X60417172Y-47278618D01*
X61141300Y-48002746D01*
X61141300Y-48516872D01*
X61049850Y-48516872D01*
X60965136Y-48532812D01*
X60887332Y-48582878D01*
X60835135Y-48659270D01*
X60816772Y-48749950D01*
X60816772Y-49550050D01*
X60832712Y-49634764D01*
X60882778Y-49712568D01*
X60959170Y-49764765D01*
X61049850Y-49783128D01*
X61141300Y-49783128D01*
X61141300Y-50266872D01*
X61049850Y-50266872D01*
X60965136Y-50282812D01*
X60887332Y-50332878D01*
X60835135Y-50409270D01*
X60816772Y-50499950D01*
X60816772Y-51300050D01*
X60832712Y-51384764D01*
X60882778Y-51462568D01*
X60959170Y-51514765D01*
X61049850Y-51533128D01*
X61849950Y-51533128D01*
X61934664Y-51517188D01*
X62012468Y-51467122D01*
X62064665Y-51390730D01*
X62083028Y-51300050D01*
X62083028Y-50499950D01*
X62067088Y-50415236D01*
X62017022Y-50337432D01*
X61940630Y-50285235D01*
X61849950Y-50266872D01*
X61758500Y-50266872D01*
X61758500Y-49783128D01*
X61849950Y-49783128D01*
X61934664Y-49767188D01*
X62012468Y-49717122D01*
X62064665Y-49640730D01*
X62083028Y-49550050D01*
X62083028Y-48749950D01*
X62070619Y-48684000D01*
X67650922Y-48684000D01*
X67650922Y-50716000D01*
X67666862Y-50800714D01*
X67716928Y-50878518D01*
X67793320Y-50930715D01*
X67884000Y-50949078D01*
X69916000Y-50949078D01*
X70000714Y-50933138D01*
X70078518Y-50883072D01*
X70130715Y-50806680D01*
X70149078Y-50716000D01*
X70149078Y-48684000D01*
X70133138Y-48599286D01*
X70083072Y-48521482D01*
X70006680Y-48469285D01*
X69916000Y-48450922D01*
X67884000Y-48450922D01*
X67799286Y-48466862D01*
X67721482Y-48516928D01*
X67669285Y-48593320D01*
X67650922Y-48684000D01*
X62070619Y-48684000D01*
X62067088Y-48665236D01*
X62017022Y-48587432D01*
X61940630Y-48535235D01*
X61849950Y-48516872D01*
X61758500Y-48516872D01*
X61758500Y-47874920D01*
X61735009Y-47756824D01*
X61668113Y-47656707D01*
X61118078Y-47106672D01*
X61130458Y-47045540D01*
X61130458Y-46750900D01*
X61114518Y-46666186D01*
X61064452Y-46588382D01*
X60988060Y-46536185D01*
X60897380Y-46517822D01*
X60049020Y-46517822D01*
X59964306Y-46533762D01*
X59886502Y-46583828D01*
X59834305Y-46660220D01*
X59815942Y-46750900D01*
X58184058Y-46750900D01*
X58168118Y-46666186D01*
X58156886Y-46648732D01*
X58165695Y-46635840D01*
X58184058Y-46545160D01*
X58184058Y-46250520D01*
X58168118Y-46165806D01*
X58157728Y-46149660D01*
X58165695Y-46138000D01*
X58184058Y-46047320D01*
X58184058Y-45752680D01*
X58168118Y-45667966D01*
X58118052Y-45590162D01*
X58041660Y-45537965D01*
X57950980Y-45519602D01*
X57140140Y-45519602D01*
X56433078Y-45396763D01*
X56433078Y-44306518D01*
X56869542Y-44762582D01*
X56869542Y-45049100D01*
X56885482Y-45133814D01*
X56935548Y-45211618D01*
X57011940Y-45263815D01*
X57102620Y-45282178D01*
X57950980Y-45282178D01*
X58035694Y-45266238D01*
X58113498Y-45216172D01*
X58165695Y-45139780D01*
X58184058Y-45049100D01*
X58184058Y-44754460D01*
X59815942Y-44754460D01*
X59815942Y-45049100D01*
X59831882Y-45133814D01*
X59843114Y-45151268D01*
X59834305Y-45164160D01*
X59815942Y-45254840D01*
X59815942Y-45549480D01*
X59831882Y-45634194D01*
X59842272Y-45650340D01*
X59834305Y-45662000D01*
X59815942Y-45752680D01*
X59815942Y-46047320D01*
X59831882Y-46132034D01*
X59881948Y-46209838D01*
X59958340Y-46262035D01*
X60049020Y-46280398D01*
X60897380Y-46280398D01*
X60906936Y-46278600D01*
X61543169Y-46278600D01*
X61551613Y-46299037D01*
X61700181Y-46447864D01*
X61894394Y-46528508D01*
X62104684Y-46528692D01*
X62299037Y-46448387D01*
X62368946Y-46378600D01*
X62616872Y-46378600D01*
X62616872Y-46600150D01*
X62632812Y-46684864D01*
X62682878Y-46762668D01*
X62759270Y-46814865D01*
X62849950Y-46833228D01*
X63097806Y-46833228D01*
X64232289Y-47967711D01*
X64355116Y-48049781D01*
X64500000Y-48078601D01*
X64500005Y-48078600D01*
X65731038Y-48078600D01*
X65800181Y-48147864D01*
X65994394Y-48228508D01*
X66204684Y-48228692D01*
X66399037Y-48148387D01*
X66547864Y-47999819D01*
X66628508Y-47805606D01*
X66628508Y-47804684D01*
X66671308Y-47804684D01*
X66751613Y-47999037D01*
X66900181Y-48147864D01*
X67094394Y-48228508D01*
X67304684Y-48228692D01*
X67499037Y-48148387D01*
X67642874Y-48004800D01*
X71057192Y-48004800D01*
X71100181Y-48047864D01*
X71294394Y-48128508D01*
X71504684Y-48128692D01*
X71699037Y-48048387D01*
X71847864Y-47899819D01*
X71928508Y-47705606D01*
X71928692Y-47495316D01*
X71848387Y-47300963D01*
X71699819Y-47152136D01*
X71505606Y-47071492D01*
X71295316Y-47071308D01*
X71100963Y-47151613D01*
X70952136Y-47300181D01*
X70912681Y-47395200D01*
X67642634Y-47395200D01*
X67499819Y-47252136D01*
X67305606Y-47171492D01*
X67095316Y-47171308D01*
X66900963Y-47251613D01*
X66752136Y-47400181D01*
X66671492Y-47594394D01*
X66671308Y-47804684D01*
X66628508Y-47804684D01*
X66628692Y-47595316D01*
X66548387Y-47400963D01*
X66399819Y-47252136D01*
X66205606Y-47171492D01*
X65995316Y-47171308D01*
X65800963Y-47251613D01*
X65731054Y-47321400D01*
X64656822Y-47321400D01*
X63883128Y-46547706D01*
X63883128Y-45800050D01*
X63867188Y-45715336D01*
X63817122Y-45637532D01*
X63740730Y-45585335D01*
X63650050Y-45566972D01*
X62849950Y-45566972D01*
X62765236Y-45582912D01*
X62705425Y-45621400D01*
X62664416Y-45621400D01*
X62665953Y-45620373D01*
X63053298Y-45233028D01*
X63650050Y-45233028D01*
X63734764Y-45217088D01*
X63812568Y-45167022D01*
X63864765Y-45090630D01*
X63883128Y-44999950D01*
X63883128Y-44199850D01*
X63867188Y-44115136D01*
X63817122Y-44037332D01*
X63740730Y-43985135D01*
X63650050Y-43966772D01*
X63558600Y-43966772D01*
X63558600Y-43833228D01*
X63650050Y-43833228D01*
X63734764Y-43817288D01*
X63812568Y-43767222D01*
X63864765Y-43690830D01*
X63883128Y-43600150D01*
X63883128Y-43504900D01*
X64217126Y-43504900D01*
X64394394Y-43578508D01*
X64604684Y-43578692D01*
X64799037Y-43498387D01*
X64947864Y-43349819D01*
X65028508Y-43155606D01*
X65028511Y-43151050D01*
X68070132Y-43151050D01*
X68070132Y-45246550D01*
X68086072Y-45331264D01*
X68136138Y-45409068D01*
X68212530Y-45461265D01*
X68303210Y-45479628D01*
X69900870Y-45479628D01*
X69985584Y-45463688D01*
X70063388Y-45413622D01*
X70115585Y-45337230D01*
X70133948Y-45246550D01*
X70133948Y-43151050D01*
X70118008Y-43066336D01*
X70067942Y-42988532D01*
X69991550Y-42936335D01*
X69900870Y-42917972D01*
X68303210Y-42917972D01*
X68218496Y-42933912D01*
X68140692Y-42983978D01*
X68088495Y-43060370D01*
X68070132Y-43151050D01*
X65028511Y-43151050D01*
X65028692Y-42945316D01*
X64948387Y-42750963D01*
X64799819Y-42602136D01*
X64605606Y-42521492D01*
X64395316Y-42521308D01*
X64200963Y-42601613D01*
X64052136Y-42750181D01*
X63991878Y-42895300D01*
X63883128Y-42895300D01*
X63883128Y-42800050D01*
X63867188Y-42715336D01*
X63817122Y-42637532D01*
X63740730Y-42585335D01*
X63650050Y-42566972D01*
X62849950Y-42566972D01*
X62765236Y-42582912D01*
X62687432Y-42632978D01*
X62635235Y-42709370D01*
X62616872Y-42800050D01*
X62616872Y-43600150D01*
X62632812Y-43684864D01*
X62682878Y-43762668D01*
X62759270Y-43814865D01*
X62849950Y-43833228D01*
X62941400Y-43833228D01*
X62941400Y-43966772D01*
X62849950Y-43966772D01*
X62765236Y-43982712D01*
X62687432Y-44032778D01*
X62635235Y-44109170D01*
X62616872Y-44199850D01*
X62616872Y-44796602D01*
X62528526Y-44884948D01*
X62528692Y-44695316D01*
X62448387Y-44500963D01*
X62299819Y-44352136D01*
X62105606Y-44271492D01*
X61895316Y-44271308D01*
X61700963Y-44351613D01*
X61552136Y-44500181D01*
X61542586Y-44523180D01*
X60906259Y-44523180D01*
X60897380Y-44521382D01*
X60049020Y-44521382D01*
X59964306Y-44537322D01*
X59886502Y-44587388D01*
X59834305Y-44663780D01*
X59815942Y-44754460D01*
X58184058Y-44754460D01*
X58168118Y-44669746D01*
X58118052Y-44591942D01*
X58041660Y-44539745D01*
X57950980Y-44521382D01*
X57905400Y-44521382D01*
X57905400Y-43632103D01*
X57984664Y-43617188D01*
X58062468Y-43567122D01*
X58114665Y-43490730D01*
X58133028Y-43400050D01*
X58133028Y-42599950D01*
X58117088Y-42515236D01*
X58067022Y-42437432D01*
X57990630Y-42385235D01*
X57899950Y-42366872D01*
X57878500Y-42366872D01*
X57878500Y-42269062D01*
X57947864Y-42199819D01*
X58028508Y-42005606D01*
X58028692Y-41795316D01*
X57948387Y-41600963D01*
X57878500Y-41530954D01*
X57878500Y-40795645D01*
X59130000Y-40795645D01*
X59346492Y-40754909D01*
X59501419Y-40655217D01*
X59638261Y-40748717D01*
X59870000Y-40795645D01*
X61670000Y-40795645D01*
X61886492Y-40754909D01*
X62085326Y-40626963D01*
X62218717Y-40431739D01*
X62265645Y-40200000D01*
X62265645Y-39804684D01*
X62571308Y-39804684D01*
X62651613Y-39999037D01*
X62800181Y-40147864D01*
X62994394Y-40228508D01*
X63204684Y-40228692D01*
X63320930Y-40180660D01*
X68031698Y-40180660D01*
X68017067Y-40252910D01*
X68017067Y-40651690D01*
X68036549Y-40755229D01*
X68049435Y-40775254D01*
X68039511Y-40789778D01*
X68017067Y-40900610D01*
X68017067Y-41299390D01*
X68036549Y-41402929D01*
X68049435Y-41422954D01*
X68039511Y-41437478D01*
X68017067Y-41548310D01*
X68017067Y-41947090D01*
X68036549Y-42050629D01*
X68097741Y-42145724D01*
X68191108Y-42209519D01*
X68301940Y-42231963D01*
X69648140Y-42231963D01*
X69751679Y-42212481D01*
X69846774Y-42151289D01*
X69910569Y-42057922D01*
X69933013Y-41947090D01*
X69933013Y-41548310D01*
X69913531Y-41444771D01*
X69900645Y-41424746D01*
X69910569Y-41410222D01*
X69933013Y-41299390D01*
X69933013Y-40900610D01*
X69913531Y-40797071D01*
X69900645Y-40777046D01*
X69910569Y-40762522D01*
X69933013Y-40651690D01*
X69933013Y-40252910D01*
X69913531Y-40149371D01*
X69899803Y-40128038D01*
X69910569Y-40112282D01*
X69933013Y-40001450D01*
X69933013Y-39602670D01*
X69913531Y-39499131D01*
X69852339Y-39404036D01*
X69758972Y-39340241D01*
X69648140Y-39317797D01*
X68301940Y-39317797D01*
X68198401Y-39337279D01*
X68103306Y-39398471D01*
X68086232Y-39423460D01*
X63557683Y-39423460D01*
X63548387Y-39400963D01*
X63399819Y-39252136D01*
X63205606Y-39171492D01*
X62995316Y-39171308D01*
X62800963Y-39251613D01*
X62652136Y-39400181D01*
X62571492Y-39594394D01*
X62571308Y-39804684D01*
X62265645Y-39804684D01*
X62265645Y-39004800D01*
X63892016Y-39004800D01*
X63951613Y-39149037D01*
X64100181Y-39297864D01*
X64294394Y-39378508D01*
X64504684Y-39378692D01*
X64699037Y-39298387D01*
X64847864Y-39149819D01*
X64928508Y-38955606D01*
X64928692Y-38745316D01*
X64848387Y-38550963D01*
X64699819Y-38402136D01*
X64505606Y-38321492D01*
X64295316Y-38321308D01*
X64116484Y-38395200D01*
X62265645Y-38395200D01*
X62265645Y-37200000D01*
X62224909Y-36983508D01*
X62205568Y-36953450D01*
X68070132Y-36953450D01*
X68070132Y-39048950D01*
X68086072Y-39133664D01*
X68136138Y-39211468D01*
X68212530Y-39263665D01*
X68303210Y-39282028D01*
X69900870Y-39282028D01*
X69985584Y-39266088D01*
X70063388Y-39216022D01*
X70115585Y-39139630D01*
X70133948Y-39048950D01*
X70133948Y-36953450D01*
X70118008Y-36868736D01*
X70067942Y-36790932D01*
X69991550Y-36738735D01*
X69900870Y-36720372D01*
X68303210Y-36720372D01*
X68218496Y-36736312D01*
X68140692Y-36786378D01*
X68088495Y-36862770D01*
X68070132Y-36953450D01*
X62205568Y-36953450D01*
X62096963Y-36784674D01*
X61901739Y-36651283D01*
X61670000Y-36604355D01*
X59870000Y-36604355D01*
X59653508Y-36645091D01*
X59498581Y-36744783D01*
X59361739Y-36651283D01*
X59130000Y-36604355D01*
X57330000Y-36604355D01*
X57113508Y-36645091D01*
X56914674Y-36773037D01*
X56781283Y-36968261D01*
X56734355Y-37200000D01*
X56734355Y-40200000D01*
X56775091Y-40416492D01*
X56903037Y-40615326D01*
X57098261Y-40748717D01*
X57121300Y-40753382D01*
X57121300Y-41531137D01*
X57052136Y-41600181D01*
X56971492Y-41794394D01*
X56971308Y-42004684D01*
X57051613Y-42199037D01*
X57121300Y-42268845D01*
X57121300Y-42366872D01*
X57099850Y-42366872D01*
X57015136Y-42382812D01*
X56937332Y-42432878D01*
X56885135Y-42509270D01*
X56866772Y-42599950D01*
X56866772Y-43400050D01*
X56882712Y-43484764D01*
X56932778Y-43562568D01*
X57009170Y-43614765D01*
X57099850Y-43633128D01*
X57148200Y-43633128D01*
X57148200Y-43958603D01*
X56414118Y-43191554D01*
X56414715Y-43190680D01*
X56433078Y-43100000D01*
X56433078Y-41500000D01*
X56417138Y-41415286D01*
X56367072Y-41337482D01*
X56290680Y-41285285D01*
X56200000Y-41266922D01*
X54400000Y-41266922D01*
X54315286Y-41282862D01*
X54237482Y-41332928D01*
X54185285Y-41409320D01*
X54166922Y-41500000D01*
X52883761Y-41500000D01*
X53129133Y-41255056D01*
X53278430Y-40895510D01*
X53278770Y-40506198D01*
X53130101Y-40146392D01*
X52855056Y-39870867D01*
X52495510Y-39721570D01*
X52106198Y-39721230D01*
X51746392Y-39869899D01*
X51470867Y-40144944D01*
X51321570Y-40504490D01*
X51321230Y-40893802D01*
X43521006Y-40893802D01*
X43562468Y-40867122D01*
X43614665Y-40790730D01*
X43633028Y-40700050D01*
X43633028Y-39899950D01*
X43617088Y-39815236D01*
X43567022Y-39737432D01*
X43490630Y-39685235D01*
X43399950Y-39666872D01*
X42599850Y-39666872D01*
X42515136Y-39682812D01*
X42437332Y-39732878D01*
X42385135Y-39809270D01*
X42366772Y-39899950D01*
X42366772Y-40700050D01*
X42382712Y-40784764D01*
X42432778Y-40862568D01*
X42509170Y-40914765D01*
X42599850Y-40933128D01*
X42621300Y-40933128D01*
X42621300Y-41366872D01*
X42599850Y-41366872D01*
X42515136Y-41382812D01*
X42437332Y-41432878D01*
X42385135Y-41509270D01*
X42366772Y-41599950D01*
X42366772Y-41671720D01*
X41875838Y-41671720D01*
X41947864Y-41599819D01*
X42028508Y-41405606D01*
X42028692Y-41195316D01*
X41948387Y-41000963D01*
X41799819Y-40852136D01*
X41605606Y-40771492D01*
X41395316Y-40771308D01*
X41200963Y-40851613D01*
X41089315Y-40963066D01*
X41041212Y-40888312D01*
X40964820Y-40836115D01*
X40874140Y-40817752D01*
X40625220Y-40817752D01*
X40540506Y-40833692D01*
X40462702Y-40883758D01*
X40410505Y-40960150D01*
X40392142Y-41050830D01*
X40106458Y-41050830D01*
X40090518Y-40966116D01*
X40053720Y-40908931D01*
X40053720Y-40133228D01*
X40200050Y-40133228D01*
X40284764Y-40117288D01*
X40362568Y-40067222D01*
X40414765Y-39990830D01*
X40433128Y-39900150D01*
X40433128Y-39100050D01*
X40417188Y-39015336D01*
X40367122Y-38937532D01*
X40303122Y-38893802D01*
X51321230Y-38893802D01*
X51469899Y-39253608D01*
X51744944Y-39529133D01*
X52104490Y-39678430D01*
X52493802Y-39678770D01*
X52853608Y-39530101D01*
X53129133Y-39255056D01*
X53278430Y-38895510D01*
X53278770Y-38506198D01*
X53130101Y-38146392D01*
X52855056Y-37870867D01*
X52495510Y-37721570D01*
X52106198Y-37721230D01*
X51746392Y-37869899D01*
X51470867Y-38144944D01*
X51321570Y-38504490D01*
X51321230Y-38893802D01*
X40303122Y-38893802D01*
X40290730Y-38885335D01*
X40200050Y-38866972D01*
X39399950Y-38866972D01*
X39315236Y-38882912D01*
X39237432Y-38932978D01*
X39185235Y-39009370D01*
X39166872Y-39100050D01*
X39166872Y-39900150D01*
X39182812Y-39984864D01*
X39232878Y-40062668D01*
X39309270Y-40114865D01*
X39399950Y-40133228D01*
X39444120Y-40133228D01*
X39444120Y-40602924D01*
X38833128Y-39817541D01*
X38833128Y-39100050D01*
X38817188Y-39015336D01*
X38767122Y-38937532D01*
X38690730Y-38885335D01*
X38600050Y-38866972D01*
X37799950Y-38866972D01*
X37715236Y-38882912D01*
X37637432Y-38932978D01*
X37585235Y-39009370D01*
X37566872Y-39100050D01*
X37566872Y-39900150D01*
X37582812Y-39984864D01*
X37632878Y-40062668D01*
X37709270Y-40114865D01*
X37799950Y-40133228D01*
X38306372Y-40133228D01*
X38374966Y-40221400D01*
X36850000Y-40221400D01*
X36705116Y-40250219D01*
X36582289Y-40332289D01*
X35982289Y-40932289D01*
X35900219Y-41055116D01*
X35871399Y-41200000D01*
X35871400Y-41200005D01*
X35871400Y-42881038D01*
X35802136Y-42950181D01*
X35721492Y-43144394D01*
X35721308Y-43354684D01*
X32376200Y-43354684D01*
X32376200Y-35804684D01*
X63771308Y-35804684D01*
X63851613Y-35999037D01*
X64000181Y-36147864D01*
X64194394Y-36228508D01*
X64404684Y-36228692D01*
X64599037Y-36148387D01*
X64668946Y-36078600D01*
X69931038Y-36078600D01*
X70000181Y-36147864D01*
X70194394Y-36228508D01*
X70404684Y-36228692D01*
X70599037Y-36148387D01*
X70747864Y-35999819D01*
X70828508Y-35805606D01*
X70828692Y-35595316D01*
X70748387Y-35400963D01*
X70599819Y-35252136D01*
X70405606Y-35171492D01*
X70195316Y-35171308D01*
X70000963Y-35251613D01*
X69931054Y-35321400D01*
X64668962Y-35321400D01*
X64599819Y-35252136D01*
X64405606Y-35171492D01*
X64195316Y-35171308D01*
X64000963Y-35251613D01*
X63852136Y-35400181D01*
X63771492Y-35594394D01*
X63771308Y-35804684D01*
X32376200Y-35804684D01*
X32376200Y-35300000D01*
X32370989Y-35272305D01*
X32354621Y-35246868D01*
X32329646Y-35229803D01*
X32300000Y-35223800D01*
X24200000Y-35223800D01*
X24172305Y-35229011D01*
X24146868Y-35245379D01*
X24129803Y-35270354D01*
X24123800Y-35300000D01*
X23396678Y-35300000D01*
X23396678Y-34554684D01*
X58021308Y-34554684D01*
X58101613Y-34749037D01*
X58250181Y-34897864D01*
X58444394Y-34978508D01*
X58654684Y-34978692D01*
X58849037Y-34898387D01*
X58918946Y-34828600D01*
X62681038Y-34828600D01*
X62750181Y-34897864D01*
X62944394Y-34978508D01*
X63154684Y-34978692D01*
X63349037Y-34898387D01*
X63497864Y-34749819D01*
X63578508Y-34555606D01*
X63578692Y-34345316D01*
X63498387Y-34150963D01*
X63349819Y-34002136D01*
X63155606Y-33921492D01*
X62945316Y-33921308D01*
X62750963Y-34001613D01*
X62681054Y-34071400D01*
X58918962Y-34071400D01*
X58849819Y-34002136D01*
X58655606Y-33921492D01*
X58445316Y-33921308D01*
X58250963Y-34001613D01*
X58102136Y-34150181D01*
X58021492Y-34344394D01*
X58021308Y-34554684D01*
X23396678Y-34554684D01*
X23396678Y-33804684D01*
X31621308Y-33804684D01*
X31701613Y-33999037D01*
X31850181Y-34147864D01*
X32044394Y-34228508D01*
X32254684Y-34228692D01*
X32449037Y-34148387D01*
X32592874Y-34004800D01*
X34021356Y-34004800D01*
X34101613Y-34199037D01*
X34250181Y-34347864D01*
X34444394Y-34428508D01*
X34654684Y-34428692D01*
X34849037Y-34348387D01*
X34997864Y-34199819D01*
X35078508Y-34005606D01*
X35078692Y-33795316D01*
X34998387Y-33600963D01*
X34849819Y-33452136D01*
X34655606Y-33371492D01*
X34445316Y-33371308D01*
X34375309Y-33400234D01*
X34350000Y-33395200D01*
X32592634Y-33395200D01*
X32502276Y-33304684D01*
X41021308Y-33304684D01*
X41101613Y-33499037D01*
X41250181Y-33647864D01*
X41444394Y-33728508D01*
X41654684Y-33728692D01*
X41849037Y-33648387D01*
X41992874Y-33504800D01*
X55007366Y-33504800D01*
X55150181Y-33647864D01*
X55344394Y-33728508D01*
X55554684Y-33728692D01*
X55749037Y-33648387D01*
X55897864Y-33499819D01*
X55978508Y-33305606D01*
X55978692Y-33095316D01*
X55898387Y-32900963D01*
X55749819Y-32752136D01*
X55555606Y-32671492D01*
X55345316Y-32671308D01*
X55150963Y-32751613D01*
X55007126Y-32895200D01*
X41992634Y-32895200D01*
X41849819Y-32752136D01*
X41655606Y-32671492D01*
X41445316Y-32671308D01*
X41250963Y-32751613D01*
X41102136Y-32900181D01*
X41021492Y-33094394D01*
X41021308Y-33304684D01*
X32502276Y-33304684D01*
X32449819Y-33252136D01*
X32255606Y-33171492D01*
X32045316Y-33171308D01*
X31850963Y-33251613D01*
X31702136Y-33400181D01*
X31621492Y-33594394D01*
X31621308Y-33804684D01*
X23396678Y-33804684D01*
X23396678Y-33684000D01*
X23380738Y-33599286D01*
X23330672Y-33521482D01*
X23254280Y-33469285D01*
X23163600Y-33450922D01*
X21436400Y-33450922D01*
X21351686Y-33466862D01*
X21273882Y-33516928D01*
X21221685Y-33593320D01*
X21203322Y-33684000D01*
X20432157Y-33684000D01*
X20177967Y-33514156D01*
X19760000Y-33431017D01*
X19342033Y-33514156D01*
X18987698Y-33750915D01*
X18750939Y-34105250D01*
X18667800Y-34523217D01*
X16376200Y-34523217D01*
X16376200Y-32504800D01*
X19457366Y-32504800D01*
X19600181Y-32647864D01*
X19794394Y-32728508D01*
X20004684Y-32728692D01*
X20199037Y-32648387D01*
X20347864Y-32499819D01*
X20428508Y-32305606D01*
X20428692Y-32095316D01*
X20348387Y-31900963D01*
X20199819Y-31752136D01*
X20005606Y-31671492D01*
X19795316Y-31671308D01*
X19600963Y-31751613D01*
X19457126Y-31895200D01*
X16376200Y-31895200D01*
X16376200Y-30750000D01*
X32566922Y-30750000D01*
X32566922Y-32250000D01*
X32582862Y-32334714D01*
X32632928Y-32412518D01*
X32709320Y-32464715D01*
X32800000Y-32483078D01*
X34300000Y-32483078D01*
X34384714Y-32467138D01*
X34462518Y-32417072D01*
X34514715Y-32340680D01*
X34533078Y-32250000D01*
X34533078Y-31693802D01*
X34571230Y-31693802D01*
X34719899Y-32053608D01*
X34994944Y-32329133D01*
X35354490Y-32478430D01*
X35743802Y-32478770D01*
X36103608Y-32330101D01*
X36379133Y-32055056D01*
X36528430Y-31695510D01*
X36528431Y-31693802D01*
X36571230Y-31693802D01*
X36719899Y-32053608D01*
X36994944Y-32329133D01*
X37354490Y-32478430D01*
X37743802Y-32478770D01*
X38103608Y-32330101D01*
X38379133Y-32055056D01*
X38528430Y-31695510D01*
X38528431Y-31693802D01*
X38571230Y-31693802D01*
X38719899Y-32053608D01*
X38994944Y-32329133D01*
X39354490Y-32478430D01*
X39743802Y-32478770D01*
X40103608Y-32330101D01*
X40379133Y-32055056D01*
X40528430Y-31695510D01*
X40528431Y-31693802D01*
X40571230Y-31693802D01*
X40719899Y-32053608D01*
X40994944Y-32329133D01*
X41354490Y-32478430D01*
X41743802Y-32478770D01*
X42103608Y-32330101D01*
X42379133Y-32055056D01*
X42528430Y-31695510D01*
X42528431Y-31693802D01*
X42571230Y-31693802D01*
X42719899Y-32053608D01*
X42994944Y-32329133D01*
X43354490Y-32478430D01*
X43743802Y-32478770D01*
X44103608Y-32330101D01*
X44379133Y-32055056D01*
X44528430Y-31695510D01*
X44528431Y-31693802D01*
X44571230Y-31693802D01*
X44719899Y-32053608D01*
X44994944Y-32329133D01*
X45354490Y-32478430D01*
X45743802Y-32478770D01*
X46103608Y-32330101D01*
X46379133Y-32055056D01*
X46528430Y-31695510D01*
X46528513Y-31600050D01*
X56916872Y-31600050D01*
X56916872Y-32400150D01*
X56932812Y-32484864D01*
X56982878Y-32562668D01*
X57059270Y-32614865D01*
X57149950Y-32633228D01*
X57947806Y-32633228D01*
X58021394Y-32706816D01*
X58021308Y-32804684D01*
X58101613Y-32999037D01*
X58250181Y-33147864D01*
X58444394Y-33228508D01*
X58654684Y-33228692D01*
X58849037Y-33148387D01*
X58992990Y-33004684D01*
X66471308Y-33004684D01*
X66551613Y-33199037D01*
X66700181Y-33347864D01*
X66894394Y-33428508D01*
X67104684Y-33428692D01*
X67299037Y-33348387D01*
X67442874Y-33204800D01*
X71100000Y-33204800D01*
X71216642Y-33181598D01*
X71296095Y-33128509D01*
X71504684Y-33128692D01*
X71699037Y-33048387D01*
X71847864Y-32899819D01*
X71928508Y-32705606D01*
X71928692Y-32495316D01*
X71848387Y-32300963D01*
X71699819Y-32152136D01*
X71505606Y-32071492D01*
X71295316Y-32071308D01*
X71100963Y-32151613D01*
X70952136Y-32300181D01*
X70871492Y-32494394D01*
X70871404Y-32595200D01*
X67442634Y-32595200D01*
X67299819Y-32452136D01*
X67105606Y-32371492D01*
X66895316Y-32371308D01*
X66700963Y-32451613D01*
X66552136Y-32600181D01*
X66471492Y-32794394D01*
X66471308Y-33004684D01*
X58992990Y-33004684D01*
X58997864Y-32999819D01*
X59078508Y-32805606D01*
X59078692Y-32595316D01*
X58998387Y-32400963D01*
X58849819Y-32252136D01*
X58655606Y-32171492D01*
X58556828Y-32171406D01*
X58183128Y-31797706D01*
X58183128Y-31600050D01*
X58167188Y-31515336D01*
X58125049Y-31449850D01*
X59266872Y-31449850D01*
X59266872Y-32249950D01*
X59282812Y-32334664D01*
X59332878Y-32412468D01*
X59409270Y-32464665D01*
X59499950Y-32483028D01*
X60300050Y-32483028D01*
X60384764Y-32467088D01*
X60462568Y-32417022D01*
X60514765Y-32340630D01*
X60533128Y-32249950D01*
X60533128Y-31449850D01*
X60517188Y-31365136D01*
X60467122Y-31287332D01*
X60390730Y-31235135D01*
X60328640Y-31222562D01*
X60328640Y-30037950D01*
X60362748Y-30016002D01*
X60414945Y-29939610D01*
X60433308Y-29848930D01*
X60433308Y-29048830D01*
X61366692Y-29048830D01*
X61366692Y-29848930D01*
X61382632Y-29933644D01*
X61432698Y-30011448D01*
X61509090Y-30063645D01*
X61599770Y-30082008D01*
X61621400Y-30082008D01*
X61621400Y-31216772D01*
X61599950Y-31216772D01*
X61515236Y-31232712D01*
X61437432Y-31282778D01*
X61385235Y-31359170D01*
X61366872Y-31449850D01*
X61366872Y-32249950D01*
X61382812Y-32334664D01*
X61432878Y-32412468D01*
X61509270Y-32464665D01*
X61599950Y-32483028D01*
X62400050Y-32483028D01*
X62484764Y-32467088D01*
X62562568Y-32417022D01*
X62614765Y-32340630D01*
X62627967Y-32275437D01*
X62750181Y-32397864D01*
X62944394Y-32478508D01*
X63154684Y-32478692D01*
X63349037Y-32398387D01*
X63497864Y-32249819D01*
X63578508Y-32055606D01*
X63578692Y-31845316D01*
X63498387Y-31650963D01*
X63349819Y-31502136D01*
X63155606Y-31421492D01*
X62945316Y-31421308D01*
X62750963Y-31501613D01*
X62744509Y-31508056D01*
X62633128Y-31502486D01*
X62633128Y-31449850D01*
X62617188Y-31365136D01*
X62567122Y-31287332D01*
X62490730Y-31235135D01*
X62400050Y-31216772D01*
X62378600Y-31216772D01*
X62378600Y-29598925D01*
X62378601Y-29598920D01*
X62349781Y-29454036D01*
X62346336Y-29448880D01*
X62333228Y-29429263D01*
X62333228Y-29048830D01*
X62317288Y-28964116D01*
X62267222Y-28886312D01*
X62190830Y-28834115D01*
X62100150Y-28815752D01*
X61599770Y-28815752D01*
X61515056Y-28831692D01*
X61437252Y-28881758D01*
X61385055Y-28958150D01*
X61366692Y-29048830D01*
X60433308Y-29048830D01*
X60417368Y-28964116D01*
X60367302Y-28886312D01*
X60290910Y-28834115D01*
X60200230Y-28815752D01*
X59699850Y-28815752D01*
X59615136Y-28831692D01*
X59537332Y-28881758D01*
X59485135Y-28958150D01*
X59466772Y-29048830D01*
X59466772Y-29848930D01*
X59482712Y-29933644D01*
X59532778Y-30011448D01*
X59571440Y-30037865D01*
X59571440Y-31216772D01*
X59499950Y-31216772D01*
X59415236Y-31232712D01*
X59337432Y-31282778D01*
X59285235Y-31359170D01*
X59266872Y-31449850D01*
X58125049Y-31449850D01*
X58117122Y-31437532D01*
X58040730Y-31385335D01*
X57950050Y-31366972D01*
X57149950Y-31366972D01*
X57065236Y-31382912D01*
X56987432Y-31432978D01*
X56935235Y-31509370D01*
X56916872Y-31600050D01*
X46528513Y-31600050D01*
X46528770Y-31306198D01*
X46380101Y-30946392D01*
X46105056Y-30670867D01*
X45745510Y-30521570D01*
X45356198Y-30521230D01*
X44996392Y-30669899D01*
X44720867Y-30944944D01*
X44571570Y-31304490D01*
X44571230Y-31693802D01*
X44528431Y-31693802D01*
X44528770Y-31306198D01*
X44380101Y-30946392D01*
X44105056Y-30670867D01*
X43745510Y-30521570D01*
X43356198Y-30521230D01*
X42996392Y-30669899D01*
X42720867Y-30944944D01*
X42571570Y-31304490D01*
X42571230Y-31693802D01*
X42528431Y-31693802D01*
X42528770Y-31306198D01*
X42380101Y-30946392D01*
X42105056Y-30670867D01*
X41745510Y-30521570D01*
X41356198Y-30521230D01*
X40996392Y-30669899D01*
X40720867Y-30944944D01*
X40571570Y-31304490D01*
X40571230Y-31693802D01*
X40528431Y-31693802D01*
X40528770Y-31306198D01*
X40380101Y-30946392D01*
X40105056Y-30670867D01*
X39745510Y-30521570D01*
X39356198Y-30521230D01*
X38996392Y-30669899D01*
X38720867Y-30944944D01*
X38571570Y-31304490D01*
X38571230Y-31693802D01*
X38528431Y-31693802D01*
X38528770Y-31306198D01*
X38380101Y-30946392D01*
X38105056Y-30670867D01*
X37745510Y-30521570D01*
X37356198Y-30521230D01*
X36996392Y-30669899D01*
X36720867Y-30944944D01*
X36571570Y-31304490D01*
X36571230Y-31693802D01*
X36528431Y-31693802D01*
X36528770Y-31306198D01*
X36380101Y-30946392D01*
X36105056Y-30670867D01*
X35745510Y-30521570D01*
X35356198Y-30521230D01*
X34996392Y-30669899D01*
X34720867Y-30944944D01*
X34571570Y-31304490D01*
X34571230Y-31693802D01*
X34533078Y-31693802D01*
X34533078Y-30750000D01*
X34517138Y-30665286D01*
X34467072Y-30587482D01*
X34390680Y-30535285D01*
X34300000Y-30516922D01*
X32800000Y-30516922D01*
X32715286Y-30532862D01*
X32637482Y-30582928D01*
X32585285Y-30659320D01*
X32566922Y-30750000D01*
X16376200Y-30750000D01*
X16376200Y-28200050D01*
X56916872Y-28200050D01*
X56916872Y-29000150D01*
X56932812Y-29084864D01*
X56982878Y-29162668D01*
X57059270Y-29214865D01*
X57149950Y-29233228D01*
X57171400Y-29233228D01*
X57171400Y-29766772D01*
X57149950Y-29766772D01*
X57065236Y-29782712D01*
X56987432Y-29832778D01*
X56935235Y-29909170D01*
X56916872Y-29999850D01*
X56916872Y-30799950D01*
X56932812Y-30884664D01*
X56982878Y-30962468D01*
X57059270Y-31014665D01*
X57149950Y-31033028D01*
X57950050Y-31033028D01*
X58034764Y-31017088D01*
X58112568Y-30967022D01*
X58164765Y-30890630D01*
X58183128Y-30799950D01*
X58183128Y-29999850D01*
X58167188Y-29915136D01*
X58117122Y-29837332D01*
X58040730Y-29785135D01*
X57950050Y-29766772D01*
X57928600Y-29766772D01*
X57928600Y-29233228D01*
X57950050Y-29233228D01*
X58034764Y-29217288D01*
X58112568Y-29167222D01*
X58164765Y-29090830D01*
X58183128Y-29000150D01*
X58183128Y-28200050D01*
X58167188Y-28115336D01*
X58117122Y-28037532D01*
X58040730Y-27985335D01*
X57950050Y-27966972D01*
X57149950Y-27966972D01*
X57065236Y-27982912D01*
X56987432Y-28032978D01*
X56935235Y-28109370D01*
X56916872Y-28200050D01*
X16376200Y-28200050D01*
X16376200Y-26599850D01*
X56916872Y-26599850D01*
X56916872Y-27399950D01*
X56932812Y-27484664D01*
X56982878Y-27562468D01*
X57059270Y-27614665D01*
X57149950Y-27633028D01*
X57950050Y-27633028D01*
X58034764Y-27617088D01*
X58112568Y-27567022D01*
X58164765Y-27490630D01*
X58183128Y-27399950D01*
X58183128Y-27378500D01*
X59466772Y-27378500D01*
X59466772Y-27451170D01*
X59482712Y-27535884D01*
X59532778Y-27613688D01*
X59609170Y-27665885D01*
X59699850Y-27684248D01*
X60200230Y-27684248D01*
X60284944Y-27668308D01*
X60362748Y-27618242D01*
X60414945Y-27541850D01*
X60433308Y-27451170D01*
X60433308Y-26651070D01*
X61366692Y-26651070D01*
X61366692Y-27451170D01*
X61382632Y-27535884D01*
X61432698Y-27613688D01*
X61509090Y-27665885D01*
X61599770Y-27684248D01*
X62100150Y-27684248D01*
X62184864Y-27668308D01*
X62262668Y-27618242D01*
X62314865Y-27541850D01*
X62333228Y-27451170D01*
X62333228Y-26651070D01*
X62317288Y-26566356D01*
X62267222Y-26488552D01*
X62228560Y-26462135D01*
X62228560Y-25206962D01*
X62302394Y-25133128D01*
X62800150Y-25133128D01*
X62884864Y-25117188D01*
X62962668Y-25067122D01*
X63014865Y-24990730D01*
X63033228Y-24900050D01*
X63033228Y-24878600D01*
X63443178Y-24878600D01*
X63521394Y-24956816D01*
X63521308Y-25054684D01*
X63601613Y-25249037D01*
X63750181Y-25397864D01*
X63944394Y-25478508D01*
X64154684Y-25478692D01*
X64349037Y-25398387D01*
X64497864Y-25249819D01*
X64578508Y-25055606D01*
X64578692Y-24845316D01*
X64498387Y-24650963D01*
X64349819Y-24502136D01*
X64155606Y-24421492D01*
X64056828Y-24421406D01*
X63867711Y-24232289D01*
X63744884Y-24150219D01*
X63600000Y-24121399D01*
X63599995Y-24121400D01*
X63033228Y-24121400D01*
X63033228Y-24099950D01*
X63017288Y-24015236D01*
X62967222Y-23937432D01*
X62890830Y-23885235D01*
X62800150Y-23866872D01*
X62000050Y-23866872D01*
X61915336Y-23882812D01*
X61837532Y-23932878D01*
X61785335Y-24009270D01*
X61766972Y-24099950D01*
X61766972Y-24597706D01*
X61582249Y-24782429D01*
X61500179Y-24905256D01*
X61471359Y-25050140D01*
X61471360Y-25050145D01*
X61471360Y-26462050D01*
X61437252Y-26483998D01*
X61385055Y-26560390D01*
X61366692Y-26651070D01*
X60433308Y-26651070D01*
X60417368Y-26566356D01*
X60367302Y-26488552D01*
X60290910Y-26436355D01*
X60200230Y-26417992D01*
X59699850Y-26417992D01*
X59615136Y-26433932D01*
X59537332Y-26483998D01*
X59485135Y-26560390D01*
X59472801Y-26621300D01*
X58183128Y-26621300D01*
X58183128Y-26599850D01*
X58167188Y-26515136D01*
X58117122Y-26437332D01*
X58040730Y-26385135D01*
X57950050Y-26366772D01*
X57149950Y-26366772D01*
X57065236Y-26382712D01*
X56987432Y-26432778D01*
X56935235Y-26509170D01*
X56916872Y-26599850D01*
X16376200Y-26599850D01*
X16376200Y-23104684D01*
X22371308Y-23104684D01*
X22451613Y-23299037D01*
X22600181Y-23447864D01*
X22794394Y-23528508D01*
X23004684Y-23528692D01*
X23199037Y-23448387D01*
X23319033Y-23328600D01*
X25681038Y-23328600D01*
X25750181Y-23397864D01*
X25944394Y-23478508D01*
X26154684Y-23478692D01*
X26349037Y-23398387D01*
X26418946Y-23328600D01*
X28856659Y-23328600D01*
X28800963Y-23351613D01*
X28652136Y-23500181D01*
X28571492Y-23694394D01*
X28571308Y-23904684D01*
X28651613Y-24099037D01*
X28800181Y-24247864D01*
X28994394Y-24328508D01*
X29204684Y-24328692D01*
X29399037Y-24248387D01*
X29442700Y-24204800D01*
X44057366Y-24204800D01*
X44200181Y-24347864D01*
X44394394Y-24428508D01*
X44604684Y-24428692D01*
X44799037Y-24348387D01*
X44947864Y-24199819D01*
X45028508Y-24005606D01*
X45028692Y-23795316D01*
X44948387Y-23600963D01*
X44799819Y-23452136D01*
X44605606Y-23371492D01*
X44395316Y-23371308D01*
X44200963Y-23451613D01*
X44057126Y-23595200D01*
X29587325Y-23595200D01*
X29548387Y-23500963D01*
X29399819Y-23352136D01*
X29343138Y-23328600D01*
X31181038Y-23328600D01*
X31250181Y-23397864D01*
X31444394Y-23478508D01*
X31654684Y-23478692D01*
X31849037Y-23398387D01*
X31918946Y-23328600D01*
X43181038Y-23328600D01*
X43250181Y-23397864D01*
X43444394Y-23478508D01*
X43654684Y-23478692D01*
X43849037Y-23398387D01*
X43918946Y-23328600D01*
X46931038Y-23328600D01*
X47000181Y-23397864D01*
X47194394Y-23478508D01*
X47404684Y-23478692D01*
X47599037Y-23398387D01*
X47668946Y-23328600D01*
X62431038Y-23328600D01*
X62500181Y-23397864D01*
X62694394Y-23478508D01*
X62904684Y-23478692D01*
X63099037Y-23398387D01*
X63168946Y-23328600D01*
X64822509Y-23328600D01*
X64851613Y-23399037D01*
X65000181Y-23547864D01*
X65194394Y-23628508D01*
X65404684Y-23628692D01*
X65599037Y-23548387D01*
X65747864Y-23399819D01*
X65828508Y-23205606D01*
X65828692Y-22995316D01*
X65748387Y-22800963D01*
X65599819Y-22652136D01*
X65405606Y-22571492D01*
X65195316Y-22571308D01*
X65180441Y-22577454D01*
X65150000Y-22571399D01*
X65149995Y-22571400D01*
X63168962Y-22571400D01*
X63099819Y-22502136D01*
X62905606Y-22421492D01*
X62695316Y-22421308D01*
X62500963Y-22501613D01*
X62431054Y-22571400D01*
X47668962Y-22571400D01*
X47599819Y-22502136D01*
X47405606Y-22421492D01*
X47195316Y-22421308D01*
X47000963Y-22501613D01*
X46931054Y-22571400D01*
X43918962Y-22571400D01*
X43849819Y-22502136D01*
X43655606Y-22421492D01*
X43445316Y-22421308D01*
X43250963Y-22501613D01*
X43181054Y-22571400D01*
X31918962Y-22571400D01*
X31849819Y-22502136D01*
X31655606Y-22421492D01*
X31445316Y-22421308D01*
X31250963Y-22501613D01*
X31181054Y-22571400D01*
X26418962Y-22571400D01*
X26349819Y-22502136D01*
X26155606Y-22421492D01*
X25945316Y-22421308D01*
X25750963Y-22501613D01*
X25681054Y-22571400D01*
X23219049Y-22571400D01*
X23199819Y-22552136D01*
X23005606Y-22471492D01*
X22795316Y-22471308D01*
X22600963Y-22551613D01*
X22452136Y-22700181D01*
X22371492Y-22894394D01*
X22371308Y-23104684D01*
X16376200Y-23104684D01*
X16376200Y-19147688D01*
X17039008Y-19147688D01*
X17382439Y-19978854D01*
X18017801Y-20615326D01*
X18848366Y-20960207D01*
X19747688Y-20960992D01*
X20578854Y-20617561D01*
X21215326Y-19982199D01*
X21560207Y-19151634D01*
X21560210Y-19147688D01*
X67039008Y-19147688D01*
X67382439Y-19978854D01*
X68017801Y-20615326D01*
X68848366Y-20960207D01*
X69747688Y-20960992D01*
X70578854Y-20617561D01*
X71215326Y-19982199D01*
X71560207Y-19151634D01*
X71560992Y-18252312D01*
X71217561Y-17421146D01*
X70582199Y-16784674D01*
X69751634Y-16439793D01*
X68852312Y-16439008D01*
X68021146Y-16782439D01*
X67384674Y-17417801D01*
X67039793Y-18248366D01*
X67039008Y-19147688D01*
X21560210Y-19147688D01*
X21560992Y-18252312D01*
X21499994Y-18104684D01*
X31671308Y-18104684D01*
X31751613Y-18299037D01*
X31900181Y-18447864D01*
X32094394Y-18528508D01*
X32304684Y-18528692D01*
X32499037Y-18448387D01*
X32642874Y-18304800D01*
X40957366Y-18304800D01*
X41100181Y-18447864D01*
X41294394Y-18528508D01*
X41504684Y-18528692D01*
X41699037Y-18448387D01*
X41847864Y-18299819D01*
X41928508Y-18105606D01*
X41928596Y-18004684D01*
X47171308Y-18004684D01*
X47251613Y-18199037D01*
X47400181Y-18347864D01*
X47594394Y-18428508D01*
X47804684Y-18428692D01*
X47999037Y-18348387D01*
X48142874Y-18204800D01*
X56157366Y-18204800D01*
X56300181Y-18347864D01*
X56494394Y-18428508D01*
X56704684Y-18428692D01*
X56899037Y-18348387D01*
X57047864Y-18199819D01*
X57128508Y-18005606D01*
X57128692Y-17795316D01*
X57048387Y-17600963D01*
X56899819Y-17452136D01*
X56705606Y-17371492D01*
X56495316Y-17371308D01*
X56300963Y-17451613D01*
X56157126Y-17595200D01*
X48142634Y-17595200D01*
X47999819Y-17452136D01*
X47805606Y-17371492D01*
X47595316Y-17371308D01*
X47400963Y-17451613D01*
X47252136Y-17600181D01*
X47171492Y-17794394D01*
X47171308Y-18004684D01*
X41928596Y-18004684D01*
X41928692Y-17895316D01*
X41848387Y-17700963D01*
X41699819Y-17552136D01*
X41505606Y-17471492D01*
X41295316Y-17471308D01*
X41100963Y-17551613D01*
X40957126Y-17695200D01*
X32642634Y-17695200D01*
X32499819Y-17552136D01*
X32305606Y-17471492D01*
X32095316Y-17471308D01*
X31900963Y-17551613D01*
X31752136Y-17700181D01*
X31671492Y-17894394D01*
X31671308Y-18104684D01*
X21499994Y-18104684D01*
X21217561Y-17421146D01*
X20582199Y-16784674D01*
X19751634Y-16439793D01*
X18852312Y-16439008D01*
X18021146Y-16782439D01*
X17384674Y-17417801D01*
X17039793Y-18248366D01*
X17039008Y-19147688D01*
X16376200Y-19147688D01*
X16376200Y-15776200D01*
X72223800Y-15776200D01*
X72223800Y-36169192D01*
M02*
