G04 #@! TF.FileFunction,Soldermask,Top*
%FSLAX46Y46*%
G04 Gerber Fmt 4.6, Leading zero omitted, Abs format (unit mm)*
G04 Created by KiCad (PCBNEW 4.0.2-stable) date Friday, May 27, 2016 'pmt' 03:10:38 pm*
%MOMM*%
G01*
G04 APERTURE LIST*
%ADD10C,0.100000*%
%ADD11R,0.800100X0.800100*%
%ADD12R,1.500000X1.000000*%
%ADD13R,1.000000X1.500000*%
%ADD14R,2.032000X2.032000*%
%ADD15O,2.032000X2.032000*%
%ADD16R,1.727200X2.032000*%
%ADD17O,1.727200X2.032000*%
%ADD18O,2.400000X1.100000*%
%ADD19R,1.100000X2.400000*%
%ADD20O,1.100000X2.400000*%
%ADD21C,1.500000*%
%ADD22R,1.500000X1.500000*%
%ADD23R,1.399540X2.100580*%
%ADD24C,4.064000*%
%ADD25C,1.524000*%
G04 APERTURE END LIST*
D10*
X14300000Y-13700000D02*
X74300000Y-13700000D01*
X74300000Y-73700000D02*
X74300000Y-13700000D01*
X14300000Y-73700000D02*
X74300000Y-73700000D01*
X14300000Y-13700000D02*
X14300000Y-73700000D01*
D11*
X29999900Y-21800000D03*
X31600100Y-21800000D03*
X45699900Y-21600000D03*
X47300100Y-21600000D03*
X60899900Y-21700000D03*
X62500100Y-21700000D03*
X66300000Y-29399900D03*
X66300000Y-31000100D03*
X52300000Y-52899900D03*
X52300000Y-54500100D03*
X50300000Y-52899900D03*
X50300000Y-54500100D03*
X66200000Y-44699900D03*
X66200000Y-46300100D03*
X66200000Y-60399900D03*
X66200000Y-62000100D03*
X58600100Y-65800000D03*
X56999900Y-65800000D03*
X42700100Y-65800000D03*
X41099900Y-65800000D03*
X27600100Y-65800000D03*
X25999900Y-65800000D03*
X22200000Y-58000100D03*
X22200000Y-56399900D03*
X22200000Y-42300100D03*
X22200000Y-40699900D03*
X22800000Y-27000100D03*
X22800000Y-25399900D03*
D12*
X26350000Y-16600000D03*
X26350000Y-19800000D03*
X31250000Y-19800000D03*
X31250000Y-16600000D03*
X42050000Y-16600000D03*
X42050000Y-19800000D03*
X46950000Y-19800000D03*
X46950000Y-16600000D03*
X57300000Y-16600000D03*
X57300000Y-19800000D03*
X62200000Y-19800000D03*
X62200000Y-16600000D03*
D13*
X71400000Y-25750000D03*
X68200000Y-25750000D03*
X68200000Y-30650000D03*
X71400000Y-30650000D03*
X71400000Y-41250000D03*
X68200000Y-41250000D03*
X68200000Y-46150000D03*
X71400000Y-46150000D03*
X71400000Y-56750000D03*
X68200000Y-56750000D03*
X68200000Y-61650000D03*
X71400000Y-61650000D03*
D12*
X62250000Y-70800000D03*
X62250000Y-67600000D03*
X57350000Y-67600000D03*
X57350000Y-70800000D03*
X46750000Y-70800000D03*
X46750000Y-67600000D03*
X41850000Y-67600000D03*
X41850000Y-70800000D03*
X31250000Y-70800000D03*
X31250000Y-67600000D03*
X26350000Y-67600000D03*
X26350000Y-70800000D03*
D13*
X17200000Y-61650000D03*
X20400000Y-61650000D03*
X20400000Y-56750000D03*
X17200000Y-56750000D03*
X17200000Y-45950000D03*
X20400000Y-45950000D03*
X20400000Y-41050000D03*
X17200000Y-41050000D03*
X17200000Y-30650000D03*
X20400000Y-30650000D03*
X20400000Y-25750000D03*
X17200000Y-25750000D03*
D14*
X68900000Y-49700000D03*
D15*
X71440000Y-49700000D03*
D16*
X22300000Y-34700000D03*
D17*
X19760000Y-34700000D03*
X17220000Y-34700000D03*
D11*
X37550000Y-60500100D03*
X37550000Y-58899900D03*
X33550000Y-60500100D03*
X33550000Y-58899900D03*
X41550000Y-27899900D03*
X41550000Y-29500100D03*
X43550000Y-27899900D03*
X43550000Y-29500100D03*
X25999900Y-21800000D03*
X27600100Y-21800000D03*
X45550000Y-29500100D03*
X45550000Y-27899900D03*
D18*
X49300000Y-48710000D03*
X49300000Y-46710000D03*
X49300000Y-44710000D03*
X49300000Y-42710000D03*
X49300000Y-40710000D03*
X49300000Y-38710000D03*
D19*
X33550000Y-51700000D03*
D20*
X35550000Y-51700000D03*
X37550000Y-51700000D03*
X39550000Y-51700000D03*
X41550000Y-51700000D03*
X43550000Y-51700000D03*
X45550000Y-51700000D03*
X47550000Y-51700000D03*
X47550000Y-35700000D03*
X45550000Y-35700000D03*
X43550000Y-35700000D03*
X41550000Y-35700000D03*
X39550000Y-35700000D03*
X37550000Y-35700000D03*
X35550000Y-35700000D03*
X33550000Y-35700000D03*
D21*
X47500000Y-56900000D03*
X45500000Y-56900000D03*
X43500000Y-56900000D03*
X41500000Y-56900000D03*
X39500000Y-56900000D03*
X37500000Y-56900000D03*
D22*
X33500000Y-56900000D03*
D21*
X35500000Y-56900000D03*
X47550000Y-31500000D03*
X45550000Y-31500000D03*
X43550000Y-31500000D03*
X41550000Y-31500000D03*
X39550000Y-31500000D03*
X37550000Y-31500000D03*
D22*
X33550000Y-31500000D03*
D21*
X35550000Y-31500000D03*
X52300000Y-38700000D03*
X52300000Y-40700000D03*
X52300000Y-42700000D03*
X52300000Y-44700000D03*
D22*
X52300000Y-48700000D03*
D21*
X52300000Y-46700000D03*
D23*
X61550440Y-54498840D03*
X57049560Y-54498840D03*
X57049560Y-62901160D03*
X61550440Y-62901160D03*
X57049560Y-32901160D03*
X61550440Y-32901160D03*
X61550440Y-24498840D03*
X57049560Y-24498840D03*
D24*
X69300000Y-68700000D03*
X19300000Y-68700000D03*
X69300000Y-18700000D03*
X19300000Y-18700000D03*
D11*
X27800000Y-63500100D03*
X27800000Y-61899900D03*
X27800000Y-23899900D03*
X27800000Y-25500100D03*
D25*
X66101020Y-53500000D03*
X68100000Y-53500000D03*
X70098980Y-53500000D03*
D23*
X30550440Y-25498840D03*
X26049560Y-25498840D03*
X26049560Y-33901160D03*
X30550440Y-33901160D03*
X30550440Y-53498840D03*
X26049560Y-53498840D03*
X26049560Y-61901160D03*
X30550440Y-61901160D03*
D11*
X65600100Y-57200000D03*
X63999900Y-57200000D03*
X63999900Y-58700000D03*
X65600100Y-58700000D03*
M02*
