G04 #@! TF.FileFunction,Legend,Bot*
%FSLAX46Y46*%
G04 Gerber Fmt 4.6, Leading zero omitted, Abs format (unit mm)*
G04 Created by KiCad (PCBNEW 4.0.2-stable) date Friday, May 27, 2016 'pmt' 03:10:38 pm*
%MOMM*%
G01*
G04 APERTURE LIST*
%ADD10C,0.100000*%
%ADD11C,0.001000*%
%ADD12C,0.203200*%
%ADD13C,0.099060*%
%ADD14C,0.198120*%
%ADD15C,0.050000*%
%ADD16C,0.075000*%
%ADD17C,0.190500*%
%ADD18C,0.304800*%
%ADD19C,0.060960*%
%ADD20C,0.124460*%
G04 APERTURE END LIST*
D10*
X14300000Y-13700000D02*
X74300000Y-13700000D01*
X74300000Y-73700000D02*
X74300000Y-13700000D01*
X14300000Y-73700000D02*
X74300000Y-73700000D01*
X14300000Y-13700000D02*
X14300000Y-73700000D01*
D11*
X61349760Y-31199660D02*
X61349760Y-34100340D01*
X61349760Y-34100340D02*
X62650240Y-34100340D01*
X62650240Y-34100340D02*
X62650240Y-31199660D01*
X62650240Y-31199660D02*
X61349760Y-31199660D01*
X63050340Y-23849760D02*
X60149660Y-23849760D01*
X60149660Y-23849760D02*
X60149660Y-25150240D01*
X60149660Y-25150240D02*
X63050340Y-25150240D01*
X63050340Y-25150240D02*
X63050340Y-23849760D01*
X56849660Y-43650240D02*
X59750340Y-43650240D01*
X59750340Y-43650240D02*
X59750340Y-42349760D01*
X59750340Y-42349760D02*
X56849660Y-42349760D01*
X56849660Y-42349760D02*
X56849660Y-43650240D01*
X56799660Y-51550240D02*
X59700340Y-51550240D01*
X59700340Y-51550240D02*
X59700340Y-50249760D01*
X59700340Y-50249760D02*
X56799660Y-50249760D01*
X56799660Y-50249760D02*
X56799660Y-51550240D01*
X56799660Y-49800240D02*
X59700340Y-49800240D01*
X59700340Y-49800240D02*
X59700340Y-48499760D01*
X59700340Y-48499760D02*
X56799660Y-48499760D01*
X56799660Y-48499760D02*
X56799660Y-49800240D01*
X45250340Y-41349760D02*
X42349660Y-41349760D01*
X42349660Y-41349760D02*
X42349660Y-42650240D01*
X42349660Y-42650240D02*
X45250340Y-42650240D01*
X45250340Y-42650240D02*
X45250340Y-41349760D01*
X45250340Y-39649760D02*
X42349660Y-39649760D01*
X42349660Y-39649760D02*
X42349660Y-40950240D01*
X42349660Y-40950240D02*
X45250340Y-40950240D01*
X45250340Y-40950240D02*
X45250340Y-39649760D01*
X40450240Y-40150340D02*
X40450240Y-37249660D01*
X40450240Y-37249660D02*
X39149760Y-37249660D01*
X39149760Y-37249660D02*
X39149760Y-40150340D01*
X39149760Y-40150340D02*
X40450240Y-40150340D01*
X39949660Y-47250240D02*
X42850340Y-47250240D01*
X42850340Y-47250240D02*
X42850340Y-45949760D01*
X42850340Y-45949760D02*
X39949660Y-45949760D01*
X39949660Y-45949760D02*
X39949660Y-47250240D01*
D12*
X57252480Y-47647520D02*
X57501400Y-47398600D01*
X60498600Y-47551000D02*
X59838200Y-47551000D01*
X60498600Y-44249000D02*
X59838200Y-44249000D01*
X58187200Y-44249000D02*
X57526800Y-44249000D01*
D11*
X56399820Y-45950440D02*
X54200180Y-45950440D01*
X54200180Y-45950440D02*
X54200180Y-41449560D01*
X54200180Y-41449560D02*
X56399820Y-41449560D01*
X56399820Y-41449560D02*
X56399820Y-45950440D01*
X58200240Y-32650340D02*
X58200240Y-29749660D01*
X58200240Y-29749660D02*
X56899760Y-29749660D01*
X56899760Y-29749660D02*
X56899760Y-32650340D01*
X56899760Y-32650340D02*
X58200240Y-32650340D01*
X59249760Y-31199660D02*
X59249760Y-34100340D01*
X59249760Y-34100340D02*
X60550240Y-34100340D01*
X60550240Y-34100340D02*
X60550240Y-31199660D01*
X60550240Y-31199660D02*
X59249760Y-31199660D01*
X63900240Y-46850340D02*
X63900240Y-43949660D01*
X63900240Y-43949660D02*
X62599760Y-43949660D01*
X62599760Y-43949660D02*
X62599760Y-46850340D01*
X62599760Y-46850340D02*
X63900240Y-46850340D01*
X63700340Y-50249760D02*
X60799660Y-50249760D01*
X60799660Y-50249760D02*
X60799660Y-51550240D01*
X60799660Y-51550240D02*
X63700340Y-51550240D01*
X63700340Y-51550240D02*
X63700340Y-50249760D01*
X63900240Y-43850340D02*
X63900240Y-40949660D01*
X63900240Y-40949660D02*
X62599760Y-40949660D01*
X62599760Y-40949660D02*
X62599760Y-43850340D01*
X62599760Y-43850340D02*
X63900240Y-43850340D01*
X60799660Y-49800240D02*
X63700340Y-49800240D01*
X63700340Y-49800240D02*
X63700340Y-48499760D01*
X63700340Y-48499760D02*
X60799660Y-48499760D01*
X60799660Y-48499760D02*
X60799660Y-49800240D01*
X47750340Y-47249760D02*
X44849660Y-47249760D01*
X44849660Y-47249760D02*
X44849660Y-48550240D01*
X44849660Y-48550240D02*
X47750340Y-48550240D01*
X47750340Y-48550240D02*
X47750340Y-47249760D01*
X47750340Y-48849760D02*
X44849660Y-48849760D01*
X44849660Y-48849760D02*
X44849660Y-50150240D01*
X44849660Y-50150240D02*
X47750340Y-50150240D01*
X47750340Y-50150240D02*
X47750340Y-48849760D01*
X38850240Y-40150340D02*
X38850240Y-37249660D01*
X38850240Y-37249660D02*
X37549760Y-37249660D01*
X37549760Y-37249660D02*
X37549760Y-40150340D01*
X37549760Y-40150340D02*
X38850240Y-40150340D01*
X59350600Y-29100900D02*
X62449400Y-29100900D01*
X62449400Y-29100900D02*
X62449400Y-27399100D01*
X62449400Y-27399100D02*
X59350600Y-27399100D01*
X59350600Y-27399100D02*
X59350600Y-29100900D01*
D13*
X74100760Y-37099500D02*
X74298880Y-37099500D01*
X74100760Y-45100500D02*
X74298880Y-45100500D01*
X68700720Y-37099500D02*
X68700720Y-45100500D01*
X68700720Y-45100500D02*
X74100760Y-45100500D01*
X74298880Y-45100500D02*
X74298880Y-37099500D01*
X74100760Y-37099500D02*
X68700720Y-37099500D01*
D11*
X56899760Y-26349660D02*
X56899760Y-29250340D01*
X56899760Y-29250340D02*
X58200240Y-29250340D01*
X58200240Y-29250340D02*
X58200240Y-26349660D01*
X58200240Y-26349660D02*
X56899760Y-26349660D01*
D14*
X37498980Y-44998980D02*
X36973200Y-44998980D01*
X36950500Y-44973200D02*
X36950500Y-44523620D01*
D15*
X62296429Y-32666667D02*
X62305952Y-32657143D01*
X62315476Y-32628572D01*
X62315476Y-32609524D01*
X62305952Y-32580952D01*
X62286905Y-32561905D01*
X62267857Y-32552381D01*
X62229762Y-32542857D01*
X62201190Y-32542857D01*
X62163095Y-32552381D01*
X62144048Y-32561905D01*
X62125000Y-32580952D01*
X62115476Y-32609524D01*
X62115476Y-32628572D01*
X62125000Y-32657143D01*
X62134524Y-32666667D01*
X62315476Y-32857143D02*
X62315476Y-32742857D01*
X62315476Y-32800000D02*
X62115476Y-32800000D01*
X62144048Y-32780952D01*
X62163095Y-32761905D01*
X62172619Y-32742857D01*
X61582143Y-32419048D02*
X61715476Y-32419048D01*
X61505952Y-32371429D02*
X61648810Y-32323810D01*
X61648810Y-32447620D01*
X61696429Y-32523810D02*
X61705952Y-32533334D01*
X61715476Y-32523810D01*
X61705952Y-32514286D01*
X61696429Y-32523810D01*
X61715476Y-32523810D01*
X61515476Y-32600000D02*
X61515476Y-32733334D01*
X61715476Y-32647619D01*
X61582143Y-32895238D02*
X61715476Y-32895238D01*
X61582143Y-32809524D02*
X61686905Y-32809524D01*
X61705952Y-32819048D01*
X61715476Y-32838095D01*
X61715476Y-32866667D01*
X61705952Y-32885715D01*
X61696429Y-32895238D01*
X61610714Y-33057143D02*
X61610714Y-32990476D01*
X61715476Y-32990476D02*
X61515476Y-32990476D01*
X61515476Y-33085714D01*
X61583333Y-24796429D02*
X61592857Y-24805952D01*
X61621428Y-24815476D01*
X61640476Y-24815476D01*
X61669048Y-24805952D01*
X61688095Y-24786905D01*
X61697619Y-24767857D01*
X61707143Y-24729762D01*
X61707143Y-24701190D01*
X61697619Y-24663095D01*
X61688095Y-24644048D01*
X61669048Y-24625000D01*
X61640476Y-24615476D01*
X61621428Y-24615476D01*
X61592857Y-24625000D01*
X61583333Y-24634524D01*
X61507143Y-24634524D02*
X61497619Y-24625000D01*
X61478571Y-24615476D01*
X61430952Y-24615476D01*
X61411905Y-24625000D01*
X61402381Y-24634524D01*
X61392857Y-24653571D01*
X61392857Y-24672619D01*
X61402381Y-24701190D01*
X61516667Y-24815476D01*
X61392857Y-24815476D01*
X61830952Y-24082143D02*
X61830952Y-24215476D01*
X61878571Y-24005952D02*
X61926190Y-24148810D01*
X61802380Y-24148810D01*
X61726190Y-24196429D02*
X61716666Y-24205952D01*
X61726190Y-24215476D01*
X61735714Y-24205952D01*
X61726190Y-24196429D01*
X61726190Y-24215476D01*
X61650000Y-24015476D02*
X61516666Y-24015476D01*
X61602381Y-24215476D01*
X61354762Y-24082143D02*
X61354762Y-24215476D01*
X61440476Y-24082143D02*
X61440476Y-24186905D01*
X61430952Y-24205952D01*
X61411905Y-24215476D01*
X61383333Y-24215476D01*
X61364285Y-24205952D01*
X61354762Y-24196429D01*
X61192857Y-24110714D02*
X61259524Y-24110714D01*
X61259524Y-24215476D02*
X61259524Y-24015476D01*
X61164286Y-24015476D01*
X58383333Y-42846429D02*
X58392857Y-42855952D01*
X58421428Y-42865476D01*
X58440476Y-42865476D01*
X58469048Y-42855952D01*
X58488095Y-42836905D01*
X58497619Y-42817857D01*
X58507143Y-42779762D01*
X58507143Y-42751190D01*
X58497619Y-42713095D01*
X58488095Y-42694048D01*
X58469048Y-42675000D01*
X58440476Y-42665476D01*
X58421428Y-42665476D01*
X58392857Y-42675000D01*
X58383333Y-42684524D01*
X58316667Y-42665476D02*
X58192857Y-42665476D01*
X58259524Y-42741667D01*
X58230952Y-42741667D01*
X58211905Y-42751190D01*
X58202381Y-42760714D01*
X58192857Y-42779762D01*
X58192857Y-42827381D01*
X58202381Y-42846429D01*
X58211905Y-42855952D01*
X58230952Y-42865476D01*
X58288095Y-42865476D01*
X58307143Y-42855952D01*
X58316667Y-42846429D01*
X58564285Y-43465476D02*
X58678571Y-43465476D01*
X58621428Y-43465476D02*
X58621428Y-43265476D01*
X58640476Y-43294048D01*
X58659523Y-43313095D01*
X58678571Y-43322619D01*
X58440476Y-43265476D02*
X58421428Y-43265476D01*
X58402380Y-43275000D01*
X58392857Y-43284524D01*
X58383333Y-43303571D01*
X58373809Y-43341667D01*
X58373809Y-43389286D01*
X58383333Y-43427381D01*
X58392857Y-43446429D01*
X58402380Y-43455952D01*
X58421428Y-43465476D01*
X58440476Y-43465476D01*
X58459523Y-43455952D01*
X58469047Y-43446429D01*
X58478571Y-43427381D01*
X58488095Y-43389286D01*
X58488095Y-43341667D01*
X58478571Y-43303571D01*
X58469047Y-43284524D01*
X58459523Y-43275000D01*
X58440476Y-43265476D01*
X58202381Y-43332143D02*
X58202381Y-43465476D01*
X58288095Y-43332143D02*
X58288095Y-43436905D01*
X58278571Y-43455952D01*
X58259524Y-43465476D01*
X58230952Y-43465476D01*
X58211904Y-43455952D01*
X58202381Y-43446429D01*
X58040476Y-43360714D02*
X58107143Y-43360714D01*
X58107143Y-43465476D02*
X58107143Y-43265476D01*
X58011905Y-43265476D01*
X58371429Y-50641667D02*
X58380952Y-50632143D01*
X58390476Y-50603572D01*
X58390476Y-50584524D01*
X58380952Y-50555952D01*
X58361905Y-50536905D01*
X58342857Y-50527381D01*
X58304762Y-50517857D01*
X58276190Y-50517857D01*
X58238095Y-50527381D01*
X58219048Y-50536905D01*
X58200000Y-50555952D01*
X58190476Y-50584524D01*
X58190476Y-50603572D01*
X58200000Y-50632143D01*
X58209524Y-50641667D01*
X58190476Y-50822619D02*
X58190476Y-50727381D01*
X58285714Y-50717857D01*
X58276190Y-50727381D01*
X58266667Y-50746429D01*
X58266667Y-50794048D01*
X58276190Y-50813095D01*
X58285714Y-50822619D01*
X58304762Y-50832143D01*
X58352381Y-50832143D01*
X58371429Y-50822619D01*
X58380952Y-50813095D01*
X58390476Y-50794048D01*
X58390476Y-50746429D01*
X58380952Y-50727381D01*
X58371429Y-50717857D01*
X58628571Y-51184524D02*
X58619047Y-51175000D01*
X58599999Y-51165476D01*
X58552380Y-51165476D01*
X58533333Y-51175000D01*
X58523809Y-51184524D01*
X58514285Y-51203571D01*
X58514285Y-51222619D01*
X58523809Y-51251190D01*
X58638095Y-51365476D01*
X58514285Y-51365476D01*
X58438095Y-51184524D02*
X58428571Y-51175000D01*
X58409523Y-51165476D01*
X58361904Y-51165476D01*
X58342857Y-51175000D01*
X58333333Y-51184524D01*
X58323809Y-51203571D01*
X58323809Y-51222619D01*
X58333333Y-51251190D01*
X58447619Y-51365476D01*
X58323809Y-51365476D01*
X58152381Y-51232143D02*
X58152381Y-51365476D01*
X58238095Y-51232143D02*
X58238095Y-51336905D01*
X58228571Y-51355952D01*
X58209524Y-51365476D01*
X58180952Y-51365476D01*
X58161904Y-51355952D01*
X58152381Y-51346429D01*
X57990476Y-51260714D02*
X58057143Y-51260714D01*
X58057143Y-51365476D02*
X58057143Y-51165476D01*
X57961905Y-51165476D01*
X58333333Y-48996429D02*
X58342857Y-49005952D01*
X58371428Y-49015476D01*
X58390476Y-49015476D01*
X58419048Y-49005952D01*
X58438095Y-48986905D01*
X58447619Y-48967857D01*
X58457143Y-48929762D01*
X58457143Y-48901190D01*
X58447619Y-48863095D01*
X58438095Y-48844048D01*
X58419048Y-48825000D01*
X58390476Y-48815476D01*
X58371428Y-48815476D01*
X58342857Y-48825000D01*
X58333333Y-48834524D01*
X58161905Y-48815476D02*
X58200000Y-48815476D01*
X58219048Y-48825000D01*
X58228571Y-48834524D01*
X58247619Y-48863095D01*
X58257143Y-48901190D01*
X58257143Y-48977381D01*
X58247619Y-48996429D01*
X58238095Y-49005952D01*
X58219048Y-49015476D01*
X58180952Y-49015476D01*
X58161905Y-49005952D01*
X58152381Y-48996429D01*
X58142857Y-48977381D01*
X58142857Y-48929762D01*
X58152381Y-48910714D01*
X58161905Y-48901190D01*
X58180952Y-48891667D01*
X58219048Y-48891667D01*
X58238095Y-48901190D01*
X58247619Y-48910714D01*
X58257143Y-48929762D01*
X58628571Y-49415476D02*
X58609523Y-49415476D01*
X58590475Y-49425000D01*
X58580952Y-49434524D01*
X58571428Y-49453571D01*
X58561904Y-49491667D01*
X58561904Y-49539286D01*
X58571428Y-49577381D01*
X58580952Y-49596429D01*
X58590475Y-49605952D01*
X58609523Y-49615476D01*
X58628571Y-49615476D01*
X58647618Y-49605952D01*
X58657142Y-49596429D01*
X58666666Y-49577381D01*
X58676190Y-49539286D01*
X58676190Y-49491667D01*
X58666666Y-49453571D01*
X58657142Y-49434524D01*
X58647618Y-49425000D01*
X58628571Y-49415476D01*
X58476190Y-49596429D02*
X58466666Y-49605952D01*
X58476190Y-49615476D01*
X58485714Y-49605952D01*
X58476190Y-49596429D01*
X58476190Y-49615476D01*
X58276190Y-49615476D02*
X58390476Y-49615476D01*
X58333333Y-49615476D02*
X58333333Y-49415476D01*
X58352381Y-49444048D01*
X58371428Y-49463095D01*
X58390476Y-49472619D01*
X58104762Y-49482143D02*
X58104762Y-49615476D01*
X58190476Y-49482143D02*
X58190476Y-49586905D01*
X58180952Y-49605952D01*
X58161905Y-49615476D01*
X58133333Y-49615476D01*
X58114285Y-49605952D01*
X58104762Y-49596429D01*
X57942857Y-49510714D02*
X58009524Y-49510714D01*
X58009524Y-49615476D02*
X58009524Y-49415476D01*
X57914286Y-49415476D01*
X43878571Y-42296429D02*
X43888095Y-42305952D01*
X43916666Y-42315476D01*
X43935714Y-42315476D01*
X43964286Y-42305952D01*
X43983333Y-42286905D01*
X43992857Y-42267857D01*
X44002381Y-42229762D01*
X44002381Y-42201190D01*
X43992857Y-42163095D01*
X43983333Y-42144048D01*
X43964286Y-42125000D01*
X43935714Y-42115476D01*
X43916666Y-42115476D01*
X43888095Y-42125000D01*
X43878571Y-42134524D01*
X43802381Y-42134524D02*
X43792857Y-42125000D01*
X43773809Y-42115476D01*
X43726190Y-42115476D01*
X43707143Y-42125000D01*
X43697619Y-42134524D01*
X43688095Y-42153571D01*
X43688095Y-42172619D01*
X43697619Y-42201190D01*
X43811905Y-42315476D01*
X43688095Y-42315476D01*
X43621429Y-42115476D02*
X43497619Y-42115476D01*
X43564286Y-42191667D01*
X43535714Y-42191667D01*
X43516667Y-42201190D01*
X43507143Y-42210714D01*
X43497619Y-42229762D01*
X43497619Y-42277381D01*
X43507143Y-42296429D01*
X43516667Y-42305952D01*
X43535714Y-42315476D01*
X43592857Y-42315476D01*
X43611905Y-42305952D01*
X43621429Y-42296429D01*
X44173809Y-41515476D02*
X44154761Y-41515476D01*
X44135713Y-41525000D01*
X44126190Y-41534524D01*
X44116666Y-41553571D01*
X44107142Y-41591667D01*
X44107142Y-41639286D01*
X44116666Y-41677381D01*
X44126190Y-41696429D01*
X44135713Y-41705952D01*
X44154761Y-41715476D01*
X44173809Y-41715476D01*
X44192856Y-41705952D01*
X44202380Y-41696429D01*
X44211904Y-41677381D01*
X44221428Y-41639286D01*
X44221428Y-41591667D01*
X44211904Y-41553571D01*
X44202380Y-41534524D01*
X44192856Y-41525000D01*
X44173809Y-41515476D01*
X44021428Y-41696429D02*
X44011904Y-41705952D01*
X44021428Y-41715476D01*
X44030952Y-41705952D01*
X44021428Y-41696429D01*
X44021428Y-41715476D01*
X43888095Y-41515476D02*
X43869047Y-41515476D01*
X43849999Y-41525000D01*
X43840476Y-41534524D01*
X43830952Y-41553571D01*
X43821428Y-41591667D01*
X43821428Y-41639286D01*
X43830952Y-41677381D01*
X43840476Y-41696429D01*
X43849999Y-41705952D01*
X43869047Y-41715476D01*
X43888095Y-41715476D01*
X43907142Y-41705952D01*
X43916666Y-41696429D01*
X43926190Y-41677381D01*
X43935714Y-41639286D01*
X43935714Y-41591667D01*
X43926190Y-41553571D01*
X43916666Y-41534524D01*
X43907142Y-41525000D01*
X43888095Y-41515476D01*
X43630952Y-41715476D02*
X43745238Y-41715476D01*
X43688095Y-41715476D02*
X43688095Y-41515476D01*
X43707143Y-41544048D01*
X43726190Y-41563095D01*
X43745238Y-41572619D01*
X43459524Y-41582143D02*
X43459524Y-41715476D01*
X43545238Y-41582143D02*
X43545238Y-41686905D01*
X43535714Y-41705952D01*
X43516667Y-41715476D01*
X43488095Y-41715476D01*
X43469047Y-41705952D01*
X43459524Y-41696429D01*
X43297619Y-41610714D02*
X43364286Y-41610714D01*
X43364286Y-41715476D02*
X43364286Y-41515476D01*
X43269048Y-41515476D01*
X43878571Y-40596429D02*
X43888095Y-40605952D01*
X43916666Y-40615476D01*
X43935714Y-40615476D01*
X43964286Y-40605952D01*
X43983333Y-40586905D01*
X43992857Y-40567857D01*
X44002381Y-40529762D01*
X44002381Y-40501190D01*
X43992857Y-40463095D01*
X43983333Y-40444048D01*
X43964286Y-40425000D01*
X43935714Y-40415476D01*
X43916666Y-40415476D01*
X43888095Y-40425000D01*
X43878571Y-40434524D01*
X43802381Y-40434524D02*
X43792857Y-40425000D01*
X43773809Y-40415476D01*
X43726190Y-40415476D01*
X43707143Y-40425000D01*
X43697619Y-40434524D01*
X43688095Y-40453571D01*
X43688095Y-40472619D01*
X43697619Y-40501190D01*
X43811905Y-40615476D01*
X43688095Y-40615476D01*
X43516667Y-40482143D02*
X43516667Y-40615476D01*
X43564286Y-40405952D02*
X43611905Y-40548810D01*
X43488095Y-40548810D01*
X44078571Y-39815476D02*
X44059523Y-39815476D01*
X44040475Y-39825000D01*
X44030952Y-39834524D01*
X44021428Y-39853571D01*
X44011904Y-39891667D01*
X44011904Y-39939286D01*
X44021428Y-39977381D01*
X44030952Y-39996429D01*
X44040475Y-40005952D01*
X44059523Y-40015476D01*
X44078571Y-40015476D01*
X44097618Y-40005952D01*
X44107142Y-39996429D01*
X44116666Y-39977381D01*
X44126190Y-39939286D01*
X44126190Y-39891667D01*
X44116666Y-39853571D01*
X44107142Y-39834524D01*
X44097618Y-39825000D01*
X44078571Y-39815476D01*
X43926190Y-39996429D02*
X43916666Y-40005952D01*
X43926190Y-40015476D01*
X43935714Y-40005952D01*
X43926190Y-39996429D01*
X43926190Y-40015476D01*
X43726190Y-40015476D02*
X43840476Y-40015476D01*
X43783333Y-40015476D02*
X43783333Y-39815476D01*
X43802381Y-39844048D01*
X43821428Y-39863095D01*
X43840476Y-39872619D01*
X43554762Y-39882143D02*
X43554762Y-40015476D01*
X43640476Y-39882143D02*
X43640476Y-39986905D01*
X43630952Y-40005952D01*
X43611905Y-40015476D01*
X43583333Y-40015476D01*
X43564285Y-40005952D01*
X43554762Y-39996429D01*
X43392857Y-39910714D02*
X43459524Y-39910714D01*
X43459524Y-40015476D02*
X43459524Y-39815476D01*
X43364286Y-39815476D01*
X39646429Y-38521429D02*
X39655952Y-38511905D01*
X39665476Y-38483334D01*
X39665476Y-38464286D01*
X39655952Y-38435714D01*
X39636905Y-38416667D01*
X39617857Y-38407143D01*
X39579762Y-38397619D01*
X39551190Y-38397619D01*
X39513095Y-38407143D01*
X39494048Y-38416667D01*
X39475000Y-38435714D01*
X39465476Y-38464286D01*
X39465476Y-38483334D01*
X39475000Y-38511905D01*
X39484524Y-38521429D01*
X39484524Y-38597619D02*
X39475000Y-38607143D01*
X39465476Y-38626191D01*
X39465476Y-38673810D01*
X39475000Y-38692857D01*
X39484524Y-38702381D01*
X39503571Y-38711905D01*
X39522619Y-38711905D01*
X39551190Y-38702381D01*
X39665476Y-38588095D01*
X39665476Y-38711905D01*
X39465476Y-38892857D02*
X39465476Y-38797619D01*
X39560714Y-38788095D01*
X39551190Y-38797619D01*
X39541667Y-38816667D01*
X39541667Y-38864286D01*
X39551190Y-38883333D01*
X39560714Y-38892857D01*
X39579762Y-38902381D01*
X39627381Y-38902381D01*
X39646429Y-38892857D01*
X39655952Y-38883333D01*
X39665476Y-38864286D01*
X39665476Y-38816667D01*
X39655952Y-38797619D01*
X39646429Y-38788095D01*
X40065476Y-38321429D02*
X40065476Y-38340477D01*
X40075000Y-38359525D01*
X40084524Y-38369048D01*
X40103571Y-38378572D01*
X40141667Y-38388096D01*
X40189286Y-38388096D01*
X40227381Y-38378572D01*
X40246429Y-38369048D01*
X40255952Y-38359525D01*
X40265476Y-38340477D01*
X40265476Y-38321429D01*
X40255952Y-38302382D01*
X40246429Y-38292858D01*
X40227381Y-38283334D01*
X40189286Y-38273810D01*
X40141667Y-38273810D01*
X40103571Y-38283334D01*
X40084524Y-38292858D01*
X40075000Y-38302382D01*
X40065476Y-38321429D01*
X40246429Y-38473810D02*
X40255952Y-38483334D01*
X40265476Y-38473810D01*
X40255952Y-38464286D01*
X40246429Y-38473810D01*
X40265476Y-38473810D01*
X40265476Y-38673810D02*
X40265476Y-38559524D01*
X40265476Y-38616667D02*
X40065476Y-38616667D01*
X40094048Y-38597619D01*
X40113095Y-38578572D01*
X40122619Y-38559524D01*
X40132143Y-38845238D02*
X40265476Y-38845238D01*
X40132143Y-38759524D02*
X40236905Y-38759524D01*
X40255952Y-38769048D01*
X40265476Y-38788095D01*
X40265476Y-38816667D01*
X40255952Y-38835715D01*
X40246429Y-38845238D01*
X40160714Y-39007143D02*
X40160714Y-38940476D01*
X40265476Y-38940476D02*
X40065476Y-38940476D01*
X40065476Y-39035714D01*
X41578571Y-46446429D02*
X41588095Y-46455952D01*
X41616666Y-46465476D01*
X41635714Y-46465476D01*
X41664286Y-46455952D01*
X41683333Y-46436905D01*
X41692857Y-46417857D01*
X41702381Y-46379762D01*
X41702381Y-46351190D01*
X41692857Y-46313095D01*
X41683333Y-46294048D01*
X41664286Y-46275000D01*
X41635714Y-46265476D01*
X41616666Y-46265476D01*
X41588095Y-46275000D01*
X41578571Y-46284524D01*
X41502381Y-46284524D02*
X41492857Y-46275000D01*
X41473809Y-46265476D01*
X41426190Y-46265476D01*
X41407143Y-46275000D01*
X41397619Y-46284524D01*
X41388095Y-46303571D01*
X41388095Y-46322619D01*
X41397619Y-46351190D01*
X41511905Y-46465476D01*
X41388095Y-46465476D01*
X41216667Y-46265476D02*
X41254762Y-46265476D01*
X41273810Y-46275000D01*
X41283333Y-46284524D01*
X41302381Y-46313095D01*
X41311905Y-46351190D01*
X41311905Y-46427381D01*
X41302381Y-46446429D01*
X41292857Y-46455952D01*
X41273810Y-46465476D01*
X41235714Y-46465476D01*
X41216667Y-46455952D01*
X41207143Y-46446429D01*
X41197619Y-46427381D01*
X41197619Y-46379762D01*
X41207143Y-46360714D01*
X41216667Y-46351190D01*
X41235714Y-46341667D01*
X41273810Y-46341667D01*
X41292857Y-46351190D01*
X41302381Y-46360714D01*
X41311905Y-46379762D01*
X41969047Y-46884524D02*
X41959523Y-46875000D01*
X41940475Y-46865476D01*
X41892856Y-46865476D01*
X41873809Y-46875000D01*
X41864285Y-46884524D01*
X41854761Y-46903571D01*
X41854761Y-46922619D01*
X41864285Y-46951190D01*
X41978571Y-47065476D01*
X41854761Y-47065476D01*
X41778571Y-46884524D02*
X41769047Y-46875000D01*
X41749999Y-46865476D01*
X41702380Y-46865476D01*
X41683333Y-46875000D01*
X41673809Y-46884524D01*
X41664285Y-46903571D01*
X41664285Y-46922619D01*
X41673809Y-46951190D01*
X41788095Y-47065476D01*
X41664285Y-47065476D01*
X41540476Y-46865476D02*
X41521428Y-46865476D01*
X41502380Y-46875000D01*
X41492857Y-46884524D01*
X41483333Y-46903571D01*
X41473809Y-46941667D01*
X41473809Y-46989286D01*
X41483333Y-47027381D01*
X41492857Y-47046429D01*
X41502380Y-47055952D01*
X41521428Y-47065476D01*
X41540476Y-47065476D01*
X41559523Y-47055952D01*
X41569047Y-47046429D01*
X41578571Y-47027381D01*
X41588095Y-46989286D01*
X41588095Y-46941667D01*
X41578571Y-46903571D01*
X41569047Y-46884524D01*
X41559523Y-46875000D01*
X41540476Y-46865476D01*
X41350000Y-46865476D02*
X41330952Y-46865476D01*
X41311904Y-46875000D01*
X41302381Y-46884524D01*
X41292857Y-46903571D01*
X41283333Y-46941667D01*
X41283333Y-46989286D01*
X41292857Y-47027381D01*
X41302381Y-47046429D01*
X41311904Y-47055952D01*
X41330952Y-47065476D01*
X41350000Y-47065476D01*
X41369047Y-47055952D01*
X41378571Y-47046429D01*
X41388095Y-47027381D01*
X41397619Y-46989286D01*
X41397619Y-46941667D01*
X41388095Y-46903571D01*
X41378571Y-46884524D01*
X41369047Y-46875000D01*
X41350000Y-46865476D01*
X41197619Y-46932143D02*
X41197619Y-47132143D01*
X41197619Y-46941667D02*
X41178571Y-46932143D01*
X41140476Y-46932143D01*
X41121428Y-46941667D01*
X41111905Y-46951190D01*
X41102381Y-46970238D01*
X41102381Y-47027381D01*
X41111905Y-47046429D01*
X41121428Y-47055952D01*
X41140476Y-47065476D01*
X41178571Y-47065476D01*
X41197619Y-47055952D01*
X40950000Y-46960714D02*
X41016667Y-46960714D01*
X41016667Y-47065476D02*
X41016667Y-46865476D01*
X40921429Y-46865476D01*
D13*
X62507619Y-44908191D02*
X61491619Y-44908191D01*
X62410857Y-45972572D02*
X62459238Y-45924191D01*
X62507619Y-45779048D01*
X62507619Y-45682286D01*
X62459238Y-45537144D01*
X62362476Y-45440382D01*
X62265714Y-45392001D01*
X62072190Y-45343620D01*
X61927048Y-45343620D01*
X61733524Y-45392001D01*
X61636762Y-45440382D01*
X61540000Y-45537144D01*
X61491619Y-45682286D01*
X61491619Y-45779048D01*
X61540000Y-45924191D01*
X61588381Y-45972572D01*
X62507619Y-46940191D02*
X62507619Y-46359620D01*
X62507619Y-46649906D02*
X61491619Y-46649906D01*
X61636762Y-46553144D01*
X61733524Y-46456382D01*
X61781905Y-46359620D01*
X66201142Y-49443619D02*
X65620571Y-49443619D01*
X65910856Y-50459619D02*
X65910856Y-49443619D01*
X65281904Y-50459619D02*
X65281904Y-49443619D01*
X64894857Y-49443619D01*
X64798095Y-49492000D01*
X64749714Y-49540381D01*
X64701333Y-49637143D01*
X64701333Y-49782286D01*
X64749714Y-49879048D01*
X64798095Y-49927429D01*
X64894857Y-49975810D01*
X65281904Y-49975810D01*
X64314285Y-50411238D02*
X64169142Y-50459619D01*
X63927238Y-50459619D01*
X63830476Y-50411238D01*
X63782095Y-50362857D01*
X63733714Y-50266095D01*
X63733714Y-50169333D01*
X63782095Y-50072571D01*
X63830476Y-50024190D01*
X63927238Y-49975810D01*
X64120761Y-49927429D01*
X64217523Y-49879048D01*
X64265904Y-49830667D01*
X64314285Y-49733905D01*
X64314285Y-49637143D01*
X64265904Y-49540381D01*
X64217523Y-49492000D01*
X64120761Y-49443619D01*
X63878857Y-49443619D01*
X63733714Y-49492000D01*
X62862857Y-49443619D02*
X63056380Y-49443619D01*
X63153142Y-49492000D01*
X63201523Y-49540381D01*
X63298285Y-49685524D01*
X63346666Y-49879048D01*
X63346666Y-50266095D01*
X63298285Y-50362857D01*
X63249904Y-50411238D01*
X63153142Y-50459619D01*
X62959619Y-50459619D01*
X62862857Y-50411238D01*
X62814476Y-50362857D01*
X62766095Y-50266095D01*
X62766095Y-50024190D01*
X62814476Y-49927429D01*
X62862857Y-49879048D01*
X62959619Y-49830667D01*
X63153142Y-49830667D01*
X63249904Y-49879048D01*
X63298285Y-49927429D01*
X63346666Y-50024190D01*
X61798476Y-50459619D02*
X62379047Y-50459619D01*
X62088761Y-50459619D02*
X62088761Y-49443619D01*
X62185523Y-49588762D01*
X62282285Y-49685524D01*
X62379047Y-49733905D01*
X61411428Y-49540381D02*
X61363047Y-49492000D01*
X61266285Y-49443619D01*
X61024381Y-49443619D01*
X60927619Y-49492000D01*
X60879238Y-49540381D01*
X60830857Y-49637143D01*
X60830857Y-49733905D01*
X60879238Y-49879048D01*
X61459809Y-50459619D01*
X60830857Y-50459619D01*
X60201904Y-49443619D02*
X60105143Y-49443619D01*
X60008381Y-49492000D01*
X59960000Y-49540381D01*
X59911619Y-49637143D01*
X59863238Y-49830667D01*
X59863238Y-50072571D01*
X59911619Y-50266095D01*
X59960000Y-50362857D01*
X60008381Y-50411238D01*
X60105143Y-50459619D01*
X60201904Y-50459619D01*
X60298666Y-50411238D01*
X60347047Y-50362857D01*
X60395428Y-50266095D01*
X60443809Y-50072571D01*
X60443809Y-49830667D01*
X60395428Y-49637143D01*
X60347047Y-49540381D01*
X60298666Y-49492000D01*
X60201904Y-49443619D01*
X59234285Y-49443619D02*
X59137524Y-49443619D01*
X59040762Y-49492000D01*
X58992381Y-49540381D01*
X58944000Y-49637143D01*
X58895619Y-49830667D01*
X58895619Y-50072571D01*
X58944000Y-50266095D01*
X58992381Y-50362857D01*
X59040762Y-50411238D01*
X59137524Y-50459619D01*
X59234285Y-50459619D01*
X59331047Y-50411238D01*
X59379428Y-50362857D01*
X59427809Y-50266095D01*
X59476190Y-50072571D01*
X59476190Y-49830667D01*
X59427809Y-49637143D01*
X59379428Y-49540381D01*
X59331047Y-49492000D01*
X59234285Y-49443619D01*
D16*
X54898214Y-43650001D02*
X54898214Y-43507144D01*
X54598214Y-43507144D01*
X54898214Y-43907143D02*
X54898214Y-43735715D01*
X54898214Y-43821429D02*
X54598214Y-43821429D01*
X54641071Y-43792858D01*
X54669643Y-43764286D01*
X54683929Y-43735715D01*
X55814286Y-42435715D02*
X55800000Y-42450001D01*
X55785714Y-42478572D01*
X55785714Y-42550001D01*
X55800000Y-42578572D01*
X55814286Y-42592858D01*
X55842857Y-42607143D01*
X55871429Y-42607143D01*
X55914286Y-42592858D01*
X56085714Y-42421429D01*
X56085714Y-42607143D01*
X56057143Y-42735715D02*
X56071429Y-42750000D01*
X56085714Y-42735715D01*
X56071429Y-42721429D01*
X56057143Y-42735715D01*
X56085714Y-42735715D01*
X55814286Y-42864286D02*
X55800000Y-42878572D01*
X55785714Y-42907143D01*
X55785714Y-42978572D01*
X55800000Y-43007143D01*
X55814286Y-43021429D01*
X55842857Y-43035714D01*
X55871429Y-43035714D01*
X55914286Y-43021429D01*
X56085714Y-42850000D01*
X56085714Y-43035714D01*
X55885714Y-43292857D02*
X56085714Y-43292857D01*
X55885714Y-43164286D02*
X56042857Y-43164286D01*
X56071429Y-43178571D01*
X56085714Y-43207143D01*
X56085714Y-43250000D01*
X56071429Y-43278571D01*
X56057143Y-43292857D01*
X56085714Y-43435715D02*
X55785714Y-43435715D01*
X55928571Y-43435715D02*
X55928571Y-43607143D01*
X56085714Y-43607143D02*
X55785714Y-43607143D01*
X56071429Y-43764286D02*
X56085714Y-43764286D01*
X56114286Y-43750001D01*
X56128571Y-43735715D01*
X56085714Y-44278571D02*
X56085714Y-44107143D01*
X56085714Y-44192857D02*
X55785714Y-44192857D01*
X55828571Y-44164286D01*
X55857143Y-44135714D01*
X55871429Y-44107143D01*
X56057143Y-44407143D02*
X56071429Y-44421428D01*
X56085714Y-44407143D01*
X56071429Y-44392857D01*
X56057143Y-44407143D01*
X56085714Y-44407143D01*
X55814286Y-44535714D02*
X55800000Y-44550000D01*
X55785714Y-44578571D01*
X55785714Y-44650000D01*
X55800000Y-44678571D01*
X55814286Y-44692857D01*
X55842857Y-44707142D01*
X55871429Y-44707142D01*
X55914286Y-44692857D01*
X56085714Y-44521428D01*
X56085714Y-44707142D01*
X56000000Y-44821428D02*
X56000000Y-44964285D01*
X56085714Y-44792856D02*
X55785714Y-44892856D01*
X56085714Y-44992856D01*
D15*
X57415476Y-31116667D02*
X57320238Y-31050000D01*
X57415476Y-31002381D02*
X57215476Y-31002381D01*
X57215476Y-31078572D01*
X57225000Y-31097619D01*
X57234524Y-31107143D01*
X57253571Y-31116667D01*
X57282143Y-31116667D01*
X57301190Y-31107143D01*
X57310714Y-31097619D01*
X57320238Y-31078572D01*
X57320238Y-31002381D01*
X57415476Y-31307143D02*
X57415476Y-31192857D01*
X57415476Y-31250000D02*
X57215476Y-31250000D01*
X57244048Y-31230952D01*
X57263095Y-31211905D01*
X57272619Y-31192857D01*
X57815476Y-30892857D02*
X57815476Y-31016667D01*
X57891667Y-30950000D01*
X57891667Y-30978572D01*
X57901190Y-30997619D01*
X57910714Y-31007143D01*
X57929762Y-31016667D01*
X57977381Y-31016667D01*
X57996429Y-31007143D01*
X58005952Y-30997619D01*
X58015476Y-30978572D01*
X58015476Y-30921429D01*
X58005952Y-30902381D01*
X57996429Y-30892857D01*
X57815476Y-31083333D02*
X57815476Y-31207143D01*
X57891667Y-31140476D01*
X57891667Y-31169048D01*
X57901190Y-31188095D01*
X57910714Y-31197619D01*
X57929762Y-31207143D01*
X57977381Y-31207143D01*
X57996429Y-31197619D01*
X58005952Y-31188095D01*
X58015476Y-31169048D01*
X58015476Y-31111905D01*
X58005952Y-31092857D01*
X57996429Y-31083333D01*
X57815476Y-31330952D02*
X57815476Y-31350000D01*
X57825000Y-31369048D01*
X57834524Y-31378571D01*
X57853571Y-31388095D01*
X57891667Y-31397619D01*
X57939286Y-31397619D01*
X57977381Y-31388095D01*
X57996429Y-31378571D01*
X58005952Y-31369048D01*
X58015476Y-31350000D01*
X58015476Y-31330952D01*
X58005952Y-31311905D01*
X57996429Y-31302381D01*
X57977381Y-31292857D01*
X57939286Y-31283333D01*
X57891667Y-31283333D01*
X57853571Y-31292857D01*
X57834524Y-31302381D01*
X57825000Y-31311905D01*
X57815476Y-31330952D01*
X60215476Y-32666667D02*
X60120238Y-32600000D01*
X60215476Y-32552381D02*
X60015476Y-32552381D01*
X60015476Y-32628572D01*
X60025000Y-32647619D01*
X60034524Y-32657143D01*
X60053571Y-32666667D01*
X60082143Y-32666667D01*
X60101190Y-32657143D01*
X60110714Y-32647619D01*
X60120238Y-32628572D01*
X60120238Y-32552381D01*
X60034524Y-32742857D02*
X60025000Y-32752381D01*
X60015476Y-32771429D01*
X60015476Y-32819048D01*
X60025000Y-32838095D01*
X60034524Y-32847619D01*
X60053571Y-32857143D01*
X60072619Y-32857143D01*
X60101190Y-32847619D01*
X60215476Y-32733333D01*
X60215476Y-32857143D01*
X59434524Y-32419048D02*
X59425000Y-32428572D01*
X59415476Y-32447620D01*
X59415476Y-32495239D01*
X59425000Y-32514286D01*
X59434524Y-32523810D01*
X59453571Y-32533334D01*
X59472619Y-32533334D01*
X59501190Y-32523810D01*
X59615476Y-32409524D01*
X59615476Y-32533334D01*
X59596429Y-32619048D02*
X59605952Y-32628572D01*
X59615476Y-32619048D01*
X59605952Y-32609524D01*
X59596429Y-32619048D01*
X59615476Y-32619048D01*
X59415476Y-32752381D02*
X59415476Y-32771429D01*
X59425000Y-32790477D01*
X59434524Y-32800000D01*
X59453571Y-32809524D01*
X59491667Y-32819048D01*
X59539286Y-32819048D01*
X59577381Y-32809524D01*
X59596429Y-32800000D01*
X59605952Y-32790477D01*
X59615476Y-32771429D01*
X59615476Y-32752381D01*
X59605952Y-32733334D01*
X59596429Y-32723810D01*
X59577381Y-32714286D01*
X59539286Y-32704762D01*
X59491667Y-32704762D01*
X59453571Y-32714286D01*
X59434524Y-32723810D01*
X59425000Y-32733334D01*
X59415476Y-32752381D01*
X59615476Y-32904762D02*
X59415476Y-32904762D01*
X59539286Y-32923810D02*
X59615476Y-32980953D01*
X59482143Y-32980953D02*
X59558333Y-32904762D01*
X63058333Y-45440476D02*
X63125000Y-45345238D01*
X63172619Y-45440476D02*
X63172619Y-45240476D01*
X63096428Y-45240476D01*
X63077381Y-45250000D01*
X63067857Y-45259524D01*
X63058333Y-45278571D01*
X63058333Y-45307143D01*
X63067857Y-45326190D01*
X63077381Y-45335714D01*
X63096428Y-45345238D01*
X63172619Y-45345238D01*
X62991667Y-45240476D02*
X62867857Y-45240476D01*
X62934524Y-45316667D01*
X62905952Y-45316667D01*
X62886905Y-45326190D01*
X62877381Y-45335714D01*
X62867857Y-45354762D01*
X62867857Y-45402381D01*
X62877381Y-45421429D01*
X62886905Y-45430952D01*
X62905952Y-45440476D01*
X62963095Y-45440476D01*
X62982143Y-45430952D01*
X62991667Y-45421429D01*
X63534524Y-45178572D02*
X63525000Y-45188096D01*
X63515476Y-45207144D01*
X63515476Y-45254763D01*
X63525000Y-45273810D01*
X63534524Y-45283334D01*
X63553571Y-45292858D01*
X63572619Y-45292858D01*
X63601190Y-45283334D01*
X63715476Y-45169048D01*
X63715476Y-45292858D01*
X63715476Y-45378572D02*
X63515476Y-45378572D01*
X63658333Y-45445239D01*
X63515476Y-45511905D01*
X63715476Y-45511905D01*
X62233333Y-51215476D02*
X62300000Y-51120238D01*
X62347619Y-51215476D02*
X62347619Y-51015476D01*
X62271428Y-51015476D01*
X62252381Y-51025000D01*
X62242857Y-51034524D01*
X62233333Y-51053571D01*
X62233333Y-51082143D01*
X62242857Y-51101190D01*
X62252381Y-51110714D01*
X62271428Y-51120238D01*
X62347619Y-51120238D01*
X62061905Y-51082143D02*
X62061905Y-51215476D01*
X62109524Y-51005952D02*
X62157143Y-51148810D01*
X62033333Y-51148810D01*
X62399999Y-50615476D02*
X62514285Y-50615476D01*
X62457142Y-50615476D02*
X62457142Y-50415476D01*
X62476190Y-50444048D01*
X62495237Y-50463095D01*
X62514285Y-50472619D01*
X62314285Y-50596429D02*
X62304761Y-50605952D01*
X62314285Y-50615476D01*
X62323809Y-50605952D01*
X62314285Y-50596429D01*
X62314285Y-50615476D01*
X62228571Y-50434524D02*
X62219047Y-50425000D01*
X62199999Y-50415476D01*
X62152380Y-50415476D01*
X62133333Y-50425000D01*
X62123809Y-50434524D01*
X62114285Y-50453571D01*
X62114285Y-50472619D01*
X62123809Y-50501190D01*
X62238095Y-50615476D01*
X62114285Y-50615476D01*
X62028571Y-50615476D02*
X62028571Y-50415476D01*
X61961904Y-50558333D01*
X61895238Y-50415476D01*
X61895238Y-50615476D01*
X63115476Y-42316667D02*
X63020238Y-42250000D01*
X63115476Y-42202381D02*
X62915476Y-42202381D01*
X62915476Y-42278572D01*
X62925000Y-42297619D01*
X62934524Y-42307143D01*
X62953571Y-42316667D01*
X62982143Y-42316667D01*
X63001190Y-42307143D01*
X63010714Y-42297619D01*
X63020238Y-42278572D01*
X63020238Y-42202381D01*
X62915476Y-42488095D02*
X62915476Y-42450000D01*
X62925000Y-42430952D01*
X62934524Y-42421429D01*
X62963095Y-42402381D01*
X63001190Y-42392857D01*
X63077381Y-42392857D01*
X63096429Y-42402381D01*
X63105952Y-42411905D01*
X63115476Y-42430952D01*
X63115476Y-42469048D01*
X63105952Y-42488095D01*
X63096429Y-42497619D01*
X63077381Y-42507143D01*
X63029762Y-42507143D01*
X63010714Y-42497619D01*
X63001190Y-42488095D01*
X62991667Y-42469048D01*
X62991667Y-42430952D01*
X63001190Y-42411905D01*
X63010714Y-42402381D01*
X63029762Y-42392857D01*
X63534524Y-42021429D02*
X63525000Y-42030953D01*
X63515476Y-42050001D01*
X63515476Y-42097620D01*
X63525000Y-42116667D01*
X63534524Y-42126191D01*
X63553571Y-42135715D01*
X63572619Y-42135715D01*
X63601190Y-42126191D01*
X63715476Y-42011905D01*
X63715476Y-42135715D01*
X63534524Y-42211905D02*
X63525000Y-42221429D01*
X63515476Y-42240477D01*
X63515476Y-42288096D01*
X63525000Y-42307143D01*
X63534524Y-42316667D01*
X63553571Y-42326191D01*
X63572619Y-42326191D01*
X63601190Y-42316667D01*
X63715476Y-42202381D01*
X63715476Y-42326191D01*
X63515476Y-42450000D02*
X63515476Y-42469048D01*
X63525000Y-42488096D01*
X63534524Y-42497619D01*
X63553571Y-42507143D01*
X63591667Y-42516667D01*
X63639286Y-42516667D01*
X63677381Y-42507143D01*
X63696429Y-42497619D01*
X63705952Y-42488096D01*
X63715476Y-42469048D01*
X63715476Y-42450000D01*
X63705952Y-42430953D01*
X63696429Y-42421429D01*
X63677381Y-42411905D01*
X63639286Y-42402381D01*
X63591667Y-42402381D01*
X63553571Y-42411905D01*
X63534524Y-42421429D01*
X63525000Y-42430953D01*
X63515476Y-42450000D01*
X63715476Y-42602381D02*
X63515476Y-42602381D01*
X63639286Y-42621429D02*
X63715476Y-42678572D01*
X63582143Y-42678572D02*
X63658333Y-42602381D01*
X62333333Y-49015476D02*
X62400000Y-48920238D01*
X62447619Y-49015476D02*
X62447619Y-48815476D01*
X62371428Y-48815476D01*
X62352381Y-48825000D01*
X62342857Y-48834524D01*
X62333333Y-48853571D01*
X62333333Y-48882143D01*
X62342857Y-48901190D01*
X62352381Y-48910714D01*
X62371428Y-48920238D01*
X62447619Y-48920238D01*
X62266667Y-48815476D02*
X62133333Y-48815476D01*
X62219048Y-49015476D01*
X62628571Y-49434524D02*
X62619047Y-49425000D01*
X62599999Y-49415476D01*
X62552380Y-49415476D01*
X62533333Y-49425000D01*
X62523809Y-49434524D01*
X62514285Y-49453571D01*
X62514285Y-49472619D01*
X62523809Y-49501190D01*
X62638095Y-49615476D01*
X62514285Y-49615476D01*
X62438095Y-49434524D02*
X62428571Y-49425000D01*
X62409523Y-49415476D01*
X62361904Y-49415476D01*
X62342857Y-49425000D01*
X62333333Y-49434524D01*
X62323809Y-49453571D01*
X62323809Y-49472619D01*
X62333333Y-49501190D01*
X62447619Y-49615476D01*
X62323809Y-49615476D01*
X62200000Y-49415476D02*
X62180952Y-49415476D01*
X62161904Y-49425000D01*
X62152381Y-49434524D01*
X62142857Y-49453571D01*
X62133333Y-49491667D01*
X62133333Y-49539286D01*
X62142857Y-49577381D01*
X62152381Y-49596429D01*
X62161904Y-49605952D01*
X62180952Y-49615476D01*
X62200000Y-49615476D01*
X62219047Y-49605952D01*
X62228571Y-49596429D01*
X62238095Y-49577381D01*
X62247619Y-49539286D01*
X62247619Y-49491667D01*
X62238095Y-49453571D01*
X62228571Y-49434524D01*
X62219047Y-49425000D01*
X62200000Y-49415476D01*
X62047619Y-49615476D02*
X62047619Y-49415476D01*
X62028571Y-49539286D02*
X61971428Y-49615476D01*
X61971428Y-49482143D02*
X62047619Y-49558333D01*
X46378571Y-48215476D02*
X46445238Y-48120238D01*
X46492857Y-48215476D02*
X46492857Y-48015476D01*
X46416666Y-48015476D01*
X46397619Y-48025000D01*
X46388095Y-48034524D01*
X46378571Y-48053571D01*
X46378571Y-48082143D01*
X46388095Y-48101190D01*
X46397619Y-48110714D01*
X46416666Y-48120238D01*
X46492857Y-48120238D01*
X46302381Y-48034524D02*
X46292857Y-48025000D01*
X46273809Y-48015476D01*
X46226190Y-48015476D01*
X46207143Y-48025000D01*
X46197619Y-48034524D01*
X46188095Y-48053571D01*
X46188095Y-48072619D01*
X46197619Y-48101190D01*
X46311905Y-48215476D01*
X46188095Y-48215476D01*
X46007143Y-48015476D02*
X46102381Y-48015476D01*
X46111905Y-48110714D01*
X46102381Y-48101190D01*
X46083333Y-48091667D01*
X46035714Y-48091667D01*
X46016667Y-48101190D01*
X46007143Y-48110714D01*
X45997619Y-48129762D01*
X45997619Y-48177381D01*
X46007143Y-48196429D01*
X46016667Y-48205952D01*
X46035714Y-48215476D01*
X46083333Y-48215476D01*
X46102381Y-48205952D01*
X46111905Y-48196429D01*
X46435714Y-47482143D02*
X46435714Y-47615476D01*
X46483333Y-47405952D02*
X46530952Y-47548810D01*
X46407142Y-47548810D01*
X46330952Y-47596429D02*
X46321428Y-47605952D01*
X46330952Y-47615476D01*
X46340476Y-47605952D01*
X46330952Y-47596429D01*
X46330952Y-47615476D01*
X46254762Y-47415476D02*
X46121428Y-47415476D01*
X46207143Y-47615476D01*
X46045238Y-47615476D02*
X46045238Y-47415476D01*
X46026190Y-47539286D02*
X45969047Y-47615476D01*
X45969047Y-47482143D02*
X46045238Y-47558333D01*
X46378571Y-49815476D02*
X46445238Y-49720238D01*
X46492857Y-49815476D02*
X46492857Y-49615476D01*
X46416666Y-49615476D01*
X46397619Y-49625000D01*
X46388095Y-49634524D01*
X46378571Y-49653571D01*
X46378571Y-49682143D01*
X46388095Y-49701190D01*
X46397619Y-49710714D01*
X46416666Y-49720238D01*
X46492857Y-49720238D01*
X46302381Y-49634524D02*
X46292857Y-49625000D01*
X46273809Y-49615476D01*
X46226190Y-49615476D01*
X46207143Y-49625000D01*
X46197619Y-49634524D01*
X46188095Y-49653571D01*
X46188095Y-49672619D01*
X46197619Y-49701190D01*
X46311905Y-49815476D01*
X46188095Y-49815476D01*
X46016667Y-49615476D02*
X46054762Y-49615476D01*
X46073810Y-49625000D01*
X46083333Y-49634524D01*
X46102381Y-49663095D01*
X46111905Y-49701190D01*
X46111905Y-49777381D01*
X46102381Y-49796429D01*
X46092857Y-49805952D01*
X46073810Y-49815476D01*
X46035714Y-49815476D01*
X46016667Y-49805952D01*
X46007143Y-49796429D01*
X45997619Y-49777381D01*
X45997619Y-49729762D01*
X46007143Y-49710714D01*
X46016667Y-49701190D01*
X46035714Y-49691667D01*
X46073810Y-49691667D01*
X46092857Y-49701190D01*
X46102381Y-49710714D01*
X46111905Y-49729762D01*
X46435714Y-49082143D02*
X46435714Y-49215476D01*
X46483333Y-49005952D02*
X46530952Y-49148810D01*
X46407142Y-49148810D01*
X46330952Y-49196429D02*
X46321428Y-49205952D01*
X46330952Y-49215476D01*
X46340476Y-49205952D01*
X46330952Y-49196429D01*
X46330952Y-49215476D01*
X46254762Y-49015476D02*
X46121428Y-49015476D01*
X46207143Y-49215476D01*
X46045238Y-49215476D02*
X46045238Y-49015476D01*
X46026190Y-49139286D02*
X45969047Y-49215476D01*
X45969047Y-49082143D02*
X46045238Y-49158333D01*
X38065476Y-38521429D02*
X37970238Y-38454762D01*
X38065476Y-38407143D02*
X37865476Y-38407143D01*
X37865476Y-38483334D01*
X37875000Y-38502381D01*
X37884524Y-38511905D01*
X37903571Y-38521429D01*
X37932143Y-38521429D01*
X37951190Y-38511905D01*
X37960714Y-38502381D01*
X37970238Y-38483334D01*
X37970238Y-38407143D01*
X37884524Y-38597619D02*
X37875000Y-38607143D01*
X37865476Y-38626191D01*
X37865476Y-38673810D01*
X37875000Y-38692857D01*
X37884524Y-38702381D01*
X37903571Y-38711905D01*
X37922619Y-38711905D01*
X37951190Y-38702381D01*
X38065476Y-38588095D01*
X38065476Y-38711905D01*
X37865476Y-38778571D02*
X37865476Y-38911905D01*
X38065476Y-38826190D01*
X38532143Y-38464286D02*
X38665476Y-38464286D01*
X38455952Y-38416667D02*
X38598810Y-38369048D01*
X38598810Y-38492858D01*
X38646429Y-38569048D02*
X38655952Y-38578572D01*
X38665476Y-38569048D01*
X38655952Y-38559524D01*
X38646429Y-38569048D01*
X38665476Y-38569048D01*
X38465476Y-38645238D02*
X38465476Y-38778572D01*
X38665476Y-38692857D01*
X38665476Y-38854762D02*
X38465476Y-38854762D01*
X38589286Y-38873810D02*
X38665476Y-38930953D01*
X38532143Y-38930953D02*
X38608333Y-38854762D01*
X61052381Y-27789956D02*
X61052381Y-27951861D01*
X61042857Y-27970909D01*
X61033333Y-27980432D01*
X61014286Y-27989956D01*
X60976190Y-27989956D01*
X60957143Y-27980432D01*
X60947619Y-27970909D01*
X60938095Y-27951861D01*
X60938095Y-27789956D01*
X60738095Y-27989956D02*
X60852381Y-27989956D01*
X60795238Y-27989956D02*
X60795238Y-27789956D01*
X60814286Y-27818528D01*
X60833333Y-27837575D01*
X60852381Y-27847099D01*
X61612856Y-28720476D02*
X61612856Y-28520476D01*
X61546189Y-28663333D01*
X61479523Y-28520476D01*
X61479523Y-28720476D01*
X61269999Y-28701429D02*
X61279523Y-28710952D01*
X61308094Y-28720476D01*
X61327142Y-28720476D01*
X61355714Y-28710952D01*
X61374761Y-28691905D01*
X61384285Y-28672857D01*
X61393809Y-28634762D01*
X61393809Y-28606190D01*
X61384285Y-28568095D01*
X61374761Y-28549048D01*
X61355714Y-28530000D01*
X61327142Y-28520476D01*
X61308094Y-28520476D01*
X61279523Y-28530000D01*
X61269999Y-28539524D01*
X61184285Y-28720476D02*
X61184285Y-28520476D01*
X61108094Y-28520476D01*
X61089047Y-28530000D01*
X61079523Y-28539524D01*
X61069999Y-28558571D01*
X61069999Y-28587143D01*
X61079523Y-28606190D01*
X61089047Y-28615714D01*
X61108094Y-28625238D01*
X61184285Y-28625238D01*
X61003333Y-28520476D02*
X60869999Y-28520476D01*
X60955714Y-28720476D01*
X60812857Y-28520476D02*
X60689047Y-28520476D01*
X60755714Y-28596667D01*
X60727142Y-28596667D01*
X60708095Y-28606190D01*
X60698571Y-28615714D01*
X60689047Y-28634762D01*
X60689047Y-28682381D01*
X60698571Y-28701429D01*
X60708095Y-28710952D01*
X60727142Y-28720476D01*
X60784285Y-28720476D01*
X60803333Y-28710952D01*
X60812857Y-28701429D01*
X60574762Y-28606190D02*
X60593809Y-28596667D01*
X60603333Y-28587143D01*
X60612857Y-28568095D01*
X60612857Y-28558571D01*
X60603333Y-28539524D01*
X60593809Y-28530000D01*
X60574762Y-28520476D01*
X60536666Y-28520476D01*
X60517619Y-28530000D01*
X60508095Y-28539524D01*
X60498571Y-28558571D01*
X60498571Y-28568095D01*
X60508095Y-28587143D01*
X60517619Y-28596667D01*
X60536666Y-28606190D01*
X60574762Y-28606190D01*
X60593809Y-28615714D01*
X60603333Y-28625238D01*
X60612857Y-28644286D01*
X60612857Y-28682381D01*
X60603333Y-28701429D01*
X60593809Y-28710952D01*
X60574762Y-28720476D01*
X60536666Y-28720476D01*
X60517619Y-28710952D01*
X60508095Y-28701429D01*
X60498571Y-28682381D01*
X60498571Y-28644286D01*
X60508095Y-28625238D01*
X60517619Y-28615714D01*
X60536666Y-28606190D01*
X60431905Y-28520476D02*
X60308095Y-28520476D01*
X60374762Y-28596667D01*
X60346190Y-28596667D01*
X60327143Y-28606190D01*
X60317619Y-28615714D01*
X60308095Y-28634762D01*
X60308095Y-28682381D01*
X60317619Y-28701429D01*
X60327143Y-28710952D01*
X60346190Y-28720476D01*
X60403333Y-28720476D01*
X60422381Y-28710952D01*
X60431905Y-28701429D01*
X60117619Y-28720476D02*
X60231905Y-28720476D01*
X60174762Y-28720476D02*
X60174762Y-28520476D01*
X60193810Y-28549048D01*
X60212857Y-28568095D01*
X60231905Y-28577619D01*
D17*
X66840714Y-40519429D02*
X67457571Y-40519429D01*
X67530143Y-40555714D01*
X67566429Y-40592000D01*
X67602714Y-40664571D01*
X67602714Y-40809714D01*
X67566429Y-40882286D01*
X67530143Y-40918571D01*
X67457571Y-40954857D01*
X66840714Y-40954857D01*
X66913286Y-41281429D02*
X66877000Y-41317715D01*
X66840714Y-41390286D01*
X66840714Y-41571715D01*
X66877000Y-41644286D01*
X66913286Y-41680572D01*
X66985857Y-41716857D01*
X67058429Y-41716857D01*
X67167286Y-41680572D01*
X67602714Y-41245143D01*
X67602714Y-41716857D01*
D18*
X66789429Y-33334858D02*
X65265429Y-33334858D01*
X66354000Y-33842858D01*
X65265429Y-34350858D01*
X66789429Y-34350858D01*
X66789429Y-35076572D02*
X65265429Y-35076572D01*
X66644286Y-36673143D02*
X66716857Y-36600572D01*
X66789429Y-36382858D01*
X66789429Y-36237715D01*
X66716857Y-36020000D01*
X66571714Y-35874858D01*
X66426571Y-35802286D01*
X66136286Y-35729715D01*
X65918571Y-35729715D01*
X65628286Y-35802286D01*
X65483143Y-35874858D01*
X65338000Y-36020000D01*
X65265429Y-36237715D01*
X65265429Y-36382858D01*
X65338000Y-36600572D01*
X65410571Y-36673143D01*
X66789429Y-38197143D02*
X66063714Y-37689143D01*
X66789429Y-37326286D02*
X65265429Y-37326286D01*
X65265429Y-37906858D01*
X65338000Y-38052000D01*
X65410571Y-38124572D01*
X65555714Y-38197143D01*
X65773429Y-38197143D01*
X65918571Y-38124572D01*
X65991143Y-38052000D01*
X66063714Y-37906858D01*
X66063714Y-37326286D01*
X65265429Y-39140572D02*
X65265429Y-39430858D01*
X65338000Y-39576000D01*
X65483143Y-39721143D01*
X65773429Y-39793715D01*
X66281429Y-39793715D01*
X66571714Y-39721143D01*
X66716857Y-39576000D01*
X66789429Y-39430858D01*
X66789429Y-39140572D01*
X66716857Y-38995429D01*
X66571714Y-38850286D01*
X66281429Y-38777715D01*
X65773429Y-38777715D01*
X65483143Y-38850286D01*
X65338000Y-38995429D01*
X65265429Y-39140572D01*
X66208857Y-40446857D02*
X66208857Y-41608000D01*
X65991143Y-42841714D02*
X66063714Y-43059428D01*
X66136286Y-43132000D01*
X66281429Y-43204571D01*
X66499143Y-43204571D01*
X66644286Y-43132000D01*
X66716857Y-43059428D01*
X66789429Y-42914286D01*
X66789429Y-42333714D01*
X65265429Y-42333714D01*
X65265429Y-42841714D01*
X65338000Y-42986857D01*
X65410571Y-43059428D01*
X65555714Y-43132000D01*
X65700857Y-43132000D01*
X65846000Y-43059428D01*
X65918571Y-42986857D01*
X65991143Y-42841714D01*
X65991143Y-42333714D01*
X66934571Y-43494857D02*
X66934571Y-44656000D01*
X65265429Y-45018857D02*
X66499143Y-45018857D01*
X66644286Y-45091429D01*
X66716857Y-45164000D01*
X66789429Y-45309143D01*
X66789429Y-45599429D01*
X66716857Y-45744571D01*
X66644286Y-45817143D01*
X66499143Y-45889714D01*
X65265429Y-45889714D01*
X66716857Y-46542857D02*
X66789429Y-46760571D01*
X66789429Y-47123428D01*
X66716857Y-47268571D01*
X66644286Y-47341142D01*
X66499143Y-47413714D01*
X66354000Y-47413714D01*
X66208857Y-47341142D01*
X66136286Y-47268571D01*
X66063714Y-47123428D01*
X65991143Y-46833142D01*
X65918571Y-46688000D01*
X65846000Y-46615428D01*
X65700857Y-46542857D01*
X65555714Y-46542857D01*
X65410571Y-46615428D01*
X65338000Y-46688000D01*
X65265429Y-46833142D01*
X65265429Y-47196000D01*
X65338000Y-47413714D01*
X65991143Y-48574857D02*
X66063714Y-48792571D01*
X66136286Y-48865143D01*
X66281429Y-48937714D01*
X66499143Y-48937714D01*
X66644286Y-48865143D01*
X66716857Y-48792571D01*
X66789429Y-48647429D01*
X66789429Y-48066857D01*
X65265429Y-48066857D01*
X65265429Y-48574857D01*
X65338000Y-48720000D01*
X65410571Y-48792571D01*
X65555714Y-48865143D01*
X65700857Y-48865143D01*
X65846000Y-48792571D01*
X65918571Y-48720000D01*
X65991143Y-48574857D01*
X65991143Y-48066857D01*
D15*
X57865476Y-27702381D02*
X57665476Y-27702381D01*
X57665476Y-27750000D01*
X57675000Y-27778572D01*
X57694048Y-27797619D01*
X57713095Y-27807143D01*
X57751190Y-27816667D01*
X57779762Y-27816667D01*
X57817857Y-27807143D01*
X57836905Y-27797619D01*
X57855952Y-27778572D01*
X57865476Y-27750000D01*
X57865476Y-27702381D01*
X57865476Y-28007143D02*
X57865476Y-27892857D01*
X57865476Y-27950000D02*
X57665476Y-27950000D01*
X57694048Y-27930952D01*
X57713095Y-27911905D01*
X57722619Y-27892857D01*
X57265476Y-27721429D02*
X57265476Y-27626191D01*
X57065476Y-27626191D01*
X57160714Y-27788096D02*
X57160714Y-27854763D01*
X57265476Y-27883334D02*
X57265476Y-27788096D01*
X57065476Y-27788096D01*
X57065476Y-27883334D01*
X57265476Y-27969048D02*
X57065476Y-27969048D01*
X57065476Y-28016667D01*
X57075000Y-28045239D01*
X57094048Y-28064286D01*
X57113095Y-28073810D01*
X57151190Y-28083334D01*
X57179762Y-28083334D01*
X57217857Y-28073810D01*
X57236905Y-28064286D01*
X57255952Y-28045239D01*
X57265476Y-28016667D01*
X57265476Y-27969048D01*
X59774619Y-37139476D02*
X59774619Y-36939476D01*
X59698428Y-36939476D01*
X59679381Y-36949000D01*
X59669857Y-36958524D01*
X59660333Y-36977571D01*
X59660333Y-37006143D01*
X59669857Y-37025190D01*
X59679381Y-37034714D01*
X59698428Y-37044238D01*
X59774619Y-37044238D01*
X59488905Y-37006143D02*
X59488905Y-37139476D01*
X59536524Y-36929952D02*
X59584143Y-37072810D01*
X59460333Y-37072810D01*
D16*
X60707142Y-37791143D02*
X60721428Y-37805429D01*
X60764285Y-37819714D01*
X60792856Y-37819714D01*
X60835713Y-37805429D01*
X60864285Y-37776857D01*
X60878570Y-37748286D01*
X60892856Y-37691143D01*
X60892856Y-37648286D01*
X60878570Y-37591143D01*
X60864285Y-37562571D01*
X60835713Y-37534000D01*
X60792856Y-37519714D01*
X60764285Y-37519714D01*
X60721428Y-37534000D01*
X60707142Y-37548286D01*
X60521428Y-37519714D02*
X60464285Y-37519714D01*
X60435713Y-37534000D01*
X60407142Y-37562571D01*
X60392856Y-37619714D01*
X60392856Y-37719714D01*
X60407142Y-37776857D01*
X60435713Y-37805429D01*
X60464285Y-37819714D01*
X60521428Y-37819714D01*
X60549999Y-37805429D01*
X60578570Y-37776857D01*
X60592856Y-37719714D01*
X60592856Y-37619714D01*
X60578570Y-37562571D01*
X60549999Y-37534000D01*
X60521428Y-37519714D01*
X60264284Y-37819714D02*
X60264284Y-37519714D01*
X60092856Y-37819714D01*
X60092856Y-37519714D01*
X59949998Y-37819714D02*
X59949998Y-37519714D01*
X59778570Y-37819714D01*
X59778570Y-37519714D01*
X59707141Y-37848286D02*
X59478570Y-37848286D01*
X59349999Y-37519714D02*
X59321427Y-37519714D01*
X59292856Y-37534000D01*
X59278570Y-37548286D01*
X59264284Y-37576857D01*
X59249999Y-37634000D01*
X59249999Y-37705429D01*
X59264284Y-37762571D01*
X59278570Y-37791143D01*
X59292856Y-37805429D01*
X59321427Y-37819714D01*
X59349999Y-37819714D01*
X59378570Y-37805429D01*
X59392856Y-37791143D01*
X59407141Y-37762571D01*
X59421427Y-37705429D01*
X59421427Y-37634000D01*
X59407141Y-37576857D01*
X59392856Y-37548286D01*
X59378570Y-37534000D01*
X59349999Y-37519714D01*
X58964285Y-37819714D02*
X59135713Y-37819714D01*
X59049999Y-37819714D02*
X59049999Y-37519714D01*
X59078570Y-37562571D01*
X59107142Y-37591143D01*
X59135713Y-37605429D01*
X58864285Y-37519714D02*
X58664285Y-37819714D01*
X58664285Y-37519714D02*
X58864285Y-37819714D01*
X58492857Y-37519714D02*
X58464285Y-37519714D01*
X58435714Y-37534000D01*
X58421428Y-37548286D01*
X58407142Y-37576857D01*
X58392857Y-37634000D01*
X58392857Y-37705429D01*
X58407142Y-37762571D01*
X58421428Y-37791143D01*
X58435714Y-37805429D01*
X58464285Y-37819714D01*
X58492857Y-37819714D01*
X58521428Y-37805429D01*
X58535714Y-37791143D01*
X58549999Y-37762571D01*
X58564285Y-37705429D01*
X58564285Y-37634000D01*
X58549999Y-37576857D01*
X58535714Y-37548286D01*
X58521428Y-37534000D01*
X58492857Y-37519714D01*
X58278571Y-37548286D02*
X58264285Y-37534000D01*
X58235714Y-37519714D01*
X58164285Y-37519714D01*
X58135714Y-37534000D01*
X58121428Y-37548286D01*
X58107143Y-37576857D01*
X58107143Y-37605429D01*
X58121428Y-37648286D01*
X58292857Y-37819714D01*
X58107143Y-37819714D01*
D19*
X39335868Y-42928918D02*
X39578498Y-42928918D01*
X39607043Y-42943190D01*
X39621315Y-42957463D01*
X39635588Y-42986007D01*
X39635588Y-43043097D01*
X39621315Y-43071642D01*
X39607043Y-43085914D01*
X39578498Y-43100186D01*
X39335868Y-43100186D01*
X39635588Y-43399906D02*
X39635588Y-43228638D01*
X39635588Y-43314272D02*
X39335868Y-43314272D01*
X39378685Y-43285727D01*
X39407230Y-43257182D01*
X39421502Y-43228638D01*
X39335868Y-43499813D02*
X39335868Y-43699626D01*
X39635588Y-43571175D01*
D20*
X42671175Y-40923603D02*
X42071735Y-40923603D01*
X42499907Y-41123416D01*
X42071735Y-41323229D01*
X42671175Y-41323229D01*
X42671175Y-41608677D02*
X42071735Y-41608677D01*
X42071735Y-41837035D01*
X42100280Y-41894124D01*
X42128825Y-41922669D01*
X42185914Y-41951214D01*
X42271549Y-41951214D01*
X42328638Y-41922669D01*
X42357183Y-41894124D01*
X42385728Y-41837035D01*
X42385728Y-41608677D01*
X42071735Y-42208117D02*
X42556996Y-42208117D01*
X42614086Y-42236662D01*
X42642630Y-42265206D01*
X42671175Y-42322296D01*
X42671175Y-42436475D01*
X42642630Y-42493564D01*
X42614086Y-42522109D01*
X42556996Y-42550654D01*
X42071735Y-42550654D01*
X42442817Y-42836102D02*
X42442817Y-43292818D01*
X42071735Y-43835169D02*
X42071735Y-43720990D01*
X42100280Y-43663900D01*
X42128825Y-43635355D01*
X42214459Y-43578266D01*
X42328638Y-43549721D01*
X42556996Y-43549721D01*
X42614086Y-43578266D01*
X42642630Y-43606811D01*
X42671175Y-43663900D01*
X42671175Y-43778079D01*
X42642630Y-43835169D01*
X42614086Y-43863713D01*
X42556996Y-43892258D01*
X42414272Y-43892258D01*
X42357183Y-43863713D01*
X42328638Y-43835169D01*
X42300093Y-43778079D01*
X42300093Y-43663900D01*
X42328638Y-43606811D01*
X42357183Y-43578266D01*
X42414272Y-43549721D01*
X42071735Y-44263340D02*
X42071735Y-44320429D01*
X42100280Y-44377519D01*
X42128825Y-44406064D01*
X42185914Y-44434608D01*
X42300093Y-44463153D01*
X42442817Y-44463153D01*
X42556996Y-44434608D01*
X42614086Y-44406064D01*
X42642630Y-44377519D01*
X42671175Y-44320429D01*
X42671175Y-44263340D01*
X42642630Y-44206250D01*
X42614086Y-44177706D01*
X42556996Y-44149161D01*
X42442817Y-44120616D01*
X42300093Y-44120616D01*
X42185914Y-44149161D01*
X42128825Y-44177706D01*
X42100280Y-44206250D01*
X42071735Y-44263340D01*
X42071735Y-45005503D02*
X42071735Y-44720056D01*
X42357183Y-44691511D01*
X42328638Y-44720056D01*
X42300093Y-44777145D01*
X42300093Y-44919869D01*
X42328638Y-44976959D01*
X42357183Y-45005503D01*
X42414272Y-45034048D01*
X42556996Y-45034048D01*
X42614086Y-45005503D01*
X42642630Y-44976959D01*
X42671175Y-44919869D01*
X42671175Y-44777145D01*
X42642630Y-44720056D01*
X42614086Y-44691511D01*
X42071735Y-45405130D02*
X42071735Y-45462219D01*
X42100280Y-45519309D01*
X42128825Y-45547854D01*
X42185914Y-45576398D01*
X42300093Y-45604943D01*
X42442817Y-45604943D01*
X42556996Y-45576398D01*
X42614086Y-45547854D01*
X42642630Y-45519309D01*
X42671175Y-45462219D01*
X42671175Y-45405130D01*
X42642630Y-45348040D01*
X42614086Y-45319496D01*
X42556996Y-45290951D01*
X42442817Y-45262406D01*
X42300093Y-45262406D01*
X42185914Y-45290951D01*
X42128825Y-45319496D01*
X42100280Y-45348040D01*
X42071735Y-45405130D01*
M02*
