G04 #@! TF.FileFunction,Legend,Top*
%FSLAX46Y46*%
G04 Gerber Fmt 4.6, Leading zero omitted, Abs format (unit mm)*
G04 Created by KiCad (PCBNEW 4.0.2-stable) date Friday, May 27, 2016 'pmt' 03:10:38 pm*
%MOMM*%
G01*
G04 APERTURE LIST*
%ADD10C,0.100000*%
%ADD11C,0.001000*%
%ADD12C,0.150000*%
%ADD13C,0.381000*%
%ADD14C,0.200660*%
%ADD15C,0.050000*%
%ADD16C,0.031750*%
%ADD17C,0.099060*%
%ADD18C,0.152400*%
G04 APERTURE END LIST*
D10*
X14300000Y-13700000D02*
X74300000Y-13700000D01*
X74300000Y-73700000D02*
X74300000Y-13700000D01*
X14300000Y-73700000D02*
X74300000Y-73700000D01*
X14300000Y-13700000D02*
X14300000Y-73700000D01*
D11*
X29349660Y-21149760D02*
X32250340Y-21149760D01*
X32250340Y-21149760D02*
X32250340Y-22450240D01*
X32250340Y-22450240D02*
X29349660Y-22450240D01*
X29349660Y-22450240D02*
X29349660Y-21149760D01*
X45049660Y-20949760D02*
X47950340Y-20949760D01*
X47950340Y-20949760D02*
X47950340Y-22250240D01*
X47950340Y-22250240D02*
X45049660Y-22250240D01*
X45049660Y-22250240D02*
X45049660Y-20949760D01*
X60249660Y-21049760D02*
X63150340Y-21049760D01*
X63150340Y-21049760D02*
X63150340Y-22350240D01*
X63150340Y-22350240D02*
X60249660Y-22350240D01*
X60249660Y-22350240D02*
X60249660Y-21049760D01*
X66950240Y-28749660D02*
X66950240Y-31650340D01*
X66950240Y-31650340D02*
X65649760Y-31650340D01*
X65649760Y-31650340D02*
X65649760Y-28749660D01*
X65649760Y-28749660D02*
X66950240Y-28749660D01*
X52950240Y-52249660D02*
X52950240Y-55150340D01*
X52950240Y-55150340D02*
X51649760Y-55150340D01*
X51649760Y-55150340D02*
X51649760Y-52249660D01*
X51649760Y-52249660D02*
X52950240Y-52249660D01*
X50950240Y-52249660D02*
X50950240Y-55150340D01*
X50950240Y-55150340D02*
X49649760Y-55150340D01*
X49649760Y-55150340D02*
X49649760Y-52249660D01*
X49649760Y-52249660D02*
X50950240Y-52249660D01*
X66850240Y-44049660D02*
X66850240Y-46950340D01*
X66850240Y-46950340D02*
X65549760Y-46950340D01*
X65549760Y-46950340D02*
X65549760Y-44049660D01*
X65549760Y-44049660D02*
X66850240Y-44049660D01*
X66850240Y-59749660D02*
X66850240Y-62650340D01*
X66850240Y-62650340D02*
X65549760Y-62650340D01*
X65549760Y-62650340D02*
X65549760Y-59749660D01*
X65549760Y-59749660D02*
X66850240Y-59749660D01*
X59250340Y-66450240D02*
X56349660Y-66450240D01*
X56349660Y-66450240D02*
X56349660Y-65149760D01*
X56349660Y-65149760D02*
X59250340Y-65149760D01*
X59250340Y-65149760D02*
X59250340Y-66450240D01*
X43350340Y-66450240D02*
X40449660Y-66450240D01*
X40449660Y-66450240D02*
X40449660Y-65149760D01*
X40449660Y-65149760D02*
X43350340Y-65149760D01*
X43350340Y-65149760D02*
X43350340Y-66450240D01*
X28250340Y-66450240D02*
X25349660Y-66450240D01*
X25349660Y-66450240D02*
X25349660Y-65149760D01*
X25349660Y-65149760D02*
X28250340Y-65149760D01*
X28250340Y-65149760D02*
X28250340Y-66450240D01*
X21549760Y-58650340D02*
X21549760Y-55749660D01*
X21549760Y-55749660D02*
X22850240Y-55749660D01*
X22850240Y-55749660D02*
X22850240Y-58650340D01*
X22850240Y-58650340D02*
X21549760Y-58650340D01*
X21549760Y-42950340D02*
X21549760Y-40049660D01*
X21549760Y-40049660D02*
X22850240Y-40049660D01*
X22850240Y-40049660D02*
X22850240Y-42950340D01*
X22850240Y-42950340D02*
X21549760Y-42950340D01*
X22149760Y-27650340D02*
X22149760Y-24749660D01*
X22149760Y-24749660D02*
X23450240Y-24749660D01*
X23450240Y-24749660D02*
X23450240Y-27650340D01*
X23450240Y-27650340D02*
X22149760Y-27650340D01*
D12*
X27300000Y-15700000D02*
X26300000Y-16700000D01*
X30800000Y-18200000D02*
G75*
G03X30800000Y-18200000I-2000000J0D01*
G01*
X31300000Y-20700000D02*
X26300000Y-20700000D01*
X26300000Y-20700000D02*
X26300000Y-15700000D01*
X26300000Y-15700000D02*
X31300000Y-15700000D01*
X31300000Y-15700000D02*
X31300000Y-20700000D01*
X43000000Y-15700000D02*
X42000000Y-16700000D01*
X46500000Y-18200000D02*
G75*
G03X46500000Y-18200000I-2000000J0D01*
G01*
X47000000Y-20700000D02*
X42000000Y-20700000D01*
X42000000Y-20700000D02*
X42000000Y-15700000D01*
X42000000Y-15700000D02*
X47000000Y-15700000D01*
X47000000Y-15700000D02*
X47000000Y-20700000D01*
X58250000Y-15700000D02*
X57250000Y-16700000D01*
X61750000Y-18200000D02*
G75*
G03X61750000Y-18200000I-2000000J0D01*
G01*
X62250000Y-20700000D02*
X57250000Y-20700000D01*
X57250000Y-20700000D02*
X57250000Y-15700000D01*
X57250000Y-15700000D02*
X62250000Y-15700000D01*
X62250000Y-15700000D02*
X62250000Y-20700000D01*
X72300000Y-26700000D02*
X71300000Y-25700000D01*
X71800000Y-28200000D02*
G75*
G03X71800000Y-28200000I-2000000J0D01*
G01*
X67300000Y-30700000D02*
X67300000Y-25700000D01*
X67300000Y-25700000D02*
X72300000Y-25700000D01*
X72300000Y-25700000D02*
X72300000Y-30700000D01*
X72300000Y-30700000D02*
X67300000Y-30700000D01*
X72300000Y-42200000D02*
X71300000Y-41200000D01*
X71800000Y-43700000D02*
G75*
G03X71800000Y-43700000I-2000000J0D01*
G01*
X67300000Y-46200000D02*
X67300000Y-41200000D01*
X67300000Y-41200000D02*
X72300000Y-41200000D01*
X72300000Y-41200000D02*
X72300000Y-46200000D01*
X72300000Y-46200000D02*
X67300000Y-46200000D01*
X72300000Y-57700000D02*
X71300000Y-56700000D01*
X71800000Y-59200000D02*
G75*
G03X71800000Y-59200000I-2000000J0D01*
G01*
X67300000Y-61700000D02*
X67300000Y-56700000D01*
X67300000Y-56700000D02*
X72300000Y-56700000D01*
X72300000Y-56700000D02*
X72300000Y-61700000D01*
X72300000Y-61700000D02*
X67300000Y-61700000D01*
X61300000Y-71700000D02*
X62300000Y-70700000D01*
X61800000Y-69200000D02*
G75*
G03X61800000Y-69200000I-2000000J0D01*
G01*
X57300000Y-66700000D02*
X62300000Y-66700000D01*
X62300000Y-66700000D02*
X62300000Y-71700000D01*
X62300000Y-71700000D02*
X57300000Y-71700000D01*
X57300000Y-71700000D02*
X57300000Y-66700000D01*
X45800000Y-71700000D02*
X46800000Y-70700000D01*
X46300000Y-69200000D02*
G75*
G03X46300000Y-69200000I-2000000J0D01*
G01*
X41800000Y-66700000D02*
X46800000Y-66700000D01*
X46800000Y-66700000D02*
X46800000Y-71700000D01*
X46800000Y-71700000D02*
X41800000Y-71700000D01*
X41800000Y-71700000D02*
X41800000Y-66700000D01*
X30300000Y-71700000D02*
X31300000Y-70700000D01*
X30800000Y-69200000D02*
G75*
G03X30800000Y-69200000I-2000000J0D01*
G01*
X26300000Y-66700000D02*
X31300000Y-66700000D01*
X31300000Y-66700000D02*
X31300000Y-71700000D01*
X31300000Y-71700000D02*
X26300000Y-71700000D01*
X26300000Y-71700000D02*
X26300000Y-66700000D01*
X16300000Y-60700000D02*
X17300000Y-61700000D01*
X20800000Y-59200000D02*
G75*
G03X20800000Y-59200000I-2000000J0D01*
G01*
X21300000Y-56700000D02*
X21300000Y-61700000D01*
X21300000Y-61700000D02*
X16300000Y-61700000D01*
X16300000Y-61700000D02*
X16300000Y-56700000D01*
X16300000Y-56700000D02*
X21300000Y-56700000D01*
X16300000Y-45000000D02*
X17300000Y-46000000D01*
X20800000Y-43500000D02*
G75*
G03X20800000Y-43500000I-2000000J0D01*
G01*
X21300000Y-41000000D02*
X21300000Y-46000000D01*
X21300000Y-46000000D02*
X16300000Y-46000000D01*
X16300000Y-46000000D02*
X16300000Y-41000000D01*
X16300000Y-41000000D02*
X21300000Y-41000000D01*
X16300000Y-29700000D02*
X17300000Y-30700000D01*
X20800000Y-28200000D02*
G75*
G03X20800000Y-28200000I-2000000J0D01*
G01*
X21300000Y-25700000D02*
X21300000Y-30700000D01*
X21300000Y-30700000D02*
X16300000Y-30700000D01*
X16300000Y-30700000D02*
X16300000Y-25700000D01*
X16300000Y-25700000D02*
X21300000Y-25700000D01*
X70170000Y-48430000D02*
X72710000Y-48430000D01*
X67350000Y-48150000D02*
X68900000Y-48150000D01*
X70170000Y-48430000D02*
X70170000Y-50970000D01*
X68900000Y-51250000D02*
X67350000Y-51250000D01*
X67350000Y-51250000D02*
X67350000Y-48150000D01*
X70170000Y-50970000D02*
X72710000Y-50970000D01*
X72710000Y-50970000D02*
X72710000Y-48430000D01*
X21030000Y-33430000D02*
X15950000Y-33430000D01*
X15950000Y-33430000D02*
X15950000Y-35970000D01*
X15950000Y-35970000D02*
X21030000Y-35970000D01*
X23850000Y-36250000D02*
X22300000Y-36250000D01*
X21030000Y-35970000D02*
X21030000Y-33430000D01*
X22300000Y-33150000D02*
X23850000Y-33150000D01*
X23850000Y-33150000D02*
X23850000Y-36250000D01*
D11*
X36899760Y-61150340D02*
X36899760Y-58249660D01*
X36899760Y-58249660D02*
X38200240Y-58249660D01*
X38200240Y-58249660D02*
X38200240Y-61150340D01*
X38200240Y-61150340D02*
X36899760Y-61150340D01*
X32899760Y-61150340D02*
X32899760Y-58249660D01*
X32899760Y-58249660D02*
X34200240Y-58249660D01*
X34200240Y-58249660D02*
X34200240Y-61150340D01*
X34200240Y-61150340D02*
X32899760Y-61150340D01*
X42200240Y-27249660D02*
X42200240Y-30150340D01*
X42200240Y-30150340D02*
X40899760Y-30150340D01*
X40899760Y-30150340D02*
X40899760Y-27249660D01*
X40899760Y-27249660D02*
X42200240Y-27249660D01*
X44200240Y-27249660D02*
X44200240Y-30150340D01*
X44200240Y-30150340D02*
X42899760Y-30150340D01*
X42899760Y-30150340D02*
X42899760Y-27249660D01*
X42899760Y-27249660D02*
X44200240Y-27249660D01*
X25349660Y-21149760D02*
X28250340Y-21149760D01*
X28250340Y-21149760D02*
X28250340Y-22450240D01*
X28250340Y-22450240D02*
X25349660Y-22450240D01*
X25349660Y-22450240D02*
X25349660Y-21149760D01*
X44899760Y-30150340D02*
X44899760Y-27249660D01*
X44899760Y-27249660D02*
X46200240Y-27249660D01*
X46200240Y-27249660D02*
X46200240Y-30150340D01*
X46200240Y-30150340D02*
X44899760Y-30150340D01*
D13*
X61298980Y-58700000D02*
G75*
G03X61298980Y-58700000I-1998980J0D01*
G01*
X62299740Y-55700260D02*
X62299740Y-61699740D01*
X62299740Y-61699740D02*
X56300260Y-61699740D01*
X56300260Y-61699740D02*
X56300260Y-55700260D01*
X56300260Y-55700260D02*
X62299740Y-55700260D01*
X61298980Y-28700000D02*
G75*
G03X61298980Y-28700000I-1998980J0D01*
G01*
X56300260Y-31699740D02*
X56300260Y-25700260D01*
X56300260Y-25700260D02*
X62299740Y-25700260D01*
X62299740Y-25700260D02*
X62299740Y-31699740D01*
X62299740Y-31699740D02*
X56300260Y-31699740D01*
X71586000Y-68700000D02*
G75*
G03X71586000Y-68700000I-2286000J0D01*
G01*
X21586000Y-68700000D02*
G75*
G03X21586000Y-68700000I-2286000J0D01*
G01*
X71586000Y-18700000D02*
G75*
G03X71586000Y-18700000I-2286000J0D01*
G01*
X21586000Y-18700000D02*
G75*
G03X21586000Y-18700000I-2286000J0D01*
G01*
D11*
X27149760Y-64150340D02*
X27149760Y-61249660D01*
X27149760Y-61249660D02*
X28450240Y-61249660D01*
X28450240Y-61249660D02*
X28450240Y-64150340D01*
X28450240Y-64150340D02*
X27149760Y-64150340D01*
X28450240Y-23249660D02*
X28450240Y-26150340D01*
X28450240Y-26150340D02*
X27149760Y-26150340D01*
X27149760Y-26150340D02*
X27149760Y-23249660D01*
X27149760Y-23249660D02*
X28450240Y-23249660D01*
D14*
X69799260Y-51399420D02*
X69799260Y-48900060D01*
X69799260Y-48900060D02*
X68399720Y-48900060D01*
X68399720Y-48900060D02*
X68399720Y-51399420D01*
X73200320Y-51399420D02*
X62999680Y-51399420D01*
X62999680Y-51399420D02*
X62999680Y-55600580D01*
X62999680Y-55600580D02*
X73200320Y-55600580D01*
X73200320Y-55600580D02*
X73200320Y-51399420D01*
D13*
X30298980Y-29700000D02*
G75*
G03X30298980Y-29700000I-1998980J0D01*
G01*
X31299740Y-26700260D02*
X31299740Y-32699740D01*
X31299740Y-32699740D02*
X25300260Y-32699740D01*
X25300260Y-32699740D02*
X25300260Y-26700260D01*
X25300260Y-26700260D02*
X31299740Y-26700260D01*
X30298980Y-57700000D02*
G75*
G03X30298980Y-57700000I-1998980J0D01*
G01*
X31299740Y-54700260D02*
X31299740Y-60699740D01*
X31299740Y-60699740D02*
X25300260Y-60699740D01*
X25300260Y-60699740D02*
X25300260Y-54700260D01*
X25300260Y-54700260D02*
X31299740Y-54700260D01*
D11*
X66250340Y-57850240D02*
X63349660Y-57850240D01*
X63349660Y-57850240D02*
X63349660Y-56549760D01*
X63349660Y-56549760D02*
X66250340Y-56549760D01*
X66250340Y-56549760D02*
X66250340Y-57850240D01*
X63349660Y-58049760D02*
X66250340Y-58049760D01*
X66250340Y-58049760D02*
X66250340Y-59350240D01*
X66250340Y-59350240D02*
X63349660Y-59350240D01*
X63349660Y-59350240D02*
X63349660Y-58049760D01*
D15*
X30816667Y-22096429D02*
X30807143Y-22105952D01*
X30778572Y-22115476D01*
X30759524Y-22115476D01*
X30730952Y-22105952D01*
X30711905Y-22086905D01*
X30702381Y-22067857D01*
X30692857Y-22029762D01*
X30692857Y-22001190D01*
X30702381Y-21963095D01*
X30711905Y-21944048D01*
X30730952Y-21925000D01*
X30759524Y-21915476D01*
X30778572Y-21915476D01*
X30807143Y-21925000D01*
X30816667Y-21934524D01*
X30911905Y-22115476D02*
X30950000Y-22115476D01*
X30969048Y-22105952D01*
X30978572Y-22096429D01*
X30997619Y-22067857D01*
X31007143Y-22029762D01*
X31007143Y-21953571D01*
X30997619Y-21934524D01*
X30988095Y-21925000D01*
X30969048Y-21915476D01*
X30930952Y-21915476D01*
X30911905Y-21925000D01*
X30902381Y-21934524D01*
X30892857Y-21953571D01*
X30892857Y-22001190D01*
X30902381Y-22020238D01*
X30911905Y-22029762D01*
X30930952Y-22039286D01*
X30969048Y-22039286D01*
X30988095Y-22029762D01*
X30997619Y-22020238D01*
X31007143Y-22001190D01*
X30578572Y-21496429D02*
X30588096Y-21505952D01*
X30578572Y-21515476D01*
X30569048Y-21505952D01*
X30578572Y-21496429D01*
X30578572Y-21515476D01*
X30778572Y-21515476D02*
X30664286Y-21515476D01*
X30721429Y-21515476D02*
X30721429Y-21315476D01*
X30702381Y-21344048D01*
X30683334Y-21363095D01*
X30664286Y-21372619D01*
X30950000Y-21382143D02*
X30950000Y-21515476D01*
X30864286Y-21382143D02*
X30864286Y-21486905D01*
X30873810Y-21505952D01*
X30892857Y-21515476D01*
X30921429Y-21515476D01*
X30940477Y-21505952D01*
X30950000Y-21496429D01*
X31111905Y-21410714D02*
X31045238Y-21410714D01*
X31045238Y-21515476D02*
X31045238Y-21315476D01*
X31140476Y-21315476D01*
X46571429Y-21728571D02*
X46580952Y-21738095D01*
X46590476Y-21766666D01*
X46590476Y-21785714D01*
X46580952Y-21814286D01*
X46561905Y-21833333D01*
X46542857Y-21842857D01*
X46504762Y-21852381D01*
X46476190Y-21852381D01*
X46438095Y-21842857D01*
X46419048Y-21833333D01*
X46400000Y-21814286D01*
X46390476Y-21785714D01*
X46390476Y-21766666D01*
X46400000Y-21738095D01*
X46409524Y-21728571D01*
X46590476Y-21538095D02*
X46590476Y-21652381D01*
X46590476Y-21595238D02*
X46390476Y-21595238D01*
X46419048Y-21614286D01*
X46438095Y-21633333D01*
X46447619Y-21652381D01*
X46390476Y-21414286D02*
X46390476Y-21395238D01*
X46400000Y-21376190D01*
X46409524Y-21366667D01*
X46428571Y-21357143D01*
X46466667Y-21347619D01*
X46514286Y-21347619D01*
X46552381Y-21357143D01*
X46571429Y-21366667D01*
X46580952Y-21376190D01*
X46590476Y-21395238D01*
X46590476Y-21414286D01*
X46580952Y-21433333D01*
X46571429Y-21442857D01*
X46552381Y-21452381D01*
X46514286Y-21461905D01*
X46466667Y-21461905D01*
X46428571Y-21452381D01*
X46409524Y-21442857D01*
X46400000Y-21433333D01*
X46390476Y-21414286D01*
X46278572Y-21296429D02*
X46288096Y-21305952D01*
X46278572Y-21315476D01*
X46269048Y-21305952D01*
X46278572Y-21296429D01*
X46278572Y-21315476D01*
X46478572Y-21315476D02*
X46364286Y-21315476D01*
X46421429Y-21315476D02*
X46421429Y-21115476D01*
X46402381Y-21144048D01*
X46383334Y-21163095D01*
X46364286Y-21172619D01*
X46650000Y-21182143D02*
X46650000Y-21315476D01*
X46564286Y-21182143D02*
X46564286Y-21286905D01*
X46573810Y-21305952D01*
X46592857Y-21315476D01*
X46621429Y-21315476D01*
X46640477Y-21305952D01*
X46650000Y-21296429D01*
X46811905Y-21210714D02*
X46745238Y-21210714D01*
X46745238Y-21315476D02*
X46745238Y-21115476D01*
X46840476Y-21115476D01*
X61621429Y-21996429D02*
X61611905Y-22005952D01*
X61583334Y-22015476D01*
X61564286Y-22015476D01*
X61535714Y-22005952D01*
X61516667Y-21986905D01*
X61507143Y-21967857D01*
X61497619Y-21929762D01*
X61497619Y-21901190D01*
X61507143Y-21863095D01*
X61516667Y-21844048D01*
X61535714Y-21825000D01*
X61564286Y-21815476D01*
X61583334Y-21815476D01*
X61611905Y-21825000D01*
X61621429Y-21834524D01*
X61811905Y-22015476D02*
X61697619Y-22015476D01*
X61754762Y-22015476D02*
X61754762Y-21815476D01*
X61735714Y-21844048D01*
X61716667Y-21863095D01*
X61697619Y-21872619D01*
X62002381Y-22015476D02*
X61888095Y-22015476D01*
X61945238Y-22015476D02*
X61945238Y-21815476D01*
X61926190Y-21844048D01*
X61907143Y-21863095D01*
X61888095Y-21872619D01*
X61478572Y-21396429D02*
X61488096Y-21405952D01*
X61478572Y-21415476D01*
X61469048Y-21405952D01*
X61478572Y-21396429D01*
X61478572Y-21415476D01*
X61678572Y-21415476D02*
X61564286Y-21415476D01*
X61621429Y-21415476D02*
X61621429Y-21215476D01*
X61602381Y-21244048D01*
X61583334Y-21263095D01*
X61564286Y-21272619D01*
X61850000Y-21282143D02*
X61850000Y-21415476D01*
X61764286Y-21282143D02*
X61764286Y-21386905D01*
X61773810Y-21405952D01*
X61792857Y-21415476D01*
X61821429Y-21415476D01*
X61840477Y-21405952D01*
X61850000Y-21396429D01*
X62011905Y-21310714D02*
X61945238Y-21310714D01*
X61945238Y-21415476D02*
X61945238Y-21215476D01*
X62040476Y-21215476D01*
X66146429Y-30378571D02*
X66155952Y-30388095D01*
X66165476Y-30416666D01*
X66165476Y-30435714D01*
X66155952Y-30464286D01*
X66136905Y-30483333D01*
X66117857Y-30492857D01*
X66079762Y-30502381D01*
X66051190Y-30502381D01*
X66013095Y-30492857D01*
X65994048Y-30483333D01*
X65975000Y-30464286D01*
X65965476Y-30435714D01*
X65965476Y-30416666D01*
X65975000Y-30388095D01*
X65984524Y-30378571D01*
X66165476Y-30188095D02*
X66165476Y-30302381D01*
X66165476Y-30245238D02*
X65965476Y-30245238D01*
X65994048Y-30264286D01*
X66013095Y-30283333D01*
X66022619Y-30302381D01*
X65984524Y-30111905D02*
X65975000Y-30102381D01*
X65965476Y-30083333D01*
X65965476Y-30035714D01*
X65975000Y-30016667D01*
X65984524Y-30007143D01*
X66003571Y-29997619D01*
X66022619Y-29997619D01*
X66051190Y-30007143D01*
X66165476Y-30121429D01*
X66165476Y-29997619D01*
X66746429Y-30521428D02*
X66755952Y-30511904D01*
X66765476Y-30521428D01*
X66755952Y-30530952D01*
X66746429Y-30521428D01*
X66765476Y-30521428D01*
X66765476Y-30321428D02*
X66765476Y-30435714D01*
X66765476Y-30378571D02*
X66565476Y-30378571D01*
X66594048Y-30397619D01*
X66613095Y-30416666D01*
X66622619Y-30435714D01*
X66632143Y-30150000D02*
X66765476Y-30150000D01*
X66632143Y-30235714D02*
X66736905Y-30235714D01*
X66755952Y-30226190D01*
X66765476Y-30207143D01*
X66765476Y-30178571D01*
X66755952Y-30159523D01*
X66746429Y-30150000D01*
X66660714Y-29988095D02*
X66660714Y-30054762D01*
X66765476Y-30054762D02*
X66565476Y-30054762D01*
X66565476Y-29959524D01*
X52146429Y-53878571D02*
X52155952Y-53888095D01*
X52165476Y-53916666D01*
X52165476Y-53935714D01*
X52155952Y-53964286D01*
X52136905Y-53983333D01*
X52117857Y-53992857D01*
X52079762Y-54002381D01*
X52051190Y-54002381D01*
X52013095Y-53992857D01*
X51994048Y-53983333D01*
X51975000Y-53964286D01*
X51965476Y-53935714D01*
X51965476Y-53916666D01*
X51975000Y-53888095D01*
X51984524Y-53878571D01*
X52165476Y-53688095D02*
X52165476Y-53802381D01*
X52165476Y-53745238D02*
X51965476Y-53745238D01*
X51994048Y-53764286D01*
X52013095Y-53783333D01*
X52022619Y-53802381D01*
X51965476Y-53621429D02*
X51965476Y-53497619D01*
X52041667Y-53564286D01*
X52041667Y-53535714D01*
X52051190Y-53516667D01*
X52060714Y-53507143D01*
X52079762Y-53497619D01*
X52127381Y-53497619D01*
X52146429Y-53507143D01*
X52155952Y-53516667D01*
X52165476Y-53535714D01*
X52165476Y-53592857D01*
X52155952Y-53611905D01*
X52146429Y-53621429D01*
X52765476Y-53964285D02*
X52765476Y-54078571D01*
X52765476Y-54021428D02*
X52565476Y-54021428D01*
X52594048Y-54040476D01*
X52613095Y-54059523D01*
X52622619Y-54078571D01*
X52565476Y-53840476D02*
X52565476Y-53821428D01*
X52575000Y-53802380D01*
X52584524Y-53792857D01*
X52603571Y-53783333D01*
X52641667Y-53773809D01*
X52689286Y-53773809D01*
X52727381Y-53783333D01*
X52746429Y-53792857D01*
X52755952Y-53802380D01*
X52765476Y-53821428D01*
X52765476Y-53840476D01*
X52755952Y-53859523D01*
X52746429Y-53869047D01*
X52727381Y-53878571D01*
X52689286Y-53888095D01*
X52641667Y-53888095D01*
X52603571Y-53878571D01*
X52584524Y-53869047D01*
X52575000Y-53859523D01*
X52565476Y-53840476D01*
X52632143Y-53602381D02*
X52765476Y-53602381D01*
X52632143Y-53688095D02*
X52736905Y-53688095D01*
X52755952Y-53678571D01*
X52765476Y-53659524D01*
X52765476Y-53630952D01*
X52755952Y-53611904D01*
X52746429Y-53602381D01*
X52660714Y-53440476D02*
X52660714Y-53507143D01*
X52765476Y-53507143D02*
X52565476Y-53507143D01*
X52565476Y-53411905D01*
X50146429Y-53878571D02*
X50155952Y-53888095D01*
X50165476Y-53916666D01*
X50165476Y-53935714D01*
X50155952Y-53964286D01*
X50136905Y-53983333D01*
X50117857Y-53992857D01*
X50079762Y-54002381D01*
X50051190Y-54002381D01*
X50013095Y-53992857D01*
X49994048Y-53983333D01*
X49975000Y-53964286D01*
X49965476Y-53935714D01*
X49965476Y-53916666D01*
X49975000Y-53888095D01*
X49984524Y-53878571D01*
X50165476Y-53688095D02*
X50165476Y-53802381D01*
X50165476Y-53745238D02*
X49965476Y-53745238D01*
X49994048Y-53764286D01*
X50013095Y-53783333D01*
X50022619Y-53802381D01*
X50032143Y-53516667D02*
X50165476Y-53516667D01*
X49955952Y-53564286D02*
X50098810Y-53611905D01*
X50098810Y-53488095D01*
X50565476Y-54078571D02*
X50565476Y-54059523D01*
X50575000Y-54040475D01*
X50584524Y-54030952D01*
X50603571Y-54021428D01*
X50641667Y-54011904D01*
X50689286Y-54011904D01*
X50727381Y-54021428D01*
X50746429Y-54030952D01*
X50755952Y-54040475D01*
X50765476Y-54059523D01*
X50765476Y-54078571D01*
X50755952Y-54097618D01*
X50746429Y-54107142D01*
X50727381Y-54116666D01*
X50689286Y-54126190D01*
X50641667Y-54126190D01*
X50603571Y-54116666D01*
X50584524Y-54107142D01*
X50575000Y-54097618D01*
X50565476Y-54078571D01*
X50746429Y-53926190D02*
X50755952Y-53916666D01*
X50765476Y-53926190D01*
X50755952Y-53935714D01*
X50746429Y-53926190D01*
X50765476Y-53926190D01*
X50765476Y-53726190D02*
X50765476Y-53840476D01*
X50765476Y-53783333D02*
X50565476Y-53783333D01*
X50594048Y-53802381D01*
X50613095Y-53821428D01*
X50622619Y-53840476D01*
X50632143Y-53554762D02*
X50765476Y-53554762D01*
X50632143Y-53640476D02*
X50736905Y-53640476D01*
X50755952Y-53630952D01*
X50765476Y-53611905D01*
X50765476Y-53583333D01*
X50755952Y-53564285D01*
X50746429Y-53554762D01*
X50660714Y-53392857D02*
X50660714Y-53459524D01*
X50765476Y-53459524D02*
X50565476Y-53459524D01*
X50565476Y-53364286D01*
X66046429Y-45678571D02*
X66055952Y-45688095D01*
X66065476Y-45716666D01*
X66065476Y-45735714D01*
X66055952Y-45764286D01*
X66036905Y-45783333D01*
X66017857Y-45792857D01*
X65979762Y-45802381D01*
X65951190Y-45802381D01*
X65913095Y-45792857D01*
X65894048Y-45783333D01*
X65875000Y-45764286D01*
X65865476Y-45735714D01*
X65865476Y-45716666D01*
X65875000Y-45688095D01*
X65884524Y-45678571D01*
X66065476Y-45488095D02*
X66065476Y-45602381D01*
X66065476Y-45545238D02*
X65865476Y-45545238D01*
X65894048Y-45564286D01*
X65913095Y-45583333D01*
X65922619Y-45602381D01*
X65865476Y-45307143D02*
X65865476Y-45402381D01*
X65960714Y-45411905D01*
X65951190Y-45402381D01*
X65941667Y-45383333D01*
X65941667Y-45335714D01*
X65951190Y-45316667D01*
X65960714Y-45307143D01*
X65979762Y-45297619D01*
X66027381Y-45297619D01*
X66046429Y-45307143D01*
X66055952Y-45316667D01*
X66065476Y-45335714D01*
X66065476Y-45383333D01*
X66055952Y-45402381D01*
X66046429Y-45411905D01*
X66646429Y-45821428D02*
X66655952Y-45811904D01*
X66665476Y-45821428D01*
X66655952Y-45830952D01*
X66646429Y-45821428D01*
X66665476Y-45821428D01*
X66665476Y-45621428D02*
X66665476Y-45735714D01*
X66665476Y-45678571D02*
X66465476Y-45678571D01*
X66494048Y-45697619D01*
X66513095Y-45716666D01*
X66522619Y-45735714D01*
X66532143Y-45450000D02*
X66665476Y-45450000D01*
X66532143Y-45535714D02*
X66636905Y-45535714D01*
X66655952Y-45526190D01*
X66665476Y-45507143D01*
X66665476Y-45478571D01*
X66655952Y-45459523D01*
X66646429Y-45450000D01*
X66560714Y-45288095D02*
X66560714Y-45354762D01*
X66665476Y-45354762D02*
X66465476Y-45354762D01*
X66465476Y-45259524D01*
X65846429Y-61321429D02*
X65836905Y-61330952D01*
X65808334Y-61340476D01*
X65789286Y-61340476D01*
X65760714Y-61330952D01*
X65741667Y-61311905D01*
X65732143Y-61292857D01*
X65722619Y-61254762D01*
X65722619Y-61226190D01*
X65732143Y-61188095D01*
X65741667Y-61169048D01*
X65760714Y-61150000D01*
X65789286Y-61140476D01*
X65808334Y-61140476D01*
X65836905Y-61150000D01*
X65846429Y-61159524D01*
X66036905Y-61340476D02*
X65922619Y-61340476D01*
X65979762Y-61340476D02*
X65979762Y-61140476D01*
X65960714Y-61169048D01*
X65941667Y-61188095D01*
X65922619Y-61197619D01*
X66208333Y-61140476D02*
X66170238Y-61140476D01*
X66151190Y-61150000D01*
X66141667Y-61159524D01*
X66122619Y-61188095D01*
X66113095Y-61226190D01*
X66113095Y-61302381D01*
X66122619Y-61321429D01*
X66132143Y-61330952D01*
X66151190Y-61340476D01*
X66189286Y-61340476D01*
X66208333Y-61330952D01*
X66217857Y-61321429D01*
X66227381Y-61302381D01*
X66227381Y-61254762D01*
X66217857Y-61235714D01*
X66208333Y-61226190D01*
X66189286Y-61216667D01*
X66151190Y-61216667D01*
X66132143Y-61226190D01*
X66122619Y-61235714D01*
X66113095Y-61254762D01*
X66646429Y-61521428D02*
X66655952Y-61511904D01*
X66665476Y-61521428D01*
X66655952Y-61530952D01*
X66646429Y-61521428D01*
X66665476Y-61521428D01*
X66665476Y-61321428D02*
X66665476Y-61435714D01*
X66665476Y-61378571D02*
X66465476Y-61378571D01*
X66494048Y-61397619D01*
X66513095Y-61416666D01*
X66522619Y-61435714D01*
X66532143Y-61150000D02*
X66665476Y-61150000D01*
X66532143Y-61235714D02*
X66636905Y-61235714D01*
X66655952Y-61226190D01*
X66665476Y-61207143D01*
X66665476Y-61178571D01*
X66655952Y-61159523D01*
X66646429Y-61150000D01*
X66560714Y-60988095D02*
X66560714Y-61054762D01*
X66665476Y-61054762D02*
X66465476Y-61054762D01*
X66465476Y-60959524D01*
X57621429Y-65646429D02*
X57611905Y-65655952D01*
X57583334Y-65665476D01*
X57564286Y-65665476D01*
X57535714Y-65655952D01*
X57516667Y-65636905D01*
X57507143Y-65617857D01*
X57497619Y-65579762D01*
X57497619Y-65551190D01*
X57507143Y-65513095D01*
X57516667Y-65494048D01*
X57535714Y-65475000D01*
X57564286Y-65465476D01*
X57583334Y-65465476D01*
X57611905Y-65475000D01*
X57621429Y-65484524D01*
X57811905Y-65665476D02*
X57697619Y-65665476D01*
X57754762Y-65665476D02*
X57754762Y-65465476D01*
X57735714Y-65494048D01*
X57716667Y-65513095D01*
X57697619Y-65522619D01*
X57878571Y-65465476D02*
X58011905Y-65465476D01*
X57926190Y-65665476D01*
X57478572Y-66246429D02*
X57488096Y-66255952D01*
X57478572Y-66265476D01*
X57469048Y-66255952D01*
X57478572Y-66246429D01*
X57478572Y-66265476D01*
X57678572Y-66265476D02*
X57564286Y-66265476D01*
X57621429Y-66265476D02*
X57621429Y-66065476D01*
X57602381Y-66094048D01*
X57583334Y-66113095D01*
X57564286Y-66122619D01*
X57850000Y-66132143D02*
X57850000Y-66265476D01*
X57764286Y-66132143D02*
X57764286Y-66236905D01*
X57773810Y-66255952D01*
X57792857Y-66265476D01*
X57821429Y-66265476D01*
X57840477Y-66255952D01*
X57850000Y-66246429D01*
X58011905Y-66160714D02*
X57945238Y-66160714D01*
X57945238Y-66265476D02*
X57945238Y-66065476D01*
X58040476Y-66065476D01*
X41721429Y-65646429D02*
X41711905Y-65655952D01*
X41683334Y-65665476D01*
X41664286Y-65665476D01*
X41635714Y-65655952D01*
X41616667Y-65636905D01*
X41607143Y-65617857D01*
X41597619Y-65579762D01*
X41597619Y-65551190D01*
X41607143Y-65513095D01*
X41616667Y-65494048D01*
X41635714Y-65475000D01*
X41664286Y-65465476D01*
X41683334Y-65465476D01*
X41711905Y-65475000D01*
X41721429Y-65484524D01*
X41911905Y-65665476D02*
X41797619Y-65665476D01*
X41854762Y-65665476D02*
X41854762Y-65465476D01*
X41835714Y-65494048D01*
X41816667Y-65513095D01*
X41797619Y-65522619D01*
X42026190Y-65551190D02*
X42007143Y-65541667D01*
X41997619Y-65532143D01*
X41988095Y-65513095D01*
X41988095Y-65503571D01*
X41997619Y-65484524D01*
X42007143Y-65475000D01*
X42026190Y-65465476D01*
X42064286Y-65465476D01*
X42083333Y-65475000D01*
X42092857Y-65484524D01*
X42102381Y-65503571D01*
X42102381Y-65513095D01*
X42092857Y-65532143D01*
X42083333Y-65541667D01*
X42064286Y-65551190D01*
X42026190Y-65551190D01*
X42007143Y-65560714D01*
X41997619Y-65570238D01*
X41988095Y-65589286D01*
X41988095Y-65627381D01*
X41997619Y-65646429D01*
X42007143Y-65655952D01*
X42026190Y-65665476D01*
X42064286Y-65665476D01*
X42083333Y-65655952D01*
X42092857Y-65646429D01*
X42102381Y-65627381D01*
X42102381Y-65589286D01*
X42092857Y-65570238D01*
X42083333Y-65560714D01*
X42064286Y-65551190D01*
X41578572Y-66246429D02*
X41588096Y-66255952D01*
X41578572Y-66265476D01*
X41569048Y-66255952D01*
X41578572Y-66246429D01*
X41578572Y-66265476D01*
X41778572Y-66265476D02*
X41664286Y-66265476D01*
X41721429Y-66265476D02*
X41721429Y-66065476D01*
X41702381Y-66094048D01*
X41683334Y-66113095D01*
X41664286Y-66122619D01*
X41950000Y-66132143D02*
X41950000Y-66265476D01*
X41864286Y-66132143D02*
X41864286Y-66236905D01*
X41873810Y-66255952D01*
X41892857Y-66265476D01*
X41921429Y-66265476D01*
X41940477Y-66255952D01*
X41950000Y-66246429D01*
X42111905Y-66160714D02*
X42045238Y-66160714D01*
X42045238Y-66265476D02*
X42045238Y-66065476D01*
X42140476Y-66065476D01*
X26621429Y-65646429D02*
X26611905Y-65655952D01*
X26583334Y-65665476D01*
X26564286Y-65665476D01*
X26535714Y-65655952D01*
X26516667Y-65636905D01*
X26507143Y-65617857D01*
X26497619Y-65579762D01*
X26497619Y-65551190D01*
X26507143Y-65513095D01*
X26516667Y-65494048D01*
X26535714Y-65475000D01*
X26564286Y-65465476D01*
X26583334Y-65465476D01*
X26611905Y-65475000D01*
X26621429Y-65484524D01*
X26811905Y-65665476D02*
X26697619Y-65665476D01*
X26754762Y-65665476D02*
X26754762Y-65465476D01*
X26735714Y-65494048D01*
X26716667Y-65513095D01*
X26697619Y-65522619D01*
X26907143Y-65665476D02*
X26945238Y-65665476D01*
X26964286Y-65655952D01*
X26973810Y-65646429D01*
X26992857Y-65617857D01*
X27002381Y-65579762D01*
X27002381Y-65503571D01*
X26992857Y-65484524D01*
X26983333Y-65475000D01*
X26964286Y-65465476D01*
X26926190Y-65465476D01*
X26907143Y-65475000D01*
X26897619Y-65484524D01*
X26888095Y-65503571D01*
X26888095Y-65551190D01*
X26897619Y-65570238D01*
X26907143Y-65579762D01*
X26926190Y-65589286D01*
X26964286Y-65589286D01*
X26983333Y-65579762D01*
X26992857Y-65570238D01*
X27002381Y-65551190D01*
X26478572Y-66246429D02*
X26488096Y-66255952D01*
X26478572Y-66265476D01*
X26469048Y-66255952D01*
X26478572Y-66246429D01*
X26478572Y-66265476D01*
X26678572Y-66265476D02*
X26564286Y-66265476D01*
X26621429Y-66265476D02*
X26621429Y-66065476D01*
X26602381Y-66094048D01*
X26583334Y-66113095D01*
X26564286Y-66122619D01*
X26850000Y-66132143D02*
X26850000Y-66265476D01*
X26764286Y-66132143D02*
X26764286Y-66236905D01*
X26773810Y-66255952D01*
X26792857Y-66265476D01*
X26821429Y-66265476D01*
X26840477Y-66255952D01*
X26850000Y-66246429D01*
X27011905Y-66160714D02*
X26945238Y-66160714D01*
X26945238Y-66265476D02*
X26945238Y-66065476D01*
X27040476Y-66065476D01*
X22496429Y-57278571D02*
X22505952Y-57288095D01*
X22515476Y-57316666D01*
X22515476Y-57335714D01*
X22505952Y-57364286D01*
X22486905Y-57383333D01*
X22467857Y-57392857D01*
X22429762Y-57402381D01*
X22401190Y-57402381D01*
X22363095Y-57392857D01*
X22344048Y-57383333D01*
X22325000Y-57364286D01*
X22315476Y-57335714D01*
X22315476Y-57316666D01*
X22325000Y-57288095D01*
X22334524Y-57278571D01*
X22334524Y-57202381D02*
X22325000Y-57192857D01*
X22315476Y-57173809D01*
X22315476Y-57126190D01*
X22325000Y-57107143D01*
X22334524Y-57097619D01*
X22353571Y-57088095D01*
X22372619Y-57088095D01*
X22401190Y-57097619D01*
X22515476Y-57211905D01*
X22515476Y-57088095D01*
X22315476Y-56964286D02*
X22315476Y-56945238D01*
X22325000Y-56926190D01*
X22334524Y-56916667D01*
X22353571Y-56907143D01*
X22391667Y-56897619D01*
X22439286Y-56897619D01*
X22477381Y-56907143D01*
X22496429Y-56916667D01*
X22505952Y-56926190D01*
X22515476Y-56945238D01*
X22515476Y-56964286D01*
X22505952Y-56983333D01*
X22496429Y-56992857D01*
X22477381Y-57002381D01*
X22439286Y-57011905D01*
X22391667Y-57011905D01*
X22353571Y-57002381D01*
X22334524Y-56992857D01*
X22325000Y-56983333D01*
X22315476Y-56964286D01*
X21896429Y-57421428D02*
X21905952Y-57411904D01*
X21915476Y-57421428D01*
X21905952Y-57430952D01*
X21896429Y-57421428D01*
X21915476Y-57421428D01*
X21915476Y-57221428D02*
X21915476Y-57335714D01*
X21915476Y-57278571D02*
X21715476Y-57278571D01*
X21744048Y-57297619D01*
X21763095Y-57316666D01*
X21772619Y-57335714D01*
X21782143Y-57050000D02*
X21915476Y-57050000D01*
X21782143Y-57135714D02*
X21886905Y-57135714D01*
X21905952Y-57126190D01*
X21915476Y-57107143D01*
X21915476Y-57078571D01*
X21905952Y-57059523D01*
X21896429Y-57050000D01*
X21810714Y-56888095D02*
X21810714Y-56954762D01*
X21915476Y-56954762D02*
X21715476Y-56954762D01*
X21715476Y-56859524D01*
X22496429Y-41578571D02*
X22505952Y-41588095D01*
X22515476Y-41616666D01*
X22515476Y-41635714D01*
X22505952Y-41664286D01*
X22486905Y-41683333D01*
X22467857Y-41692857D01*
X22429762Y-41702381D01*
X22401190Y-41702381D01*
X22363095Y-41692857D01*
X22344048Y-41683333D01*
X22325000Y-41664286D01*
X22315476Y-41635714D01*
X22315476Y-41616666D01*
X22325000Y-41588095D01*
X22334524Y-41578571D01*
X22334524Y-41502381D02*
X22325000Y-41492857D01*
X22315476Y-41473809D01*
X22315476Y-41426190D01*
X22325000Y-41407143D01*
X22334524Y-41397619D01*
X22353571Y-41388095D01*
X22372619Y-41388095D01*
X22401190Y-41397619D01*
X22515476Y-41511905D01*
X22515476Y-41388095D01*
X22515476Y-41197619D02*
X22515476Y-41311905D01*
X22515476Y-41254762D02*
X22315476Y-41254762D01*
X22344048Y-41273810D01*
X22363095Y-41292857D01*
X22372619Y-41311905D01*
X21896429Y-41721428D02*
X21905952Y-41711904D01*
X21915476Y-41721428D01*
X21905952Y-41730952D01*
X21896429Y-41721428D01*
X21915476Y-41721428D01*
X21915476Y-41521428D02*
X21915476Y-41635714D01*
X21915476Y-41578571D02*
X21715476Y-41578571D01*
X21744048Y-41597619D01*
X21763095Y-41616666D01*
X21772619Y-41635714D01*
X21782143Y-41350000D02*
X21915476Y-41350000D01*
X21782143Y-41435714D02*
X21886905Y-41435714D01*
X21905952Y-41426190D01*
X21915476Y-41407143D01*
X21915476Y-41378571D01*
X21905952Y-41359523D01*
X21896429Y-41350000D01*
X21810714Y-41188095D02*
X21810714Y-41254762D01*
X21915476Y-41254762D02*
X21715476Y-41254762D01*
X21715476Y-41159524D01*
X23096429Y-26278571D02*
X23105952Y-26288095D01*
X23115476Y-26316666D01*
X23115476Y-26335714D01*
X23105952Y-26364286D01*
X23086905Y-26383333D01*
X23067857Y-26392857D01*
X23029762Y-26402381D01*
X23001190Y-26402381D01*
X22963095Y-26392857D01*
X22944048Y-26383333D01*
X22925000Y-26364286D01*
X22915476Y-26335714D01*
X22915476Y-26316666D01*
X22925000Y-26288095D01*
X22934524Y-26278571D01*
X22934524Y-26202381D02*
X22925000Y-26192857D01*
X22915476Y-26173809D01*
X22915476Y-26126190D01*
X22925000Y-26107143D01*
X22934524Y-26097619D01*
X22953571Y-26088095D01*
X22972619Y-26088095D01*
X23001190Y-26097619D01*
X23115476Y-26211905D01*
X23115476Y-26088095D01*
X22934524Y-26011905D02*
X22925000Y-26002381D01*
X22915476Y-25983333D01*
X22915476Y-25935714D01*
X22925000Y-25916667D01*
X22934524Y-25907143D01*
X22953571Y-25897619D01*
X22972619Y-25897619D01*
X23001190Y-25907143D01*
X23115476Y-26021429D01*
X23115476Y-25897619D01*
X22496429Y-26421428D02*
X22505952Y-26411904D01*
X22515476Y-26421428D01*
X22505952Y-26430952D01*
X22496429Y-26421428D01*
X22515476Y-26421428D01*
X22515476Y-26221428D02*
X22515476Y-26335714D01*
X22515476Y-26278571D02*
X22315476Y-26278571D01*
X22344048Y-26297619D01*
X22363095Y-26316666D01*
X22372619Y-26335714D01*
X22382143Y-26050000D02*
X22515476Y-26050000D01*
X22382143Y-26135714D02*
X22486905Y-26135714D01*
X22505952Y-26126190D01*
X22515476Y-26107143D01*
X22515476Y-26078571D01*
X22505952Y-26059523D01*
X22496429Y-26050000D01*
X22410714Y-25888095D02*
X22410714Y-25954762D01*
X22515476Y-25954762D02*
X22315476Y-25954762D01*
X22315476Y-25859524D01*
D12*
X27680953Y-18152381D02*
X27204762Y-18152381D01*
X27204762Y-17152381D01*
X28014286Y-17628571D02*
X28347620Y-17628571D01*
X28490477Y-18152381D02*
X28014286Y-18152381D01*
X28014286Y-17152381D01*
X28490477Y-17152381D01*
X28919048Y-18152381D02*
X28919048Y-17152381D01*
X29157143Y-17152381D01*
X29300001Y-17200000D01*
X29395239Y-17295238D01*
X29442858Y-17390476D01*
X29490477Y-17580952D01*
X29490477Y-17723810D01*
X29442858Y-17914286D01*
X29395239Y-18009524D01*
X29300001Y-18104762D01*
X29157143Y-18152381D01*
X28919048Y-18152381D01*
X30442858Y-18152381D02*
X29871429Y-18152381D01*
X30157143Y-18152381D02*
X30157143Y-17152381D01*
X30061905Y-17295238D01*
X29966667Y-17390476D01*
X29871429Y-17438095D01*
X43380953Y-18052381D02*
X42904762Y-18052381D01*
X42904762Y-17052381D01*
X43714286Y-17528571D02*
X44047620Y-17528571D01*
X44190477Y-18052381D02*
X43714286Y-18052381D01*
X43714286Y-17052381D01*
X44190477Y-17052381D01*
X44619048Y-18052381D02*
X44619048Y-17052381D01*
X44857143Y-17052381D01*
X45000001Y-17100000D01*
X45095239Y-17195238D01*
X45142858Y-17290476D01*
X45190477Y-17480952D01*
X45190477Y-17623810D01*
X45142858Y-17814286D01*
X45095239Y-17909524D01*
X45000001Y-18004762D01*
X44857143Y-18052381D01*
X44619048Y-18052381D01*
X45571429Y-17147619D02*
X45619048Y-17100000D01*
X45714286Y-17052381D01*
X45952382Y-17052381D01*
X46047620Y-17100000D01*
X46095239Y-17147619D01*
X46142858Y-17242857D01*
X46142858Y-17338095D01*
X46095239Y-17480952D01*
X45523810Y-18052381D01*
X46142858Y-18052381D01*
X58630953Y-18152381D02*
X58154762Y-18152381D01*
X58154762Y-17152381D01*
X58964286Y-17628571D02*
X59297620Y-17628571D01*
X59440477Y-18152381D02*
X58964286Y-18152381D01*
X58964286Y-17152381D01*
X59440477Y-17152381D01*
X59869048Y-18152381D02*
X59869048Y-17152381D01*
X60107143Y-17152381D01*
X60250001Y-17200000D01*
X60345239Y-17295238D01*
X60392858Y-17390476D01*
X60440477Y-17580952D01*
X60440477Y-17723810D01*
X60392858Y-17914286D01*
X60345239Y-18009524D01*
X60250001Y-18104762D01*
X60107143Y-18152381D01*
X59869048Y-18152381D01*
X60773810Y-17152381D02*
X61392858Y-17152381D01*
X61059524Y-17533333D01*
X61202382Y-17533333D01*
X61297620Y-17580952D01*
X61345239Y-17628571D01*
X61392858Y-17723810D01*
X61392858Y-17961905D01*
X61345239Y-18057143D01*
X61297620Y-18104762D01*
X61202382Y-18152381D01*
X60916667Y-18152381D01*
X60821429Y-18104762D01*
X60773810Y-18057143D01*
X70752381Y-29319047D02*
X70752381Y-29795238D01*
X69752381Y-29795238D01*
X70228571Y-28985714D02*
X70228571Y-28652380D01*
X70752381Y-28509523D02*
X70752381Y-28985714D01*
X69752381Y-28985714D01*
X69752381Y-28509523D01*
X70752381Y-28080952D02*
X69752381Y-28080952D01*
X69752381Y-27842857D01*
X69800000Y-27699999D01*
X69895238Y-27604761D01*
X69990476Y-27557142D01*
X70180952Y-27509523D01*
X70323810Y-27509523D01*
X70514286Y-27557142D01*
X70609524Y-27604761D01*
X70704762Y-27699999D01*
X70752381Y-27842857D01*
X70752381Y-28080952D01*
X70085714Y-26652380D02*
X70752381Y-26652380D01*
X69704762Y-26890476D02*
X70419048Y-27128571D01*
X70419048Y-26509523D01*
X69180953Y-44152381D02*
X68704762Y-44152381D01*
X68704762Y-43152381D01*
X69514286Y-43628571D02*
X69847620Y-43628571D01*
X69990477Y-44152381D02*
X69514286Y-44152381D01*
X69514286Y-43152381D01*
X69990477Y-43152381D01*
X70419048Y-44152381D02*
X70419048Y-43152381D01*
X70657143Y-43152381D01*
X70800001Y-43200000D01*
X70895239Y-43295238D01*
X70942858Y-43390476D01*
X70990477Y-43580952D01*
X70990477Y-43723810D01*
X70942858Y-43914286D01*
X70895239Y-44009524D01*
X70800001Y-44104762D01*
X70657143Y-44152381D01*
X70419048Y-44152381D01*
X71895239Y-43152381D02*
X71419048Y-43152381D01*
X71371429Y-43628571D01*
X71419048Y-43580952D01*
X71514286Y-43533333D01*
X71752382Y-43533333D01*
X71847620Y-43580952D01*
X71895239Y-43628571D01*
X71942858Y-43723810D01*
X71942858Y-43961905D01*
X71895239Y-44057143D01*
X71847620Y-44104762D01*
X71752382Y-44152381D01*
X71514286Y-44152381D01*
X71419048Y-44104762D01*
X71371429Y-44057143D01*
X70752381Y-60319047D02*
X70752381Y-60795238D01*
X69752381Y-60795238D01*
X70228571Y-59985714D02*
X70228571Y-59652380D01*
X70752381Y-59509523D02*
X70752381Y-59985714D01*
X69752381Y-59985714D01*
X69752381Y-59509523D01*
X70752381Y-59080952D02*
X69752381Y-59080952D01*
X69752381Y-58842857D01*
X69800000Y-58699999D01*
X69895238Y-58604761D01*
X69990476Y-58557142D01*
X70180952Y-58509523D01*
X70323810Y-58509523D01*
X70514286Y-58557142D01*
X70609524Y-58604761D01*
X70704762Y-58699999D01*
X70752381Y-58842857D01*
X70752381Y-59080952D01*
X69752381Y-57652380D02*
X69752381Y-57842857D01*
X69800000Y-57938095D01*
X69847619Y-57985714D01*
X69990476Y-58080952D01*
X70180952Y-58128571D01*
X70561905Y-58128571D01*
X70657143Y-58080952D01*
X70704762Y-58033333D01*
X70752381Y-57938095D01*
X70752381Y-57747618D01*
X70704762Y-57652380D01*
X70657143Y-57604761D01*
X70561905Y-57557142D01*
X70323810Y-57557142D01*
X70228571Y-57604761D01*
X70180952Y-57652380D01*
X70133333Y-57747618D01*
X70133333Y-57938095D01*
X70180952Y-58033333D01*
X70228571Y-58080952D01*
X70323810Y-58128571D01*
X58680953Y-70152381D02*
X58204762Y-70152381D01*
X58204762Y-69152381D01*
X59014286Y-69628571D02*
X59347620Y-69628571D01*
X59490477Y-70152381D02*
X59014286Y-70152381D01*
X59014286Y-69152381D01*
X59490477Y-69152381D01*
X59919048Y-70152381D02*
X59919048Y-69152381D01*
X60157143Y-69152381D01*
X60300001Y-69200000D01*
X60395239Y-69295238D01*
X60442858Y-69390476D01*
X60490477Y-69580952D01*
X60490477Y-69723810D01*
X60442858Y-69914286D01*
X60395239Y-70009524D01*
X60300001Y-70104762D01*
X60157143Y-70152381D01*
X59919048Y-70152381D01*
X60823810Y-69152381D02*
X61490477Y-69152381D01*
X61061905Y-70152381D01*
X43180953Y-70152381D02*
X42704762Y-70152381D01*
X42704762Y-69152381D01*
X43514286Y-69628571D02*
X43847620Y-69628571D01*
X43990477Y-70152381D02*
X43514286Y-70152381D01*
X43514286Y-69152381D01*
X43990477Y-69152381D01*
X44419048Y-70152381D02*
X44419048Y-69152381D01*
X44657143Y-69152381D01*
X44800001Y-69200000D01*
X44895239Y-69295238D01*
X44942858Y-69390476D01*
X44990477Y-69580952D01*
X44990477Y-69723810D01*
X44942858Y-69914286D01*
X44895239Y-70009524D01*
X44800001Y-70104762D01*
X44657143Y-70152381D01*
X44419048Y-70152381D01*
X45561905Y-69580952D02*
X45466667Y-69533333D01*
X45419048Y-69485714D01*
X45371429Y-69390476D01*
X45371429Y-69342857D01*
X45419048Y-69247619D01*
X45466667Y-69200000D01*
X45561905Y-69152381D01*
X45752382Y-69152381D01*
X45847620Y-69200000D01*
X45895239Y-69247619D01*
X45942858Y-69342857D01*
X45942858Y-69390476D01*
X45895239Y-69485714D01*
X45847620Y-69533333D01*
X45752382Y-69580952D01*
X45561905Y-69580952D01*
X45466667Y-69628571D01*
X45419048Y-69676190D01*
X45371429Y-69771429D01*
X45371429Y-69961905D01*
X45419048Y-70057143D01*
X45466667Y-70104762D01*
X45561905Y-70152381D01*
X45752382Y-70152381D01*
X45847620Y-70104762D01*
X45895239Y-70057143D01*
X45942858Y-69961905D01*
X45942858Y-69771429D01*
X45895239Y-69676190D01*
X45847620Y-69628571D01*
X45752382Y-69580952D01*
X27680953Y-70152381D02*
X27204762Y-70152381D01*
X27204762Y-69152381D01*
X28014286Y-69628571D02*
X28347620Y-69628571D01*
X28490477Y-70152381D02*
X28014286Y-70152381D01*
X28014286Y-69152381D01*
X28490477Y-69152381D01*
X28919048Y-70152381D02*
X28919048Y-69152381D01*
X29157143Y-69152381D01*
X29300001Y-69200000D01*
X29395239Y-69295238D01*
X29442858Y-69390476D01*
X29490477Y-69580952D01*
X29490477Y-69723810D01*
X29442858Y-69914286D01*
X29395239Y-70009524D01*
X29300001Y-70104762D01*
X29157143Y-70152381D01*
X28919048Y-70152381D01*
X29966667Y-70152381D02*
X30157143Y-70152381D01*
X30252382Y-70104762D01*
X30300001Y-70057143D01*
X30395239Y-69914286D01*
X30442858Y-69723810D01*
X30442858Y-69342857D01*
X30395239Y-69247619D01*
X30347620Y-69200000D01*
X30252382Y-69152381D01*
X30061905Y-69152381D01*
X29966667Y-69200000D01*
X29919048Y-69247619D01*
X29871429Y-69342857D01*
X29871429Y-69580952D01*
X29919048Y-69676190D01*
X29966667Y-69723810D01*
X30061905Y-69771429D01*
X30252382Y-69771429D01*
X30347620Y-69723810D01*
X30395239Y-69676190D01*
X30442858Y-69580952D01*
X18752381Y-60795238D02*
X18752381Y-61271429D01*
X17752381Y-61271429D01*
X18228571Y-60461905D02*
X18228571Y-60128571D01*
X18752381Y-59985714D02*
X18752381Y-60461905D01*
X17752381Y-60461905D01*
X17752381Y-59985714D01*
X18752381Y-59557143D02*
X17752381Y-59557143D01*
X17752381Y-59319048D01*
X17800000Y-59176190D01*
X17895238Y-59080952D01*
X17990476Y-59033333D01*
X18180952Y-58985714D01*
X18323810Y-58985714D01*
X18514286Y-59033333D01*
X18609524Y-59080952D01*
X18704762Y-59176190D01*
X18752381Y-59319048D01*
X18752381Y-59557143D01*
X18752381Y-58033333D02*
X18752381Y-58604762D01*
X18752381Y-58319048D02*
X17752381Y-58319048D01*
X17895238Y-58414286D01*
X17990476Y-58509524D01*
X18038095Y-58604762D01*
X17752381Y-57414286D02*
X17752381Y-57319047D01*
X17800000Y-57223809D01*
X17847619Y-57176190D01*
X17942857Y-57128571D01*
X18133333Y-57080952D01*
X18371429Y-57080952D01*
X18561905Y-57128571D01*
X18657143Y-57176190D01*
X18704762Y-57223809D01*
X18752381Y-57319047D01*
X18752381Y-57414286D01*
X18704762Y-57509524D01*
X18657143Y-57557143D01*
X18561905Y-57604762D01*
X18371429Y-57652381D01*
X18133333Y-57652381D01*
X17942857Y-57604762D01*
X17847619Y-57557143D01*
X17800000Y-57509524D01*
X17752381Y-57414286D01*
X18752381Y-45095238D02*
X18752381Y-45571429D01*
X17752381Y-45571429D01*
X18228571Y-44761905D02*
X18228571Y-44428571D01*
X18752381Y-44285714D02*
X18752381Y-44761905D01*
X17752381Y-44761905D01*
X17752381Y-44285714D01*
X18752381Y-43857143D02*
X17752381Y-43857143D01*
X17752381Y-43619048D01*
X17800000Y-43476190D01*
X17895238Y-43380952D01*
X17990476Y-43333333D01*
X18180952Y-43285714D01*
X18323810Y-43285714D01*
X18514286Y-43333333D01*
X18609524Y-43380952D01*
X18704762Y-43476190D01*
X18752381Y-43619048D01*
X18752381Y-43857143D01*
X18752381Y-42333333D02*
X18752381Y-42904762D01*
X18752381Y-42619048D02*
X17752381Y-42619048D01*
X17895238Y-42714286D01*
X17990476Y-42809524D01*
X18038095Y-42904762D01*
X18752381Y-41380952D02*
X18752381Y-41952381D01*
X18752381Y-41666667D02*
X17752381Y-41666667D01*
X17895238Y-41761905D01*
X17990476Y-41857143D01*
X18038095Y-41952381D01*
X18752381Y-29795238D02*
X18752381Y-30271429D01*
X17752381Y-30271429D01*
X18228571Y-29461905D02*
X18228571Y-29128571D01*
X18752381Y-28985714D02*
X18752381Y-29461905D01*
X17752381Y-29461905D01*
X17752381Y-28985714D01*
X18752381Y-28557143D02*
X17752381Y-28557143D01*
X17752381Y-28319048D01*
X17800000Y-28176190D01*
X17895238Y-28080952D01*
X17990476Y-28033333D01*
X18180952Y-27985714D01*
X18323810Y-27985714D01*
X18514286Y-28033333D01*
X18609524Y-28080952D01*
X18704762Y-28176190D01*
X18752381Y-28319048D01*
X18752381Y-28557143D01*
X18752381Y-27033333D02*
X18752381Y-27604762D01*
X18752381Y-27319048D02*
X17752381Y-27319048D01*
X17895238Y-27414286D01*
X17990476Y-27509524D01*
X18038095Y-27604762D01*
X17847619Y-26652381D02*
X17800000Y-26604762D01*
X17752381Y-26509524D01*
X17752381Y-26271428D01*
X17800000Y-26176190D01*
X17847619Y-26128571D01*
X17942857Y-26080952D01*
X18038095Y-26080952D01*
X18180952Y-26128571D01*
X18752381Y-26700000D01*
X18752381Y-26080952D01*
X64252381Y-50438095D02*
X63252381Y-50438095D01*
X63252381Y-50057142D01*
X63300000Y-49961904D01*
X63347619Y-49914285D01*
X63442857Y-49866666D01*
X63585714Y-49866666D01*
X63680952Y-49914285D01*
X63728571Y-49961904D01*
X63776190Y-50057142D01*
X63776190Y-50438095D01*
X64252381Y-48914285D02*
X64252381Y-49485714D01*
X64252381Y-49200000D02*
X63252381Y-49200000D01*
X63395238Y-49295238D01*
X63490476Y-49390476D01*
X63538095Y-49485714D01*
X27852381Y-35438095D02*
X26852381Y-35438095D01*
X26852381Y-35057142D01*
X26900000Y-34961904D01*
X26947619Y-34914285D01*
X27042857Y-34866666D01*
X27185714Y-34866666D01*
X27280952Y-34914285D01*
X27328571Y-34961904D01*
X27376190Y-35057142D01*
X27376190Y-35438095D01*
X27852381Y-34390476D02*
X27852381Y-34200000D01*
X27804762Y-34104761D01*
X27757143Y-34057142D01*
X27614286Y-33961904D01*
X27423810Y-33914285D01*
X27042857Y-33914285D01*
X26947619Y-33961904D01*
X26900000Y-34009523D01*
X26852381Y-34104761D01*
X26852381Y-34295238D01*
X26900000Y-34390476D01*
X26947619Y-34438095D01*
X27042857Y-34485714D01*
X27280952Y-34485714D01*
X27376190Y-34438095D01*
X27423810Y-34390476D01*
X27471429Y-34295238D01*
X27471429Y-34104761D01*
X27423810Y-34009523D01*
X27376190Y-33961904D01*
X27280952Y-33914285D01*
D15*
X37865476Y-59683333D02*
X37770238Y-59750000D01*
X37865476Y-59797619D02*
X37665476Y-59797619D01*
X37665476Y-59721428D01*
X37675000Y-59702381D01*
X37684524Y-59692857D01*
X37703571Y-59683333D01*
X37732143Y-59683333D01*
X37751190Y-59692857D01*
X37760714Y-59702381D01*
X37770238Y-59721428D01*
X37770238Y-59797619D01*
X37751190Y-59569048D02*
X37741667Y-59588095D01*
X37732143Y-59597619D01*
X37713095Y-59607143D01*
X37703571Y-59607143D01*
X37684524Y-59597619D01*
X37675000Y-59588095D01*
X37665476Y-59569048D01*
X37665476Y-59530952D01*
X37675000Y-59511905D01*
X37684524Y-59502381D01*
X37703571Y-59492857D01*
X37713095Y-59492857D01*
X37732143Y-59502381D01*
X37741667Y-59511905D01*
X37751190Y-59530952D01*
X37751190Y-59569048D01*
X37760714Y-59588095D01*
X37770238Y-59597619D01*
X37789286Y-59607143D01*
X37827381Y-59607143D01*
X37846429Y-59597619D01*
X37855952Y-59588095D01*
X37865476Y-59569048D01*
X37865476Y-59530952D01*
X37855952Y-59511905D01*
X37846429Y-59502381D01*
X37827381Y-59492857D01*
X37789286Y-59492857D01*
X37770238Y-59502381D01*
X37760714Y-59511905D01*
X37751190Y-59530952D01*
X37265476Y-59769047D02*
X37265476Y-59883333D01*
X37265476Y-59826190D02*
X37065476Y-59826190D01*
X37094048Y-59845238D01*
X37113095Y-59864285D01*
X37122619Y-59883333D01*
X37065476Y-59645238D02*
X37065476Y-59626190D01*
X37075000Y-59607142D01*
X37084524Y-59597619D01*
X37103571Y-59588095D01*
X37141667Y-59578571D01*
X37189286Y-59578571D01*
X37227381Y-59588095D01*
X37246429Y-59597619D01*
X37255952Y-59607142D01*
X37265476Y-59626190D01*
X37265476Y-59645238D01*
X37255952Y-59664285D01*
X37246429Y-59673809D01*
X37227381Y-59683333D01*
X37189286Y-59692857D01*
X37141667Y-59692857D01*
X37103571Y-59683333D01*
X37084524Y-59673809D01*
X37075000Y-59664285D01*
X37065476Y-59645238D01*
X37265476Y-59492857D02*
X37065476Y-59492857D01*
X37189286Y-59473809D02*
X37265476Y-59416666D01*
X37132143Y-59416666D02*
X37208333Y-59492857D01*
X33865476Y-59683333D02*
X33770238Y-59750000D01*
X33865476Y-59797619D02*
X33665476Y-59797619D01*
X33665476Y-59721428D01*
X33675000Y-59702381D01*
X33684524Y-59692857D01*
X33703571Y-59683333D01*
X33732143Y-59683333D01*
X33751190Y-59692857D01*
X33760714Y-59702381D01*
X33770238Y-59721428D01*
X33770238Y-59797619D01*
X33865476Y-59588095D02*
X33865476Y-59550000D01*
X33855952Y-59530952D01*
X33846429Y-59521428D01*
X33817857Y-59502381D01*
X33779762Y-59492857D01*
X33703571Y-59492857D01*
X33684524Y-59502381D01*
X33675000Y-59511905D01*
X33665476Y-59530952D01*
X33665476Y-59569048D01*
X33675000Y-59588095D01*
X33684524Y-59597619D01*
X33703571Y-59607143D01*
X33751190Y-59607143D01*
X33770238Y-59597619D01*
X33779762Y-59588095D01*
X33789286Y-59569048D01*
X33789286Y-59530952D01*
X33779762Y-59511905D01*
X33770238Y-59502381D01*
X33751190Y-59492857D01*
X33265476Y-59769047D02*
X33265476Y-59883333D01*
X33265476Y-59826190D02*
X33065476Y-59826190D01*
X33094048Y-59845238D01*
X33113095Y-59864285D01*
X33122619Y-59883333D01*
X33065476Y-59645238D02*
X33065476Y-59626190D01*
X33075000Y-59607142D01*
X33084524Y-59597619D01*
X33103571Y-59588095D01*
X33141667Y-59578571D01*
X33189286Y-59578571D01*
X33227381Y-59588095D01*
X33246429Y-59597619D01*
X33255952Y-59607142D01*
X33265476Y-59626190D01*
X33265476Y-59645238D01*
X33255952Y-59664285D01*
X33246429Y-59673809D01*
X33227381Y-59683333D01*
X33189286Y-59692857D01*
X33141667Y-59692857D01*
X33103571Y-59683333D01*
X33084524Y-59673809D01*
X33075000Y-59664285D01*
X33065476Y-59645238D01*
X33265476Y-59492857D02*
X33065476Y-59492857D01*
X33189286Y-59473809D02*
X33265476Y-59416666D01*
X33132143Y-59416666D02*
X33208333Y-59492857D01*
X41415476Y-28878571D02*
X41320238Y-28945238D01*
X41415476Y-28992857D02*
X41215476Y-28992857D01*
X41215476Y-28916666D01*
X41225000Y-28897619D01*
X41234524Y-28888095D01*
X41253571Y-28878571D01*
X41282143Y-28878571D01*
X41301190Y-28888095D01*
X41310714Y-28897619D01*
X41320238Y-28916666D01*
X41320238Y-28992857D01*
X41415476Y-28688095D02*
X41415476Y-28802381D01*
X41415476Y-28745238D02*
X41215476Y-28745238D01*
X41244048Y-28764286D01*
X41263095Y-28783333D01*
X41272619Y-28802381D01*
X41215476Y-28564286D02*
X41215476Y-28545238D01*
X41225000Y-28526190D01*
X41234524Y-28516667D01*
X41253571Y-28507143D01*
X41291667Y-28497619D01*
X41339286Y-28497619D01*
X41377381Y-28507143D01*
X41396429Y-28516667D01*
X41405952Y-28526190D01*
X41415476Y-28545238D01*
X41415476Y-28564286D01*
X41405952Y-28583333D01*
X41396429Y-28592857D01*
X41377381Y-28602381D01*
X41339286Y-28611905D01*
X41291667Y-28611905D01*
X41253571Y-28602381D01*
X41234524Y-28592857D01*
X41225000Y-28583333D01*
X41215476Y-28564286D01*
X42015476Y-28869047D02*
X42015476Y-28983333D01*
X42015476Y-28926190D02*
X41815476Y-28926190D01*
X41844048Y-28945238D01*
X41863095Y-28964285D01*
X41872619Y-28983333D01*
X41815476Y-28745238D02*
X41815476Y-28726190D01*
X41825000Y-28707142D01*
X41834524Y-28697619D01*
X41853571Y-28688095D01*
X41891667Y-28678571D01*
X41939286Y-28678571D01*
X41977381Y-28688095D01*
X41996429Y-28697619D01*
X42005952Y-28707142D01*
X42015476Y-28726190D01*
X42015476Y-28745238D01*
X42005952Y-28764285D01*
X41996429Y-28773809D01*
X41977381Y-28783333D01*
X41939286Y-28792857D01*
X41891667Y-28792857D01*
X41853571Y-28783333D01*
X41834524Y-28773809D01*
X41825000Y-28764285D01*
X41815476Y-28745238D01*
X42015476Y-28592857D02*
X41815476Y-28592857D01*
X41939286Y-28573809D02*
X42015476Y-28516666D01*
X41882143Y-28516666D02*
X41958333Y-28592857D01*
X43415476Y-28878571D02*
X43320238Y-28945238D01*
X43415476Y-28992857D02*
X43215476Y-28992857D01*
X43215476Y-28916666D01*
X43225000Y-28897619D01*
X43234524Y-28888095D01*
X43253571Y-28878571D01*
X43282143Y-28878571D01*
X43301190Y-28888095D01*
X43310714Y-28897619D01*
X43320238Y-28916666D01*
X43320238Y-28992857D01*
X43415476Y-28688095D02*
X43415476Y-28802381D01*
X43415476Y-28745238D02*
X43215476Y-28745238D01*
X43244048Y-28764286D01*
X43263095Y-28783333D01*
X43272619Y-28802381D01*
X43415476Y-28497619D02*
X43415476Y-28611905D01*
X43415476Y-28554762D02*
X43215476Y-28554762D01*
X43244048Y-28573810D01*
X43263095Y-28592857D01*
X43272619Y-28611905D01*
X44015476Y-28869047D02*
X44015476Y-28983333D01*
X44015476Y-28926190D02*
X43815476Y-28926190D01*
X43844048Y-28945238D01*
X43863095Y-28964285D01*
X43872619Y-28983333D01*
X43815476Y-28745238D02*
X43815476Y-28726190D01*
X43825000Y-28707142D01*
X43834524Y-28697619D01*
X43853571Y-28688095D01*
X43891667Y-28678571D01*
X43939286Y-28678571D01*
X43977381Y-28688095D01*
X43996429Y-28697619D01*
X44005952Y-28707142D01*
X44015476Y-28726190D01*
X44015476Y-28745238D01*
X44005952Y-28764285D01*
X43996429Y-28773809D01*
X43977381Y-28783333D01*
X43939286Y-28792857D01*
X43891667Y-28792857D01*
X43853571Y-28783333D01*
X43834524Y-28773809D01*
X43825000Y-28764285D01*
X43815476Y-28745238D01*
X44015476Y-28592857D02*
X43815476Y-28592857D01*
X43939286Y-28573809D02*
X44015476Y-28516666D01*
X43882143Y-28516666D02*
X43958333Y-28592857D01*
X26721429Y-22115476D02*
X26654762Y-22020238D01*
X26607143Y-22115476D02*
X26607143Y-21915476D01*
X26683334Y-21915476D01*
X26702381Y-21925000D01*
X26711905Y-21934524D01*
X26721429Y-21953571D01*
X26721429Y-21982143D01*
X26711905Y-22001190D01*
X26702381Y-22010714D01*
X26683334Y-22020238D01*
X26607143Y-22020238D01*
X26911905Y-22115476D02*
X26797619Y-22115476D01*
X26854762Y-22115476D02*
X26854762Y-21915476D01*
X26835714Y-21944048D01*
X26816667Y-21963095D01*
X26797619Y-21972619D01*
X26988095Y-21934524D02*
X26997619Y-21925000D01*
X27016667Y-21915476D01*
X27064286Y-21915476D01*
X27083333Y-21925000D01*
X27092857Y-21934524D01*
X27102381Y-21953571D01*
X27102381Y-21972619D01*
X27092857Y-22001190D01*
X26978571Y-22115476D01*
X27102381Y-22115476D01*
X26602381Y-21334524D02*
X26611905Y-21325000D01*
X26630953Y-21315476D01*
X26678572Y-21315476D01*
X26697619Y-21325000D01*
X26707143Y-21334524D01*
X26716667Y-21353571D01*
X26716667Y-21372619D01*
X26707143Y-21401190D01*
X26592857Y-21515476D01*
X26716667Y-21515476D01*
X26792857Y-21334524D02*
X26802381Y-21325000D01*
X26821429Y-21315476D01*
X26869048Y-21315476D01*
X26888095Y-21325000D01*
X26897619Y-21334524D01*
X26907143Y-21353571D01*
X26907143Y-21372619D01*
X26897619Y-21401190D01*
X26783333Y-21515476D01*
X26907143Y-21515476D01*
X27030952Y-21315476D02*
X27050000Y-21315476D01*
X27069048Y-21325000D01*
X27078571Y-21334524D01*
X27088095Y-21353571D01*
X27097619Y-21391667D01*
X27097619Y-21439286D01*
X27088095Y-21477381D01*
X27078571Y-21496429D01*
X27069048Y-21505952D01*
X27050000Y-21515476D01*
X27030952Y-21515476D01*
X27011905Y-21505952D01*
X27002381Y-21496429D01*
X26992857Y-21477381D01*
X26983333Y-21439286D01*
X26983333Y-21391667D01*
X26992857Y-21353571D01*
X27002381Y-21334524D01*
X27011905Y-21325000D01*
X27030952Y-21315476D01*
X45865476Y-28778571D02*
X45770238Y-28845238D01*
X45865476Y-28892857D02*
X45665476Y-28892857D01*
X45665476Y-28816666D01*
X45675000Y-28797619D01*
X45684524Y-28788095D01*
X45703571Y-28778571D01*
X45732143Y-28778571D01*
X45751190Y-28788095D01*
X45760714Y-28797619D01*
X45770238Y-28816666D01*
X45770238Y-28892857D01*
X45865476Y-28588095D02*
X45865476Y-28702381D01*
X45865476Y-28645238D02*
X45665476Y-28645238D01*
X45694048Y-28664286D01*
X45713095Y-28683333D01*
X45722619Y-28702381D01*
X45665476Y-28416667D02*
X45665476Y-28454762D01*
X45675000Y-28473810D01*
X45684524Y-28483333D01*
X45713095Y-28502381D01*
X45751190Y-28511905D01*
X45827381Y-28511905D01*
X45846429Y-28502381D01*
X45855952Y-28492857D01*
X45865476Y-28473810D01*
X45865476Y-28435714D01*
X45855952Y-28416667D01*
X45846429Y-28407143D01*
X45827381Y-28397619D01*
X45779762Y-28397619D01*
X45760714Y-28407143D01*
X45751190Y-28416667D01*
X45741667Y-28435714D01*
X45741667Y-28473810D01*
X45751190Y-28492857D01*
X45760714Y-28502381D01*
X45779762Y-28511905D01*
X45265476Y-28769047D02*
X45265476Y-28883333D01*
X45265476Y-28826190D02*
X45065476Y-28826190D01*
X45094048Y-28845238D01*
X45113095Y-28864285D01*
X45122619Y-28883333D01*
X45065476Y-28645238D02*
X45065476Y-28626190D01*
X45075000Y-28607142D01*
X45084524Y-28597619D01*
X45103571Y-28588095D01*
X45141667Y-28578571D01*
X45189286Y-28578571D01*
X45227381Y-28588095D01*
X45246429Y-28597619D01*
X45255952Y-28607142D01*
X45265476Y-28626190D01*
X45265476Y-28645238D01*
X45255952Y-28664285D01*
X45246429Y-28673809D01*
X45227381Y-28683333D01*
X45189286Y-28692857D01*
X45141667Y-28692857D01*
X45103571Y-28683333D01*
X45084524Y-28673809D01*
X45075000Y-28664285D01*
X45065476Y-28645238D01*
X45265476Y-28492857D02*
X45065476Y-28492857D01*
X45189286Y-28473809D02*
X45265476Y-28416666D01*
X45132143Y-28416666D02*
X45208333Y-28492857D01*
D12*
X31002381Y-54461905D02*
X31811905Y-54461905D01*
X31907143Y-54414286D01*
X31954762Y-54366667D01*
X32002381Y-54271429D01*
X32002381Y-54080952D01*
X31954762Y-53985714D01*
X31907143Y-53938095D01*
X31811905Y-53890476D01*
X31002381Y-53890476D01*
X31335714Y-52985714D02*
X32002381Y-52985714D01*
X30954762Y-53223810D02*
X31669048Y-53461905D01*
X31669048Y-52842857D01*
D16*
X40406262Y-56957452D02*
X40406262Y-56830452D01*
X40454643Y-56830452D01*
X40466738Y-56836500D01*
X40472786Y-56842548D01*
X40478834Y-56854643D01*
X40478834Y-56872786D01*
X40472786Y-56884881D01*
X40466738Y-56890929D01*
X40454643Y-56896976D01*
X40406262Y-56896976D01*
X40527214Y-56842548D02*
X40533262Y-56836500D01*
X40545357Y-56830452D01*
X40575595Y-56830452D01*
X40587691Y-56836500D01*
X40593738Y-56842548D01*
X40599786Y-56854643D01*
X40599786Y-56866738D01*
X40593738Y-56884881D01*
X40521167Y-56957452D01*
X40599786Y-56957452D01*
X39988977Y-56945357D02*
X39982929Y-56951405D01*
X39964786Y-56957452D01*
X39952691Y-56957452D01*
X39934548Y-56951405D01*
X39922453Y-56939310D01*
X39916405Y-56927214D01*
X39910357Y-56903024D01*
X39910357Y-56884881D01*
X39916405Y-56860690D01*
X39922453Y-56848595D01*
X39934548Y-56836500D01*
X39952691Y-56830452D01*
X39964786Y-56830452D01*
X39982929Y-56836500D01*
X39988977Y-56842548D01*
X40067596Y-56830452D02*
X40091786Y-56830452D01*
X40103881Y-56836500D01*
X40115977Y-56848595D01*
X40122024Y-56872786D01*
X40122024Y-56915119D01*
X40115977Y-56939310D01*
X40103881Y-56951405D01*
X40091786Y-56957452D01*
X40067596Y-56957452D01*
X40055500Y-56951405D01*
X40043405Y-56939310D01*
X40037357Y-56915119D01*
X40037357Y-56872786D01*
X40043405Y-56848595D01*
X40055500Y-56836500D01*
X40067596Y-56830452D01*
X40176453Y-56957452D02*
X40176453Y-56830452D01*
X40249025Y-56957452D01*
X40249025Y-56830452D01*
X40309501Y-56957452D02*
X40309501Y-56830452D01*
X40382073Y-56957452D01*
X40382073Y-56830452D01*
X40412311Y-56969548D02*
X40509073Y-56969548D01*
X40563502Y-56830452D02*
X40575597Y-56830452D01*
X40587692Y-56836500D01*
X40593740Y-56842548D01*
X40599787Y-56854643D01*
X40605835Y-56878833D01*
X40605835Y-56909071D01*
X40599787Y-56933262D01*
X40593740Y-56945357D01*
X40587692Y-56951405D01*
X40575597Y-56957452D01*
X40563502Y-56957452D01*
X40551406Y-56951405D01*
X40545359Y-56945357D01*
X40539311Y-56933262D01*
X40533263Y-56909071D01*
X40533263Y-56878833D01*
X40539311Y-56854643D01*
X40545359Y-56842548D01*
X40551406Y-56836500D01*
X40563502Y-56830452D01*
X40726787Y-56957452D02*
X40654215Y-56957452D01*
X40690501Y-56957452D02*
X40690501Y-56830452D01*
X40678406Y-56848595D01*
X40666311Y-56860690D01*
X40654215Y-56866738D01*
X40769120Y-56830452D02*
X40853787Y-56957452D01*
X40853787Y-56830452D02*
X40769120Y-56957452D01*
X40926358Y-56830452D02*
X40938453Y-56830452D01*
X40950548Y-56836500D01*
X40956596Y-56842548D01*
X40962643Y-56854643D01*
X40968691Y-56878833D01*
X40968691Y-56909071D01*
X40962643Y-56933262D01*
X40956596Y-56945357D01*
X40950548Y-56951405D01*
X40938453Y-56957452D01*
X40926358Y-56957452D01*
X40914262Y-56951405D01*
X40908215Y-56945357D01*
X40902167Y-56933262D01*
X40896119Y-56909071D01*
X40896119Y-56878833D01*
X40902167Y-56854643D01*
X40908215Y-56842548D01*
X40914262Y-56836500D01*
X40926358Y-56830452D01*
X41041262Y-56884881D02*
X41029167Y-56878833D01*
X41023119Y-56872786D01*
X41017071Y-56860690D01*
X41017071Y-56854643D01*
X41023119Y-56842548D01*
X41029167Y-56836500D01*
X41041262Y-56830452D01*
X41065452Y-56830452D01*
X41077548Y-56836500D01*
X41083595Y-56842548D01*
X41089643Y-56854643D01*
X41089643Y-56860690D01*
X41083595Y-56872786D01*
X41077548Y-56878833D01*
X41065452Y-56884881D01*
X41041262Y-56884881D01*
X41029167Y-56890929D01*
X41023119Y-56896976D01*
X41017071Y-56909071D01*
X41017071Y-56933262D01*
X41023119Y-56945357D01*
X41029167Y-56951405D01*
X41041262Y-56957452D01*
X41065452Y-56957452D01*
X41077548Y-56951405D01*
X41083595Y-56945357D01*
X41089643Y-56933262D01*
X41089643Y-56909071D01*
X41083595Y-56896976D01*
X41077548Y-56890929D01*
X41065452Y-56884881D01*
X40456262Y-31557452D02*
X40456262Y-31430452D01*
X40504643Y-31430452D01*
X40516738Y-31436500D01*
X40522786Y-31442548D01*
X40528834Y-31454643D01*
X40528834Y-31472786D01*
X40522786Y-31484881D01*
X40516738Y-31490929D01*
X40504643Y-31496976D01*
X40456262Y-31496976D01*
X40571167Y-31430452D02*
X40649786Y-31430452D01*
X40607453Y-31478833D01*
X40625595Y-31478833D01*
X40637691Y-31484881D01*
X40643738Y-31490929D01*
X40649786Y-31503024D01*
X40649786Y-31533262D01*
X40643738Y-31545357D01*
X40637691Y-31551405D01*
X40625595Y-31557452D01*
X40589310Y-31557452D01*
X40577214Y-31551405D01*
X40571167Y-31545357D01*
X40038977Y-31545357D02*
X40032929Y-31551405D01*
X40014786Y-31557452D01*
X40002691Y-31557452D01*
X39984548Y-31551405D01*
X39972453Y-31539310D01*
X39966405Y-31527214D01*
X39960357Y-31503024D01*
X39960357Y-31484881D01*
X39966405Y-31460690D01*
X39972453Y-31448595D01*
X39984548Y-31436500D01*
X40002691Y-31430452D01*
X40014786Y-31430452D01*
X40032929Y-31436500D01*
X40038977Y-31442548D01*
X40117596Y-31430452D02*
X40141786Y-31430452D01*
X40153881Y-31436500D01*
X40165977Y-31448595D01*
X40172024Y-31472786D01*
X40172024Y-31515119D01*
X40165977Y-31539310D01*
X40153881Y-31551405D01*
X40141786Y-31557452D01*
X40117596Y-31557452D01*
X40105500Y-31551405D01*
X40093405Y-31539310D01*
X40087357Y-31515119D01*
X40087357Y-31472786D01*
X40093405Y-31448595D01*
X40105500Y-31436500D01*
X40117596Y-31430452D01*
X40226453Y-31557452D02*
X40226453Y-31430452D01*
X40299025Y-31557452D01*
X40299025Y-31430452D01*
X40359501Y-31557452D02*
X40359501Y-31430452D01*
X40432073Y-31557452D01*
X40432073Y-31430452D01*
X40462311Y-31569548D02*
X40559073Y-31569548D01*
X40613502Y-31430452D02*
X40625597Y-31430452D01*
X40637692Y-31436500D01*
X40643740Y-31442548D01*
X40649787Y-31454643D01*
X40655835Y-31478833D01*
X40655835Y-31509071D01*
X40649787Y-31533262D01*
X40643740Y-31545357D01*
X40637692Y-31551405D01*
X40625597Y-31557452D01*
X40613502Y-31557452D01*
X40601406Y-31551405D01*
X40595359Y-31545357D01*
X40589311Y-31533262D01*
X40583263Y-31509071D01*
X40583263Y-31478833D01*
X40589311Y-31454643D01*
X40595359Y-31442548D01*
X40601406Y-31436500D01*
X40613502Y-31430452D01*
X40776787Y-31557452D02*
X40704215Y-31557452D01*
X40740501Y-31557452D02*
X40740501Y-31430452D01*
X40728406Y-31448595D01*
X40716311Y-31460690D01*
X40704215Y-31466738D01*
X40819120Y-31430452D02*
X40903787Y-31557452D01*
X40903787Y-31430452D02*
X40819120Y-31557452D01*
X40976358Y-31430452D02*
X40988453Y-31430452D01*
X41000548Y-31436500D01*
X41006596Y-31442548D01*
X41012643Y-31454643D01*
X41018691Y-31478833D01*
X41018691Y-31509071D01*
X41012643Y-31533262D01*
X41006596Y-31545357D01*
X41000548Y-31551405D01*
X40988453Y-31557452D01*
X40976358Y-31557452D01*
X40964262Y-31551405D01*
X40958215Y-31545357D01*
X40952167Y-31533262D01*
X40946119Y-31509071D01*
X40946119Y-31478833D01*
X40952167Y-31454643D01*
X40958215Y-31442548D01*
X40964262Y-31436500D01*
X40976358Y-31430452D01*
X41091262Y-31484881D02*
X41079167Y-31478833D01*
X41073119Y-31472786D01*
X41067071Y-31460690D01*
X41067071Y-31454643D01*
X41073119Y-31442548D01*
X41079167Y-31436500D01*
X41091262Y-31430452D01*
X41115452Y-31430452D01*
X41127548Y-31436500D01*
X41133595Y-31442548D01*
X41139643Y-31454643D01*
X41139643Y-31460690D01*
X41133595Y-31472786D01*
X41127548Y-31478833D01*
X41115452Y-31484881D01*
X41091262Y-31484881D01*
X41079167Y-31490929D01*
X41073119Y-31496976D01*
X41067071Y-31509071D01*
X41067071Y-31533262D01*
X41073119Y-31545357D01*
X41079167Y-31551405D01*
X41091262Y-31557452D01*
X41115452Y-31557452D01*
X41127548Y-31551405D01*
X41133595Y-31545357D01*
X41139643Y-31533262D01*
X41139643Y-31509071D01*
X41133595Y-31496976D01*
X41127548Y-31490929D01*
X41115452Y-31484881D01*
X52357452Y-43793738D02*
X52230452Y-43793738D01*
X52230452Y-43745357D01*
X52236500Y-43733262D01*
X52242548Y-43727214D01*
X52254643Y-43721166D01*
X52272786Y-43721166D01*
X52284881Y-43727214D01*
X52290929Y-43733262D01*
X52296976Y-43745357D01*
X52296976Y-43793738D01*
X52230452Y-43606262D02*
X52230452Y-43666738D01*
X52290929Y-43672786D01*
X52284881Y-43666738D01*
X52278833Y-43654643D01*
X52278833Y-43624405D01*
X52284881Y-43612309D01*
X52290929Y-43606262D01*
X52303024Y-43600214D01*
X52333262Y-43600214D01*
X52345357Y-43606262D01*
X52351405Y-43612309D01*
X52357452Y-43624405D01*
X52357452Y-43654643D01*
X52351405Y-43666738D01*
X52345357Y-43672786D01*
X52345357Y-44211023D02*
X52351405Y-44217071D01*
X52357452Y-44235214D01*
X52357452Y-44247309D01*
X52351405Y-44265452D01*
X52339310Y-44277547D01*
X52327214Y-44283595D01*
X52303024Y-44289643D01*
X52284881Y-44289643D01*
X52260690Y-44283595D01*
X52248595Y-44277547D01*
X52236500Y-44265452D01*
X52230452Y-44247309D01*
X52230452Y-44235214D01*
X52236500Y-44217071D01*
X52242548Y-44211023D01*
X52230452Y-44132404D02*
X52230452Y-44108214D01*
X52236500Y-44096119D01*
X52248595Y-44084023D01*
X52272786Y-44077976D01*
X52315119Y-44077976D01*
X52339310Y-44084023D01*
X52351405Y-44096119D01*
X52357452Y-44108214D01*
X52357452Y-44132404D01*
X52351405Y-44144500D01*
X52339310Y-44156595D01*
X52315119Y-44162643D01*
X52272786Y-44162643D01*
X52248595Y-44156595D01*
X52236500Y-44144500D01*
X52230452Y-44132404D01*
X52357452Y-44023547D02*
X52230452Y-44023547D01*
X52357452Y-43950975D01*
X52230452Y-43950975D01*
X52357452Y-43890499D02*
X52230452Y-43890499D01*
X52357452Y-43817927D01*
X52230452Y-43817927D01*
X52369548Y-43787689D02*
X52369548Y-43690927D01*
X52230452Y-43636498D02*
X52230452Y-43624403D01*
X52236500Y-43612308D01*
X52242548Y-43606260D01*
X52254643Y-43600213D01*
X52278833Y-43594165D01*
X52309071Y-43594165D01*
X52333262Y-43600213D01*
X52345357Y-43606260D01*
X52351405Y-43612308D01*
X52357452Y-43624403D01*
X52357452Y-43636498D01*
X52351405Y-43648594D01*
X52345357Y-43654641D01*
X52333262Y-43660689D01*
X52309071Y-43666737D01*
X52278833Y-43666737D01*
X52254643Y-43660689D01*
X52242548Y-43654641D01*
X52236500Y-43648594D01*
X52230452Y-43636498D01*
X52357452Y-43473213D02*
X52357452Y-43545785D01*
X52357452Y-43509499D02*
X52230452Y-43509499D01*
X52248595Y-43521594D01*
X52260690Y-43533689D01*
X52266738Y-43545785D01*
X52230452Y-43430880D02*
X52357452Y-43346213D01*
X52230452Y-43346213D02*
X52357452Y-43430880D01*
X52230452Y-43273642D02*
X52230452Y-43261547D01*
X52236500Y-43249452D01*
X52242548Y-43243404D01*
X52254643Y-43237357D01*
X52278833Y-43231309D01*
X52309071Y-43231309D01*
X52333262Y-43237357D01*
X52345357Y-43243404D01*
X52351405Y-43249452D01*
X52357452Y-43261547D01*
X52357452Y-43273642D01*
X52351405Y-43285738D01*
X52345357Y-43291785D01*
X52333262Y-43297833D01*
X52309071Y-43303881D01*
X52278833Y-43303881D01*
X52254643Y-43297833D01*
X52242548Y-43291785D01*
X52236500Y-43285738D01*
X52230452Y-43273642D01*
X52230452Y-43122452D02*
X52230452Y-43146643D01*
X52236500Y-43158738D01*
X52242548Y-43164786D01*
X52260690Y-43176881D01*
X52284881Y-43182929D01*
X52333262Y-43182929D01*
X52345357Y-43176881D01*
X52351405Y-43170833D01*
X52357452Y-43158738D01*
X52357452Y-43134548D01*
X52351405Y-43122452D01*
X52345357Y-43116405D01*
X52333262Y-43110357D01*
X52303024Y-43110357D01*
X52290929Y-43116405D01*
X52284881Y-43122452D01*
X52278833Y-43134548D01*
X52278833Y-43158738D01*
X52284881Y-43170833D01*
X52290929Y-43176881D01*
X52303024Y-43182929D01*
D17*
X60492590Y-59524653D02*
X60521135Y-59439019D01*
X60521135Y-59296295D01*
X60492590Y-59239205D01*
X60464046Y-59210661D01*
X60406956Y-59182116D01*
X60349867Y-59182116D01*
X60292777Y-59210661D01*
X60264232Y-59239205D01*
X60235688Y-59296295D01*
X60207143Y-59410474D01*
X60178598Y-59467563D01*
X60150053Y-59496108D01*
X60092964Y-59524653D01*
X60035874Y-59524653D01*
X59978785Y-59496108D01*
X59950240Y-59467563D01*
X59921695Y-59410474D01*
X59921695Y-59267750D01*
X59950240Y-59182116D01*
X59921695Y-58982303D02*
X60521135Y-58839579D01*
X60092964Y-58725400D01*
X60521135Y-58611221D01*
X59921695Y-58468497D01*
X59978785Y-58268684D02*
X59950240Y-58240139D01*
X59921695Y-58183050D01*
X59921695Y-58040326D01*
X59950240Y-57983236D01*
X59978785Y-57954692D01*
X60035874Y-57926147D01*
X60092964Y-57926147D01*
X60178598Y-57954692D01*
X60521135Y-58297229D01*
X60521135Y-57926147D01*
X59571175Y-59570614D02*
X59285728Y-59770427D01*
X59571175Y-59913151D02*
X58971735Y-59913151D01*
X58971735Y-59684793D01*
X59000280Y-59627704D01*
X59028825Y-59599159D01*
X59085914Y-59570614D01*
X59171549Y-59570614D01*
X59228638Y-59599159D01*
X59257183Y-59627704D01*
X59285728Y-59684793D01*
X59285728Y-59913151D01*
X59257183Y-59313711D02*
X59257183Y-59113898D01*
X59571175Y-59028264D02*
X59571175Y-59313711D01*
X58971735Y-59313711D01*
X58971735Y-59028264D01*
X59542630Y-58799906D02*
X59571175Y-58714272D01*
X59571175Y-58571548D01*
X59542630Y-58514458D01*
X59514086Y-58485914D01*
X59456996Y-58457369D01*
X59399907Y-58457369D01*
X59342817Y-58485914D01*
X59314272Y-58514458D01*
X59285728Y-58571548D01*
X59257183Y-58685727D01*
X59228638Y-58742816D01*
X59200093Y-58771361D01*
X59143004Y-58799906D01*
X59085914Y-58799906D01*
X59028825Y-58771361D01*
X59000280Y-58742816D01*
X58971735Y-58685727D01*
X58971735Y-58543003D01*
X59000280Y-58457369D01*
X59257183Y-58200466D02*
X59257183Y-58000653D01*
X59571175Y-57915019D02*
X59571175Y-58200466D01*
X58971735Y-58200466D01*
X58971735Y-57915019D01*
X58971735Y-57743750D02*
X58971735Y-57401213D01*
X59571175Y-57572482D02*
X58971735Y-57572482D01*
X58592670Y-29473853D02*
X58621215Y-29388219D01*
X58621215Y-29245495D01*
X58592670Y-29188405D01*
X58564126Y-29159861D01*
X58507036Y-29131316D01*
X58449947Y-29131316D01*
X58392857Y-29159861D01*
X58364312Y-29188405D01*
X58335768Y-29245495D01*
X58307223Y-29359674D01*
X58278678Y-29416763D01*
X58250133Y-29445308D01*
X58193044Y-29473853D01*
X58135954Y-29473853D01*
X58078865Y-29445308D01*
X58050320Y-29416763D01*
X58021775Y-29359674D01*
X58021775Y-29216950D01*
X58050320Y-29131316D01*
X58021775Y-28931503D02*
X58621215Y-28788779D01*
X58193044Y-28674600D01*
X58621215Y-28560421D01*
X58021775Y-28417697D01*
X58021775Y-28246429D02*
X58021775Y-27875347D01*
X58250133Y-28075160D01*
X58250133Y-27989526D01*
X58278678Y-27932436D01*
X58307223Y-27903892D01*
X58364312Y-27875347D01*
X58507036Y-27875347D01*
X58564126Y-27903892D01*
X58592670Y-27932436D01*
X58621215Y-27989526D01*
X58621215Y-28160794D01*
X58592670Y-28217884D01*
X58564126Y-28246429D01*
X59571175Y-29798973D02*
X58971735Y-29798973D01*
X58971735Y-29570615D01*
X59000280Y-29513526D01*
X59028825Y-29484981D01*
X59085914Y-29456436D01*
X59171549Y-29456436D01*
X59228638Y-29484981D01*
X59257183Y-29513526D01*
X59285728Y-29570615D01*
X59285728Y-29798973D01*
X59571175Y-28856996D02*
X59285728Y-29056809D01*
X59571175Y-29199533D02*
X58971735Y-29199533D01*
X58971735Y-28971175D01*
X59000280Y-28914086D01*
X59028825Y-28885541D01*
X59085914Y-28856996D01*
X59171549Y-28856996D01*
X59228638Y-28885541D01*
X59257183Y-28914086D01*
X59285728Y-28971175D01*
X59285728Y-29199533D01*
X59000280Y-28286101D02*
X58971735Y-28343190D01*
X58971735Y-28428825D01*
X59000280Y-28514459D01*
X59057370Y-28571548D01*
X59114459Y-28600093D01*
X59228638Y-28628638D01*
X59314272Y-28628638D01*
X59428451Y-28600093D01*
X59485541Y-28571548D01*
X59542630Y-28514459D01*
X59571175Y-28428825D01*
X59571175Y-28371735D01*
X59542630Y-28286101D01*
X59514086Y-28257556D01*
X59314272Y-28257556D01*
X59314272Y-28371735D01*
X59571175Y-28000653D02*
X58971735Y-28000653D01*
X59399907Y-27800840D01*
X58971735Y-27601027D01*
X59571175Y-27601027D01*
D15*
X28115476Y-62778571D02*
X28020238Y-62845238D01*
X28115476Y-62892857D02*
X27915476Y-62892857D01*
X27915476Y-62816666D01*
X27925000Y-62797619D01*
X27934524Y-62788095D01*
X27953571Y-62778571D01*
X27982143Y-62778571D01*
X28001190Y-62788095D01*
X28010714Y-62797619D01*
X28020238Y-62816666D01*
X28020238Y-62892857D01*
X28115476Y-62588095D02*
X28115476Y-62702381D01*
X28115476Y-62645238D02*
X27915476Y-62645238D01*
X27944048Y-62664286D01*
X27963095Y-62683333D01*
X27972619Y-62702381D01*
X27915476Y-62521429D02*
X27915476Y-62397619D01*
X27991667Y-62464286D01*
X27991667Y-62435714D01*
X28001190Y-62416667D01*
X28010714Y-62407143D01*
X28029762Y-62397619D01*
X28077381Y-62397619D01*
X28096429Y-62407143D01*
X28105952Y-62416667D01*
X28115476Y-62435714D01*
X28115476Y-62492857D01*
X28105952Y-62511905D01*
X28096429Y-62521429D01*
X27515476Y-62769047D02*
X27515476Y-62883333D01*
X27515476Y-62826190D02*
X27315476Y-62826190D01*
X27344048Y-62845238D01*
X27363095Y-62864285D01*
X27372619Y-62883333D01*
X27315476Y-62645238D02*
X27315476Y-62626190D01*
X27325000Y-62607142D01*
X27334524Y-62597619D01*
X27353571Y-62588095D01*
X27391667Y-62578571D01*
X27439286Y-62578571D01*
X27477381Y-62588095D01*
X27496429Y-62597619D01*
X27505952Y-62607142D01*
X27515476Y-62626190D01*
X27515476Y-62645238D01*
X27505952Y-62664285D01*
X27496429Y-62673809D01*
X27477381Y-62683333D01*
X27439286Y-62692857D01*
X27391667Y-62692857D01*
X27353571Y-62683333D01*
X27334524Y-62673809D01*
X27325000Y-62664285D01*
X27315476Y-62645238D01*
X27515476Y-62492857D02*
X27315476Y-62492857D01*
X27439286Y-62473809D02*
X27515476Y-62416666D01*
X27382143Y-62416666D02*
X27458333Y-62492857D01*
X27665476Y-24878571D02*
X27570238Y-24945238D01*
X27665476Y-24992857D02*
X27465476Y-24992857D01*
X27465476Y-24916666D01*
X27475000Y-24897619D01*
X27484524Y-24888095D01*
X27503571Y-24878571D01*
X27532143Y-24878571D01*
X27551190Y-24888095D01*
X27560714Y-24897619D01*
X27570238Y-24916666D01*
X27570238Y-24992857D01*
X27665476Y-24688095D02*
X27665476Y-24802381D01*
X27665476Y-24745238D02*
X27465476Y-24745238D01*
X27494048Y-24764286D01*
X27513095Y-24783333D01*
X27522619Y-24802381D01*
X27532143Y-24516667D02*
X27665476Y-24516667D01*
X27455952Y-24564286D02*
X27598810Y-24611905D01*
X27598810Y-24488095D01*
X28265476Y-24869047D02*
X28265476Y-24983333D01*
X28265476Y-24926190D02*
X28065476Y-24926190D01*
X28094048Y-24945238D01*
X28113095Y-24964285D01*
X28122619Y-24983333D01*
X28065476Y-24745238D02*
X28065476Y-24726190D01*
X28075000Y-24707142D01*
X28084524Y-24697619D01*
X28103571Y-24688095D01*
X28141667Y-24678571D01*
X28189286Y-24678571D01*
X28227381Y-24688095D01*
X28246429Y-24697619D01*
X28255952Y-24707142D01*
X28265476Y-24726190D01*
X28265476Y-24745238D01*
X28255952Y-24764285D01*
X28246429Y-24773809D01*
X28227381Y-24783333D01*
X28189286Y-24792857D01*
X28141667Y-24792857D01*
X28103571Y-24783333D01*
X28084524Y-24773809D01*
X28075000Y-24764285D01*
X28065476Y-24745238D01*
X28265476Y-24592857D02*
X28065476Y-24592857D01*
X28189286Y-24573809D02*
X28265476Y-24516666D01*
X28132143Y-24516666D02*
X28208333Y-24592857D01*
D18*
X66745334Y-56911238D02*
X66890477Y-56959619D01*
X67132381Y-56959619D01*
X67229143Y-56911238D01*
X67277524Y-56862857D01*
X67325905Y-56766095D01*
X67325905Y-56669333D01*
X67277524Y-56572571D01*
X67229143Y-56524190D01*
X67132381Y-56475810D01*
X66938858Y-56427429D01*
X66842096Y-56379048D01*
X66793715Y-56330667D01*
X66745334Y-56233905D01*
X66745334Y-56137143D01*
X66793715Y-56040381D01*
X66842096Y-55992000D01*
X66938858Y-55943619D01*
X67180762Y-55943619D01*
X67325905Y-55992000D01*
X67664572Y-55943619D02*
X67906477Y-56959619D01*
X68100000Y-56233905D01*
X68293524Y-56959619D01*
X68535429Y-55943619D01*
X69454667Y-56959619D02*
X68874096Y-56959619D01*
X69164382Y-56959619D02*
X69164382Y-55943619D01*
X69067620Y-56088762D01*
X68970858Y-56185524D01*
X68874096Y-56233905D01*
D17*
X29492590Y-30524653D02*
X29521135Y-30439019D01*
X29521135Y-30296295D01*
X29492590Y-30239205D01*
X29464046Y-30210661D01*
X29406956Y-30182116D01*
X29349867Y-30182116D01*
X29292777Y-30210661D01*
X29264232Y-30239205D01*
X29235688Y-30296295D01*
X29207143Y-30410474D01*
X29178598Y-30467563D01*
X29150053Y-30496108D01*
X29092964Y-30524653D01*
X29035874Y-30524653D01*
X28978785Y-30496108D01*
X28950240Y-30467563D01*
X28921695Y-30410474D01*
X28921695Y-30267750D01*
X28950240Y-30182116D01*
X28921695Y-29982303D02*
X29521135Y-29839579D01*
X29092964Y-29725400D01*
X29521135Y-29611221D01*
X28921695Y-29468497D01*
X29121509Y-28983236D02*
X29521135Y-28983236D01*
X28893150Y-29125960D02*
X29321322Y-29268684D01*
X29321322Y-28897602D01*
X28571175Y-30599160D02*
X27971735Y-30599160D01*
X28257183Y-30599160D02*
X28257183Y-30256623D01*
X28571175Y-30256623D02*
X27971735Y-30256623D01*
X28514086Y-29628638D02*
X28542630Y-29657183D01*
X28571175Y-29742817D01*
X28571175Y-29799907D01*
X28542630Y-29885541D01*
X28485541Y-29942630D01*
X28428451Y-29971175D01*
X28314272Y-29999720D01*
X28228638Y-29999720D01*
X28114459Y-29971175D01*
X28057370Y-29942630D01*
X28000280Y-29885541D01*
X27971735Y-29799907D01*
X27971735Y-29742817D01*
X28000280Y-29657183D01*
X28028825Y-29628638D01*
X28571175Y-29371735D02*
X27971735Y-29371735D01*
X28028825Y-29114832D02*
X28000280Y-29086287D01*
X27971735Y-29029198D01*
X27971735Y-28886474D01*
X28000280Y-28829384D01*
X28028825Y-28800840D01*
X28085914Y-28772295D01*
X28143004Y-28772295D01*
X28228638Y-28800840D01*
X28571175Y-29143377D01*
X28571175Y-28772295D01*
X29492590Y-58524653D02*
X29521135Y-58439019D01*
X29521135Y-58296295D01*
X29492590Y-58239205D01*
X29464046Y-58210661D01*
X29406956Y-58182116D01*
X29349867Y-58182116D01*
X29292777Y-58210661D01*
X29264232Y-58239205D01*
X29235688Y-58296295D01*
X29207143Y-58410474D01*
X29178598Y-58467563D01*
X29150053Y-58496108D01*
X29092964Y-58524653D01*
X29035874Y-58524653D01*
X28978785Y-58496108D01*
X28950240Y-58467563D01*
X28921695Y-58410474D01*
X28921695Y-58267750D01*
X28950240Y-58182116D01*
X28921695Y-57982303D02*
X29521135Y-57839579D01*
X29092964Y-57725400D01*
X29521135Y-57611221D01*
X28921695Y-57468497D01*
X28921695Y-56954692D02*
X28921695Y-57240139D01*
X29207143Y-57268684D01*
X29178598Y-57240139D01*
X29150053Y-57183050D01*
X29150053Y-57040326D01*
X29178598Y-56983236D01*
X29207143Y-56954692D01*
X29264232Y-56926147D01*
X29406956Y-56926147D01*
X29464046Y-56954692D01*
X29492590Y-56983236D01*
X29521135Y-57040326D01*
X29521135Y-57183050D01*
X29492590Y-57240139D01*
X29464046Y-57268684D01*
X28571175Y-58599160D02*
X27971735Y-58599160D01*
X28257183Y-58599160D02*
X28257183Y-58256623D01*
X28571175Y-58256623D02*
X27971735Y-58256623D01*
X28514086Y-57628638D02*
X28542630Y-57657183D01*
X28571175Y-57742817D01*
X28571175Y-57799907D01*
X28542630Y-57885541D01*
X28485541Y-57942630D01*
X28428451Y-57971175D01*
X28314272Y-57999720D01*
X28228638Y-57999720D01*
X28114459Y-57971175D01*
X28057370Y-57942630D01*
X28000280Y-57885541D01*
X27971735Y-57799907D01*
X27971735Y-57742817D01*
X28000280Y-57657183D01*
X28028825Y-57628638D01*
X28571175Y-57371735D02*
X27971735Y-57371735D01*
X28571175Y-56772295D02*
X28571175Y-57114832D01*
X28571175Y-56943563D02*
X27971735Y-56943563D01*
X28057370Y-57000653D01*
X28114459Y-57057742D01*
X28143004Y-57114832D01*
D15*
X64716667Y-57065476D02*
X64650000Y-56970238D01*
X64602381Y-57065476D02*
X64602381Y-56865476D01*
X64678572Y-56865476D01*
X64697619Y-56875000D01*
X64707143Y-56884524D01*
X64716667Y-56903571D01*
X64716667Y-56932143D01*
X64707143Y-56951190D01*
X64697619Y-56960714D01*
X64678572Y-56970238D01*
X64602381Y-56970238D01*
X64897619Y-56865476D02*
X64802381Y-56865476D01*
X64792857Y-56960714D01*
X64802381Y-56951190D01*
X64821429Y-56941667D01*
X64869048Y-56941667D01*
X64888095Y-56951190D01*
X64897619Y-56960714D01*
X64907143Y-56979762D01*
X64907143Y-57027381D01*
X64897619Y-57046429D01*
X64888095Y-57055952D01*
X64869048Y-57065476D01*
X64821429Y-57065476D01*
X64802381Y-57055952D01*
X64792857Y-57046429D01*
X64578572Y-57484524D02*
X64588096Y-57475000D01*
X64607144Y-57465476D01*
X64654763Y-57465476D01*
X64673810Y-57475000D01*
X64683334Y-57484524D01*
X64692858Y-57503571D01*
X64692858Y-57522619D01*
X64683334Y-57551190D01*
X64569048Y-57665476D01*
X64692858Y-57665476D01*
X64778572Y-57665476D02*
X64778572Y-57465476D01*
X64845239Y-57608333D01*
X64911905Y-57465476D01*
X64911905Y-57665476D01*
X64721429Y-59015476D02*
X64654762Y-58920238D01*
X64607143Y-59015476D02*
X64607143Y-58815476D01*
X64683334Y-58815476D01*
X64702381Y-58825000D01*
X64711905Y-58834524D01*
X64721429Y-58853571D01*
X64721429Y-58882143D01*
X64711905Y-58901190D01*
X64702381Y-58910714D01*
X64683334Y-58920238D01*
X64607143Y-58920238D01*
X64911905Y-59015476D02*
X64797619Y-59015476D01*
X64854762Y-59015476D02*
X64854762Y-58815476D01*
X64835714Y-58844048D01*
X64816667Y-58863095D01*
X64797619Y-58872619D01*
X65092857Y-58815476D02*
X64997619Y-58815476D01*
X64988095Y-58910714D01*
X64997619Y-58901190D01*
X65016667Y-58891667D01*
X65064286Y-58891667D01*
X65083333Y-58901190D01*
X65092857Y-58910714D01*
X65102381Y-58929762D01*
X65102381Y-58977381D01*
X65092857Y-58996429D01*
X65083333Y-59005952D01*
X65064286Y-59015476D01*
X65016667Y-59015476D01*
X64997619Y-59005952D01*
X64988095Y-58996429D01*
X64492857Y-58215476D02*
X64616667Y-58215476D01*
X64550000Y-58291667D01*
X64578572Y-58291667D01*
X64597619Y-58301190D01*
X64607143Y-58310714D01*
X64616667Y-58329762D01*
X64616667Y-58377381D01*
X64607143Y-58396429D01*
X64597619Y-58405952D01*
X64578572Y-58415476D01*
X64521429Y-58415476D01*
X64502381Y-58405952D01*
X64492857Y-58396429D01*
X64683333Y-58215476D02*
X64807143Y-58215476D01*
X64740476Y-58291667D01*
X64769048Y-58291667D01*
X64788095Y-58301190D01*
X64797619Y-58310714D01*
X64807143Y-58329762D01*
X64807143Y-58377381D01*
X64797619Y-58396429D01*
X64788095Y-58405952D01*
X64769048Y-58415476D01*
X64711905Y-58415476D01*
X64692857Y-58405952D01*
X64683333Y-58396429D01*
X64930952Y-58215476D02*
X64950000Y-58215476D01*
X64969048Y-58225000D01*
X64978571Y-58234524D01*
X64988095Y-58253571D01*
X64997619Y-58291667D01*
X64997619Y-58339286D01*
X64988095Y-58377381D01*
X64978571Y-58396429D01*
X64969048Y-58405952D01*
X64950000Y-58415476D01*
X64930952Y-58415476D01*
X64911905Y-58405952D01*
X64902381Y-58396429D01*
X64892857Y-58377381D01*
X64883333Y-58339286D01*
X64883333Y-58291667D01*
X64892857Y-58253571D01*
X64902381Y-58234524D01*
X64911905Y-58225000D01*
X64930952Y-58215476D01*
X65083333Y-58415476D02*
X65083333Y-58215476D01*
X65197619Y-58415476D02*
X65111904Y-58301190D01*
X65197619Y-58215476D02*
X65083333Y-58329762D01*
M02*
