G04 #@! TF.FileFunction,Soldermask,Bot*
%FSLAX46Y46*%
G04 Gerber Fmt 4.6, Leading zero omitted, Abs format (unit mm)*
G04 Created by KiCad (PCBNEW 4.0.2-stable) date Friday, May 27, 2016 'pmt' 03:10:38 pm*
%MOMM*%
G01*
G04 APERTURE LIST*
%ADD10C,0.100000*%
%ADD11R,0.800100X0.800100*%
%ADD12R,1.108360X0.554640*%
%ADD13R,0.539400X0.958500*%
%ADD14R,1.908460X2.657760*%
%ADD15R,1.800000X1.600000*%
%ADD16R,2.032000X2.032000*%
%ADD17O,2.032000X2.032000*%
%ADD18R,1.727200X2.032000*%
%ADD19O,1.727200X2.032000*%
%ADD20R,0.760380X1.060100*%
%ADD21R,1.897380X1.897380*%
%ADD22R,1.897380X1.899920*%
%ADD23R,1.897380X1.795780*%
%ADD24R,1.597660X2.095500*%
%ADD25R,1.346200X0.398780*%
%ADD26C,1.500000*%
%ADD27R,1.500000X1.500000*%
%ADD28R,1.800000X3.000000*%
%ADD29C,4.064000*%
%ADD30C,1.524000*%
%ADD31R,0.698500X0.248920*%
%ADD32R,0.248920X0.698500*%
%ADD33R,2.499360X2.499360*%
G04 APERTURE END LIST*
D10*
X14300000Y-13700000D02*
X74300000Y-13700000D01*
X74300000Y-73700000D02*
X74300000Y-13700000D01*
X14300000Y-73700000D02*
X74300000Y-73700000D01*
X14300000Y-13700000D02*
X14300000Y-73700000D01*
D11*
X62000000Y-31849900D03*
X62000000Y-33450100D03*
X62400100Y-24500000D03*
X60799900Y-24500000D03*
X57499900Y-43000000D03*
X59100100Y-43000000D03*
X57449900Y-50900000D03*
X59050100Y-50900000D03*
X57449900Y-49150000D03*
X59050100Y-49150000D03*
X44600100Y-42000000D03*
X42999900Y-42000000D03*
X44600100Y-40300000D03*
X42999900Y-40300000D03*
X39800000Y-39500100D03*
X39800000Y-37899900D03*
X40599900Y-46600000D03*
X42200100Y-46600000D03*
D12*
X57526800Y-46898220D03*
X57526800Y-46397840D03*
X57526800Y-45900000D03*
X57526800Y-45402160D03*
X57526800Y-44901780D03*
X60473200Y-44901780D03*
X60473200Y-45402160D03*
X60473200Y-45900000D03*
X60473200Y-46397840D03*
X60473200Y-46898220D03*
D13*
X59248920Y-47398600D03*
X58751080Y-47398600D03*
X59248920Y-44401400D03*
X58751080Y-44401400D03*
D14*
X59000000Y-45900000D03*
D15*
X55300000Y-45100000D03*
X55300000Y-42300000D03*
D16*
X68900000Y-49700000D03*
D17*
X71440000Y-49700000D03*
D18*
X22300000Y-34700000D03*
D19*
X19760000Y-34700000D03*
X17220000Y-34700000D03*
D11*
X57550000Y-32000100D03*
X57550000Y-30399900D03*
X59900000Y-31849900D03*
X59900000Y-33450100D03*
X63250000Y-46200100D03*
X63250000Y-44599900D03*
X63050100Y-50900000D03*
X61449900Y-50900000D03*
X63250000Y-43200100D03*
X63250000Y-41599900D03*
X61449900Y-49150000D03*
X63050100Y-49150000D03*
X47100100Y-47900000D03*
X45499900Y-47900000D03*
X47100100Y-49500000D03*
X45499900Y-49500000D03*
X38200000Y-39500100D03*
X38200000Y-37899900D03*
D20*
X59950040Y-27051120D03*
X60900000Y-27051120D03*
X61849960Y-27051120D03*
X59950040Y-29448880D03*
X61849960Y-29448880D03*
D21*
X71652200Y-39901120D03*
D22*
X71652200Y-42298880D03*
D23*
X71652200Y-44899840D03*
D24*
X69102040Y-38001200D03*
D25*
X68975040Y-39802060D03*
X68975040Y-40452300D03*
X68975040Y-41100000D03*
X68975040Y-41747700D03*
X68975040Y-42397940D03*
D24*
X69102040Y-44198800D03*
D23*
X71652200Y-37300160D03*
D11*
X57550000Y-26999900D03*
X57550000Y-28600100D03*
D26*
X47500000Y-56900000D03*
X45500000Y-56900000D03*
X43500000Y-56900000D03*
X41500000Y-56900000D03*
X39500000Y-56900000D03*
X37500000Y-56900000D03*
D27*
X33500000Y-56900000D03*
D26*
X35500000Y-56900000D03*
X47550000Y-31500000D03*
X45550000Y-31500000D03*
X43550000Y-31500000D03*
X41550000Y-31500000D03*
X39550000Y-31500000D03*
X37550000Y-31500000D03*
D27*
X33550000Y-31500000D03*
D26*
X35550000Y-31500000D03*
X52300000Y-38700000D03*
X52300000Y-40700000D03*
X52300000Y-42700000D03*
X52300000Y-44700000D03*
D27*
X52300000Y-48700000D03*
D26*
X52300000Y-46700000D03*
D28*
X60770000Y-38700000D03*
X58230000Y-38700000D03*
D29*
X69300000Y-68700000D03*
X19300000Y-68700000D03*
X69300000Y-18700000D03*
X19300000Y-18700000D03*
D30*
X66101020Y-53500000D03*
X68100000Y-53500000D03*
X70098980Y-53500000D03*
D31*
X37600080Y-44549680D03*
X37600080Y-44049300D03*
X37600080Y-43548920D03*
X37600080Y-43051080D03*
X37600080Y-42550700D03*
X37600080Y-42050320D03*
D32*
X38250320Y-41400080D03*
X38750700Y-41400080D03*
X39251080Y-41400080D03*
X39748920Y-41400080D03*
X40249300Y-41400080D03*
X40749680Y-41400080D03*
D31*
X41399920Y-42050320D03*
X41399920Y-42550700D03*
X41399920Y-43051080D03*
X41399920Y-43548920D03*
X41399920Y-44049300D03*
X41399920Y-44549680D03*
D32*
X40749680Y-45199920D03*
X40249300Y-45199920D03*
X39748920Y-45199920D03*
X39251080Y-45199920D03*
X38750700Y-45199920D03*
X38250320Y-45199920D03*
D33*
X39500000Y-43300000D03*
M02*
