<?xml version="1.0" encoding="utf-8"?>
<!-- Generator: Adobe Illustrator 16.0.0, SVG Export Plug-In . SVG Version: 6.00 Build 0)  -->
<!DOCTYPE svg PUBLIC "-//W3C//DTD SVG 1.1//EN" "http://www.w3.org/Graphics/SVG/1.1/DTD/svg11.dtd">
<svg version="1.1" xmlns="http://www.w3.org/2000/svg" xmlns:xlink="http://www.w3.org/1999/xlink" x="0px" y="0px"
	 width="170.928px" height="170.496px" viewBox="0 0 170.928 170.496" enable-background="new 0 0 170.928 170.496"
	 xml:space="preserve">
<g id="Layer_1">
	<title>SVG Picture created as dreamIO_board-F.Paste.svg date 2016/06/06 16:08:58</title>
	<desc>Picture generated by PCBNEW</desc>
	<g transform="translate(0 0) scale(1 1)">
	</g>
	<g>
		<path fill-opacity="0" d="M0.281,0.281H170.36"/>
		<path fill-opacity="0" d="M170.36,170.359V0.281"/>
		<path fill-opacity="0" d="M0.281,170.359H170.36"/>
		<path fill-opacity="0" d="M0.281,0.281v170.079"/>
	</g>
	<g>
		<polyline points="43.647,24.372 43.647,22.104 45.914,22.104 45.914,24.372 43.647,24.372 		"/>
		<polyline points="48.183,24.372 48.183,22.104 50.45,22.104 50.45,24.372 48.183,24.372 		"/>
		<polyline points="88.156,23.811 88.156,21.542 90.425,21.542 90.425,23.811 88.156,23.811 		"/>
		<polyline points="92.693,23.811 92.693,21.542 94.961,21.542 94.961,23.811 92.693,23.811 		"/>
		<polyline points="131.241,24.091 131.241,21.823 133.51,21.823 133.51,24.091 131.241,24.091 		"/>
		<polyline points="135.778,24.091 135.778,21.823 138.045,21.823 138.045,24.091 135.778,24.091 		"/>
		<polyline points="146.549,43.646 148.817,43.646 148.817,45.915 146.549,45.915 146.549,43.646 		"/>
		<polyline points="146.549,48.183 148.817,48.183 148.817,50.45 146.549,50.45 146.549,48.183 		"/>
		<polyline points="106.863,110.261 109.13,110.261 109.13,112.529 106.863,112.529 106.863,110.261 		"/>
		<polyline points="106.863,114.797 109.13,114.797 109.13,117.064 106.863,117.064 106.863,114.797 		"/>
		<polyline points="101.196,110.261 103.464,110.261 103.464,112.529 101.196,112.529 101.196,110.261 		"/>
		<polyline points="101.196,114.797 103.464,114.797 103.464,117.064 101.196,117.064 101.196,114.797 		"/>
		<polyline points="146.261,87.02 148.529,87.02 148.529,89.287 146.261,89.287 146.261,87.02 		"/>
		<polyline points="146.261,91.555 148.529,91.555 148.529,93.823 146.261,93.823 146.261,91.555 		"/>
		<polyline points="146.261,131.522 148.529,131.522 148.529,133.791 146.261,133.791 146.261,131.522 		"/>
		<polyline points="146.261,136.059 148.529,136.059 148.529,138.326 146.261,138.326 146.261,136.059 		"/>
		<polyline points="126.987,146.83 126.987,149.098 124.718,149.098 124.718,146.83 126.987,146.83 		"/>
		<polyline points="122.45,146.83 122.45,149.098 120.182,149.098 120.182,146.83 122.45,146.83 		"/>
		<polyline points="81.921,146.83 81.921,149.098 79.654,149.098 79.654,146.83 81.921,146.83 		"/>
		<polyline points="77.386,146.83 77.386,149.098 75.117,149.098 75.117,146.83 77.386,146.83 		"/>
		<polyline points="39.117,146.83 39.117,149.098 36.85,149.098 36.85,146.83 39.117,146.83 		"/>
		<polyline points="34.581,146.83 34.581,149.098 32.314,149.098 32.314,146.83 34.581,146.83 		"/>
		<polyline points="23.811,126.986 21.542,126.986 21.542,124.719 23.811,124.719 23.811,126.986 		"/>
		<polyline points="23.811,122.45 21.542,122.45 21.542,120.183 23.811,120.183 23.811,122.45 		"/>
		<polyline points="23.811,82.483 21.542,82.483 21.542,80.215 23.811,80.215 23.811,82.483 		"/>
		<polyline points="23.811,77.947 21.542,77.947 21.542,75.679 23.811,75.679 23.811,77.947 		"/>
		<polyline points="25.51,39.118 23.241,39.118 23.241,36.85 25.51,36.85 25.51,39.118 		"/>
		<polyline points="25.51,34.582 23.241,34.582 23.241,32.313 25.51,32.313 25.51,34.582 		"/>
		<polyline points="36.562,7.085 36.562,9.915 32.314,9.915 32.314,7.085 36.562,7.085 		"/>
		<polyline points="36.562,16.157 36.562,18.986 32.314,18.986 32.314,16.157 36.562,16.157 		"/>
		<polyline points="50.45,16.157 50.45,18.986 46.202,18.986 46.202,16.157 50.45,16.157 		"/>
		<polyline points="50.45,7.085 50.45,9.915 46.202,9.915 46.202,7.085 50.45,7.085 		"/>
		<polyline points="81.065,7.085 81.065,9.915 76.817,9.915 76.817,7.085 81.065,7.085 		"/>
		<polyline points="81.065,16.157 81.065,18.986 76.817,18.986 76.817,16.157 81.065,16.157 		"/>
		<polyline points="94.953,16.157 94.953,18.986 90.705,18.986 90.705,16.157 94.953,16.157 		"/>
		<polyline points="94.953,7.085 94.953,9.915 90.705,9.915 90.705,7.085 94.953,7.085 		"/>
		<polyline points="124.293,7.085 124.293,9.915 120.045,9.915 120.045,7.085 124.293,7.085 		"/>
		<polyline points="124.293,16.157 124.293,18.986 120.045,18.986 120.045,16.157 124.293,16.157 		"/>
		<polyline points="138.182,16.157 138.182,18.986 133.935,18.986 133.935,16.157 138.182,16.157 		"/>
		<polyline points="138.182,7.085 138.182,9.915 133.935,9.915 133.935,7.085 138.182,7.085 		"/>
		<polyline points="163.555,36.562 160.718,36.562 160.718,32.313 163.555,32.313 163.555,36.562 		"/>
		<polyline points="154.484,36.562 151.647,36.562 151.647,32.313 154.484,32.313 154.484,36.562 		"/>
		<polyline points="154.484,50.45 151.647,50.45 151.647,46.202 154.484,46.202 154.484,50.45 		"/>
		<polyline points="163.555,50.45 160.718,50.45 160.718,46.202 163.555,46.202 163.555,50.45 		"/>
		<polyline points="163.555,80.503 160.718,80.503 160.718,76.248 163.555,76.248 163.555,80.503 		"/>
		<polyline points="154.484,80.503 151.647,80.503 151.647,76.248 154.484,76.248 154.484,80.503 		"/>
		<polyline points="154.484,94.393 151.647,94.393 151.647,90.137 154.484,90.137 154.484,94.393 		"/>
		<polyline points="163.555,94.393 160.718,94.393 160.718,90.137 163.555,90.137 163.555,94.393 		"/>
		<polyline points="163.555,124.438 160.718,124.438 160.718,120.183 163.555,120.183 163.555,124.438 		"/>
		<polyline points="154.484,124.438 151.647,124.438 151.647,120.183 154.484,120.183 154.484,124.438 		"/>
		<polyline points="154.484,138.326 151.647,138.326 151.647,134.078 154.484,134.078 154.484,138.326 		"/>
		<polyline points="163.555,138.326 160.718,138.326 160.718,134.078 163.555,134.078 163.555,138.326 		"/>
		<polyline points="134.078,163.555 134.078,160.719 138.326,160.719 138.326,163.555 134.078,163.555 		"/>
		<polyline points="134.078,154.483 134.078,151.646 138.326,151.646 138.326,154.483 134.078,154.483 		"/>
		<polyline points="120.182,154.483 120.182,151.646 124.438,151.646 124.438,154.483 120.182,154.483 		"/>
		<polyline points="120.182,163.555 120.182,160.719 124.438,160.719 124.438,163.555 120.182,163.555 		"/>
		<polyline points="90.137,163.555 90.137,160.719 94.392,160.719 94.392,163.555 90.137,163.555 		"/>
		<polyline points="90.137,154.483 90.137,151.646 94.392,151.646 94.392,154.483 90.137,154.483 		"/>
		<polyline points="76.248,154.483 76.248,151.646 80.503,151.646 80.503,154.483 76.248,154.483 		"/>
		<polyline points="76.248,163.555 76.248,160.719 80.503,160.719 80.503,163.555 76.248,163.555 		"/>
		<polyline points="46.202,163.555 46.202,160.719 50.45,160.719 50.45,163.555 46.202,163.555 		"/>
		<polyline points="46.202,154.483 46.202,151.646 50.45,151.646 50.45,154.483 46.202,154.483 		"/>
		<polyline points="32.314,154.483 32.314,151.646 36.562,151.646 36.562,154.483 32.314,154.483 		"/>
		<polyline points="32.314,163.555 32.314,160.719 36.562,160.719 36.562,163.555 32.314,163.555 		"/>
		<polyline points="7.085,134.078 9.914,134.078 9.914,138.326 7.085,138.326 7.085,134.078 		"/>
		<polyline points="16.156,134.078 18.987,134.078 18.987,138.326 16.156,138.326 16.156,134.078 		"/>
		<polyline points="16.156,120.183 18.987,120.183 18.987,124.438 16.156,124.438 16.156,120.183 		"/>
		<polyline points="7.085,120.183 9.914,120.183 9.914,124.438 7.085,124.438 7.085,120.183 		"/>
		<polyline points="7.085,89.568 9.914,89.568 9.914,93.823 7.085,93.823 7.085,89.568 		"/>
		<polyline points="16.156,89.568 18.987,89.568 18.987,93.823 16.156,93.823 16.156,89.568 		"/>
		<polyline points="16.156,75.679 18.987,75.679 18.987,79.935 16.156,79.935 16.156,75.679 		"/>
		<polyline points="7.085,75.679 9.914,75.679 9.914,79.935 7.085,79.935 7.085,75.679 		"/>
		<polyline points="7.085,46.202 9.914,46.202 9.914,50.45 7.085,50.45 7.085,46.202 		"/>
		<polyline points="16.156,46.202 18.987,46.202 18.987,50.45 16.156,50.45 16.156,46.202 		"/>
		<polyline points="16.156,32.313 18.987,32.313 18.987,36.562 16.156,36.562 16.156,32.313 		"/>
		<polyline points="7.085,32.313 9.914,32.313 9.914,36.562 7.085,36.562 7.085,32.313 		"/>
		<polyline points="67.32,134.078 65.052,134.078 65.052,131.811 67.32,131.811 67.32,134.078 		"/>
		<polyline points="67.32,129.543 65.052,129.543 65.052,127.274 67.32,127.274 67.32,129.543 		"/>
		<polyline points="55.98,134.078 53.712,134.078 53.712,131.811 55.98,131.811 55.98,134.078 		"/>
		<polyline points="55.98,129.543 53.712,129.543 53.712,127.274 55.98,127.274 55.98,129.543 		"/>
		<polyline points="76.392,39.398 78.66,39.398 78.66,41.667 76.392,41.667 76.392,39.398 		"/>
		<polyline points="76.392,43.935 78.66,43.935 78.66,46.202 76.392,46.202 76.392,43.935 		"/>
		<polyline points="82.059,39.398 84.326,39.398 84.326,41.667 82.059,41.667 82.059,39.398 		"/>
		<polyline points="82.059,43.935 84.326,43.935 84.326,46.202 82.059,46.202 82.059,43.935 		"/>
		<polyline points="32.314,24.372 32.314,22.104 34.581,22.104 34.581,24.372 32.314,24.372 		"/>
		<polyline points="36.85,24.372 36.85,22.104 39.117,22.104 39.117,24.372 36.85,24.372 		"/>
		<polyline points="90,46.202 87.732,46.202 87.732,43.935 90,43.935 90,46.202 		"/>
		<polyline points="90,41.667 87.732,41.667 87.732,39.398 90,39.398 90,41.667 		"/>
	</g>
	<g>
		<path fill-opacity="0" d="M101.333,99.519h-3.687"/>
		<path fill-opacity="0" d="M101.333,93.852h-3.687"/>
		<path fill-opacity="0" d="M101.333,88.186h-3.687"/>
		<path fill-opacity="0" d="M101.333,82.512h-3.687"/>
		<path fill-opacity="0" d="M101.333,76.846h-3.687"/>
		<path fill-opacity="0" d="M101.333,71.172h-3.687"/>
	</g>
	<g>
		<polyline points="56.405,111.398 53.287,111.398 53.287,104.594 56.405,104.594 56.405,111.398 		"/>
	</g>
	<g>
		<path fill-opacity="0" d="M60.516,109.836v-3.68"/>
		<path fill-opacity="0" d="M66.182,109.836v-3.68"/>
		<path fill-opacity="0" d="M71.856,109.836v-3.68"/>
		<path fill-opacity="0" d="M77.523,109.836v-3.68"/>
		<path fill-opacity="0" d="M83.196,109.836v-3.68"/>
		<path fill-opacity="0" d="M88.863,109.836v-3.68"/>
		<path fill-opacity="0" d="M94.529,109.836v-3.68"/>
		<path fill-opacity="0" d="M94.529,64.483v-3.687"/>
		<path fill-opacity="0" d="M88.863,64.483v-3.687"/>
		<path fill-opacity="0" d="M83.196,64.483v-3.687"/>
		<path fill-opacity="0" d="M77.523,64.483v-3.687"/>
		<path fill-opacity="0" d="M71.856,64.483v-3.687"/>
		<path fill-opacity="0" d="M66.182,64.483v-3.687"/>
		<path fill-opacity="0" d="M60.516,64.483v-3.687"/>
		<path fill-opacity="0" d="M54.85,64.483v-3.687"/>
	</g>
	<g>
		<polyline points="132.236,112.953 136.202,112.953 136.202,118.908 132.236,118.908 132.236,112.953 		"/>
		<polyline points="119.477,112.953 123.444,112.953 123.444,118.908 119.477,118.908 119.477,112.953 		"/>
		<polyline points="119.477,136.771 123.444,136.771 123.444,142.726 119.477,142.726 119.477,136.771 		"/>
		<polyline points="132.236,136.771 136.202,136.771 136.202,142.726 132.236,142.726 132.236,136.771 		"/>
		<polyline points="123.444,57.687 119.477,57.687 119.477,51.732 123.444,51.732 123.444,57.687 		"/>
		<polyline points="136.202,57.687 132.236,57.687 132.236,51.732 136.202,51.732 136.202,57.687 		"/>
		<polyline points="136.202,33.869 132.236,33.869 132.236,27.915 136.202,27.915 136.202,33.869 		"/>
		<polyline points="123.444,33.869 119.477,33.869 119.477,27.915 123.444,27.915 123.444,33.869 		"/>
		<polyline points="39.679,142.582 37.411,142.582 37.411,140.313 39.679,140.313 39.679,142.582 		"/>
		<polyline points="39.679,138.045 37.411,138.045 37.411,135.777 39.679,135.777 39.679,138.045 		"/>
		<polyline points="37.411,28.059 39.679,28.059 39.679,30.326 37.411,30.326 37.411,28.059 		"/>
		<polyline points="37.411,32.594 39.679,32.594 39.679,34.862 37.411,34.862 37.411,32.594 		"/>
		<polyline points="44.36,30.751 48.326,30.751 48.326,36.706 44.36,36.706 44.36,30.751 		"/>
		<polyline points="31.601,30.751 35.568,30.751 35.568,36.706 31.601,36.706 31.601,30.751 		"/>
		<polyline points="31.601,54.569 35.568,54.569 35.568,60.523 31.601,60.523 31.601,54.569 		"/>
		<polyline points="44.36,54.569 48.326,54.569 48.326,60.523 44.36,60.523 44.36,54.569 		"/>
		<polyline points="44.36,110.117 48.326,110.117 48.326,116.071 44.36,116.071 44.36,110.117 		"/>
		<polyline points="31.601,110.117 35.568,110.117 35.568,116.071 31.601,116.071 31.601,110.117 		"/>
		<polyline points="31.601,133.935 35.568,133.935 35.568,139.889 31.601,139.889 31.601,133.935 		"/>
		<polyline points="44.36,133.935 48.326,133.935 48.326,139.889 44.36,139.889 44.36,133.935 		"/>
		<polyline points="146.829,122.45 146.829,124.719 144.562,124.719 144.562,122.45 146.829,122.45 		"/>
		<polyline points="142.293,122.45 142.293,124.719 140.026,124.719 140.026,122.45 142.293,122.45 		"/>
		<polyline points="140.026,128.974 140.026,126.705 142.293,126.705 142.293,128.974 140.026,128.974 		"/>
		<polyline points="144.562,128.974 144.562,126.705 146.829,126.705 146.829,128.974 144.562,128.974 		"/>
	</g>
</g>
<g id="Layer_2">
	<g>
		<circle fill="none" stroke="#000000" stroke-width="0.001" stroke-miterlimit="10" cx="156.165" cy="156.19" r="4.32"/>
	</g>
	<g>
		<circle fill="none" stroke="#000000" stroke-width="0.001" stroke-miterlimit="10" cx="14.435" cy="156.19" r="4.32"/>
	</g>
	<g>
		<circle fill="none" stroke="#000000" stroke-width="0.001" stroke-miterlimit="10" cx="156.165" cy="14.458" r="4.32"/>
	</g>
	<g>
		<circle fill="none" stroke="#000000" stroke-width="0.001" stroke-miterlimit="10" cx="14.435" cy="14.458" r="4.32"/>
	</g>
</g>
</svg>
