<?xml version="1.0" encoding="utf-8"?>
<!-- Generator: Adobe Illustrator 16.0.0, SVG Export Plug-In . SVG Version: 6.00 Build 0)  -->
<!DOCTYPE svg PUBLIC "-//W3C//DTD SVG 1.1//EN" "http://www.w3.org/Graphics/SVG/1.1/DTD/svg11.dtd">
<svg version="1.1" id="Layer_1" xmlns="http://www.w3.org/2000/svg" xmlns:xlink="http://www.w3.org/1999/xlink" x="0px" y="0px"
	 width="170.928px" height="170.496px" viewBox="0 0 170.928 170.496" enable-background="new 0 0 170.928 170.496"
	 xml:space="preserve">
<title>SVG Picture created as dreamIO_board-B.Cu.svg date 2016/05/27 15:15:01</title>
<desc>Picture generated by PCBNEW</desc>
<g transform="translate(0 0) scale(1 1)">
</g>
<g>
	<path fill="none" stroke="#000000" stroke-linecap="round" stroke-linejoin="round" d="M0.281,0.281h170.079"/>
	<path fill="none" stroke="#000000" stroke-linecap="round" stroke-linejoin="round" d="M170.359,170.359V0.281"/>
	<path fill="none" stroke="#000000" stroke-linecap="round" stroke-linejoin="round" d="M0.281,170.359h170.079"/>
	<path fill="none" stroke="#000000" stroke-linecap="round" stroke-linejoin="round" d="M0.281,0.281v170.079"/>
</g>
<g>
	<polyline fill="none" points="134.359,50.595 136.627,50.595 136.627,52.862 134.359,52.862 134.359,50.595 	"/>
	<polyline fill="none" points="134.359,55.13 136.627,55.13 136.627,57.398 134.359,57.398 134.359,55.13 	"/>
	<polyline fill="none" points="137.758,29.758 137.758,32.025 135.489,32.025 135.489,29.758 137.758,29.758 	"/>
	<polyline fill="none" points="133.222,29.758 133.222,32.025 130.954,32.025 130.954,29.758 133.222,29.758 	"/>
	<polyline fill="none" points="121.601,84.471 121.601,82.202 123.868,82.202 123.868,84.471 121.601,84.471 	"/>
	<polyline fill="none" points="126.137,84.471 126.137,82.202 128.405,82.202 128.405,84.471 126.137,84.471 	"/>
	<polyline fill="none" points="121.464,106.862 121.464,104.595 123.731,104.595 123.731,106.862 121.464,106.862 	"/>
	<polyline fill="none" points="126,106.862 126,104.595 128.269,104.595 128.269,106.862 126,106.862 	"/>
	<polyline fill="none" points="121.464,101.901 121.464,99.634 123.731,99.634 123.731,101.901 121.464,101.901 	"/>
	<polyline fill="none" points="126,101.901 126,99.634 128.269,99.634 128.269,101.901 126,101.901 	"/>
	<polyline fill="none" points="87.308,79.366 87.308,81.634 85.039,81.634 85.039,79.366 87.308,79.366 	"/>
	<polyline fill="none" points="82.771,79.366 82.771,81.634 80.503,81.634 80.503,79.366 82.771,79.366 	"/>
	<polyline fill="none" points="87.308,74.549 87.308,76.817 85.039,76.817 85.039,74.549 87.308,74.549 	"/>
	<polyline fill="none" points="82.771,74.549 82.771,76.817 80.503,76.817 80.503,74.549 82.771,74.549 	"/>
	<polyline fill="none" points="73.699,74.549 71.431,74.549 71.431,72.281 73.699,72.281 73.699,74.549 	"/>
	<polyline fill="none" points="73.699,70.013 71.431,70.013 71.431,67.745 73.699,67.745 73.699,70.013 	"/>
	<polyline fill="none" points="73.699,94.673 73.699,92.404 75.967,92.404 75.967,94.673 73.699,94.673 	"/>
	<polyline fill="none" points="78.235,94.673 78.235,92.404 80.503,92.404 80.503,94.673 78.235,94.673 	"/>
	<polyline fill="none" points="121.608,94.803 121.608,93.967 124.013,93.967 124.013,94.803 121.608,94.803 	"/>
	<polyline fill="none" points="121.608,93.384 121.608,92.549 124.013,92.549 124.013,93.384 121.608,93.384 	"/>
	<polyline fill="none" points="121.608,91.973 121.608,91.138 124.013,91.138 124.013,91.973 121.608,91.973 	"/>
	<polyline fill="none" points="121.608,90.562 121.608,89.727 124.013,89.727 124.013,90.562 121.608,90.562 	"/>
	<polyline fill="none" points="121.608,89.144 121.608,88.309 124.013,88.309 124.013,89.144 121.608,89.144 	"/>
	<polyline fill="none" points="129.96,89.144 129.96,88.309 132.364,88.309 132.364,89.144 129.96,89.144 	"/>
	<polyline fill="none" points="129.96,90.562 129.96,89.727 132.364,89.727 132.364,90.562 129.96,90.562 	"/>
	<polyline fill="none" points="129.96,91.973 129.96,91.138 132.364,91.138 132.364,91.973 129.96,91.973 	"/>
	<polyline fill="none" points="129.96,93.384 129.96,92.549 132.364,92.549 132.364,93.384 129.96,93.384 	"/>
	<polyline fill="none" points="129.96,94.803 129.96,93.967 132.364,93.967 132.364,94.803 129.96,94.803 	"/>
	<polyline fill="none" points="128.088,96.797 127.296,96.797 127.296,94.816 128.088,94.816 128.088,96.797 	"/>
	<polyline fill="none" points="126.677,96.797 125.885,96.797 125.885,94.816 126.677,94.816 126.677,96.797 	"/>
	<polyline fill="none" points="128.088,88.301 127.296,88.301 127.296,86.32 128.088,86.32 128.088,88.301 	"/>
	<polyline fill="none" points="126.677,88.301 125.885,88.301 125.885,86.32 126.677,86.32 126.677,88.301 	"/>
	<polyline fill="none" points="124.653,94.953 124.653,88.156 129.326,88.156 129.326,94.953 124.653,94.953 	"/>
	<polyline fill="none" points="119.052,91.555 113.947,91.555 113.947,87.02 119.052,87.02 119.052,91.555 	"/>
	<polyline fill="none" points="119.052,83.621 113.947,83.621 113.947,79.085 119.052,79.085 119.052,83.621 	"/>
	<polyline fill="none" points="157.933,105.206 152.172,105.206 152.172,99.446 157.933,99.446 157.933,105.206 	"/>
</g>
<g>
	<path fill="none" stroke="#000000" stroke-linecap="round" stroke-linejoin="round" d="M162.252,102.326L162.252,102.326"/>
</g>
<g>
	<polyline fill="none" points="20.506,56.931 25.401,56.931 25.401,62.69 20.506,62.69 20.506,56.931 	"/>
</g>
<g>
	<path fill="none" stroke="#000000" stroke-linecap="round" stroke-linejoin="round" d="M15.753,59.378v0.864"/>
	<path fill="none" stroke="#000000" stroke-linecap="round" stroke-linejoin="round" d="M8.554,59.378v0.864"/>
</g>
<g>
	<polyline fill="none" points="124.013,53.287 121.745,53.287 121.745,51.02 124.013,51.02 124.013,53.287 	"/>
	<polyline fill="none" points="124.013,48.751 121.745,48.751 121.745,46.483 124.013,46.483 124.013,48.751 	"/>
	<polyline fill="none" points="128.405,50.595 130.673,50.595 130.673,52.862 128.405,52.862 128.405,50.595 	"/>
	<polyline fill="none" points="128.405,55.13 130.673,55.13 130.673,57.398 128.405,57.398 128.405,55.13 	"/>
	<polyline fill="none" points="140.169,93.543 137.901,93.543 137.901,91.274 140.169,91.274 140.169,93.543 	"/>
	<polyline fill="none" points="140.169,89.006 137.901,89.006 137.901,86.738 140.169,86.738 140.169,89.006 	"/>
	<polyline fill="none" points="139.601,104.595 139.601,106.862 137.333,106.862 137.333,104.595 139.601,104.595 	"/>
	<polyline fill="none" points="135.065,104.595 135.065,106.862 132.797,106.862 132.797,104.595 135.065,104.595 	"/>
	<polyline fill="none" points="140.169,85.039 137.901,85.039 137.901,82.771 140.169,82.771 140.169,85.039 	"/>
	<polyline fill="none" points="140.169,80.503 137.901,80.503 137.901,78.235 140.169,78.235 140.169,80.503 	"/>
	<polyline fill="none" points="132.797,101.901 132.797,99.634 135.065,99.634 135.065,101.901 132.797,101.901 	"/>
	<polyline fill="none" points="137.333,101.901 137.333,99.634 139.601,99.634 139.601,101.901 137.333,101.901 	"/>
	<polyline fill="none" points="94.392,96.092 94.392,98.359 92.124,98.359 92.124,96.092 94.392,96.092 	"/>
	<polyline fill="none" points="89.856,96.092 89.856,98.359 87.588,98.359 87.588,96.092 89.856,96.092 	"/>
	<polyline fill="none" points="94.392,100.627 94.392,102.896 92.124,102.896 92.124,100.627 94.392,100.627 	"/>
	<polyline fill="none" points="89.856,100.627 89.856,102.896 87.588,102.896 87.588,100.627 89.856,100.627 	"/>
	<polyline fill="none" points="69.163,74.549 66.896,74.549 66.896,72.281 69.163,72.281 69.163,74.549 	"/>
	<polyline fill="none" points="69.163,70.013 66.896,70.013 66.896,67.745 69.163,67.745 69.163,70.013 	"/>
	<polyline fill="none" points="128.974,39.262 128.974,36.994 130.392,36.994 130.392,39.262 128.974,39.262 	"/>
	<polyline fill="none" points="131.667,39.262 131.667,36.994 133.085,36.994 133.085,39.262 131.667,39.262 	"/>
	<polyline fill="none" points="134.359,39.262 134.359,36.994 135.777,36.994 135.777,39.262 134.359,39.262 	"/>
	<polyline fill="none" points="128.974,46.059 128.974,43.79 130.392,43.79 130.392,46.059 128.974,46.059 	"/>
	<polyline fill="none" points="134.359,46.059 134.359,43.79 135.777,43.79 135.777,46.059 134.359,46.059 	"/>
	<polyline fill="none" points="160.164,71.863 165.542,71.863 165.542,77.242 160.164,77.242 160.164,71.863 	"/>
	<polyline fill="none" points="160.164,78.653 165.542,78.653 165.542,84.038 160.164,84.038 160.164,78.653 	"/>
	<polyline fill="none" points="160.164,86.177 165.542,86.177 165.542,91.268 160.164,91.268 160.164,86.177 	"/>
	<polyline fill="none" points="153.36,66.197 157.889,66.197 157.889,72.137 153.36,72.137 153.36,66.197 	"/>
	<polyline fill="none" points="153.353,73.706 157.169,73.706 157.169,74.837 153.353,74.837 153.353,73.706 	"/>
	<polyline fill="none" points="153.353,75.55 157.169,75.55 157.169,76.68 153.353,76.68 153.353,75.55 	"/>
	<polyline fill="none" points="153.353,77.386 157.169,77.386 157.169,78.516 153.353,78.516 153.353,77.386 	"/>
	<polyline fill="none" points="153.353,79.222 157.169,79.222 157.169,80.352 153.353,80.352 153.353,79.222 	"/>
	<polyline fill="none" points="153.353,81.064 157.169,81.064 157.169,82.195 153.353,82.195 153.353,81.064 	"/>
	<polyline fill="none" points="153.36,83.765 157.889,83.765 157.889,89.705 153.36,89.705 153.36,83.765 	"/>
	<polyline fill="none" points="160.164,64.634 165.542,64.634 165.542,69.725 160.164,69.725 160.164,64.634 	"/>
	<polyline fill="none" points="121.745,36.85 124.013,36.85 124.013,39.118 121.745,39.118 121.745,36.85 	"/>
	<polyline fill="none" points="121.745,41.386 124.013,41.386 124.013,43.653 121.745,43.653 121.745,41.386 	"/>
	<circle fill="none" cx="94.394" cy="122.739" r="2.126"/>
</g>
<g>
	<circle fill="none" cx="88.724" cy="122.739" r="2.126"/>
</g>
<g>
	<circle fill="none" cx="83.055" cy="122.739" r="2.126"/>
</g>
<g>
	<circle fill="none" cx="77.386" cy="122.739" r="2.126"/>
</g>
<g>
	<circle fill="none" cx="71.717" cy="122.739" r="2.126"/>
</g>
<g>
	<circle fill="none" cx="66.047" cy="122.739" r="2.126"/>
</g>
<g>
	<polyline fill="none" points="52.582,124.862 52.582,120.607 56.83,120.607 56.83,124.862 52.582,124.862 	"/>
	<circle fill="none" cx="60.378" cy="122.739" r="2.126"/>
</g>
<g>
	<circle fill="none" cx="94.535" cy="50.74" r="2.126"/>
</g>
<g>
	<circle fill="none" cx="88.866" cy="50.74" r="2.126"/>
</g>
<g>
	<circle fill="none" cx="83.197" cy="50.74" r="2.126"/>
</g>
<g>
	<circle fill="none" cx="77.527" cy="50.74" r="2.126"/>
</g>
<g>
	<circle fill="none" cx="71.858" cy="50.74" r="2.126"/>
</g>
<g>
	<circle fill="none" cx="66.189" cy="50.74" r="2.126"/>
</g>
<g>
	<polyline fill="none" points="52.718,52.862 52.718,48.607 56.974,48.607 56.974,52.862 52.718,52.862 	"/>
	<circle fill="none" cx="60.52" cy="50.74" r="2.126"/>
</g>
<g>
	<circle fill="none" cx="108" cy="71.149" r="2.126"/>
</g>
<g>
	<circle fill="none" cx="108" cy="76.819" r="2.126"/>
</g>
<g>
	<circle fill="none" cx="108" cy="82.488" r="2.126"/>
</g>
<g>
	<circle fill="none" cx="108" cy="88.157" r="2.126"/>
</g>
<g>
	<polyline fill="none" points="110.124,101.621 105.868,101.621 105.868,97.365 110.124,97.365 110.124,101.621 	"/>
	<circle fill="none" cx="108" cy="93.827" r="2.126"/>
</g>
<g>
	<polyline fill="none" points="134.554,66.896 134.554,75.398 129.456,75.398 129.456,66.896 134.554,66.896 	"/>
	<polyline fill="none" points="127.354,66.896 127.354,75.398 122.256,75.398 122.256,66.896 127.354,66.896 	"/>
	<circle fill="none" cx="156.188" cy="156.189" r="5.76"/>
</g>
<g>
	<circle fill="none" cx="14.457" cy="156.189" r="5.76"/>
</g>
<g>
	<circle fill="none" cx="156.188" cy="14.457" r="5.76"/>
</g>
<g>
	<circle fill="none" cx="14.457" cy="14.457" r="5.76"/>
</g>
<g>
	<circle fill="none" cx="147.121" cy="113.103" r="2.16"/>
</g>
<g>
	<circle fill="none" cx="152.788" cy="113.103" r="2.16"/>
</g>
<g>
	<circle fill="none" cx="158.454" cy="113.103" r="2.16"/>
</g>
<g>
	<polyline fill="none" points="65.34,87.372 67.32,87.372 67.32,88.078 65.34,88.078 65.34,87.372 	"/>
	<polyline fill="none" points="65.34,85.953 67.32,85.953 67.32,86.659 65.34,86.659 65.34,85.953 	"/>
	<polyline fill="none" points="65.34,84.535 67.32,84.535 67.32,85.241 65.34,85.241 65.34,84.535 	"/>
	<polyline fill="none" points="65.34,83.124 67.32,83.124 67.32,83.83 65.34,83.83 65.34,83.124 	"/>
	<polyline fill="none" points="65.34,81.706 67.32,81.706 67.32,82.411 65.34,82.411 65.34,81.706 	"/>
	<polyline fill="none" points="65.34,80.287 67.32,80.287 67.32,80.993 65.34,80.993 65.34,80.287 	"/>
	<polyline fill="none" points="68.522,77.811 68.522,79.79 67.817,79.79 67.817,77.811 68.522,77.811 	"/>
	<polyline fill="none" points="69.941,77.811 69.941,79.79 69.235,79.79 69.235,77.811 69.941,77.811 	"/>
	<polyline fill="none" points="71.359,77.811 71.359,79.79 70.653,79.79 70.653,77.811 71.359,77.811 	"/>
	<polyline fill="none" points="72.771,77.811 72.771,79.79 72.065,79.79 72.065,77.811 72.771,77.811 	"/>
	<polyline fill="none" points="74.189,77.811 74.189,79.79 73.483,79.79 73.483,77.811 74.189,77.811 	"/>
	<polyline fill="none" points="75.607,77.811 75.607,79.79 74.901,79.79 74.901,77.811 75.607,77.811 	"/>
	<polyline fill="none" points="78.091,80.993 76.111,80.993 76.111,80.287 78.091,80.287 78.091,80.993 	"/>
	<polyline fill="none" points="78.091,82.411 76.111,82.411 76.111,81.706 78.091,81.706 78.091,82.411 	"/>
	<polyline fill="none" points="78.091,83.83 76.111,83.83 76.111,83.124 78.091,83.124 78.091,83.83 	"/>
	<polyline fill="none" points="78.091,85.241 76.111,85.241 76.111,84.535 78.091,84.535 78.091,85.241 	"/>
	<polyline fill="none" points="78.091,86.659 76.111,86.659 76.111,85.953 78.091,85.953 78.091,86.659 	"/>
	<polyline fill="none" points="78.091,88.078 76.111,88.078 76.111,87.372 78.091,87.372 78.091,88.078 	"/>
	<polyline fill="none" points="74.901,90.562 74.901,88.582 75.607,88.582 75.607,90.562 74.901,90.562 	"/>
	<polyline fill="none" points="73.483,90.562 73.483,88.582 74.189,88.582 74.189,90.562 73.483,90.562 	"/>
	<polyline fill="none" points="72.065,90.562 72.065,88.582 72.771,88.582 72.771,90.562 72.065,90.562 	"/>
	<polyline fill="none" points="70.653,90.562 70.653,88.582 71.359,88.582 71.359,90.562 70.653,90.562 	"/>
	<polyline fill="none" points="69.235,90.562 69.235,88.582 69.941,88.582 69.941,90.562 69.235,90.562 	"/>
	<polyline fill="none" points="67.817,90.562 67.817,88.582 68.522,88.582 68.522,90.562 67.817,90.562 	"/>
	<polyline fill="none" points="75.254,87.725 68.169,87.725 68.169,80.64 75.254,80.64 75.254,87.725 	"/>
	<circle fill="none" cx="138.614" cy="73.984" r="0.851"/>
</g>
<g>
	<circle fill="none" cx="125.716" cy="54.142" r="0.851"/>
</g>
<g>
	<circle fill="none" cx="125.716" cy="59.102" r="0.85"/>
</g>
<g>
	<circle fill="none" cx="138.473" cy="59.102" r="0.85"/>
</g>
<g>
	<circle fill="none" cx="138.473" cy="52.016" r="0.851"/>
</g>
<g>
	<circle fill="none" cx="141.308" cy="32.173" r="0.85"/>
</g>
<g>
	<circle fill="none" cx="142.016" cy="62.646" r="0.85"/>
</g>
<g>
	<circle fill="none" cx="159.023" cy="62.646" r="0.85"/>
</g>
<g>
	<circle fill="none" cx="147.118" cy="96.661" r="0.851"/>
</g>
<g>
	<circle fill="none" cx="135.496" cy="91.843" r="0.851"/>
</g>
<g>
	<circle fill="none" cx="135.496" cy="88.441" r="0.85"/>
</g>
<g>
	<circle fill="none" cx="122.739" cy="80.22" r="0.85"/>
</g>
<g>
	<circle fill="none" cx="81.637" cy="83.905" r="0.851"/>
</g>
<g>
	<circle fill="none" cx="62.504" cy="84.047" r="0.851"/>
</g>
<g>
	<circle fill="none" cx="24.662" cy="26.646" r="0.85"/>
</g>
<g>
	<circle fill="none" cx="33.449" cy="144.567" r="0.85"/>
</g>
<g>
	<circle fill="none" cx="75.969" cy="144.567" r="0.85"/>
</g>
<g>
	<circle fill="none" cx="26.646" cy="144.567" r="0.85"/>
</g>
<g>
	<circle fill="none" cx="115.087" cy="144.284" r="0.85"/>
</g>
<g>
	<circle fill="none" cx="83.197" cy="26.504" r="0.851"/>
</g>
<g>
	<circle fill="none" cx="137.765" cy="26.504" r="0.851"/>
</g>
<g>
	<circle fill="none" cx="93.827" cy="26.504" r="0.851"/>
</g>
<g>
	<circle fill="none" cx="49.181" cy="26.504" r="0.851"/>
</g>
<g>
	<circle fill="none" cx="144.851" cy="26.929" r="0.85"/>
</g>
<g>
	<circle fill="none" cx="33.59" cy="26.504" r="0.851"/>
</g>
<g>
	<circle fill="none" cx="143.434" cy="137.197" r="0.85"/>
</g>
<g>
	<circle fill="none" cx="93.261" cy="93.827" r="0.851"/>
</g>
<g>
	<circle fill="none" cx="144.851" cy="105.165" r="0.851"/>
</g>
<g>
	<circle fill="none" cx="108" cy="106.583" r="0.85"/>
</g>
<g>
	<circle fill="none" cx="115.087" cy="106.583" r="0.85"/>
</g>
<g>
	<circle fill="none" cx="115.087" cy="133.512" r="0.851"/>
</g>
<g>
	<circle fill="none" cx="76.819" cy="133.512" r="0.851"/>
</g>
<g>
	<circle fill="none" cx="115.087" cy="122.173" r="0.851"/>
</g>
<g>
	<circle fill="none" cx="117.922" cy="93.827" r="0.851"/>
</g>
<g>
	<circle fill="none" cx="93.261" cy="84.189" r="0.85"/>
</g>
<g>
	<circle fill="none" cx="77.103" cy="12.472" r="0.85"/>
</g>
<g>
	<circle fill="none" cx="51.023" cy="12.472" r="0.85"/>
</g>
<g>
	<circle fill="none" cx="120.188" cy="12.189" r="0.85"/>
</g>
<g>
	<circle fill="none" cx="94.961" cy="12.189" r="0.85"/>
</g>
<g>
	<circle fill="none" cx="149.669" cy="54.709" r="0.85"/>
</g>
<g>
	<circle fill="none" cx="162.142" cy="53.858" r="0.851"/>
</g>
<g>
	<circle fill="none" cx="153.07" cy="117.921" r="0.85"/>
</g>
<g>
	<circle fill="none" cx="143.149" cy="117.921" r="0.85"/>
</g>
<g>
	<circle fill="none" cx="143.149" cy="108.851" r="0.851"/>
</g>
<g>
	<circle fill="none" cx="149.953" cy="108.851" r="0.851"/>
</g>
<g>
	<circle fill="none" cx="150.235" cy="96.661" r="0.851"/>
</g>
<g>
	<circle fill="none" cx="162.142" cy="96.378" r="0.851"/>
</g>
<g>
	<circle fill="none" cx="93.827" cy="147.118" r="0.851"/>
</g>
<g>
	<circle fill="none" cx="117.07" cy="148.819" r="0.851"/>
</g>
<g>
	<circle fill="none" cx="51.307" cy="149.386" r="0.851"/>
</g>
<g>
	<circle fill="none" cx="72.851" cy="150.52" r="0.851"/>
</g>
<g>
	<circle fill="none" cx="17.292" cy="97.512" r="0.851"/>
</g>
<g>
	<circle fill="none" cx="9.354" cy="97.795" r="0.85"/>
</g>
<g>
	<circle fill="none" cx="16.157" cy="52.725" r="0.851"/>
</g>
<g>
	<circle fill="none" cx="2.551" cy="53.575" r="0.85"/>
</g>
<g>
	<circle fill="none" cx="3.685" cy="65.48" r="0.851"/>
</g>
<g>
	<circle fill="none" cx="7.937" cy="65.48" r="0.851"/>
</g>
<g>
	<circle fill="none" cx="137.765" cy="123.591" r="0.851"/>
</g>
<g>
	<circle fill="none" cx="77.527" cy="55.559" r="0.85"/>
</g>
<g>
	<circle fill="none" cx="116.93" cy="55.559" r="0.85"/>
</g>
<g>
	<circle fill="none" cx="77.386" cy="78.52" r="0.851"/>
</g>
<g>
	<circle fill="none" cx="50.882" cy="56.977" r="0.851"/>
</g>
<g>
	<circle fill="none" cx="57.685" cy="57.543" r="0.85"/>
</g>
<g>
	<circle fill="none" cx="62.646" cy="102.331" r="0.851"/>
</g>
<g>
	<circle fill="none" cx="69.449" cy="102.331" r="0.851"/>
</g>
<g>
	<circle fill="none" cx="85.89" cy="29.197" r="0.85"/>
</g>
<g>
	<circle fill="none" cx="42.236" cy="28.913" r="0.85"/>
</g>
<g>
	<circle fill="none" cx="77.527" cy="113.953" r="0.851"/>
</g>
<g>
	<circle fill="none" cx="50.457" cy="113.669" r="0.851"/>
</g>
<g>
	<circle fill="none" cx="85.89" cy="101.764" r="0.85"/>
</g>
<g>
	<circle fill="none" cx="68.315" cy="94.677" r="0.851"/>
</g>
<g>
	<circle fill="none" cx="72.566" cy="101.197" r="0.85"/>
</g>
<g>
	<circle fill="none" cx="83.055" cy="97.228" r="0.85"/>
</g>
<g>
	<circle fill="none" cx="69.732" cy="92.692" r="0.851"/>
</g>
<g>
	<circle fill="none" cx="74.551" cy="97.228" r="0.85"/>
</g>
<g>
	<circle fill="none" cx="117.07" cy="118.205" r="0.85"/>
</g>
<g>
	<circle fill="none" cx="54.851" cy="118.205" r="0.85"/>
</g>
<g>
	<circle fill="none" cx="142.583" cy="83.48" r="0.851"/>
</g>
<g>
	<circle fill="none" cx="142.3" cy="71.575" r="0.85"/>
</g>
<g>
	<path fill="none" stroke="#000000" stroke-linecap="round" stroke-linejoin="round" d="M155.261,74.268h-16.358"/>
	<path fill="none" stroke="#000000" stroke-linecap="round" stroke-linejoin="round" d="M138.902,74.268l-0.295-0.288"/>
	<path fill="none" stroke="#000000" stroke-linecap="round" stroke-linejoin="round" d="M122.875,52.157h0.856"/>
	<path fill="none" stroke="#000000" stroke-linecap="round" stroke-linejoin="round" d="M123.731,52.157l1.98,1.98"/>
	<path fill="none" stroke="#000000" stroke-linecap="round" stroke-linejoin="round" d="M125.712,59.098h12.759"/>
	<path fill="none" stroke="#000000" stroke-linecap="round" stroke-linejoin="round" d="M135.489,45.346l-0.424-0.425"/>
	<path fill="none" stroke="#000000" stroke-linecap="round" stroke-linejoin="round" d="M135.489,51.732v-6.386"/>
	<path fill="none" stroke="#000000" stroke-linecap="round" stroke-linejoin="round" d="M138.471,52.013l-0.145-0.144"/>
	<path fill="none" stroke="#000000" stroke-linecap="round" stroke-linejoin="round" d="M135.489,51.732l2.837,0.137"/>
</g>
<g>
	<path fill="none" stroke="#000000" stroke-linecap="round" stroke-linejoin="round" d="M131.162,92.967h-2.765"/>
	<path fill="none" stroke="#000000" stroke-linecap="round" stroke-linejoin="round" d="M128.397,92.967l-1.411-1.412"/>
	<path fill="none" stroke="#000000" stroke-linecap="round" stroke-linejoin="round" d="M122.811,90.145h2.765"/>
	<path fill="none" stroke="#000000" stroke-linecap="round" stroke-linejoin="round" d="M125.575,90.145l1.411,1.41"/>
	<path fill="none" stroke="#000000" stroke-linecap="round" stroke-linejoin="round" d="M79.366,93.543v-3.551"/>
	<path fill="none" stroke="#000000" stroke-linecap="round" stroke-linejoin="round" d="M79.366,89.992l-2.268-2.268"/>
	<path fill="none" stroke="#000000" stroke-linecap="round" stroke-linejoin="round" d="M73.836,78.797v3.262"/>
	<path fill="none" stroke="#000000" stroke-linecap="round" stroke-linejoin="round" d="M73.836,82.059l-2.124,2.124"/>
	<path fill="none" stroke="#000000" stroke-linecap="round" stroke-linejoin="round" d="M77.098,87.725h-1.843"/>
	<path fill="none" stroke="#000000" stroke-linecap="round" stroke-linejoin="round" d="M75.254,87.725l-3.542-3.542"/>
	<path fill="none" stroke="#000000" stroke-linecap="round" stroke-linejoin="round" d="M66.326,87.725h1.843"/>
	<path fill="none" stroke="#000000" stroke-linecap="round" stroke-linejoin="round" d="M68.169,87.725l3.542-3.542"/>
</g>
<g>
	<path fill="none" stroke="#000000" stroke-linecap="round" stroke-linejoin="round" d="M135.065,38.124V32.45"/>
	<path fill="none" stroke="#000000" stroke-linecap="round" stroke-linejoin="round" d="M135.065,32.45l1.562-1.555"/>
	<path fill="none" stroke="#000000" stroke-linecap="round" stroke-linejoin="round" d="M140.025,30.896h-3.398"/>
	<path fill="none" stroke="#000000" stroke-linecap="round" stroke-linejoin="round" d="M141.3,32.17l-1.274-1.274"/>
	<path fill="none" stroke="#000000" stroke-linecap="round" stroke-linejoin="round" d="M159.019,62.64h-17.006"/>
	<path fill="none" stroke="#000000" stroke-linecap="round" stroke-linejoin="round" d="M135.489,91.836h2.981"/>
	<path fill="none" stroke="#000000" stroke-linecap="round" stroke-linejoin="round" d="M138.471,91.836l0.568,0.568"/>
	<path fill="none" stroke="#000000" stroke-linecap="round" stroke-linejoin="round" d="M131.162,91.555h4.047"/>
	<path fill="none" stroke="#000000" stroke-linecap="round" stroke-linejoin="round" d="M135.209,91.555l0.28,0.281"/>
	<path fill="none" stroke="#000000" stroke-linecap="round" stroke-linejoin="round" d="M142.581,96.66l-3.542-3.543"/>
	<path fill="none" stroke="#000000" stroke-linecap="round" stroke-linejoin="round" d="M147.118,96.66h-4.537"/>
	<path fill="none" stroke="#000000" stroke-linecap="round" stroke-linejoin="round" d="M139.039,93.117v-0.713"/>
</g>
<g>
	<path fill="none" stroke="#000000" stroke-linecap="round" stroke-linejoin="round" d="M135.489,91.836l-0.28-0.281"/>
</g>
<g>
	<path fill="none" stroke="#000000" stroke-linecap="round" stroke-linejoin="round" d="M131.162,88.726h4.04"/>
	<path fill="none" stroke="#000000" stroke-linecap="round" stroke-linejoin="round" d="M135.202,88.726l0.287-0.288"/>
</g>
<g>
	<path fill="none" stroke="#000000" stroke-linecap="round" stroke-linejoin="round" d="M122.738,80.215L122.738,80.215"/>
	<path fill="none" stroke="#000000" stroke-linecap="round" stroke-linejoin="round" d="M122.738,80.215L122.738,80.215"/>
	<path fill="none" stroke="#000000" stroke-linecap="round" stroke-linejoin="round" d="M122.738,80.215L122.738,80.215"/>
</g>
<g>
	<path fill="none" stroke="#000000" stroke-linecap="round" stroke-linejoin="round" d="M122.738,83.333v-3.118"/>
	<path fill="none" stroke="#000000" stroke-linecap="round" stroke-linejoin="round" d="M122.738,80.215v-6.998"/>
</g>
<g>
	<path fill="none" stroke="#000000" stroke-linecap="round" stroke-linejoin="round" d="M122.738,73.217l2.066-2.073"/>
</g>
<g>
	<path fill="none" stroke="#000000" stroke-linecap="round" stroke-linejoin="round" d="M122.811,88.726v-5.313"/>
</g>
<g>
	<path fill="none" stroke="#000000" stroke-linecap="round" stroke-linejoin="round" d="M122.811,83.412l-0.072-0.079"/>
	<path fill="none" stroke="#000000" stroke-linecap="round" stroke-linejoin="round" d="M138.183,91.555l0.856,0.85"/>
	<path fill="none" stroke="#000000" stroke-linecap="round" stroke-linejoin="round" d="M122.595,73.361l2.21-2.217"/>
	<path fill="none" stroke="#000000" stroke-linecap="round" stroke-linejoin="round" d="M116.503,81.353v0.778"/>
</g>
<g>
	<path fill="none" stroke="#000000" stroke-linecap="round" stroke-linejoin="round" d="M116.503,82.13l6.308,6.595"/>
</g>
<g>
	<path fill="none" stroke="#000000" stroke-linecap="round" stroke-linejoin="round" d="M122.811,94.385v6.163"/>
	<path fill="none" stroke="#000000" stroke-linecap="round" stroke-linejoin="round" d="M122.811,100.548l-0.216,0.224"/>
</g>
<g>
	<path fill="none" stroke="#000000" stroke-linecap="round" stroke-linejoin="round" d="M69.588,77.522l-0.994-0.994"/>
	<path fill="none" stroke="#000000" stroke-linecap="round" stroke-linejoin="round" d="M69.588,78.797v-1.274"/>
	<path fill="none" stroke="#000000" stroke-linecap="round" stroke-linejoin="round" d="M64.202,76.529h4.392"/>
	<path fill="none" stroke="#000000" stroke-linecap="round" stroke-linejoin="round" d="M62.503,78.235l1.699-1.707"/>
	<path fill="none" stroke="#000000" stroke-linecap="round" stroke-linejoin="round" d="M62.503,84.046v-5.811"/>
	<path fill="none" stroke="#000000" stroke-linecap="round" stroke-linejoin="round" d="M33.588,26.503h-8.791"/>
	<path fill="none" stroke="#000000" stroke-linecap="round" stroke-linejoin="round" d="M24.797,26.503L24.66,26.64"/>
	<path fill="none" stroke="#000000" stroke-linecap="round" stroke-linejoin="round" d="M32.594,144.562h-0.137"/>
	<path fill="none" stroke="#000000" stroke-linecap="round" stroke-linejoin="round" d="M32.458,144.562H26.64"/>
	<path fill="none" stroke="#000000" stroke-linecap="round" stroke-linejoin="round" d="M115.085,144.281l-0.288,0.28"/>
	<path fill="none" stroke="#000000" stroke-linecap="round" stroke-linejoin="round" d="M114.797,144.562h-38.83"/>
	<path fill="none" stroke="#000000" stroke-linecap="round" stroke-linejoin="round" d="M75.967,144.562H33.444"/>
	<path fill="none" stroke="#000000" stroke-linecap="round" stroke-linejoin="round" d="M33.444,144.562h-0.986"/>
	<path fill="none" stroke="#000000" stroke-linecap="round" stroke-linejoin="round" d="M144.425,26.503l0.425,0.425"/>
	<path fill="none" stroke="#000000" stroke-linecap="round" stroke-linejoin="round" d="M144.425,26.503h-6.667"/>
	<path fill="none" stroke="#000000" stroke-linecap="round" stroke-linejoin="round" d="M137.758,26.503H93.823"/>
	<path fill="none" stroke="#000000" stroke-linecap="round" stroke-linejoin="round" d="M93.823,26.503H83.196"/>
	<path fill="none" stroke="#000000" stroke-linecap="round" stroke-linejoin="round" d="M83.196,26.503H49.176"/>
	<path fill="none" stroke="#000000" stroke-linecap="round" stroke-linejoin="round" d="M49.176,26.503H33.588"/>
	<path fill="none" stroke="#000000" stroke-linecap="round" stroke-linejoin="round" d="M115.085,133.51h24.66"/>
	<path fill="none" stroke="#000000" stroke-linecap="round" stroke-linejoin="round" d="M139.745,133.51l3.686,3.687"/>
	<path fill="none" stroke="#000000" stroke-linecap="round" stroke-linejoin="round" d="M93.255,97.222v-3.398"/>
	<path fill="none" stroke="#000000" stroke-linecap="round" stroke-linejoin="round" d="M93.255,93.823L93.255,93.823"/>
	<path fill="none" stroke="#000000" stroke-linecap="round" stroke-linejoin="round" d="M93.255,97.222v4.536"/>
	<path fill="none" stroke="#000000" stroke-linecap="round" stroke-linejoin="round" d="M138.471,105.732h5.81"/>
	<path fill="none" stroke="#000000" stroke-linecap="round" stroke-linejoin="round" d="M144.28,105.732l0.569-0.569"/>
	<path fill="none" stroke="#000000" stroke-linecap="round" stroke-linejoin="round" d="M115.085,106.582l2.83,2.829"/>
	<path fill="none" stroke="#000000" stroke-linecap="round" stroke-linejoin="round" d="M138.471,108.705v-2.973"/>
	<path fill="none" stroke="#000000" stroke-linecap="round" stroke-linejoin="round" d="M137.758,109.411l0.713-0.706"/>
	<path fill="none" stroke="#000000" stroke-linecap="round" stroke-linejoin="round" d="M117.915,109.411h19.843"/>
	<path fill="none" stroke="#000000" stroke-linecap="round" stroke-linejoin="round" d="M115.085,106.582H108"/>
	<path fill="none" stroke="#000000" stroke-linecap="round" stroke-linejoin="round" d="M122.595,105.732h-6.66"/>
	<path fill="none" stroke="#000000" stroke-linecap="round" stroke-linejoin="round" d="M115.935,105.732l-0.85,0.85"/>
	<path fill="none" stroke="#000000" stroke-linecap="round" stroke-linejoin="round" d="M76.817,133.51h38.268"/>
	<path fill="none" stroke="#000000" stroke-linecap="round" stroke-linejoin="round" d="M94.392,122.738h20.125"/>
	<path fill="none" stroke="#000000" stroke-linecap="round" stroke-linejoin="round" d="M114.517,122.738l0.568-0.568"/>
	<path fill="none" stroke="#000000" stroke-linecap="round" stroke-linejoin="round" d="M122.811,92.967h-4.039"/>
	<path fill="none" stroke="#000000" stroke-linecap="round" stroke-linejoin="round" d="M118.771,92.967l-0.856,0.856"/>
	<path fill="none" stroke="#000000" stroke-linecap="round" stroke-linejoin="round" d="M77.098,80.64h4.392"/>
	<path fill="none" stroke="#000000" stroke-linecap="round" stroke-linejoin="round" d="M81.49,80.64l0.144-0.137"/>
	<path fill="none" stroke="#000000" stroke-linecap="round" stroke-linejoin="round" d="M81.634,80.503v-4.824"/>
	<path fill="none" stroke="#000000" stroke-linecap="round" stroke-linejoin="round" d="M81.634,83.901v-3.398"/>
	<path fill="none" stroke="#000000" stroke-linecap="round" stroke-linejoin="round" d="M93.255,84.183h-11.34"/>
	<path fill="none" stroke="#000000" stroke-linecap="round" stroke-linejoin="round" d="M81.915,84.183l-0.281-0.281"/>
</g>
<g>
	<path fill="none" stroke="#000000" stroke-linecap="round" stroke-linejoin="round" d="M72.417,78.797v-5.234"/>
	<path fill="none" stroke="#000000" stroke-linecap="round" stroke-linejoin="round" d="M72.417,73.562l0.144-0.151"/>
	<path fill="none" stroke="#000000" stroke-linecap="round" stroke-linejoin="round" d="M73.836,89.568v2.98"/>
	<path fill="none" stroke="#000000" stroke-linecap="round" stroke-linejoin="round" d="M73.836,92.549l0.994,0.994"/>
</g>
<g>
	<path fill="none" stroke="#000000" stroke-linecap="round" stroke-linejoin="round" d="M122.875,42.516v5.105"/>
	<path fill="none" stroke="#000000" stroke-linecap="round" stroke-linejoin="round" d="M122.875,37.98h6.66"/>
	<path fill="none" stroke="#000000" stroke-linecap="round" stroke-linejoin="round" d="M129.535,37.98l0.144,0.144"/>
</g>
<g>
	<path fill="none" stroke="#000000" stroke-linecap="round" stroke-linejoin="round" d="M122.811,91.555l-4.896-0.85"/>
	<path fill="none" stroke="#000000" stroke-linecap="round" stroke-linejoin="round" d="M117.915,90.705l-1.412-1.418"/>
	<path fill="none" stroke="#000000" stroke-linecap="round" stroke-linejoin="round" d="M133.935,105.732v-4.961"/>
	<path fill="none" stroke="#000000" stroke-linecap="round" stroke-linejoin="round" d="M133.935,100.771v-3.615"/>
	<path fill="none" stroke="#000000" stroke-linecap="round" stroke-linejoin="round" d="M133.935,97.156l-2.772-2.771"/>
</g>
<g>
	<path fill="none" stroke="#000000" stroke-linecap="round" stroke-linejoin="round" d="M51.019,12.471h26.079"/>
	<path fill="none" stroke="#000000" stroke-linecap="round" stroke-linejoin="round" d="M94.954,12.183h25.229"/>
	<path fill="none" stroke="#000000" stroke-linecap="round" stroke-linejoin="round" d="M161.287,54.706h-11.62"/>
	<path fill="none" stroke="#000000" stroke-linecap="round" stroke-linejoin="round" d="M162.137,53.856l-0.85,0.85"/>
	<path fill="none" stroke="#000000" stroke-linecap="round" stroke-linejoin="round" d="M143.144,117.914h9.922"/>
	<path fill="none" stroke="#000000" stroke-linecap="round" stroke-linejoin="round" d="M149.947,108.85h-6.804"/>
	<path fill="none" stroke="#000000" stroke-linecap="round" stroke-linejoin="round" d="M161.856,96.66h-11.621"/>
	<path fill="none" stroke="#000000" stroke-linecap="round" stroke-linejoin="round" d="M162.137,96.372l-0.28,0.288"/>
	<path fill="none" stroke="#000000" stroke-linecap="round" stroke-linejoin="round" d="M115.366,147.117H93.823"/>
	<path fill="none" stroke="#000000" stroke-linecap="round" stroke-linejoin="round" d="M117.065,148.816l-1.699-1.699"/>
	<path fill="none" stroke="#000000" stroke-linecap="round" stroke-linejoin="round" d="M71.712,149.386H51.3"/>
	<path fill="none" stroke="#000000" stroke-linecap="round" stroke-linejoin="round" d="M72.85,150.516l-1.138-1.13"/>
	<path fill="none" stroke="#000000" stroke-linecap="round" stroke-linejoin="round" d="M9.634,97.51h7.653"/>
	<path fill="none" stroke="#000000" stroke-linecap="round" stroke-linejoin="round" d="M9.353,97.79l0.281-0.28"/>
	<path fill="none" stroke="#000000" stroke-linecap="round" stroke-linejoin="round" d="M3.398,52.719h12.758"/>
	<path fill="none" stroke="#000000" stroke-linecap="round" stroke-linejoin="round" d="M2.549,53.568l0.85-0.85"/>
	<path fill="none" stroke="#000000" stroke-linecap="round" stroke-linejoin="round" d="M7.935,65.477H3.679"/>
	<path fill="none" stroke="#000000" stroke-linecap="round" stroke-linejoin="round" d="M60.372,122.738v-1.138"/>
	<path fill="none" stroke="#000000" stroke-linecap="round" stroke-linejoin="round" d="M60.372,121.601l2.268-2.268"/>
	<path fill="none" stroke="#000000" stroke-linecap="round" stroke-linejoin="round" d="M119.333,123.588h18.425"/>
	<path fill="none" stroke="#000000" stroke-linecap="round" stroke-linejoin="round" d="M115.085,119.333l4.248,4.255"/>
	<path fill="none" stroke="#000000" stroke-linecap="round" stroke-linejoin="round" d="M62.64,119.333h52.445"/>
	<path fill="none" stroke="#000000" stroke-linecap="round" stroke-linejoin="round" d="M116.928,55.555H77.522"/>
	<path fill="none" stroke="#000000" stroke-linecap="round" stroke-linejoin="round" d="M75.967,78.797h-0.713"/>
	<path fill="none" stroke="#000000" stroke-linecap="round" stroke-linejoin="round" d="M77.386,78.516l-1.418,0.281"/>
	<path fill="none" stroke="#000000" stroke-linecap="round" stroke-linejoin="round" d="M57.118,56.974h-6.243"/>
	<path fill="none" stroke="#000000" stroke-linecap="round" stroke-linejoin="round" d="M57.679,57.542l-0.562-0.569"/>
	<path fill="none" stroke="#000000" stroke-linecap="round" stroke-linejoin="round" d="M69.444,102.326H62.64"/>
	<path fill="none" stroke="#000000" stroke-linecap="round" stroke-linejoin="round" d="M42.516,29.196h43.373"/>
	<path fill="none" stroke="#000000" stroke-linecap="round" stroke-linejoin="round" d="M42.235,28.908l0.281,0.288"/>
	<path fill="none" stroke="#000000" stroke-linecap="round" stroke-linejoin="round" d="M77.242,113.666H50.45"/>
	<path fill="none" stroke="#000000" stroke-linecap="round" stroke-linejoin="round" d="M77.242,113.666l0.281,0.281"/>
	<path fill="none" stroke="#000000" stroke-linecap="round" stroke-linejoin="round" d="M88.718,101.758h-1.979"/>
	<path fill="none" stroke="#000000" stroke-linecap="round" stroke-linejoin="round" d="M86.738,101.758h-0.85"/>
	<path fill="none" stroke="#000000" stroke-linecap="round" stroke-linejoin="round" d="M73.13,101.758h12.758"/>
	<path fill="none" stroke="#000000" stroke-linecap="round" stroke-linejoin="round" d="M68.169,89.568v4.968"/>
	<path fill="none" stroke="#000000" stroke-linecap="round" stroke-linejoin="round" d="M68.169,94.536l0.144,0.137"/>
	<path fill="none" stroke="#000000" stroke-linecap="round" stroke-linejoin="round" d="M72.562,101.196l0.569,0.562"/>
	<path fill="none" stroke="#000000" stroke-linecap="round" stroke-linejoin="round" d="M83.052,97.222h5.666"/>
	<path fill="none" stroke="#000000" stroke-linecap="round" stroke-linejoin="round" d="M69.588,92.549v-2.98"/>
	<path fill="none" stroke="#000000" stroke-linecap="round" stroke-linejoin="round" d="M69.732,92.693l-0.144-0.145"/>
	<path fill="none" stroke="#000000" stroke-linecap="round" stroke-linejoin="round" d="M83.052,97.222h-8.503"/>
</g>
<g>
	<path fill="none" stroke="#000000" stroke-linecap="round" stroke-linejoin="round" d="M129.679,44.921v6.667"/>
	<path fill="none" stroke="#000000" stroke-linecap="round" stroke-linejoin="round" d="M129.679,51.588l-0.137,0.144"/>
</g>
<g>
	<path fill="none" stroke="#000000" stroke-linecap="round" stroke-linejoin="round" d="M71.006,78.797v-1.555"/>
	<path fill="none" stroke="#000000" stroke-linecap="round" stroke-linejoin="round" d="M71.006,77.242l-2.981-3.831"/>
	<path fill="none" stroke="#000000" stroke-linecap="round" stroke-linejoin="round" d="M54.85,118.202h62.216"/>
	<path fill="none" stroke="#000000" stroke-linecap="round" stroke-linejoin="round" d="M132.005,71.144h9.863"/>
	<path fill="none" stroke="#000000" stroke-linecap="round" stroke-linejoin="round" d="M142.157,83.901h-3.118"/>
	<path fill="none" stroke="#000000" stroke-linecap="round" stroke-linejoin="round" d="M142.581,83.477l-0.424,0.425"/>
	<path fill="none" stroke="#000000" stroke-linecap="round" stroke-linejoin="round" d="M141.868,71.144l0.426,0.425"/>
</g>
<g>
	<path fill="none" stroke="#000000" stroke-linecap="round" stroke-linejoin="round" d="M139.039,87.869v-3.968"/>
	<path fill="none" stroke="#000000" stroke-linecap="round" stroke-linejoin="round" d="M131.162,90.145h5.603"/>
	<path fill="none" stroke="#000000" stroke-linecap="round" stroke-linejoin="round" d="M136.765,90.145l2.274-2.275"/>
</g>
<g>
	<polyline fill="none" stroke="#000000" stroke-linecap="round" stroke-linejoin="round" points="164.477,63.972 160.164,63.972 
		159.927,64.015 159.703,64.159 159.552,64.375 159.501,64.634 159.501,69.725 159.545,69.962 159.688,70.186 159.905,70.33 
		160.164,70.387 164.477,70.387 164.477,71.201 160.164,71.201 159.927,71.244 159.703,71.388 159.552,71.604 159.501,71.863 
		159.501,77.242 159.545,77.479 159.688,77.702 159.905,77.847 160.164,77.904 164.477,77.904 164.477,77.998 160.164,77.998 
		159.927,78.041 159.703,78.178 159.552,78.401 159.501,78.653 159.501,84.038 159.545,84.283 159.688,84.499 159.905,84.65 
		160.164,84.701 164.477,84.701 164.477,85.515 160.164,85.515 159.927,85.558 159.703,85.702 159.552,85.918 159.501,86.177 
		159.501,91.268 159.545,91.505 159.688,91.729 159.905,91.872 160.164,91.93 164.477,91.93 164.477,164.477 6.163,164.477 
		6.163,157.457 8.042,157.457 9.015,159.812 10.822,161.611 13.176,162.59 15.725,162.598 18.079,161.618 19.879,159.818 
		20.858,157.464 20.858,157.457 149.774,157.457 150.746,159.812 152.554,161.611 154.908,162.59 157.457,162.598 159.812,161.618 
		161.611,159.818 162.591,157.464 162.598,154.915 161.618,152.561 159.818,150.754 157.464,149.781 154.915,149.774 
		152.561,150.746 150.754,152.554 149.782,154.908 149.774,157.457 20.858,157.457 20.866,154.915 19.886,152.561 18.086,150.754 
		15.732,149.781 13.183,149.774 10.829,150.746 9.021,152.554 8.05,154.908 8.042,157.457 6.163,157.457 6.163,149.681 
		49.802,149.681 50.033,150.229 50.45,150.652 51.005,150.883 51.603,150.883 52.149,150.652 52.56,150.25 71.352,150.25 
		71.345,150.812 71.575,151.365 72,151.783 72.547,152.014 73.145,152.014 73.692,151.79 74.117,151.365 74.347,150.818 
		74.347,150.221 74.117,149.666 73.699,149.249 73.145,149.019 72.569,149.019 72.324,148.773 72.043,148.586 71.712,148.521 
		52.56,148.521 52.157,148.111 51.603,147.881 51.005,147.881 50.458,148.111 50.033,148.529 49.802,149.083 49.802,149.681 
		6.163,149.681 6.163,144.856 25.143,144.856 25.373,145.411 25.791,145.836 26.345,146.059 26.942,146.059 27.49,145.836 
		27.691,145.635 32.4,145.635 32.594,145.836 33.149,146.059 33.739,146.059 34.293,145.836 34.488,145.635 74.916,145.635 
		75.118,145.836 75.665,146.059 76.263,146.059 76.81,145.836 77.011,145.635 93.478,145.635 92.974,145.844 92.556,146.268 
		92.325,146.815 92.325,147.413 92.549,147.96 92.974,148.385 93.521,148.615 94.118,148.615 94.673,148.385 95.076,147.981 
		115.006,147.981 115.567,148.536 115.567,149.112 115.798,149.666 116.216,150.084 116.77,150.314 117.367,150.314 
		117.915,150.084 118.339,149.666 118.562,149.112 118.562,148.521 118.339,147.967 117.915,147.543 117.367,147.319 
		116.791,147.319 115.978,146.506 115.696,146.318 115.366,146.254 95.076,146.254 94.673,145.844 94.169,145.635 114.444,145.635 
		114.782,145.778 115.38,145.778 115.927,145.548 116.353,145.131 116.583,144.576 116.583,143.985 116.353,143.432 
		115.935,143.014 115.38,142.783 114.79,142.783 114.235,143.006 113.811,143.432 113.789,143.488 77.011,143.488 76.817,143.295 
		76.263,143.064 75.665,143.064 75.118,143.295 74.916,143.488 34.488,143.488 34.293,143.295 33.747,143.064 33.149,143.064 
		32.594,143.295 32.4,143.488 27.691,143.488 27.49,143.295 26.942,143.064 26.345,143.064 25.798,143.295 25.373,143.712 
		25.143,144.267 25.143,144.856 6.163,144.856 6.163,133.805 75.319,133.805 75.542,134.359 75.967,134.777 76.515,135.008 
		77.112,135.008 77.667,134.777 77.861,134.582 114.034,134.582 114.235,134.777 114.782,135.008 115.38,135.008 115.927,134.777 
		116.129,134.582 139.298,134.582 141.934,137.211 141.934,137.491 142.157,138.038 142.581,138.463 143.129,138.693 
		143.727,138.693 144.273,138.463 144.698,138.046 144.929,137.491 144.929,136.894 144.698,136.347 144.28,135.922 
		143.727,135.698 143.445,135.698 140.501,132.746 140.155,132.516 139.745,132.437 139.745,132.437 116.129,132.437 
		115.935,132.235 115.38,132.012 114.79,132.012 114.235,132.235 114.034,132.437 77.861,132.437 77.667,132.235 77.112,132.012 
		76.521,132.012 75.967,132.235 75.542,132.66 75.319,133.207 75.319,133.805 6.163,133.805 6.163,120.607 51.919,120.607 
		51.919,124.862 51.962,125.1 52.106,125.323 52.322,125.475 52.582,125.525 56.83,125.525 57.074,125.481 57.291,125.338 
		57.441,125.121 57.492,124.862 57.492,120.607 57.449,120.369 57.305,120.146 57.089,120.002 56.83,119.952 52.582,119.952 
		52.337,119.995 52.121,120.139 51.97,120.355 51.919,120.607 6.163,120.607 6.163,118.498 53.345,118.498 53.575,119.052 
		54,119.47 54.547,119.7 55.145,119.7 55.692,119.47 56.103,119.066 61.689,119.066 60.79,119.967 59.825,119.959 58.802,120.384 
		58.025,121.162 57.6,122.184 57.6,123.285 58.025,124.309 58.802,125.086 59.817,125.511 60.926,125.511 61.941,125.093 
		62.727,124.309 63.151,123.293 63.151,122.184 62.727,121.169 62.381,120.816 63,120.197 64.922,120.197 64.476,120.384 
		63.691,121.162 63.273,122.184 63.267,123.285 63.691,124.309 64.469,125.086 65.491,125.511 66.593,125.511 67.615,125.093 
		68.393,124.309 68.817,123.293 68.817,122.184 68.4,121.169 67.615,120.384 67.169,120.197 70.589,120.197 70.143,120.384 
		69.365,121.162 68.94,122.184 68.94,123.285 69.357,124.309 70.143,125.086 71.158,125.511 72.259,125.511 73.282,125.093 
		74.066,124.309 74.484,123.293 74.484,122.184 74.066,121.169 73.289,120.384 72.835,120.197 76.263,120.197 75.816,120.384 
		75.031,121.162 74.606,122.184 74.606,123.285 75.031,124.309 75.809,125.086 76.831,125.511 77.933,125.511 78.948,125.093 
		79.733,124.309 80.158,123.293 80.158,122.184 79.733,121.169 78.955,120.384 78.501,120.197 81.929,120.197 81.482,120.384 
		80.705,121.162 80.28,122.184 80.28,123.285 80.698,124.309 81.475,125.086 82.498,125.511 83.599,125.511 84.622,125.093 
		85.399,124.309 85.824,123.293 85.824,122.184 85.406,121.169 84.622,120.384 84.175,120.197 87.595,120.197 87.149,120.384 
		86.371,121.162 85.946,122.184 85.946,123.285 86.371,124.309 87.149,125.086 88.164,125.511 89.272,125.511 90.288,125.093 
		91.073,124.309 91.497,123.293 91.497,122.184 91.073,121.169 90.295,120.384 89.842,120.197 93.269,120.197 92.822,120.384 
		92.038,121.162 91.62,122.184 91.612,123.285 92.038,124.309 92.815,125.086 93.838,125.511 94.939,125.511 95.962,125.093 
		96.739,124.309 96.948,123.812 114.517,123.812 114.517,123.812 114.927,123.725 115.021,123.667 115.38,123.667 115.927,123.444 
		116.353,123.02 116.583,122.472 116.583,122.055 118.721,124.2 119.001,124.387 119.333,124.452 136.505,124.452 136.908,124.855 
		137.462,125.086 138.06,125.086 138.607,124.855 139.032,124.438 139.255,123.883 139.263,123.293 139.032,122.738 138.607,122.32 
		138.06,122.09 137.462,122.09 136.915,122.313 136.505,122.725 119.692,122.725 116.597,119.628 116.77,119.7 117.367,119.7 
		117.915,119.47 118.339,119.052 118.562,118.498 118.562,118.217 141.646,118.217 141.876,118.764 142.294,119.188 
		142.849,119.419 143.445,119.419 143.993,119.188 144.403,118.778 151.812,118.778 152.216,119.188 152.77,119.419 
		153.367,119.419 153.915,119.188 154.339,118.764 154.562,118.217 154.562,117.619 154.339,117.072 153.915,116.647 
		153.367,116.417 152.77,116.417 152.223,116.647 151.812,117.051 144.403,117.051 143.993,116.647 143.445,116.417 
		142.849,116.417 142.301,116.647 141.876,117.064 141.646,117.619 141.646,118.217 118.562,118.217 118.562,117.907 
		118.339,117.353 117.915,116.928 117.367,116.705 116.77,116.705 116.223,116.928 115.812,117.338 56.103,117.338 55.699,116.928 
		55.145,116.705 54.547,116.705 54,116.928 53.575,117.353 53.352,117.9 53.345,118.498 6.163,118.498 6.163,113.962 
		48.953,113.962 49.183,114.516 49.601,114.934 50.155,115.164 50.753,115.164 51.3,114.934 51.71,114.53 76.14,114.53 
		76.255,114.797 76.673,115.222 77.227,115.445 77.817,115.445 78.372,115.222 78.797,114.797 79.02,114.25 79.02,113.652 
		144.31,113.652 144.734,114.688 145.526,115.48 146.556,115.905 147.672,115.905 148.709,115.48 149.493,114.688 149.926,113.659 
		149.926,113.652 149.976,113.652 150.401,114.688 151.192,115.48 152.223,115.905 153.339,115.905 154.375,115.48 155.16,114.688 
		155.592,113.659 155.592,113.652 155.643,113.652 156.067,114.688 156.859,115.48 157.889,115.905 159.005,115.905 160.042,115.48 
		160.826,114.688 161.259,113.659 161.259,112.543 160.833,111.514 160.042,110.722 159.012,110.289 157.896,110.289 
		156.859,110.715 156.074,111.506 155.643,112.536 155.643,113.652 155.592,113.652 155.592,112.543 155.167,111.514 
		154.375,110.722 153.346,110.289 152.229,110.289 151.192,110.715 150.408,111.506 149.976,112.536 149.976,113.652 
		149.926,113.652 149.926,112.543 149.501,111.514 148.709,110.722 147.679,110.289 146.563,110.289 145.526,110.715 
		144.741,111.506 144.31,112.536 144.31,113.652 79.02,113.652 79.02,113.652 78.797,113.104 78.372,112.68 77.825,112.449 
		77.227,112.449 76.673,112.68 76.55,112.803 51.71,112.803 51.3,112.399 50.753,112.169 50.155,112.169 49.608,112.393 
		49.183,112.816 48.953,113.364 48.953,113.962 6.163,113.962 6.163,98.086 7.855,98.086 8.078,98.64 8.503,99.064 9.05,99.288 
		9.648,99.288 10.195,99.064 10.62,98.64 10.735,98.373 16.034,98.373 16.438,98.777 16.985,99.007 17.583,99.007 18.137,98.777 
		18.554,98.359 18.785,97.805 18.785,97.215 18.562,96.66 18.137,96.235 17.59,96.012 16.992,96.012 16.438,96.235 16.034,96.646 
		10.325,96.646 10.202,96.523 9.648,96.293 9.05,96.293 8.503,96.523 8.078,96.941 7.855,97.495 7.855,98.086 6.163,98.086 
		6.163,66.341 6.682,66.341 7.085,66.744 7.632,66.975 8.229,66.975 8.784,66.751 9.202,66.326 9.432,65.779 9.432,65.182 
		9.202,64.627 8.784,64.21 8.229,63.979 7.639,63.979 7.085,64.202 6.682,64.613 6.163,64.613 6.163,59.307 12.658,59.307 
		12.658,60.307 12.895,61.495 13.565,62.496 14.573,63.166 15.753,63.403 16.941,63.166 17.95,62.496 18.619,61.495 18.85,60.307 
		18.85,59.307 18.619,58.118 17.95,57.118 17.662,56.931 19.851,56.931 19.851,62.69 19.894,62.928 20.038,63.151 20.253,63.295 
		20.506,63.346 25.401,63.346 25.646,63.303 25.862,63.158 26.014,62.942 26.064,62.69 26.064,61.51 28.13,61.51 28.13,109.411 
		28.145,109.49 28.188,109.562 28.26,109.613 28.346,109.627 51.3,109.627 51.379,109.613 51.451,109.569 51.501,109.498 
		51.516,109.411 51.516,106.877 106.495,106.877 106.726,107.424 107.144,107.849 107.698,108.079 108.295,108.079 108.843,107.849 
		109.044,107.654 114.034,107.654 114.235,107.849 114.782,108.079 115.063,108.079 117.158,110.174 117.158,110.174 
		117.339,110.289 117.504,110.404 117.915,110.484 117.915,110.484 137.758,110.484 137.758,110.484 138.168,110.404 
		138.521,110.174 139.227,109.462 139.227,109.462 139.442,109.145 141.646,109.145 141.876,109.691 142.294,110.117 
		142.849,110.348 143.445,110.348 143.993,110.117 144.403,109.714 148.694,109.714 149.098,110.117 149.651,110.348 
		150.242,110.348 150.797,110.117 151.222,109.699 151.444,109.145 151.444,108.547 151.222,108 150.797,107.575 150.249,107.352 
		149.651,107.345 149.104,107.575 148.694,107.985 144.403,107.985 143.993,107.575 143.445,107.352 142.849,107.345 
		142.301,107.575 141.876,108 141.646,108.547 141.646,109.145 139.442,109.145 139.464,109.116 139.543,108.705 139.543,108.705 
		139.543,107.525 139.601,107.525 139.846,107.481 140.062,107.338 140.213,107.121 140.263,106.862 140.263,106.805 
		144.28,106.805 144.28,106.805 144.691,106.719 144.777,106.661 145.145,106.661 145.692,106.431 146.116,106.013 146.347,105.459 
		146.347,104.868 146.116,104.313 145.699,103.889 145.145,103.666 144.548,103.666 144,103.889 143.575,104.313 143.431,104.652 
		140.263,104.652 140.263,104.595 140.22,104.356 140.076,104.134 139.86,103.989 139.601,103.932 137.333,103.932 137.095,103.982 
		136.872,104.119 136.728,104.335 136.678,104.595 136.678,106.862 136.721,107.1 136.864,107.323 137.081,107.475 137.333,107.525 
		137.397,107.525 137.397,108.26 137.318,108.338 118.36,108.338 116.819,106.805 120.802,106.805 120.802,106.862 120.845,107.1 
		120.989,107.323 121.205,107.475 121.464,107.525 123.731,107.525 123.97,107.481 124.192,107.338 124.337,107.121 
		124.388,106.862 124.388,104.595 124.344,104.356 124.2,104.134 123.983,103.989 123.731,103.932 121.464,103.932 121.22,103.982 
		121.003,104.119 120.853,104.335 120.802,104.595 120.802,104.652 115.935,104.652 115.524,104.738 115.171,104.969 
		115.063,105.084 114.79,105.084 114.235,105.307 114.034,105.509 109.044,105.509 108.85,105.307 108.295,105.084 107.698,105.084 
		107.15,105.307 106.726,105.732 106.495,106.279 106.495,106.877 51.516,106.877 51.516,102.621 61.143,102.621 61.373,103.176 
		61.791,103.594 62.345,103.824 62.942,103.824 63.49,103.601 63.9,103.19 68.191,103.19 68.594,103.594 69.149,103.824 
		69.739,103.824 70.293,103.601 70.711,103.176 70.941,102.629 70.941,102.031 70.718,101.491 71.064,101.491 71.294,102.038 
		71.712,102.463 72.267,102.693 72.857,102.693 73.059,102.607 73.13,102.621 84.629,102.621 85.039,103.032 85.586,103.255 
		86.185,103.263 86.731,103.032 86.926,102.838 86.926,102.896 86.969,103.133 87.112,103.355 87.329,103.5 87.588,103.558 
		89.856,103.558 90.094,103.507 90.317,103.37 90.461,103.154 90.519,102.896 90.519,100.627 90.468,100.39 90.331,100.166 
		90.108,100.016 89.856,99.965 87.588,99.965 87.343,100.008 87.127,100.152 86.976,100.368 86.926,100.627 86.926,100.678 
		86.738,100.49 86.185,100.26 85.586,100.26 85.039,100.49 84.629,100.894 74.059,100.894 73.836,100.347 73.411,99.922 
		72.864,99.698 72.267,99.691 71.719,99.922 71.294,100.347 71.064,100.894 71.064,101.491 70.718,101.491 70.718,101.477 
		70.293,101.059 69.746,100.829 69.149,100.829 68.594,101.059 68.191,101.463 63.9,101.463 63.49,101.059 62.942,100.829 
		62.345,100.829 61.798,101.059 61.373,101.477 61.143,102.031 61.143,102.621 51.516,102.621 51.516,97.523 73.051,97.523 
		73.274,98.071 73.699,98.496 74.246,98.727 74.844,98.727 75.398,98.496 75.802,98.086 81.799,98.086 82.202,98.496 82.75,98.727 
		83.347,98.727 83.901,98.496 84.305,98.086 86.926,98.086 86.926,98.359 86.969,98.597 87.112,98.82 87.329,98.964 87.588,99.021 
		89.856,99.021 90.094,98.971 90.317,98.834 90.461,98.618 90.519,98.359 90.519,96.092 91.462,96.092 91.462,98.359 91.505,98.597 
		91.649,98.82 91.864,98.964 92.124,99.021 92.182,99.021 92.182,99.965 92.124,99.965 91.879,100.008 91.663,100.152 
		91.512,100.368 91.462,100.627 91.462,102.896 91.505,103.133 91.649,103.355 91.864,103.5 92.124,103.558 94.392,103.558 
		94.63,103.507 94.853,103.37 94.997,103.154 95.055,102.896 95.055,100.627 95.004,100.39 94.867,100.166 94.644,100.016 
		94.392,99.965 94.327,99.965 94.327,99.021 94.392,99.021 94.63,98.971 94.853,98.834 94.997,98.618 95.055,98.359 95.055,97.365 
		105.206,97.365 105.206,101.621 105.257,101.858 105.394,102.082 105.616,102.226 105.868,102.275 110.124,102.275 
		110.361,102.232 110.585,102.089 110.729,101.873 110.786,101.621 110.786,97.365 110.735,97.128 110.599,96.904 110.376,96.761 
		110.124,96.703 105.868,96.703 105.632,96.754 105.408,96.891 105.265,97.106 105.206,97.365 95.055,97.365 95.055,96.092 
		95.004,95.854 94.867,95.631 94.644,95.479 94.392,95.429 94.327,95.429 94.327,94.867 94.528,94.673 94.651,94.37 105.221,94.37 
		105.646,95.393 106.423,96.17 107.445,96.596 108.548,96.596 109.562,96.178 110.347,95.4 110.772,94.378 110.772,93.275 
		110.347,92.254 109.569,91.477 108.548,91.051 107.445,91.051 106.431,91.469 105.646,92.246 105.221,93.269 105.221,94.37 
		94.651,94.37 94.752,94.125 94.752,93.528 94.528,92.974 94.104,92.556 93.557,92.326 92.959,92.326 92.412,92.549 91.987,92.974 
		91.757,93.521 91.757,94.118 91.987,94.673 92.182,94.867 92.182,95.429 92.124,95.429 91.879,95.472 91.663,95.616 91.512,95.832 
		91.462,96.092 90.519,96.092 90.468,95.854 90.331,95.631 90.108,95.479 89.856,95.429 87.588,95.429 87.343,95.472 87.127,95.616 
		86.976,95.832 86.926,96.092 86.926,96.357 84.305,96.357 83.901,95.954 83.354,95.725 82.757,95.725 82.202,95.954 81.799,96.357 
		75.802,96.357 75.398,95.954 74.844,95.725 74.254,95.725 73.699,95.954 73.282,96.372 73.051,96.927 73.051,97.523 51.516,97.523 
		51.516,94.968 66.816,94.968 67.039,95.522 67.464,95.939 68.011,96.17 68.609,96.17 69.156,95.947 69.581,95.522 69.811,94.975 
		69.811,94.378 69.732,94.19 70.027,94.19 70.574,93.96 70.999,93.543 71.229,92.988 71.229,92.391 70.999,91.844 70.582,91.418 
		70.452,91.368 70.452,91.181 70.653,91.225 71.359,91.225 71.597,91.174 71.712,91.102 71.806,91.166 72.065,91.225 72.771,91.225 
		72.972,91.181 72.972,92.549 73.037,92.865 73.037,94.673 73.08,94.91 73.224,95.134 73.44,95.285 73.699,95.335 75.967,95.335 
		76.205,95.292 76.428,95.148 76.572,94.932 76.623,94.673 76.623,92.404 76.579,92.167 76.435,91.944 76.219,91.8 75.967,91.742 
		74.7,91.742 74.7,91.181 74.901,91.225 75.607,91.225 75.845,91.174 76.068,91.037 76.219,90.82 76.27,90.562 76.27,88.704 
		105.221,88.704 105.646,89.727 106.423,90.504 107.445,90.929 108.548,90.929 109.562,90.504 110.347,89.727 110.772,88.711 
		110.772,87.603 110.347,86.587 109.569,85.803 108.548,85.378 107.445,85.378 106.431,85.803 105.646,86.58 105.221,87.603 
		105.221,88.704 76.27,88.704 76.27,88.582 76.227,88.344 76.083,88.121 75.866,87.97 75.607,87.919 74.901,87.919 74.664,87.963 
		74.549,88.041 74.448,87.97 74.189,87.919 73.483,87.919 73.246,87.963 73.13,88.041 73.029,87.97 72.771,87.919 72.065,87.919 
		71.827,87.963 71.712,88.034 71.618,87.97 71.359,87.919 70.653,87.919 70.416,87.963 70.301,88.041 70.2,87.97 69.941,87.919 
		69.235,87.919 68.998,87.963 68.882,88.041 68.782,87.97 68.522,87.919 67.817,87.919 67.579,87.963 67.356,88.106 67.212,88.322 
		67.154,88.582 67.154,90.562 67.205,90.799 67.306,90.965 67.306,93.557 67.039,93.823 66.816,94.378 66.816,94.968 51.516,94.968 
		51.516,84.341 60.999,84.341 61.229,84.888 61.653,85.312 62.201,85.543 62.798,85.543 63.346,85.312 63.771,84.896 64.001,84.341 
		64.001,83.75 63.771,83.196 63.576,82.994 63.576,78.674 64.649,77.602 67.198,77.602 67.154,77.811 67.154,79.632 65.34,79.632 
		65.095,79.675 64.879,79.819 64.728,80.035 64.678,80.287 64.678,80.993 64.721,81.237 64.8,81.353 64.728,81.454 64.678,81.706 
		64.678,82.411 64.721,82.656 64.8,82.771 64.728,82.872 64.678,83.124 64.678,83.83 64.721,84.074 64.793,84.183 64.728,84.283 
		64.678,84.535 64.678,85.241 64.721,85.485 64.8,85.601 64.728,85.702 64.678,85.953 64.678,86.659 64.721,86.904 64.865,87.12 
		65.081,87.271 65.34,87.321 67.32,87.321 67.558,87.278 67.781,87.135 67.925,86.918 67.975,86.659 67.975,85.953 67.932,85.716 
		67.86,85.601 67.925,85.5 67.975,85.241 67.975,84.535 67.932,84.298 67.86,84.183 67.925,84.089 67.975,83.83 67.975,83.124 
		67.932,82.887 67.86,82.771 67.925,82.67 67.975,82.411 67.975,81.706 67.932,81.468 67.86,81.353 67.925,81.252 67.975,80.993 
		67.975,80.453 68.522,80.453 68.76,80.402 68.882,80.33 68.976,80.396 69.235,80.453 69.941,80.453 70.178,80.402 70.301,80.33 
		70.395,80.396 70.653,80.453 71.359,80.453 71.597,80.402 71.712,80.33 71.806,80.396 72.065,80.453 72.771,80.453 73.008,80.402 
		73.231,80.266 73.382,80.05 73.433,79.79 73.433,77.811 74.239,77.811 74.239,79.79 74.29,80.028 74.426,80.251 74.643,80.396 
		74.901,80.453 75.449,80.453 75.449,80.993 75.492,81.237 75.571,81.353 75.499,81.454 75.449,81.706 75.449,82.411 75.492,82.656 
		75.571,82.771 75.499,82.872 75.449,83.124 75.449,83.83 75.492,84.074 75.564,84.183 75.499,84.283 75.449,84.535 75.449,85.241 
		75.492,85.485 75.571,85.601 75.499,85.702 75.449,85.953 75.449,86.659 75.492,86.904 75.636,87.12 75.852,87.271 76.111,87.321 
		78.091,87.321 78.329,87.278 78.552,87.135 78.696,86.918 78.746,86.659 78.746,85.953 78.703,85.716 78.631,85.601 78.696,85.5 
		78.746,85.241 78.746,84.535 78.703,84.298 78.631,84.183 78.696,84.089 78.746,83.83 78.746,83.124 78.703,82.887 78.631,82.771 
		78.696,82.67 78.746,82.411 78.746,81.713 79.855,81.713 79.884,81.871 80.028,82.095 80.244,82.246 80.503,82.296 80.561,82.296 
		80.561,82.857 80.366,83.052 80.136,83.599 80.136,84.197 80.366,84.751 80.784,85.169 81.331,85.399 81.929,85.399 82.274,85.255 
		92.21,85.255 92.405,85.457 92.959,85.68 93.55,85.688 94.104,85.457 94.528,85.032 94.752,84.485 94.752,83.887 94.528,83.34 
		94.227,83.03 105.221,83.03 105.646,84.053 106.423,84.838 107.445,85.255 108.548,85.263 109.562,84.838 110.347,84.06 
		110.772,83.038 110.772,81.936 110.347,80.914 109.569,80.136 108.548,79.711 107.445,79.711 106.431,80.129 105.646,80.914 
		105.221,81.929 105.221,83.03 94.227,83.03 94.104,82.915 93.557,82.685 92.959,82.685 92.412,82.915 92.21,83.109 82.93,83.109 
		82.908,83.052 82.707,82.857 82.707,82.296 82.771,82.296 83.009,82.253 83.232,82.109 83.376,81.893 83.426,81.634 83.426,79.366 
		83.383,79.128 83.239,78.905 83.023,78.761 82.771,78.703 82.707,78.703 82.707,77.479 82.771,77.479 83.009,77.429 83.109,77.364 
		105.221,77.364 105.646,78.387 106.423,79.164 107.445,79.589 108.548,79.589 109.562,79.171 109.649,79.085 113.292,79.085 
		113.292,83.621 113.335,83.858 113.472,84.082 113.695,84.226 113.947,84.276 117.072,84.276 119.066,86.364 119.052,86.356 
		113.947,86.356 113.71,86.407 113.486,86.544 113.343,86.76 113.292,87.02 113.292,91.555 113.335,91.793 113.472,92.016 
		113.695,92.167 113.947,92.218 118.008,92.218 117.899,92.326 117.619,92.326 117.072,92.549 116.647,92.974 116.417,93.521 
		116.417,94.118 116.647,94.673 117.065,95.09 117.619,95.32 118.217,95.32 118.765,95.098 119.188,94.673 119.419,94.125 
		119.419,94.039 120.952,94.039 120.952,94.803 120.996,95.04 121.14,95.264 121.356,95.414 121.608,95.465 121.946,95.465 
		121.946,98.971 121.464,98.971 121.22,99.021 121.003,99.158 120.853,99.375 120.802,99.634 120.802,101.901 120.845,102.139 
		120.989,102.362 121.205,102.514 121.464,102.564 123.731,102.564 123.97,102.521 124.192,102.377 124.337,102.161 
		124.388,101.901 124.388,99.634 124.344,99.396 124.2,99.173 123.983,99.029 123.731,98.971 123.675,98.971 123.675,95.465 
		124.013,95.465 124.258,95.422 124.474,95.277 124.625,95.062 124.675,94.803 124.675,93.967 129.305,93.967 129.305,94.803 
		129.349,95.04 129.492,95.264 129.708,95.414 129.96,95.465 131.004,95.465 133.056,97.517 133.056,98.971 132.797,98.971 
		132.56,99.021 132.336,99.158 132.192,99.375 132.142,99.634 132.142,101.901 132.185,102.139 132.329,102.362 132.545,102.514 
		132.797,102.564 133.056,102.564 133.056,103.932 132.797,103.932 132.56,103.982 132.336,104.119 132.192,104.335 
		132.142,104.595 132.142,106.862 132.185,107.1 132.329,107.323 132.545,107.475 132.797,107.525 135.065,107.525 135.31,107.481 
		135.525,107.338 135.677,107.121 135.728,106.862 135.728,104.595 135.685,104.356 135.54,104.134 135.324,103.989 
		135.065,103.932 134.806,103.932 134.806,102.564 135.065,102.564 135.31,102.521 135.525,102.377 135.677,102.161 
		135.728,101.901 135.728,99.634 135.691,99.446 151.51,99.446 151.51,105.206 151.553,105.444 151.696,105.667 151.913,105.818 
		152.172,105.869 157.933,105.869 158.169,105.826 158.393,105.682 158.537,105.466 158.595,105.206 158.595,99.446 158.544,99.209 
		158.407,98.985 158.191,98.842 157.933,98.784 152.172,98.784 151.935,98.834 151.711,98.971 151.56,99.188 151.51,99.446 
		135.691,99.446 135.685,99.396 135.54,99.173 135.324,99.029 135.065,98.971 134.806,98.971 134.806,97.156 134.741,96.818 
		134.554,96.537 132.991,94.975 133.027,94.803 133.027,93.967 132.983,93.729 132.84,93.506 132.624,93.362 132.364,93.305 
		129.96,93.305 129.723,93.355 129.499,93.492 129.355,93.708 129.305,93.967 124.675,93.967 124.632,93.729 124.596,93.68 
		124.625,93.644 124.675,93.384 124.675,92.549 124.632,92.312 124.603,92.261 124.625,92.232 124.675,91.973 124.675,91.138 
		124.632,90.9 124.488,90.677 124.272,90.533 124.013,90.475 121.716,90.475 119.714,90.13 119.714,87.041 120.952,88.33 
		120.952,89.144 120.996,89.381 121.14,89.604 121.356,89.755 121.608,89.806 124.013,89.806 124.258,89.763 124.474,89.618 
		124.625,89.402 124.675,89.144 124.675,88.309 129.305,88.309 129.305,89.144 129.349,89.381 129.377,89.432 129.355,89.467 
		129.305,89.727 129.305,90.562 129.349,90.799 129.377,90.85 129.355,90.879 129.305,91.138 129.305,91.973 129.349,92.211 
		129.492,92.434 129.708,92.585 129.96,92.635 132.364,92.635 132.394,92.628 134.2,92.628 134.223,92.686 134.64,93.11 
		135.194,93.334 135.792,93.341 136.339,93.11 136.541,92.908 137.239,92.908 137.239,93.543 137.29,93.78 137.427,94.003 
		137.643,94.147 137.901,94.197 138.607,94.197 141.818,97.416 142.171,97.646 142.581,97.732 142.581,97.732 146.066,97.732 
		146.269,97.928 146.815,98.158 147.413,98.158 147.96,97.928 148.385,97.51 148.615,96.955 148.615,96.955 148.73,96.955 
		148.961,97.502 149.386,97.928 149.933,98.158 150.53,98.158 151.077,97.928 151.488,97.523 161.165,97.523 161.287,97.646 
		161.842,97.869 162.433,97.869 162.986,97.646 163.411,97.222 163.634,96.674 163.634,96.077 163.411,95.529 162.986,95.104 
		162.439,94.875 161.842,94.875 161.287,95.104 160.87,95.522 160.755,95.796 151.488,95.796 151.085,95.386 150.53,95.162 
		149.933,95.162 149.386,95.386 148.961,95.811 148.737,96.357 148.73,96.955 148.615,96.955 148.615,96.357 148.385,95.811 
		147.968,95.386 147.413,95.162 146.815,95.162 146.269,95.386 146.066,95.587 143.021,95.587 140.832,93.391 140.832,91.274 
		140.789,91.029 140.645,90.813 140.429,90.662 140.169,90.612 137.901,90.612 137.664,90.655 137.491,90.764 137.376,90.764 
		137.384,90.764 138.478,89.662 140.169,89.662 140.407,89.618 140.63,89.475 140.782,89.258 140.832,89.006 140.832,86.738 
		140.789,86.494 140.645,86.277 140.429,86.127 140.169,86.076 139.91,86.076 139.91,85.694 140.169,85.694 140.407,85.651 
		140.63,85.507 140.782,85.291 140.832,85.039 140.832,84.766 141.775,84.766 142.279,84.975 142.877,84.975 143.424,84.751 
		143.849,84.326 144.079,83.779 144.079,83.765 152.698,83.765 152.698,89.705 152.741,89.942 152.885,90.166 153.101,90.31 
		153.36,90.367 157.889,90.367 158.126,90.316 158.35,90.18 158.501,89.957 158.552,89.705 158.552,83.765 158.501,83.52 
		158.364,83.304 158.147,83.153 157.889,83.103 153.36,83.103 153.122,83.146 152.899,83.29 152.748,83.506 152.698,83.765 
		144.079,83.765 144.079,83.182 143.849,82.627 143.431,82.21 142.877,81.979 142.279,81.979 141.731,82.202 141.308,82.627 
		141.142,83.038 140.832,83.038 140.832,82.771 140.789,82.526 140.645,82.311 140.429,82.159 140.169,82.109 137.901,82.109 
		137.664,82.152 137.44,82.296 137.29,82.512 137.239,82.771 137.239,85.039 137.29,85.277 137.427,85.5 137.643,85.644 
		137.901,85.694 138.161,85.694 138.161,86.076 137.901,86.076 137.664,86.119 137.44,86.264 137.29,86.479 137.239,86.738 
		137.239,88.431 136.987,88.676 136.994,88.143 136.765,87.588 136.339,87.17 135.792,86.939 135.194,86.939 134.647,87.163 
		134.223,87.588 134.193,87.652 132.394,87.652 132.364,87.646 129.96,87.646 129.723,87.696 129.499,87.833 129.355,88.049 
		129.305,88.309 124.675,88.309 124.632,88.07 124.488,87.848 124.272,87.703 124.013,87.646 123.884,87.646 123.884,85.125 
		124.114,85.083 124.329,84.945 124.481,84.729 124.531,84.471 124.531,82.202 124.488,81.958 124.344,81.742 124.128,81.59 
		123.868,81.54 123.812,81.54 123.812,81.267 124.006,81.064 124.235,80.518 124.235,79.92 124.006,79.373 123.812,79.171 
		123.812,77.083 127.354,77.083 127.973,76.968 128.412,76.688 128.801,76.954 129.456,77.083 134.554,77.083 135.173,76.968 
		135.734,76.608 136.116,76.054 136.245,75.398 136.245,74.275 137.109,74.275 137.34,74.83 137.758,75.247 138.312,75.478 
		138.909,75.478 139.233,75.341 152.59,75.341 152.546,75.55 152.546,76.68 152.604,76.975 152.64,77.025 152.611,77.069 
		152.546,77.386 152.546,78.516 152.604,78.812 152.64,78.861 152.611,78.905 152.546,79.222 152.546,80.352 152.604,80.647 
		152.776,80.914 153.043,81.094 153.353,81.158 157.169,81.158 157.464,81.101 157.737,80.928 157.917,80.662 157.982,80.352 
		157.982,79.222 157.925,78.927 157.889,78.869 157.917,78.826 157.982,78.516 157.982,77.386 157.925,77.09 157.889,77.033 
		157.917,76.989 157.982,76.68 157.982,75.55 157.925,75.254 157.889,75.197 157.917,75.146 157.982,74.837 157.982,73.706 
		157.925,73.411 157.752,73.145 157.485,72.958 157.169,72.9 153.353,72.9 153.065,72.95 152.791,73.123 152.748,73.195 
		139.91,73.195 139.882,73.13 139.464,72.713 138.909,72.482 138.312,72.482 137.765,72.713 137.34,73.13 137.109,73.685 
		137.109,74.275 136.245,74.275 136.245,72.007 140.854,72.007 141.026,72.417 141.444,72.842 141.999,73.073 142.589,73.073 
		143.144,72.842 143.567,72.417 143.791,71.87 143.791,71.272 143.567,70.726 143.144,70.301 142.596,70.07 141.999,70.07 
		141.494,70.279 136.245,70.279 136.245,66.896 136.13,66.283 136.073,66.197 152.698,66.197 152.698,72.137 152.741,72.375 
		152.885,72.598 153.101,72.742 153.36,72.799 157.889,72.799 158.126,72.749 158.35,72.612 158.501,72.389 158.552,72.137 
		158.552,66.197 158.501,65.952 158.364,65.736 158.147,65.585 157.889,65.534 153.36,65.534 153.122,65.578 152.899,65.722 
		152.748,65.938 152.698,66.197 136.073,66.197 135.771,65.714 135.216,65.34 134.554,65.203 129.456,65.203 128.844,65.318 
		128.405,65.606 128.017,65.34 127.354,65.203 122.256,65.203 121.644,65.318 121.075,65.686 120.7,66.24 120.563,66.896 
		120.563,75.398 120.679,76.011 121.046,76.572 121.601,76.954 121.665,76.968 121.665,79.171 121.464,79.366 121.241,79.92 
		121.241,80.511 121.464,81.064 121.665,81.259 121.665,81.54 121.601,81.54 121.363,81.583 121.14,81.728 120.996,81.943 
		120.938,82.202 120.938,84.471 120.989,84.708 121.126,84.931 121.349,85.075 121.601,85.133 121.737,85.133 121.737,86.055 
		119.657,83.88 119.657,83.873 119.714,83.621 119.714,79.085 119.664,78.84 119.527,78.624 119.312,78.473 119.052,78.422 
		113.947,78.422 113.71,78.466 113.486,78.609 113.343,78.826 113.292,79.085 109.649,79.085 110.347,78.387 110.772,77.371 
		110.772,76.263 110.347,75.247 109.569,74.462 108.548,74.045 107.445,74.038 106.431,74.462 105.646,75.24 105.221,76.263 
		105.221,77.364 83.109,77.364 83.232,77.292 83.376,77.076 83.426,76.817 83.426,74.549 83.383,74.304 83.239,74.088 
		83.023,73.937 82.771,73.887 80.503,73.887 80.258,73.93 80.042,74.073 79.891,74.29 79.841,74.549 79.841,76.817 79.884,77.055 
		80.028,77.277 80.244,77.422 80.503,77.479 80.561,77.479 80.561,78.703 80.503,78.703 80.258,78.754 80.042,78.891 79.891,79.106 
		79.841,79.366 79.841,79.567 78.444,79.567 78.653,79.366 78.883,78.818 78.883,78.221 78.653,77.667 78.235,77.249 77.681,77.019 
		77.083,77.019 76.536,77.242 76.219,77.559 76.083,77.35 75.866,77.198 75.607,77.148 74.901,77.148 74.664,77.191 74.441,77.335 
		74.297,77.551 74.239,77.811 73.433,77.811 73.39,77.573 73.282,77.407 73.282,75.211 73.699,75.211 73.937,75.161 74.16,75.024 
		74.304,74.808 74.361,74.549 74.361,72.281 74.311,72.043 74.174,71.82 73.987,71.697 105.221,71.697 105.646,72.713 
		106.423,73.498 107.445,73.922 108.548,73.922 109.562,73.498 110.347,72.72 110.772,71.697 110.772,70.596 110.347,69.573 
		109.569,68.796 108.548,68.371 107.445,68.371 106.431,68.796 105.646,69.573 105.221,70.589 105.221,71.697 73.987,71.697 
		73.951,71.669 73.699,71.618 71.431,71.618 71.187,71.662 70.971,71.806 70.819,72.021 70.769,72.281 70.769,74.549 70.812,74.786 
		70.956,75.01 71.172,75.153 71.431,75.211 71.554,75.211 71.554,76.543 69.826,74.312 69.826,72.281 69.775,72.043 69.639,71.82 
		69.422,71.669 69.163,71.618 66.896,71.618 66.65,71.662 66.435,71.806 66.283,72.021 66.233,72.281 66.233,74.549 66.276,74.786 
		66.42,75.01 66.636,75.153 66.896,75.211 68.328,75.211 68.522,75.456 64.202,75.456 63.792,75.542 63.439,75.772 61.74,77.472 
		61.51,77.825 61.431,78.235 61.431,78.235 61.431,82.994 61.229,83.196 61.006,83.743 60.999,84.341 51.516,84.341 51.516,62.942 
		140.515,62.942 140.738,63.489 141.163,63.914 141.71,64.138 142.308,64.138 142.862,63.914 143.057,63.713 157.976,63.713 
		158.169,63.914 158.724,64.138 159.314,64.138 159.868,63.914 160.286,63.489 160.517,62.942 160.517,62.345 160.294,61.798 
		159.868,61.373 159.321,61.143 158.724,61.143 158.169,61.373 157.976,61.567 143.057,61.567 142.862,61.373 142.308,61.143 
		141.718,61.143 141.163,61.373 140.745,61.79 140.515,62.345 140.515,62.942 51.516,62.942 51.516,61.51 51.501,61.431 
		51.458,61.358 51.386,61.308 51.3,61.294 28.346,61.294 28.267,61.308 28.195,61.352 28.145,61.423 28.13,61.51 26.064,61.51 
		26.064,59.393 124.214,59.393 124.444,59.947 124.862,60.365 125.417,60.595 126.007,60.595 126.562,60.372 126.756,60.17 
		137.427,60.17 137.621,60.365 138.168,60.595 138.766,60.595 139.319,60.372 139.737,59.947 139.968,59.4 139.968,58.803 
		139.737,58.248 139.319,57.83 138.766,57.6 138.175,57.6 137.621,57.83 137.427,58.025 126.756,58.025 126.562,57.83 126.015,57.6 
		125.417,57.6 124.862,57.83 124.444,58.248 124.214,58.803 124.214,59.393 26.064,59.393 26.064,57.269 49.377,57.269 
		49.608,57.823 50.025,58.241 50.58,58.471 51.178,58.471 51.725,58.241 52.135,57.838 56.182,57.838 56.412,58.385 56.83,58.81 
		57.384,59.04 57.981,59.04 58.529,58.81 58.954,58.392 59.177,57.838 59.177,57.24 58.954,56.693 58.529,56.268 57.981,56.045 
		57.384,56.038 57.189,56.124 57.118,56.109 52.135,56.109 51.876,55.851 76.025,55.851 76.255,56.405 76.673,56.822 77.227,57.053 
		77.817,57.053 78.372,56.83 78.782,56.419 115.668,56.419 116.078,56.822 116.626,57.053 117.224,57.053 117.771,56.83 
		118.195,56.405 118.426,55.857 118.426,55.26 118.195,54.706 117.777,54.288 117.224,54.058 116.626,54.058 116.078,54.288 
		115.668,54.691 78.775,54.691 78.372,54.288 77.825,54.058 77.227,54.058 76.673,54.288 76.255,54.706 76.025,55.253 
		76.025,55.851 51.876,55.851 51.725,55.706 51.178,55.476 50.58,55.476 50.033,55.699 49.608,56.124 49.377,56.671 49.377,57.269 
		26.064,57.269 26.064,56.931 26.021,56.686 25.877,56.47 25.661,56.318 25.401,56.268 20.506,56.268 20.268,56.312 20.045,56.455 
		19.901,56.671 19.851,56.931 17.662,56.931 16.941,56.448 15.753,56.21 14.573,56.448 13.565,57.118 12.895,58.118 12.658,59.307 
		6.163,59.307 6.163,53.583 14.897,53.583 15.307,53.993 15.854,54.216 16.452,54.216 16.999,53.993 17.424,53.568 17.654,53.021 
		17.654,52.423 17.424,51.876 17.006,51.451 16.452,51.221 15.854,51.221 15.307,51.451 14.897,51.854 6.163,51.854 6.163,48.607 
		52.063,48.607 52.063,52.862 52.106,53.1 52.25,53.323 52.466,53.475 52.718,53.525 56.974,53.525 57.211,53.481 57.435,53.338 
		57.578,53.122 57.636,52.862 57.636,51.286 57.744,51.286 58.162,52.308 58.939,53.086 59.961,53.511 61.063,53.511 62.085,53.093 
		62.863,52.308 63.288,51.293 63.288,51.286 63.41,51.286 63.835,52.308 64.613,53.086 65.628,53.511 66.737,53.511 67.752,53.093 
		68.537,52.308 68.961,51.293 68.961,51.286 69.077,51.286 69.501,52.308 70.279,53.086 71.302,53.511 72.403,53.511 73.426,53.093 
		74.203,52.308 74.628,51.293 74.628,51.286 74.75,51.286 75.168,52.308 75.953,53.086 76.968,53.511 78.077,53.511 79.092,53.093 
		79.877,52.308 80.294,51.293 80.294,51.286 80.417,51.286 80.842,52.308 81.619,53.086 82.642,53.511 83.743,53.511 84.766,53.093 
		85.543,52.308 85.968,51.293 85.968,51.286 86.091,51.286 86.508,52.308 87.286,53.086 88.308,53.511 89.409,53.511 90.433,53.093 
		91.21,52.308 91.634,51.293 91.634,51.02 121.083,51.02 121.083,53.287 121.126,53.525 121.27,53.748 121.485,53.899 
		121.745,53.95 124.006,53.95 124.214,54.158 124.214,54.432 124.444,54.986 124.862,55.411 125.417,55.634 126.007,55.634 
		126.562,55.411 126.972,55.001 148.169,55.001 148.392,55.555 148.817,55.973 149.364,56.203 149.962,56.203 150.517,55.973 
		150.919,55.569 161.287,55.569 161.618,55.505 161.842,55.354 162.433,55.354 162.986,55.123 163.411,54.706 163.634,54.151 
		163.634,53.561 163.411,53.006 162.986,52.582 162.439,52.358 161.842,52.358 161.287,52.582 160.87,53.006 160.64,53.554 
		160.64,53.842 150.919,53.842 150.517,53.438 149.962,53.208 149.371,53.208 148.817,53.431 148.399,53.856 148.169,54.403 
		148.169,55.001 126.972,55.001 126.979,54.986 127.21,54.439 127.21,53.842 126.986,53.287 126.562,52.87 126.015,52.639 
		125.733,52.639 124.675,51.581 124.675,51.02 124.625,50.781 124.51,50.595 127.742,50.595 127.742,52.862 127.793,53.1 
		127.93,53.323 128.146,53.475 128.405,53.525 130.673,53.525 130.91,53.475 131.134,53.338 131.284,53.122 131.335,52.862 
		131.335,50.595 131.292,50.356 131.147,50.134 130.933,49.982 130.752,49.954 130.752,46.591 130.853,46.526 130.997,46.311 
		131.055,46.059 131.055,43.79 133.696,43.79 133.696,46.059 133.74,46.296 133.884,46.52 134.101,46.663 134.359,46.714 
		134.417,46.714 134.417,49.932 134.359,49.932 134.122,49.982 133.898,50.119 133.747,50.335 133.696,50.595 133.696,52.862 
		133.74,53.1 133.884,53.323 134.101,53.475 134.359,53.525 136.627,53.525 136.864,53.475 137.088,53.338 137.231,53.122 
		137.275,52.935 137.621,53.28 138.168,53.511 138.766,53.511 139.319,53.28 139.737,52.862 139.968,52.308 139.968,51.718 
		139.737,51.163 139.319,50.746 138.766,50.515 138.175,50.515 137.621,50.738 137.606,50.76 137.29,50.746 137.29,50.595 
		137.239,50.356 137.103,50.134 136.886,49.982 136.627,49.932 136.562,49.932 136.562,45.346 136.562,45.346 136.483,44.936 
		136.476,44.921 136.44,44.863 136.44,43.79 136.39,43.546 136.253,43.33 136.037,43.179 135.777,43.128 134.359,43.128 
		134.114,43.171 133.898,43.315 133.747,43.531 133.696,43.79 131.055,43.79 131.004,43.546 130.867,43.33 130.651,43.179 
		130.392,43.128 128.974,43.128 128.729,43.171 128.513,43.315 128.361,43.531 128.312,43.79 128.312,46.059 128.354,46.296 
		128.499,46.52 128.606,46.591 128.606,49.932 128.405,49.932 128.167,49.982 127.944,50.119 127.8,50.335 127.742,50.595 
		124.51,50.595 124.488,50.559 124.272,50.414 124.013,50.356 121.745,50.356 121.507,50.407 121.284,50.544 121.133,50.76 
		121.083,51.02 91.634,51.02 91.634,50.184 91.217,49.169 90.439,48.384 89.417,47.966 88.315,47.959 87.293,48.384 86.515,49.162 
		86.091,50.184 86.091,51.286 85.968,51.286 85.968,50.184 85.543,49.169 84.766,48.384 83.75,47.966 82.642,47.959 81.626,48.384 
		80.842,49.162 80.417,50.184 80.417,51.286 80.294,51.286 80.302,50.184 79.877,49.169 79.099,48.384 78.077,47.966 76.975,47.959 
		75.953,48.384 75.175,49.162 74.75,50.184 74.75,51.286 74.628,51.286 74.628,50.184 74.21,49.169 73.426,48.384 72.41,47.966 
		71.309,47.959 70.286,48.384 69.501,49.162 69.084,50.184 69.077,51.286 68.961,51.286 68.961,50.184 68.537,49.169 67.759,48.384 
		66.737,47.966 65.635,47.959 64.613,48.384 63.835,49.162 63.41,50.184 63.41,51.286 63.288,51.286 63.288,50.184 62.87,49.169 
		62.093,48.384 61.07,47.966 59.969,47.959 58.946,48.384 58.169,49.162 57.744,50.184 57.744,51.286 57.636,51.286 57.636,48.607 
		57.585,48.37 57.449,48.146 57.233,48.002 56.974,47.952 52.718,47.952 52.481,47.995 52.258,48.139 52.114,48.355 52.063,48.607 
		6.163,48.607 6.163,41.386 121.083,41.386 121.083,43.653 121.126,43.891 121.27,44.114 121.485,44.258 121.745,44.309 
		121.802,44.309 121.802,45.821 121.745,45.821 121.507,45.871 121.284,46.008 121.133,46.224 121.083,46.483 121.083,48.751 
		121.126,48.989 121.27,49.212 121.485,49.363 121.745,49.414 124.013,49.414 124.251,49.37 124.474,49.227 124.618,49.011 
		124.675,48.751 124.675,46.483 124.625,46.246 124.488,46.022 124.272,45.878 124.013,45.821 123.948,45.821 123.948,44.309 
		124.013,44.309 124.251,44.266 124.474,44.122 124.618,43.905 124.675,43.653 124.675,41.386 124.625,41.141 124.488,40.925 
		124.272,40.773 124.013,40.723 121.745,40.723 121.507,40.767 121.284,40.91 121.133,41.126 121.083,41.386 6.163,41.386 
		6.163,36.85 121.083,36.85 121.083,39.118 121.126,39.355 121.27,39.578 121.485,39.723 121.745,39.772 124.013,39.772 
		124.251,39.729 124.474,39.586 124.618,39.37 124.675,39.118 124.675,39.053 128.312,39.053 128.312,39.262 128.354,39.499 
		128.499,39.723 128.714,39.866 128.974,39.917 130.392,39.917 130.63,39.874 130.853,39.729 130.997,39.514 131.055,39.262 
		131.055,36.994 133.696,36.994 133.696,39.262 133.74,39.499 133.884,39.723 134.101,39.866 134.359,39.917 135.777,39.917 
		136.015,39.874 136.238,39.729 136.382,39.514 136.44,39.262 136.44,36.994 136.39,36.749 136.253,36.533 136.138,36.454 
		136.138,32.896 136.347,32.688 137.758,32.688 138.003,32.645 138.218,32.501 138.37,32.285 138.42,32.025 138.42,31.968 
		139.587,31.968 139.802,32.191 139.802,32.465 140.032,33.02 140.45,33.437 141.005,33.667 141.603,33.667 142.149,33.444 
		142.574,33.02 142.805,32.472 142.805,31.875 142.574,31.32 142.157,30.902 141.603,30.672 141.321,30.672 140.789,30.132 
		140.437,29.901 140.025,29.822 140.025,29.822 138.42,29.822 138.42,29.758 138.377,29.52 138.233,29.297 138.017,29.153 
		137.758,29.103 135.489,29.103 135.252,29.146 135.028,29.29 134.885,29.506 134.835,29.758 134.835,31.169 134.309,31.694 
		134.078,32.04 133.992,32.45 133.992,32.45 133.992,36.454 133.898,36.519 133.747,36.734 133.696,36.994 131.055,36.994 
		131.004,36.749 130.867,36.533 130.651,36.382 130.392,36.331 128.974,36.331 128.729,36.375 128.513,36.519 128.361,36.734 
		128.325,36.907 124.675,36.907 124.675,36.85 124.625,36.604 124.488,36.389 124.272,36.237 124.013,36.188 121.745,36.188 
		121.507,36.23 121.284,36.375 121.133,36.59 121.083,36.85 6.163,36.85 6.163,26.942 23.163,26.942 23.386,27.489 23.811,27.914 
		24.357,28.138 24.955,28.138 25.502,27.914 25.848,27.576 32.544,27.576 32.738,27.771 33.286,28.001 33.883,28.001 34.438,27.771 
		34.632,27.576 41.544,27.576 41.386,27.641 40.961,28.059 40.737,28.613 40.73,29.203 40.961,29.758 41.386,30.183 41.933,30.405 
		42.53,30.405 43.078,30.183 43.207,30.06 84.629,30.06 85.039,30.463 85.586,30.693 86.185,30.693 86.731,30.463 87.156,30.046 
		87.386,29.491 87.386,28.894 87.156,28.347 86.738,27.922 86.185,27.698 85.586,27.691 85.039,27.922 84.629,28.332 43.618,28.332 
		43.502,28.065 43.085,27.641 42.919,27.576 48.132,27.576 48.326,27.771 48.881,28.001 49.471,28.001 50.025,27.771 50.22,27.576 
		82.145,27.576 82.347,27.771 82.894,28.001 83.491,28.001 84.039,27.771 84.24,27.576 92.779,27.576 92.974,27.771 93.521,28.001 
		94.118,28.001 94.673,27.771 94.867,27.576 136.714,27.576 136.908,27.771 137.462,28.001 138.06,28.001 138.607,27.771 
		138.809,27.576 143.496,27.576 143.575,27.771 144,28.195 144.548,28.426 145.145,28.426 145.692,28.195 146.116,27.777 
		146.347,27.223 146.347,26.625 146.116,26.078 145.699,25.653 145.145,25.431 144.548,25.431 144.511,25.445 144.425,25.431 
		144.425,25.431 138.809,25.431 138.607,25.229 138.06,25.006 137.462,24.998 136.915,25.229 136.714,25.431 94.867,25.431 
		94.673,25.229 94.126,25.006 93.528,24.998 92.974,25.229 92.779,25.431 84.24,25.431 84.046,25.229 83.491,25.006 82.894,24.998 
		82.347,25.229 82.145,25.431 50.22,25.431 50.025,25.229 49.479,25.006 48.881,24.998 48.326,25.229 48.132,25.431 34.632,25.431 
		34.438,25.229 33.883,25.006 33.293,24.998 32.738,25.229 32.544,25.431 25.56,25.431 25.51,25.373 24.955,25.143 24.357,25.143 
		23.811,25.373 23.386,25.79 23.163,26.345 23.163,26.942 6.163,26.942 6.163,15.725 8.042,15.725 9.015,18.079 10.822,19.879 
		13.176,20.858 15.725,20.866 18.079,19.887 19.879,18.086 20.858,15.732 20.858,15.725 149.774,15.725 150.746,18.079 
		152.554,19.879 154.908,20.858 157.457,20.866 159.812,19.887 161.611,18.086 162.591,15.732 162.598,13.183 161.618,10.829 
		159.818,9.021 157.464,8.05 154.915,8.042 152.561,9.015 150.754,10.821 149.782,13.176 149.774,15.725 20.858,15.725 
		20.866,13.183 20.693,12.766 49.521,12.766 49.752,13.32 50.169,13.737 50.724,13.968 51.314,13.968 51.869,13.737 52.272,13.334 
		75.845,13.334 76.248,13.737 76.802,13.968 77.393,13.968 77.947,13.737 78.365,13.32 78.595,12.766 78.595,12.485 93.456,12.485 
		93.687,13.032 94.104,13.457 94.658,13.68 95.256,13.688 95.804,13.457 96.214,13.046 118.93,13.046 119.333,13.457 119.888,13.68 
		120.485,13.688 121.032,13.457 121.457,13.032 121.681,12.485 121.688,11.887 121.457,11.34 121.032,10.915 120.485,10.685 
		119.888,10.685 119.34,10.915 118.93,11.318 96.214,11.318 95.811,10.915 95.256,10.685 94.658,10.685 94.111,10.915 
		93.687,11.333 93.456,11.887 93.456,12.485 78.595,12.485 78.595,12.175 78.372,11.621 77.947,11.196 77.4,10.973 76.802,10.973 
		76.248,11.196 75.845,11.606 52.272,11.606 51.869,11.196 51.322,10.973 50.724,10.973 50.169,11.196 49.752,11.621 49.521,12.168 
		49.521,12.766 20.693,12.766 19.886,10.829 18.086,9.021 15.732,8.05 13.183,8.042 10.829,9.015 9.021,10.821 8.05,13.176 
		8.042,15.725 6.163,15.725 6.163,6.163 164.477,6.163 164.477,63.972 	"/>
</g>
<g>
	<circle fill="none" cx="138.614" cy="73.984" r="0.567"/>
</g>
<g>
	<circle fill="none" cx="125.716" cy="54.142" r="0.567"/>
</g>
<g>
	<circle fill="none" cx="125.716" cy="59.102" r="0.567"/>
</g>
<g>
	<circle fill="none" cx="138.473" cy="59.102" r="0.567"/>
</g>
<g>
	<circle fill="none" cx="138.473" cy="52.016" r="0.567"/>
</g>
<g>
	<circle fill="none" cx="141.308" cy="32.173" r="0.567"/>
</g>
<g>
	<circle fill="none" cx="142.016" cy="62.646" r="0.567"/>
</g>
<g>
	<circle fill="none" cx="159.023" cy="62.646" r="0.567"/>
</g>
<g>
	<circle fill="none" cx="147.118" cy="96.662" r="0.567"/>
</g>
<g>
	<circle fill="none" cx="135.496" cy="91.842" r="0.567"/>
</g>
<g>
	<circle fill="none" cx="135.496" cy="88.441" r="0.567"/>
</g>
<g>
	<circle fill="none" cx="122.739" cy="80.22" r="0.567"/>
</g>
<g>
	<circle fill="none" cx="81.637" cy="83.905" r="0.567"/>
</g>
<g>
	<circle fill="none" cx="62.504" cy="84.047" r="0.567"/>
</g>
<g>
	<circle fill="none" cx="24.662" cy="26.646" r="0.567"/>
</g>
<g>
	<circle fill="none" cx="33.449" cy="144.567" r="0.567"/>
</g>
<g>
	<circle fill="none" cx="75.969" cy="144.567" r="0.567"/>
</g>
<g>
	<circle fill="none" cx="26.646" cy="144.567" r="0.567"/>
</g>
<g>
	<circle fill="none" cx="115.087" cy="144.284" r="0.567"/>
</g>
<g>
	<circle fill="none" cx="83.197" cy="26.504" r="0.567"/>
</g>
<g>
	<circle fill="none" cx="137.765" cy="26.504" r="0.567"/>
</g>
<g>
	<circle fill="none" cx="93.827" cy="26.504" r="0.567"/>
</g>
<g>
	<circle fill="none" cx="49.181" cy="26.504" r="0.567"/>
</g>
<g>
	<circle fill="none" cx="144.851" cy="26.929" r="0.567"/>
</g>
<g>
	<circle fill="none" cx="33.59" cy="26.504" r="0.567"/>
</g>
<g>
	<circle fill="none" cx="143.434" cy="137.197" r="0.567"/>
</g>
<g>
	<circle fill="none" cx="93.261" cy="93.827" r="0.567"/>
</g>
<g>
	<circle fill="none" cx="144.851" cy="105.166" r="0.567"/>
</g>
<g>
	<circle fill="none" cx="108" cy="106.583" r="0.567"/>
</g>
<g>
	<circle fill="none" cx="115.087" cy="106.583" r="0.567"/>
</g>
<g>
	<circle fill="none" cx="115.087" cy="133.512" r="0.566"/>
</g>
<g>
	<circle fill="none" cx="76.819" cy="133.512" r="0.566"/>
</g>
<g>
	<circle fill="none" cx="115.087" cy="122.173" r="0.567"/>
</g>
<g>
	<circle fill="none" cx="117.922" cy="93.827" r="0.567"/>
</g>
<g>
	<circle fill="none" cx="93.261" cy="84.189" r="0.567"/>
</g>
<g>
	<circle fill="none" cx="77.103" cy="12.472" r="0.567"/>
</g>
<g>
	<circle fill="none" cx="51.023" cy="12.472" r="0.567"/>
</g>
<g>
	<circle fill="none" cx="120.188" cy="12.189" r="0.567"/>
</g>
<g>
	<circle fill="none" cx="94.961" cy="12.189" r="0.567"/>
</g>
<g>
	<circle fill="none" cx="149.669" cy="54.708" r="0.567"/>
</g>
<g>
	<circle fill="none" cx="162.142" cy="53.858" r="0.567"/>
</g>
<g>
	<circle fill="none" cx="153.07" cy="117.921" r="0.567"/>
</g>
<g>
	<circle fill="none" cx="143.149" cy="117.921" r="0.567"/>
</g>
<g>
	<circle fill="none" cx="143.149" cy="108.85" r="0.567"/>
</g>
<g>
	<circle fill="none" cx="149.953" cy="108.85" r="0.567"/>
</g>
<g>
	<circle fill="none" cx="150.235" cy="96.662" r="0.567"/>
</g>
<g>
	<circle fill="none" cx="162.142" cy="96.377" r="0.567"/>
</g>
<g>
	<circle fill="none" cx="93.827" cy="147.118" r="0.567"/>
</g>
<g>
	<circle fill="none" cx="117.07" cy="148.819" r="0.567"/>
</g>
<g>
	<circle fill="none" cx="51.307" cy="149.386" r="0.567"/>
</g>
<g>
	<circle fill="none" cx="72.851" cy="150.52" r="0.566"/>
</g>
<g>
	<circle fill="none" cx="17.292" cy="97.512" r="0.566"/>
</g>
<g>
	<circle fill="none" cx="9.354" cy="97.795" r="0.567"/>
</g>
<g>
	<circle fill="none" cx="16.157" cy="52.724" r="0.567"/>
</g>
<g>
	<circle fill="none" cx="2.551" cy="53.575" r="0.567"/>
</g>
<g>
	<circle fill="none" cx="3.685" cy="65.48" r="0.567"/>
</g>
<g>
	<circle fill="none" cx="7.937" cy="65.48" r="0.567"/>
</g>
<g>
	<circle fill="none" cx="137.765" cy="123.591" r="0.567"/>
</g>
<g>
	<circle fill="none" cx="77.527" cy="55.559" r="0.567"/>
</g>
<g>
	<circle fill="none" cx="116.93" cy="55.559" r="0.567"/>
</g>
<g>
	<circle fill="none" cx="77.386" cy="78.52" r="0.567"/>
</g>
<g>
	<circle fill="none" cx="50.882" cy="56.976" r="0.567"/>
</g>
<g>
	<circle fill="none" cx="57.685" cy="57.543" r="0.567"/>
</g>
<g>
	<circle fill="none" cx="62.646" cy="102.331" r="0.567"/>
</g>
<g>
	<circle fill="none" cx="69.449" cy="102.331" r="0.567"/>
</g>
<g>
	<circle fill="none" cx="85.89" cy="29.197" r="0.567"/>
</g>
<g>
	<circle fill="none" cx="42.236" cy="28.914" r="0.567"/>
</g>
<g>
	<circle fill="none" cx="77.527" cy="113.953" r="0.567"/>
</g>
<g>
	<circle fill="none" cx="50.457" cy="113.669" r="0.567"/>
</g>
<g>
	<circle fill="none" cx="85.89" cy="101.764" r="0.567"/>
</g>
<g>
	<circle fill="none" cx="68.315" cy="94.677" r="0.567"/>
</g>
<g>
	<circle fill="none" cx="72.566" cy="101.197" r="0.567"/>
</g>
<g>
	<circle fill="none" cx="83.055" cy="97.228" r="0.567"/>
</g>
<g>
	<circle fill="none" cx="69.732" cy="92.693" r="0.567"/>
</g>
<g>
	<circle fill="none" cx="74.551" cy="97.228" r="0.567"/>
</g>
<g>
	<circle fill="none" cx="117.07" cy="118.205" r="0.567"/>
</g>
<g>
	<circle fill="none" cx="54.851" cy="118.205" r="0.567"/>
</g>
<g>
	<circle fill="none" cx="142.583" cy="83.48" r="0.567"/>
</g>
<g>
	<circle fill="none" cx="142.3" cy="71.575" r="0.567"/>
</g>
<g>
	<circle fill="none" cx="155.055" cy="102.331" r="1.44"/>
</g>
<g>
	<circle fill="none" cx="162.255" cy="102.331" r="1.44"/>
</g>
<g>
	<circle fill="none" cx="22.96" cy="59.811" r="1.44"/>
</g>
<g>
	<circle fill="none" cx="15.761" cy="59.811" r="1.44"/>
</g>
<g>
	<circle fill="none" cx="8.561" cy="59.811" r="1.44"/>
</g>
<g>
	<circle fill="none" cx="94.394" cy="122.74" r="1.134"/>
</g>
<g>
	<circle fill="none" cx="88.724" cy="122.74" r="1.134"/>
</g>
<g>
	<circle fill="none" cx="83.055" cy="122.74" r="1.134"/>
</g>
<g>
	<circle fill="none" cx="77.386" cy="122.74" r="1.134"/>
</g>
<g>
	<circle fill="none" cx="71.717" cy="122.74" r="1.134"/>
</g>
<g>
	<circle fill="none" cx="66.047" cy="122.74" r="1.134"/>
</g>
<g>
	<circle fill="none" cx="54.709" cy="122.74" r="1.134"/>
</g>
<g>
	<circle fill="none" cx="60.378" cy="122.74" r="1.134"/>
</g>
<g>
	<circle fill="none" cx="94.535" cy="50.74" r="1.134"/>
</g>
<g>
	<circle fill="none" cx="88.866" cy="50.74" r="1.134"/>
</g>
<g>
	<circle fill="none" cx="83.197" cy="50.74" r="1.134"/>
</g>
<g>
	<circle fill="none" cx="77.527" cy="50.74" r="1.134"/>
</g>
<g>
	<circle fill="none" cx="71.858" cy="50.74" r="1.134"/>
</g>
<g>
	<circle fill="none" cx="66.189" cy="50.74" r="1.134"/>
</g>
<g>
	<circle fill="none" cx="54.851" cy="50.74" r="1.134"/>
</g>
<g>
	<circle fill="none" cx="60.52" cy="50.74" r="1.134"/>
</g>
<g>
	<circle fill="none" cx="108" cy="71.149" r="1.134"/>
</g>
<g>
	<circle fill="none" cx="108" cy="76.819" r="1.134"/>
</g>
<g>
	<circle fill="none" cx="108" cy="82.488" r="1.134"/>
</g>
<g>
	<circle fill="none" cx="108" cy="88.157" r="1.134"/>
</g>
<g>
	<circle fill="none" cx="108" cy="99.496" r="1.134"/>
</g>
<g>
	<circle fill="none" cx="108" cy="93.827" r="1.134"/>
</g>
<g>
	<circle fill="none" cx="156.188" cy="156.189" r="4.32"/>
</g>
<g>
	<circle fill="none" cx="14.457" cy="156.189" r="4.32"/>
</g>
<g>
	<circle fill="none" cx="156.188" cy="14.457" r="4.32"/>
</g>
<g>
	<circle fill="none" cx="14.457" cy="14.457" r="4.32"/>
</g>
<g>
	<circle fill="none" cx="147.121" cy="113.103" r="1.375"/>
</g>
<g>
	<circle fill="none" cx="152.788" cy="113.103" r="1.375"/>
</g>
<g>
	<circle fill="none" cx="158.454" cy="113.103" r="1.375"/>
</g>
</svg>
